<svg width="109" height="204" viewBox="0 0 109 204" fill="none" xmlns="http://www.w3.org/2000/svg">
<path d="M27 115H57V137H27V115Z" fill="#16496B"/>
<path opacity="0.1" d="M27 121.666C27 121.666 38.193 123 42 123C45.807 123 57 121.666 57 121.666V116H27V121.666Z" fill="black"/>
<path d="M57 122.7C57 122.7 45.807 124 42 124C38.193 124 27 122.7 27 122.7V100.94C27 92.689 33.716 86 42 86C50.284 86 57 92.689 57 100.94V122.7Z" fill="#C3D9DB"/>
<path d="M38 77H45V85.266C45 86.776 43.723 88 42.148 88H40.852C39.277 88 38 86.776 38 85.266V77Z" fill="#FDB797"/>
<path d="M27 131H38V203H27V131ZM46 131H57V203H46V131Z" fill="#16496B"/>
<path opacity="0.1" d="M38 83.53C40.3 84.156 42.7 84.156 45 83.53V78H38V83.53Z" fill="black"/>
<path d="M42.5 81C51.0604 81 58 74.0604 58 65.5C58 56.9396 51.0604 50 42.5 50C33.9396 50 27 56.9396 27 65.5C27 74.0604 33.9396 81 42.5 81Z" fill="#814E4D"/>
<path d="M42 84C50.2843 84 57 77.2843 57 69C57 60.7157 50.2843 54 42 54C33.7157 54 27 60.7157 27 69C27 77.2843 33.7157 84 42 84Z" fill="#FDB797"/>
<path opacity="0.1" d="M34.3119 61.123C35.1269 61.535 36.0219 61.787 36.9439 61.863C40.7539 62.353 44.6339 61.943 48.2349 60.673C48.8249 62.076 50.2639 63.039 51.7929 63.496C53.3219 63.953 54.9499 63.978 56.5609 63.99C56.9149 64.027 57.2729 63.962 57.5869 63.805C58.3029 63.35 57.9549 62.323 57.5399 61.605L55.4659 58.078C54.8529 57.035 54.2239 55.973 53.2739 55.183C52.0839 54.195 50.5059 53.733 48.9479 53.44C45.2655 52.7532 41.478 52.8719 37.8459 53.788C33.9779 54.778 29.0019 58.105 34.3119 61.123Z" fill="black"/>
<path d="M34.3119 61.123C35.1269 61.535 36.0219 61.787 36.9439 61.863C40.7539 62.353 44.6339 61.943 48.2349 60.673C48.8249 62.076 50.2639 63.039 51.7929 63.496C53.3219 63.953 54.9499 63.978 56.5609 63.99C56.9149 64.027 57.2729 63.962 57.5869 63.805C58.3029 63.35 57.9549 62.323 57.5399 61.605L55.4659 58.078C54.8529 57.035 54.2239 55.973 53.2739 55.183C52.0839 54.195 50.5059 53.733 48.9479 53.44C45.2655 52.7532 41.478 52.8719 37.8459 53.788C33.9779 54.781 29.0019 58.105 34.3119 61.123Z" fill="#814E4D"/>
<path d="M56.5 71C57.3284 71 58 69.8807 58 68.5C58 67.1193 57.3284 66 56.5 66C55.6716 66 55 67.1193 55 68.5C55 69.8807 55.6716 71 56.5 71Z" fill="#FDB797"/>
<path d="M28.5 71C29.3284 71 30 69.8807 30 68.5C30 67.1193 29.3284 66 28.5 66C27.6716 66 27 67.1193 27 68.5C27 69.8807 27.6716 71 28.5 71Z" fill="#FDB797"/>
<path d="M82.5 52C84.433 52 86 50.433 86 48.5C86 46.567 84.433 45 82.5 45C80.567 45 79 46.567 79 48.5C79 50.433 80.567 52 82.5 52Z" fill="#FDB797"/>
<path d="M50 88.284C50 88.284 67.24 78.54 77.85 50L83 53.243C83 53.243 74.473 89.612 53.074 98L50 88.284Z" fill="#C3D9DB"/>
<path d="M3.5 52C5.433 52 7 50.433 7 48.5C7 46.567 5.433 45 3.5 45C1.567 45 0 46.567 0 48.5C0 50.433 1.567 52 3.5 52Z" fill="#FDB797"/>
<path d="M34 88.284C34 88.284 16.761 78.54 6.139 50L1 53.243C1 53.243 9.533 89.612 30.938 98L34 88.284Z" fill="#C3D9DB"/>
<path d="M31.631 199H33.371C35.375 199 37 200.636 37 202.655V204H28V202.655C28 201.685 28.383 200.755 29.064 200.07C29.4 199.731 29.7997 199.462 30.2401 199.279C30.6805 199.095 31.1528 199 31.63 199H31.631ZM51.626 199H53.364C53.8418 198.999 54.3151 199.093 54.7564 199.276C55.1977 199.459 55.5983 199.728 55.935 200.067C56.6182 200.755 57.0011 201.685 57 202.655V204H48V202.655C48 201.686 48.381 200.756 49.061 200.071C49.3966 199.732 49.7961 199.463 50.2364 199.279C50.6766 199.095 51.1489 199 51.626 199Z" fill="#333333"/>
<path opacity="0.7" d="M105.946 28.006C105.471 27.7385 104.937 27.591 104.392 27.5764C103.847 27.5617 103.307 27.6804 102.818 27.922L102.951 27.659C103.387 26.8317 103.486 25.8677 103.227 24.969C102.973 24.0771 102.377 23.3216 101.569 22.867C99.8989 21.949 97.8189 22.592 96.9209 24.305L95.7489 26.523L98.1689 21.94C98.5629 21.195 98.6519 20.32 98.4169 19.507C98.187 18.7007 97.6479 18.0178 96.9169 17.607L96.3409 17.285C95.9838 17.0852 95.5899 16.9595 95.183 16.9157C94.7761 16.8719 94.3645 16.9108 93.9729 17.03C93.5782 17.1519 93.2115 17.3507 92.8939 17.615C92.5764 17.8793 92.3144 18.2039 92.1229 18.57L97.7999 7.82703C98.4292 6.63196 98.5715 5.23968 98.1969 3.94203C97.8306 2.65389 96.9701 1.56267 95.8029 0.906027L95.4179 0.693027C95.0231 0.470135 94.5873 0.329527 94.1366 0.279685C93.686 0.229843 93.2299 0.271801 92.7959 0.403027C92.3585 0.537343 91.9521 0.757115 91.6002 1.04961C91.2483 1.34211 90.958 1.70152 90.7459 2.10703L81.9179 18.816L68.1689 44.838L81.5539 52.301C83.1147 53.1772 84.8366 53.7286 86.6159 53.9219C88.3953 54.1153 90.1955 53.9466 91.9079 53.426C95.3679 52.374 98.2779 49.951 99.9979 46.693L104.918 37.379L107.338 32.795C107.772 31.9669 107.869 31.0029 107.608 30.105C107.353 29.2135 106.755 28.459 105.946 28.006Z" fill="url(#paint0_linear_434_32)"/>
<path d="M91.0831 22.202L91.1251 22.224L93.2951 18.227C93.9991 16.928 95.5851 16.426 96.8351 17.104L98.4581 17.985C99.7081 18.665 100.151 20.267 99.4471 21.565L98.8991 22.575C99.7851 21.844 101.034 21.67 102.073 22.234L103.22 22.856C104.602 23.606 105.091 25.378 104.312 26.814L104.24 26.947C104.866 26.8291 105.513 26.9305 106.073 27.234L107.22 27.856C108.602 28.606 109.091 30.378 108.312 31.813L105.43 37.125L99.7531 46.536C99.0798 47.7772 98.1685 48.8736 97.0714 49.7625C95.9744 50.6515 94.7129 51.3156 93.3591 51.717C90.6251 52.527 87.6821 52.217 85.1791 50.855L70.0171 42.627L82.2981 19.521L91.4741 2.61502C92.2021 1.27302 93.9121 0.79402 95.2941 1.54402L97.0871 2.51602C99.0831 3.60002 99.8491 6.05002 98.7971 7.98802L91.0831 22.202Z" fill="#04B000"/>
<path d="M96.3801 41.3194C95.8532 42.2902 96.213 43.5043 97.1838 44.0312C98.1547 44.5581 99.3688 44.1982 99.8957 43.2274L105.62 32.6806C106.147 31.7098 105.787 30.4957 104.816 29.9688C103.845 29.4419 102.631 29.8018 102.104 30.7726L96.3801 41.3194Z" stroke="white"/>
<path d="M92.3801 35.3194C91.8532 36.2902 92.213 37.5043 93.1838 38.0312C94.1547 38.5581 95.3688 38.1982 95.8957 37.2274L101.62 26.6806C102.147 25.7098 101.787 24.4957 100.816 23.9688C99.8451 23.4419 98.631 23.8018 98.1041 24.7726L92.3801 35.3194Z" stroke="white"/>
<path d="M87.3801 30.3194C86.8532 31.2902 87.213 32.5043 88.1838 33.0312C89.1547 33.5581 90.3688 33.1982 90.8957 32.2274L96.6197 21.6806C97.1466 20.7098 96.7867 19.4957 95.8159 18.9688C94.8451 18.4419 93.631 18.8018 93.1041 19.7726L87.3801 30.3194Z" stroke="white"/>
<path d="M86.3801 17.3194C85.8532 18.2902 86.213 19.5043 87.1838 20.0312C88.1547 20.5581 89.3688 20.1982 89.8957 19.2274L95.6197 8.68064C96.1466 7.70985 95.7867 6.49572 94.8159 5.96883C93.8451 5.44195 92.631 5.80182 92.1041 6.77262L86.3801 17.3194Z" stroke="white"/>
<defs>
<linearGradient id="paint0_linear_434_32" x1="32369.6" y1="13865.2" x2="32369.6" y2="2902.23" gradientUnits="userSpaceOnUse">
<stop stop-color="#808080" stop-opacity="0.25"/>
<stop offset="0.54" stop-color="#808080" stop-opacity="0.12"/>
<stop offset="1" stop-color="#808080" stop-opacity="0.1"/>
</linearGradient>
</defs>
</svg>
