<svg xmlns="http://www.w3.org/2000/svg" width="109" height="204" viewBox="0 0 109 204">
    <defs>
        <linearGradient id="a" x1="81605%" x2="81605%" y1="25800%" y2="5400%">
            <stop offset="0%" stop-color="gray" stop-opacity=".25"/>
            <stop offset="54%" stop-color="gray" stop-opacity=".12"/>
            <stop offset="100%" stop-color="gray" stop-opacity=".1"/>
        </linearGradient>
    </defs>
    <g fill="none" fill-rule="evenodd" transform="translate(-19 -4)">
        <path d="M0 0h128v210H0z"/>
        <path fill="#DFA72F" fill-rule="nonzero" d="M46 119h30v22H46z"/>
        <path fill="#000" fill-rule="nonzero" d="M46 125.666S57.193 127 61 127c3.807 0 15-1.334 15-1.334V120H46v5.666z" opacity=".1"/>
        <path fill="#C3D9DB" fill-rule="nonzero" d="M76 126.7S64.807 128 61 128c-3.807 0-15-1.3-15-1.3v-21.76C46 96.689 52.716 90 61 90c8.284 0 15 6.689 15 14.94v21.76z"/>
        <path fill="#FDB797" fill-rule="nonzero" d="M57 81h7v8.266C64 90.776 62.723 92 61.148 92h-1.296C58.277 92 57 90.776 57 89.266V81z"/>
        <path fill="#DFA72F" fill-rule="nonzero" d="M46 135h11v72H46zM65 135h11v72H65z"/>
        <path fill="#000" fill-rule="nonzero" d="M57 87.53c2.3.626 4.7.626 7 0V82h-7v5.53z" opacity=".1"/>
        <circle cx="61.5" cy="69.5" r="15.5" fill="#814E4D" fill-rule="nonzero"/>
        <circle cx="61" cy="73" r="15" fill="#FDB797" fill-rule="nonzero"/>
        <path fill="#000" fill-rule="nonzero" d="M53.312 65.123c.815.412 1.71.664 2.632.74 3.81.49 7.69.08 11.291-1.19.59 1.403 2.029 2.366 3.558 2.823 1.529.457 3.157.482 4.768.494.354.037.712-.028 1.026-.185.716-.455.368-1.482-.047-2.2l-2.074-3.527c-.613-1.043-1.242-2.105-2.192-2.895-1.19-.988-2.768-1.45-4.326-1.743a25.945 25.945 0 0 0-11.102.348c-3.868.99-8.844 4.317-3.534 7.335z" opacity=".1"/>
        <path fill="#814E4D" fill-rule="nonzero" d="M53.312 65.123c.815.412 1.71.664 2.632.74 3.81.49 7.69.08 11.291-1.19.59 1.403 2.029 2.366 3.558 2.823 1.529.457 3.157.482 4.768.494.354.037.712-.028 1.026-.185.716-.455.368-1.482-.047-2.2l-2.074-3.527c-.613-1.043-1.242-2.105-2.192-2.895-1.19-.988-2.768-1.45-4.326-1.743a25.945 25.945 0 0 0-11.102.348c-3.868.993-8.844 4.317-3.534 7.335z"/>
        <ellipse cx="75.5" cy="72.5" fill="#FDB797" fill-rule="nonzero" rx="1.5" ry="2.5"/>
        <ellipse cx="47.5" cy="72.5" fill="#FDB797" fill-rule="nonzero" rx="1.5" ry="2.5"/>
        <circle cx="101.5" cy="52.5" r="3.5" fill="#FDB797" fill-rule="nonzero"/>
        <path fill="#814E4D" fill-rule="nonzero" d="M61.756 78.665S53.404 81.662 47 75c0 0 .522 2.209 1.41 4.879 2.978 5.807 9.193 8.992 15.442 7.913 6.25-1.079 11.138-6.18 12.148-12.675-1.498.859-12.46 6.328-14.244 3.548zm-.321 3.997c-1.592 0-2.897-1.265-2.897-1.997 0-.732 1.305-.667 2.886-.667 1.582 0 2.887-.07 2.887.667 0 .737-1.282 1.997-2.876 1.997z"/>
        <path fill="#C3D9DB" fill-rule="nonzero" d="M69 92.284S86.24 82.54 96.85 54l5.15 3.243S93.473 93.612 72.074 102L69 92.284z"/>
        <circle cx="22.5" cy="52.5" r="3.5" fill="#FDB797" fill-rule="nonzero"/>
        <path fill="#C3D9DB" fill-rule="nonzero" d="M53 92.284S35.761 82.54 25.139 54L20 57.243S28.533 93.612 49.938 102L53 92.284z"/>
        <path fill="#333" fill-rule="nonzero" d="M50.631 203h1.74c2.004 0 3.629 1.636 3.629 3.655V208h-9v-1.345c0-.97.383-1.9 1.064-2.585A3.616 3.616 0 0 1 50.63 203zM70.626 203h1.738a3.612 3.612 0 0 1 2.571 1.067A3.667 3.667 0 0 1 76 206.655V208h-9v-1.345c0-.969.381-1.899 1.061-2.584A3.612 3.612 0 0 1 70.626 203z"/>
        <path fill="url(#a)" fill-rule="nonzero" d="M37.946 28.006a3.35 3.35 0 0 0-3.128-.084l.133-.263a3.619 3.619 0 0 0 .276-2.69 3.515 3.515 0 0 0-1.658-2.102c-1.67-.918-3.75-.275-4.648 1.438l-1.172 2.218 2.42-4.583c.394-.745.483-1.62.248-2.433a3.18 3.18 0 0 0-1.5-1.9l-.576-.322a3.037 3.037 0 0 0-2.368-.255 3.129 3.129 0 0 0-1.85 1.54L29.8 7.827a5.227 5.227 0 0 0 .397-3.885A5.077 5.077 0 0 0 27.803.906l-.385-.213a3.357 3.357 0 0 0-2.622-.29 3.459 3.459 0 0 0-2.05 1.704l-8.828 16.709L.169 44.838l13.385 7.463a13.268 13.268 0 0 0 10.354 1.125c3.46-1.052 6.37-3.475 8.09-6.733l4.92-9.314 2.42-4.584a3.619 3.619 0 0 0 .27-2.69 3.514 3.514 0 0 0-1.662-2.099z" opacity=".7" transform="translate(87 4)"/>
        <path fill="#2F67DF" fill-rule="nonzero" d="M110.083 26.202l.042.022 2.17-3.997c.704-1.299 2.29-1.801 3.54-1.123l1.623.881c1.25.68 1.693 2.282.989 3.58l-.548 1.01c.886-.731 2.135-.905 3.174-.341l1.147.622c1.382.75 1.871 2.522 1.092 3.958l-.072.133a2.77 2.77 0 0 1 1.833.287l1.147.622c1.382.75 1.871 2.522 1.092 3.957l-2.882 5.312-.44-.239-5.237 9.65a10.751 10.751 0 0 1-6.394 5.181c-2.734.81-5.677.5-8.18-.862l-15.162-8.228 12.481-22.997-.2-.109 9.176-16.906c.728-1.342 2.438-1.821 3.82-1.071l1.793.972c1.996 1.084 2.762 3.534 1.71 5.472l-7.714 14.214z"/>
        <rect width="4" height="16" x="118" y="33" stroke="#FFF" rx="2" transform="rotate(-151.51 120 41)"/>
        <rect width="4" height="16" x="114" y="27" stroke="#FFF" rx="2" transform="rotate(-151.51 116 35)"/>
        <rect width="4" height="16" x="109" y="22" stroke="#FFF" rx="2" transform="rotate(-151.51 111 30)"/>
        <rect width="4" height="16" x="108" y="9" stroke="#FFF" rx="2" transform="rotate(-151.51 110 17)"/>
    </g>
</svg>
