<?xml version="1.0" encoding="UTF-8" standalone="no"?>
<!DOCTYPE svg PUBLIC "-//W3C//DTD SVG 1.1//EN" "http://www.w3.org/Graphics/SVG/1.1/DTD/svg11.dtd">
<!-- Created with Vectornator (http://vectornator.io/) -->
<svg height="100%" stroke-miterlimit="10" style="fill-rule:nonzero;clip-rule:evenodd;stroke-linecap:round;stroke-linejoin:round;" version="1.1" viewBox="0 0 1200 560" width="100%" xml:space="preserve" xmlns="http://www.w3.org/2000/svg" xmlns:vectornator="http://vectornator.io" xmlns:xlink="http://www.w3.org/1999/xlink">
<defs/>
<g id="Ohne-Titel" vectornator:layerName="Ohne Titel">
<g opacity="1" vectornator:layerName="Ebene 1">
<path d="M87.7526 100.824L351.324 227.905L244.072 510.179L87.7526 100.824Z" fill="#2b9c97" fill-rule="nonzero" opacity="1" stroke="none" vectornator:layerName="path"/>
<path d="M85.9211 98.8303L244.073 512.987L352.585 227.402L85.9211 98.8303ZM89.5841 102.817L350.063 228.407L244.069 507.368L89.5841 102.817Z" fill="#2b9c97" fill-rule="nonzero" opacity="1" stroke="none" vectornator:layerName="path"/>
<path d="M166.077 213.607L445.376 286.991L244.567 510.939L166.077 213.607Z" fill="#ec9a35" fill-rule="nonzero" opacity="1" stroke="none" vectornator:layerName="path"/>
<path d="M164.672 212.204L244.073 512.987L447.213 286.44L164.672 212.204ZM167.481 215.01L443.538 287.542L245.06 508.891L167.481 215.01Z" fill="#ec9a35" fill-rule="nonzero" opacity="1" stroke="none" vectornator:layerName="path"/>
<path d="M35.9884 224.332L234.259 295.01L242.94 509.722L35.9884 224.332Z" fill="#01669c" fill-rule="nonzero" opacity="1" stroke="none" vectornator:layerName="path"/>
<path d="M33.2843 222.306L244.073 512.987L235.231 294.295L33.2843 222.306ZM38.6923 226.357L233.287 295.725L241.807 506.456L38.6923 226.357Z" fill="#01669c" fill-rule="nonzero" opacity="1" stroke="none" vectornator:layerName="path"/>
<g opacity="1" vectornator:layerName="path">
<clipPath clip-rule="nonzero" id="ClipPath">
<path d="M0 0L1200 0L1200 560L0 560L0 0Z"/>
</clipPath>
<g clip-path="url(#ClipPath)">
<path d="M229.134 120.724C225.412 120.724 221.733 120.078 218.199 118.804C201.471 112.773 192.767 94.2569 198.798 77.5289C203.395 64.7759 215.588 56.2069 229.138 56.2069C232.859 56.2069 236.539 56.8529 240.073 58.1279C248.176 61.0489 254.657 66.9509 258.322 74.7469C261.986 82.5429 262.395 91.2989 259.474 99.4019C254.877 112.155 242.683 120.724 229.134 120.724Z" fill="#2b9c97" fill-rule="nonzero" opacity="1" stroke="none" vectornator:layerName="path"/>
<path d="M229.138 55.7073C215.723 55.7073 203.139 64.0123 198.328 77.3593C192.194 94.3743 201.015 113.14 218.03 119.274C221.698 120.596 225.448 121.224 229.134 121.224C242.549 121.224 255.133 112.919 259.945 99.5723C266.079 82.5573 257.258 63.7903 240.243 57.6573C236.575 56.3343 232.825 55.7073 229.138 55.7073M229.138 56.7073C232.802 56.7073 236.424 57.3433 239.904 58.5973C247.882 61.4733 254.262 67.2843 257.87 74.9593C261.477 82.6343 261.88 91.2543 259.004 99.2323C254.478 111.788 242.474 120.224 229.134 120.224C225.471 120.224 221.849 119.588 218.369 118.333C201.9 112.396 193.331 94.1673 199.268 77.6983C203.794 65.1433 215.798 56.7073 229.138 56.7073" fill="#2b9c97" fill-rule="nonzero" opacity="1" stroke="none" vectornator:layerName="path"/>
<path d="M403.813 257.115C400.091 257.115 396.412 256.469 392.878 255.195C376.149 249.164 367.446 230.648 373.477 213.92C378.074 201.167 390.266 192.598 403.816 192.598C407.538 192.598 411.217 193.244 414.751 194.519C431.48 200.549 440.183 219.065 434.153 235.793C429.556 248.546 417.362 257.115 403.813 257.115Z" fill="#ec9a35" fill-rule="nonzero" opacity="1" stroke="none" vectornator:layerName="path"/>
<path d="M403.817 192.098C390.402 192.098 377.818 200.403 373.007 213.75C366.873 230.765 375.694 249.531 392.709 255.665C396.377 256.987 400.127 257.615 403.813 257.615C417.228 257.615 429.812 249.31 434.624 235.963C440.758 218.947 431.937 200.181 414.922 194.048C411.254 192.725 407.504 192.098 403.817 192.098M403.817 193.098C407.481 193.098 411.103 193.734 414.583 194.988C422.561 197.864 428.941 203.675 432.549 211.35C436.156 219.025 436.559 227.645 433.683 235.623C429.157 248.179 417.153 256.615 403.813 256.615C400.15 256.615 396.528 255.979 393.048 254.724C376.579 248.787 368.01 230.558 373.947 214.089C378.473 201.534 390.477 193.098 403.817 193.098" fill="#ec9a35" fill-rule="nonzero" opacity="1" stroke="none" vectornator:layerName="path"/>
<path d="M61.6689 209.027C57.9469 209.027 54.2679 208.381 50.7339 207.107C42.6299 204.186 36.1489 198.284 32.4849 190.488C28.8199 182.692 28.4109 173.936 31.3329 165.832C35.9299 153.079 48.1229 144.51 61.6719 144.51C65.3939 144.51 69.0729 145.156 72.6069 146.431C89.3359 152.461 98.0389 170.977 92.0089 187.705C87.4119 200.458 75.2179 209.027 61.6699 209.027L61.6689 209.027Z" fill="#01669c" fill-rule="nonzero" opacity="1" stroke="none" vectornator:layerName="path"/>
<path d="M61.6723 144.01C48.2573 144.01 35.6733 152.315 30.8623 165.662C24.7283 182.677 33.5493 201.443 50.5643 207.577C54.2323 208.899 57.9823 209.527 61.6693 209.527C75.0843 209.527 87.6673 201.222 92.4793 187.875C98.6133 170.86 89.7923 152.094 72.7763 145.96C69.1093 144.637 65.3593 144.01 61.6723 144.01M61.6723 145.01C65.3363 145.01 68.9583 145.646 72.4373 146.9C88.9073 152.838 97.4753 171.066 91.5383 187.536C87.0123 200.091 75.0083 208.527 61.6693 208.527C58.0053 208.527 54.3833 207.891 50.9033 206.636C42.9253 203.76 36.5453 197.949 32.9373 190.275C29.3293 182.6 28.9263 173.979 31.8023 166.001C36.3283 153.446 48.3323 145.01 61.6723 145.01" fill="#01669c" fill-rule="nonzero" opacity="1" stroke="none" vectornator:layerName="path"/>
<path d="M493.617 115.349C493.617 75.2041 520.627 52.0801 550.966 52.0801C566.691 52.0801 579.271 59.1101 587.596 67.8051L572.426 85.1941C566.506 79.6441 560.216 76.8701 551.706 76.8701C535.796 76.8701 523.032 90.9291 523.032 114.239C523.032 138.289 534.316 152.163 551.151 152.163C560.956 152.163 568.541 148.278 574.276 142.173L589.261 159.193C578.716 171.218 565.396 176.953 550.226 176.953C519.517 176.953 493.617 156.048 493.617 115.349" fill="#000101" fill-rule="nonzero" opacity="1" stroke="none" vectornator:layerName="path"/>
<path d="M607.021 54.3L635.881 54.3L635.881 174.733L607.021 174.733L607.021 54.3Z" fill="#000101" fill-rule="nonzero" opacity="1" stroke="none" vectornator:layerName="path"/>
<path d="M687.125 78.3496L654.381 78.3496L654.381 54.2996L748.544 54.2996L748.544 78.3496L715.8 78.3496L715.8 174.734L687.125 174.734L687.125 78.3496Z" fill="#000101" fill-rule="nonzero" opacity="1" stroke="none" vectornator:layerName="path"/>
<path d="M767.044 54.3L795.903 54.3L795.903 174.733L767.044 174.733L767.044 54.3Z" fill="#000101" fill-rule="nonzero" opacity="1" stroke="none" vectornator:layerName="path"/>
<path d="M816.069 157.344L868.238 78.3495L821.064 78.3495L821.064 54.2995L903.572 54.2995L903.572 71.5045L851.589 150.684L903.943 150.684L903.943 174.734L816.069 174.734L816.069 157.344Z" fill="#000101" fill-rule="nonzero" opacity="1" stroke="none" vectornator:layerName="path"/>
<path d="M923.922 54.2998L1000.14 54.2998L1000.14 78.3498L952.782 78.3498L952.782 100.919L993.297 100.919L993.297 124.969L952.782 124.969L952.782 150.684L1001.99 150.684L1001.99 174.733L923.922 174.733L923.922 54.2998Z" fill="#000101" fill-rule="nonzero" opacity="1" stroke="none" vectornator:layerName="path"/>
<path d="M1025.67 54.2998L1055.46 54.2998L1085.05 112.019C1089.31 120.159 1093.19 129.779 1096.89 139.214L1097.63 139.214C1096.15 126.264 1093.93 109.059 1093.93 94.8138L1093.93 54.2998L1121.13 54.2998L1121.13 174.733L1091.53 174.733L1061.75 117.014C1057.68 108.874 1053.79 99.2538 1050.09 89.8198L1049.35 89.8198C1050.83 103.139 1053.05 119.789 1053.05 134.219L1053.05 174.733L1025.67 174.733L1025.67 54.2998Z" fill="#000101" fill-rule="nonzero" opacity="1" stroke="none" vectornator:layerName="path"/>
<path d="M491.582 329.378L506.752 310.693C515.262 318.093 526.917 322.163 537.091 322.163C548.006 322.163 553.001 318.093 553.001 311.618C553.001 304.588 546.526 302.368 535.981 298.113L520.626 291.454C507.862 286.459 496.207 275.914 496.207 258.524C496.207 238.359 514.337 222.08 539.866 222.08C554.296 222.08 568.541 227.444 578.901 237.065L563.916 255.749C555.776 250.014 547.451 246.869 539.866 246.869C530.986 246.869 525.251 250.384 525.251 256.674C525.251 263.704 532.836 266.109 543.566 270.364L558.551 276.469C573.536 282.389 582.416 292.379 582.416 309.213C582.416 329.378 565.581 346.953 536.536 346.953C520.257 346.953 504.162 341.403 491.582 329.378" fill="#000101" fill-rule="nonzero" opacity="1" stroke="none" vectornator:layerName="path"/>
<path d="M596.847 285.349C596.847 245.204 623.857 222.08 654.196 222.08C669.921 222.08 682.501 229.11 690.826 237.805L675.656 255.195C669.736 249.644 663.446 246.87 654.936 246.87C639.026 246.87 626.262 260.929 626.262 284.239C626.262 308.288 637.546 322.163 654.381 322.163C664.186 322.163 671.771 318.279 677.506 312.174L692.491 329.194C681.946 341.218 668.626 346.953 653.456 346.953C622.747 346.953 596.847 326.048 596.847 285.349" fill="#000101" fill-rule="nonzero" opacity="1" stroke="none" vectornator:layerName="path"/>
<path d="M710.25 224.3L739.11 224.3L739.11 344.733L710.25 344.733L710.25 224.3Z" fill="#000101" fill-rule="nonzero" opacity="1" stroke="none" vectornator:layerName="path"/>
<path d="M766.861 224.3L843.08 224.3L843.08 248.35L795.72 248.35L795.72 270.919L836.235 270.919L836.235 294.969L795.72 294.969L795.72 320.684L844.93 320.684L844.93 344.733L766.861 344.733L766.861 224.3Z" fill="#000101" fill-rule="nonzero" opacity="1" stroke="none" vectornator:layerName="path"/>
<path d="M868.608 224.3L898.393 224.3L927.992 282.019C932.247 290.159 936.132 299.779 939.832 309.214L940.572 309.214C939.092 296.264 936.872 279.059 936.872 264.814L936.872 224.3L964.066 224.3L964.066 344.733L934.467 344.733L904.683 287.014C900.612 278.874 896.728 269.254 893.027 259.82L892.288 259.82C893.768 273.139 895.987 289.789 895.987 304.219L895.987 344.733L868.608 344.733L868.608 224.3Z" fill="#000101" fill-rule="nonzero" opacity="1" stroke="none" vectornator:layerName="path"/>
<path d="M986.452 285.349C986.452 245.204 1013.46 222.08 1043.8 222.08C1059.53 222.08 1072.11 229.11 1080.43 237.805L1065.26 255.195C1059.34 249.644 1053.05 246.87 1044.54 246.87C1028.63 246.87 1015.87 260.929 1015.87 284.239C1015.87 308.288 1027.15 322.163 1043.99 322.163C1053.79 322.163 1061.38 318.279 1067.11 312.174L1082.1 329.194C1071.55 341.218 1058.23 346.953 1043.06 346.953C1012.35 346.953 986.452 326.048 986.452 285.349" fill="#000101" fill-rule="nonzero" opacity="1" stroke="none" vectornator:layerName="path"/>
<path d="M1099.86 224.3L1176.07 224.3L1176.07 248.35L1128.72 248.35L1128.72 270.919L1169.23 270.919L1169.23 294.969L1128.72 294.969L1128.72 320.684L1177.92 320.684L1177.92 344.733L1099.86 344.733L1099.86 224.3Z" fill="#000101" fill-rule="nonzero" opacity="1" stroke="none" vectornator:layerName="path"/>
<path d="M491.582 497.344L543.751 418.35L496.577 418.35L496.577 394.301L579.086 394.301L579.086 411.505L527.102 490.684L579.456 490.684L579.456 514.734L491.582 514.734L491.582 497.344Z" fill="#000101" fill-rule="nonzero" opacity="1" stroke="none" vectornator:layerName="path"/>
<path d="M597.032 458.124L597.032 394.3L625.707 394.3L625.707 461.269C625.707 484.208 632.552 492.164 645.687 492.164C659.006 492.164 666.221 484.208 666.221 461.269L666.221 394.3L693.786 394.3L693.786 458.124C693.786 498.824 677.691 516.954 645.687 516.954C613.682 516.954 597.032 498.824 597.032 458.124" fill="#000101" fill-rule="nonzero" opacity="1" stroke="none" vectornator:layerName="path"/>
<path d="M762.975 449.614C776.664 449.614 784.064 443.694 784.064 432.224C784.064 420.754 776.664 417.054 762.975 417.054L749.84 417.054L749.84 449.614L762.975 449.614ZM720.98 394.3L765.195 394.3C790.725 394.3 812.184 403.18 812.184 432.224C812.184 449.799 803.859 461.084 791.464 467.004L818.289 514.733L786.1 514.733L763.9 472.368L749.84 472.368L749.84 514.733L720.98 514.733L720.98 394.3Z" fill="#000101" fill-rule="nonzero" opacity="1" stroke="none" vectornator:layerName="path"/>
<path d="M835.31 394.3L864.169 394.3L864.169 514.733L835.31 514.733L835.31 394.3Z" fill="#000101" fill-rule="nonzero" opacity="1" stroke="none" vectornator:layerName="path"/>
<path d="M886.37 455.349C886.37 415.204 913.38 392.08 943.72 392.08C959.444 392.08 972.024 399.11 980.349 407.805L965.179 425.195C959.259 419.644 952.97 416.87 944.459 416.87C928.55 416.87 915.785 430.929 915.785 454.239C915.785 478.288 927.07 492.163 943.904 492.163C953.709 492.163 961.294 488.279 967.029 482.174L982.014 499.194C971.469 511.218 958.149 516.953 942.979 516.953C912.27 516.953 886.37 496.048 886.37 455.349" fill="#000101" fill-rule="nonzero" opacity="1" stroke="none" vectornator:layerName="path"/>
<path d="M999.773 394.3L1028.63 394.3L1028.63 440.179L1068.41 440.179L1068.41 394.3L1097.08 394.3L1097.08 514.733L1068.41 514.733L1068.41 465.154L1028.63 465.154L1028.63 514.733L999.773 514.733L999.773 394.3Z" fill="#000101" fill-rule="nonzero" opacity="1" stroke="none" vectornator:layerName="path"/>
</g>
</g>
</g>
</g>
</svg>
