<svg width="109" height="204" viewBox="0 0 109 204" fill="none" xmlns="http://www.w3.org/2000/svg">
<g clip-path="url(#clip0_435_2)">
<path d="M27.0007 115H57.0007V137H27.0007V115Z" fill="#16496B"/>
<path opacity="0.1" d="M27.0007 121.666C27.0007 121.666 38.1937 123 42.0007 123C45.8077 123 57.0007 121.666 57.0007 121.666V116H27.0007V121.666Z" fill="black"/>
<path d="M57.0007 122.7C57.0007 122.7 45.8077 124 42.0007 124C38.1937 124 27.0007 122.7 27.0007 122.7V100.94C27.0007 92.689 33.7167 86 42.0007 86C50.2847 86 57.0007 92.689 57.0007 100.94V122.7Z" fill="#C3D9DB"/>
<path d="M38.0007 77H45.0007V85.266C45.0007 86.776 43.7237 88 42.1487 88H40.8527C39.2777 88 38.0007 86.776 38.0007 85.266V77Z" fill="#FDB797"/>
<path d="M27.0007 131H38.0007V203H27.0007V131ZM46.0007 131H57.0007V203H46.0007V131Z" fill="#16496B"/>
<path opacity="0.1" d="M38.0007 83.53C40.3007 84.156 42.7007 84.156 45.0007 83.53V78H38.0007V83.53Z" fill="black"/>
<path d="M42.5007 81C51.0611 81 58.0007 74.0604 58.0007 65.5C58.0007 56.9396 51.0611 50 42.5007 50C33.9403 50 27.0007 56.9396 27.0007 65.5C27.0007 74.0604 33.9403 81 42.5007 81Z" fill="#814E4D"/>
<path d="M42.0007 84C50.285 84 57.0007 77.2843 57.0007 69C57.0007 60.7157 50.285 54 42.0007 54C33.7165 54 27.0007 60.7157 27.0007 69C27.0007 77.2843 33.7165 84 42.0007 84Z" fill="#FDB797"/>
<path opacity="0.1" d="M34.3126 61.123C35.1276 61.535 36.0226 61.787 36.9446 61.863C40.7546 62.353 44.6346 61.943 48.2356 60.673C48.8256 62.076 50.2646 63.039 51.7936 63.496C53.3226 63.953 54.9506 63.978 56.5616 63.99C56.9156 64.027 57.2736 63.962 57.5876 63.805C58.3036 63.35 57.9556 62.323 57.5406 61.605L55.4666 58.078C54.8536 57.035 54.2246 55.973 53.2746 55.183C52.0846 54.195 50.5066 53.733 48.9486 53.44C45.2662 52.7532 41.4788 52.8719 37.8466 53.788C33.9786 54.778 29.0026 58.105 34.3126 61.123Z" fill="black"/>
<path d="M34.3126 61.123C35.1276 61.535 36.0226 61.787 36.9446 61.863C40.7546 62.353 44.6346 61.943 48.2356 60.673C48.8256 62.076 50.2646 63.039 51.7936 63.496C53.3226 63.953 54.9506 63.978 56.5616 63.99C56.9156 64.027 57.2736 63.962 57.5876 63.805C58.3036 63.35 57.9556 62.323 57.5406 61.605L55.4666 58.078C54.8536 57.035 54.2246 55.973 53.2746 55.183C52.0846 54.195 50.5066 53.733 48.9486 53.44C45.2662 52.7532 41.4788 52.8719 37.8466 53.788C33.9786 54.781 29.0026 58.105 34.3126 61.123Z" fill="#814E4D"/>
<path d="M56.5007 71C57.3292 71 58.0007 69.8807 58.0007 68.5C58.0007 67.1193 57.3292 66 56.5007 66C55.6723 66 55.0007 67.1193 55.0007 68.5C55.0007 69.8807 55.6723 71 56.5007 71Z" fill="#FDB797"/>
<path d="M28.5007 71C29.3292 71 30.0007 69.8807 30.0007 68.5C30.0007 67.1193 29.3292 66 28.5007 66C27.6723 66 27.0007 67.1193 27.0007 68.5C27.0007 69.8807 27.6723 71 28.5007 71Z" fill="#FDB797"/>
<path d="M82.5007 53C84.986 53 87.0007 50.9853 87.0007 48.5C87.0007 46.0147 84.986 44 82.5007 44C80.0155 44 78.0007 46.0147 78.0007 48.5C78.0007 50.9853 80.0155 53 82.5007 53Z" fill="#FDB797"/>
<path d="M50.0007 88.284C50.0007 88.284 67.2407 78.54 77.8507 50L83.0007 53.243C83.0007 53.243 74.4737 89.612 53.0747 98L50.0007 88.284Z" fill="#C3D9DB"/>
<path d="M19.5 135C21.433 135 23 133.433 23 131.5C23 129.567 21.433 128 19.5 128C17.567 128 16 129.567 16 131.5C16 133.433 17.567 135 19.5 135Z" fill="#FDB797"/>
<path d="M34.8684 101.5C33.8188 102.846 21.801 99.185 22.0501 129.133L16.3947 129.29C16.3947 129.29 15.9348 89.3717 34.8684 88.8463V101.5Z" fill="#C3D9DB"/>
<path d="M31.6317 199H33.3717C35.3757 199 37.0007 200.636 37.0007 202.655V204H28.0007V202.655C28.0007 201.685 28.3837 200.755 29.0647 200.07C29.4007 199.731 29.8004 199.462 30.2408 199.279C30.6812 199.095 31.1536 199 31.6307 199H31.6317ZM51.6267 199H53.3647C53.8425 198.999 54.3158 199.093 54.7571 199.276C55.1985 199.459 55.5991 199.728 55.9357 200.067C56.6189 200.755 57.0018 201.685 57.0007 202.655V204H48.0007V202.655C48.0007 201.686 48.3817 200.756 49.0617 200.071C49.3974 199.732 49.7968 199.463 50.2371 199.279C50.6773 199.095 51.1496 199 51.6267 199Z" fill="#333333"/>
<path d="M82.5 37V54" stroke="#969696" stroke-width="3"/>
<path d="M107 21.9969L94.2522 43.997L68.7525 44L56 22.0031L68.7471 0.00315807L94.2468 0L107 21.9969Z" fill="#C5202E"/>
<path d="M92.7476 3L104 21.9972L92.7524 40.9973L70.2524 41L59 22.0028L70.2476 3.00268L92.7476 3Z" stroke="white" stroke-width="3"/>
</g>
<defs>
<clipPath id="clip0_435_2">
<rect width="109" height="204" fill="white"/>
</clipPath>
</defs>
</svg>
