<svg xmlns="http://www.w3.org/2000/svg" viewBox="0 0 146.91 146.91"><defs><style>.cls-1{fill:#fff;opacity:0.9;}.cls-2,.cls-3,.cls-4{fill:none;}.cls-2,.cls-4{stroke:#fff;}.cls-2{stroke-miterlimit:10;stroke-width:0.5px;}.cls-4{stroke-linecap:round;stroke-linejoin:round;}</style></defs><title>Artboard 37 copy 16</title><g id="Layer_1" data-name="Layer 1"><path class="cls-1" d="M73.46,0a73.46,73.46,0,1,0,73.45,73.46A73.54,73.54,0,0,0,73.46,0Zm0,142.91a69.46,69.46,0,1,1,69.45-69.45A69.45,69.45,0,0,1,73.46,142.91Z"/><path class="cls-2" d="M73.46,136A62.51,62.51,0,1,1,136,73.46,62.51,62.51,0,0,1,73.46,136Z"/><rect class="cls-3" x="33.96" y="33.96" width="78.99" height="78.99"/><path class="cls-4" d="M73.46,39.25A34.2,34.2,0,0,0,46.86,95c-1.67,8.29-7.25,15.68-7.32,15.76a1.56,1.56,0,0,0-.2,1.43,1.07,1.07,0,0,0,1,.79c8.86,0,15.51-5.23,18.79-8.45A34.2,34.2,0,1,0,73.46,39.25Zm-.61,52.57a5,5,0,1,1,5-5A5,5,0,0,1,72.85,91.82Zm4.32-14.19v.15a1.3,1.3,0,0,1-1.3,1.29h-6a1.3,1.3,0,0,1-1.3-1.29v-.44c0-4.43,3.36-6.2,5.9-7.63C76.61,68.49,78,67.66,78,66c0-2.13-2.73-3.56-4.94-3.56-2.94,0-4.26,1.42-6.19,3.87a1.29,1.29,0,0,1-1.8.23l-3.75-2.84A1.31,1.31,0,0,1,61,62c3-4.4,6.7-6.88,12.59-6.88,6.09,0,12.58,4.75,12.58,11C86.15,74.43,77.17,74.56,77.17,77.63Z"/></g></svg>