<svg id="Layer_1" data-name="Layer 1" xmlns="http://www.w3.org/2000/svg" viewBox="0 0 512 512"><defs><style>.cls-1{fill:#ea1c2d;}.cls-2{fill:#fff;}.cls-3{fill:none;stroke:#fff;stroke-linecap:round;stroke-miterlimit:10;stroke-width:1.31px;}</style></defs><title>1</title><rect class="cls-1" width="512" height="512"/><path class="cls-2" d="M394.31,244.28a14.17,14.17,0,1,1,14.18,14.17,14.18,14.18,0,0,1-14.18-14.17"/><path class="cls-2" d="M425,263.92a18.89,18.89,0,0,1,17.15,18.82V322a5.5,5.5,0,0,1-11,0V288.29c0-1.27-.36-3-2.68-3-1.6,0-1.93,1.7-2,2.78V389.23a7.9,7.9,0,1,1-15.8,0V331a2.14,2.14,0,0,0-2.24-2.32h0A2.17,2.17,0,0,0,406.2,331v58.28a7.89,7.89,0,1,1-15.78,0V288.09c-.06-1.08-.4-2.78-2-2.78-2.33,0-2.68,1.71-2.68,3V322a5.49,5.49,0,1,1-11,0v-39.3a18.89,18.89,0,0,1,17.17-18.82,8.06,8.06,0,0,1,1-.09h31a8.73,8.73,0,0,1,1.08.09"/><path class="cls-2" d="M310,251.72a13.42,13.42,0,1,0-13.41,13.43A13.42,13.42,0,0,0,310,251.72"/><path class="cls-2" d="M269.56,282.13,258.4,318.45s-2,6.66,3.66,8.32,7.33-4.84,7.33-4.84l9-30.31s.48-2.33,2.24-1.83,1.09,3,1.09,3L266.06,349.6h14.57v40.69a7,7,0,0,0,14,0V349.6h4v40.69a7,7,0,0,0,14,0V349.6h14.56l-15.65-56.81s-.66-2.5,1.09-3,2.25,1.83,2.25,1.83l9,30.31s1.71,6.51,7.33,4.84,3.66-8.32,3.66-8.32l-11.16-36.32s-4-10.5-12.82-10.5H282.38c-8.82,0-12.82,10.5-12.82,10.5"/><path class="cls-2" d="M229.63,251.72a13.42,13.42,0,1,0-13.42,13.43,13.43,13.43,0,0,0,13.42-13.43"/><path class="cls-2" d="M189.16,282.13,178,318.45s-2,6.66,3.66,8.32,7.32-4.84,7.32-4.84l9-30.31s.49-2.33,2.24-1.83,1.09,3,1.09,3L185.67,349.6h14.56v40.69a7,7,0,0,0,14,0V349.6h4v40.69a7,7,0,0,0,14,0V349.6h14.56L231.1,292.79s-.67-2.5,1.08-3,2.24,1.83,2.24,1.83l9,30.31s1.72,6.51,7.33,4.84,3.66-8.32,3.66-8.32l-11.16-36.32s-4-10.5-12.81-10.5H202c-8.82,0-12.83,10.5-12.83,10.5"/><path class="cls-2" d="M355.09,326.85a11.18,11.18,0,1,0-11.17-11.19,11.17,11.17,0,0,0,11.17,11.19"/><path class="cls-2" d="M328.31,361.55c-.55,1.31-1,4.08,1.63,5.29a3.72,3.72,0,0,0,4.78-1.56l6.08-19.37s1.05-1.3,1.05,0v45.6h0a5.73,5.73,0,1,0,11.46,0v-18S353,371,355.06,371s1.73,2.55,1.73,2.55v18a5.75,5.75,0,0,0,11.49,0V346c0-1.34.71-.38.71-.38l4.76,13.26s2.07,5.93,2.7,6.19a4.24,4.24,0,0,0,5.54-2.29,4.19,4.19,0,0,0-.45-4.08l0,0c-.14-.43-7.12-17.54-7.94-19.94-2.52-7.36-7.11-7.29-11.52-7.41s-7.06,0-7.06,0-2.82-.12-8.65.05-7.66,3.17-14.08,19.69c-.92,2.38-4,10.08-4.06,10.54Z"/><path class="cls-2" d="M109.76,244.28a14.18,14.18,0,1,0-14.19,14.17,14.19,14.19,0,0,0,14.19-14.17"/><path class="cls-2" d="M79,263.92a18.9,18.9,0,0,0-17.16,18.82V322a5.5,5.5,0,0,0,11,0V288.29c0-1.27.36-3,2.68-3,1.59,0,1.93,1.7,2,2.78V389.23a7.9,7.9,0,1,0,15.79,0V331a2.15,2.15,0,0,1,2.25-2.32h0A2.17,2.17,0,0,1,97.85,331v58.28a7.9,7.9,0,1,0,15.79,0V288.09c0-1.08.4-2.78,2-2.78,2.32,0,2.67,1.71,2.67,3V322a5.5,5.5,0,0,0,11,0v-39.3a18.89,18.89,0,0,0-17.17-18.82,8.06,8.06,0,0,0-1-.09h-31a8.56,8.56,0,0,0-1.08.09"/><line class="cls-3" x1="66.66" y1="327.75" x2="54.07" y2="394.47"/><path class="cls-2" d="M136,321a4.07,4.07,0,0,0-7.52,2.15,7.41,7.41,0,0,0,.4,1.79l11.26,20.38a7.25,7.25,0,0,1,.69,2.69v43.77h0a5.5,5.5,0,1,0,11,0V374.5s-.31-2.45,1.67-2.45,1.66,2.45,1.66,2.45v17.27a5.51,5.51,0,0,0,11,0V348a7.33,7.33,0,0,1,.68-2.69l10.42-18.81a18.46,18.46,0,0,0,1.27-3.36,4.07,4.07,0,0,0-7.52-2.15l0,0c-.32.28-5.54,9.56-7.26,11.28a4.52,4.52,0,0,1-3.45,1.64H146.78a4.54,4.54,0,0,1-3.46-1.64c-1.74-1.72-6.93-11-7.26-11.28Z"/><path class="cls-2" d="M153.54,326.85a11.18,11.18,0,1,0-11.17-11.19,11.16,11.16,0,0,0,11.17,11.19"/><polygon class="cls-2" points="153.56 342.53 166.18 351.74 172.18 373.83 153.56 373.83 134.91 373.83 140.93 351.74 153.56 342.53"/><polygon class="cls-2" points="71.48 67.34 71.64 67.34 71.64 146.37 88.99 146.37 88.99 43.13 75.13 43.13 59.15 61.86 59.15 79.97 59.3 79.97 71.48 67.34"/><path class="cls-2" d="M152.58,60.14V87.25h-6.11V44.1h7.13l7.83,24.76V44.1h6V87.25h-6.37Z"/><path class="cls-2" d="M171.61,76.11V55.24c0-6.75,3.31-11.65,10.95-11.65s11,4.9,11,11.65V76.11c0,6.69-3.31,11.65-11,11.65S171.61,82.8,171.61,76.11Zm14.7,1.15V54.09c0-2.61-1.14-4.45-3.75-4.45s-3.69,1.84-3.69,4.45V77.26c0,2.61,1.14,4.46,3.69,4.46S186.31,79.87,186.31,77.26Z"/><path class="cls-2" d="M146.47,104.55h10.76c7.32,0,10,3.63,10,9.67v9.1c0,6.05-2.67,9.74-10,9.74h-3.5V147.7h-7.26Zm7.26,5.92v17h2.67c2.49,0,3.57-1.21,3.57-3.56V114c0-2.36-1.08-3.5-3.57-3.5Z"/><path class="cls-2" d="M171,136.56V115.69c0-6.75,3.31-11.65,10.95-11.65s11,4.9,11,11.65v20.87c0,6.69-3.31,11.65-11,11.65S171,143.25,171,136.56Zm14.71,1.15V114.54c0-2.61-1.15-4.45-3.76-4.45s-3.69,1.84-3.69,4.45v23.17c0,2.61,1.15,4.45,3.69,4.45S185.68,140.32,185.68,137.71Z"/><path class="cls-2" d="M219,104.55l-8.21,43.15h-7.89l-8.21-43.15h7.38l5,30.11h.06l5.09-30.11Z"/><path class="cls-2" d="M222,104.55h17.31v5.92H229.26v12.35h7.19v5.85h-7.19v13.11h10.06v5.92H222Z"/><path class="cls-2" d="M250.45,127.91V147.7H243.2V104.55h10.56c7.32,0,10,3.63,10,9.67v5.54c0,4.65-1.65,7.38-5.79,8.34l6.94,19.6h-7.64Zm0-17.44V123.9h2.42c2.48,0,3.56-1.27,3.56-3.57V114c0-2.36-1.08-3.5-3.56-3.5Z"/><path class="cls-2" d="M266.23,104.55h19.29v5.92h-6V147.7h-7.31V110.47h-6Z"/><path class="cls-2" d="M303,131.28V147.7h-7.25V131.28l-8.08-26.73h7.57l4.39,16.36h.06l4.4-16.36H311Z"/></svg>