<svg id="Layer_1" data-name="Layer 1" xmlns="http://www.w3.org/2000/svg" viewBox="0 0 512 512"><defs><style>.cls-1{fill:#e01a83;}.cls-2{fill:#fff;}</style></defs><title>10</title><rect class="cls-1" width="512" height="512"/><polygon class="cls-2" points="49.21 67.09 49.21 146.19 66.58 146.19 66.58 42.85 52.71 42.85 36.71 61.6 36.71 79.74 36.86 79.74 49.05 67.09 49.21 67.09"/><path class="cls-2" d="M130,119.52v-50c0-16.15-8.08-27.89-25.76-27.89S78.62,53.37,78.62,69.52v50c0,16,8.08,27.89,25.61,27.89S130,135.52,130,119.52m-34,2.75V66.78c0-6.25,2.28-10.67,8.23-10.67s8.38,4.42,8.38,10.67v55.49c0,6.25-2.29,10.66-8.38,10.66S96,128.52,96,122.27"/><path class="cls-2" d="M172.39,66.37V86.16h-7.25V43H175.7c7.32,0,10,3.63,10,9.67v5.54c0,4.65-1.66,7.38-5.8,8.34l6.94,19.6H179.2Zm0-17.44V62.36h2.42c2.48,0,3.56-1.27,3.56-3.57V52.43c0-2.36-1.08-3.5-3.56-3.5Z"/><path class="cls-2" d="M189.64,43H207v5.92H196.89V61.28h7.19v5.85h-7.19V80.24H207v5.92H189.64Z"/><path class="cls-2" d="M232.53,54.59v20c0,6.62-2.74,11.58-10.5,11.58h-11.2V43H222C229.79,43,232.53,47.91,232.53,54.59ZM221.14,80.24c3,0,4.14-1.78,4.14-4.39V53.26c0-2.55-1.15-4.33-4.14-4.33h-3.06V80.24Z"/><path class="cls-2" d="M257.72,43V75.66c0,6.68-2.86,11-10.24,11-7.64,0-10.82-4.33-10.82-11V43h7.25V76.36c0,2.55,1,4.26,3.57,4.26S251,78.91,251,76.36V43Z"/><path class="cls-2" d="M261.86,75V54.15c0-6.75,3.18-11.65,10.81-11.65,8,0,10.25,4.46,10.25,10.82v5.09h-6.61V52.75c0-2.68-.9-4.2-3.51-4.2s-3.69,1.84-3.69,4.45V76.17c0,2.61,1.09,4.45,3.69,4.45s3.51-1.65,3.51-4.2v-8h6.61v7.44c0,6.18-2.54,10.76-10.25,10.76S261.86,81.7,261.86,75Z"/><path class="cls-2" d="M286.86,43h17.32v5.92H294.12V61.28h7.19v5.85h-7.19V80.24h10.06v5.92H286.86Z"/><path class="cls-2" d="M329.76,54.59v20c0,6.62-2.74,11.58-10.5,11.58h-11.2V43h11.2C327,43,329.76,47.91,329.76,54.59ZM318.37,80.24c3,0,4.13-1.78,4.13-4.39V53.26c0-2.55-1.14-4.33-4.13-4.33h-3.06V80.24Z"/><path class="cls-2" d="M165.14,103.46h7.25v43.15h-7.25Z"/><path class="cls-2" d="M182.7,119.5v27.11h-6.11V103.46h7.13l7.83,24.76V103.46h6v43.15h-6.36Z"/><path class="cls-2" d="M201.72,103.46H219v5.92H209v12.34h7.2v5.86H209v13.11H219v5.92H201.72Z"/><path class="cls-2" d="M230.55,149.54v-2.93c-5.79-1-8.27-5.28-8.27-11.14V114.6c0-6.75,3.31-11.65,10.95-11.65s11,4.9,11,11.65v20.87c0,4.72-1.66,8.41-5.35,10.19l5.35,1v5.42ZM237,137V113.45c0-2.61-1.14-4.46-3.75-4.46s-3.7,1.85-3.7,4.46V137c0,2.55,1.15,4.46,3.7,4.46S237,139.55,237,137Z"/><path class="cls-2" d="M269.44,103.46v32.65c0,6.68-2.87,11-10.25,11-7.64,0-10.82-4.33-10.82-11V103.46h7.25v33.35c0,2.55,1,4.26,3.57,4.26s3.56-1.71,3.56-4.26V103.46Z"/><path class="cls-2" d="M271.47,146.61l8.14-43.15h8.28l8.21,43.15h-7.45l-1.34-7.89h-7.7l-1.27,7.89Zm9.1-13.68h5.79l-2.86-17.32h-.07Z"/><path class="cls-2" d="M299.08,103.46h7.26v37.23H315v5.92H299.08Z"/><path class="cls-2" d="M318.3,103.46h7.26v43.15H318.3Z"/><path class="cls-2" d="M328.93,103.46h19.28v5.92h-6v37.23h-7.33V109.38h-6Z"/><path class="cls-2" d="M351.58,103.46h7.26v43.15h-7.26Z"/><path class="cls-2" d="M363,103.46h17.31v5.92H370.29v12.34h7.2v5.86h-7.2v13.11h10.06v5.92H363Z"/><path class="cls-2" d="M383.53,137.32v-5.79h6.75v5.92c0,2.42,1.08,3.82,3.56,3.82,2.29,0,3.31-1.53,3.31-3.82v-1.66c0-2.48-1-4-3.24-6.11l-4.27-4.26c-4.14-4.07-6-6.56-6-11.52v-1.47c0-5.34,3.12-9.48,10.18-9.48,7.26,0,10.12,3.56,10.12,9.8v3.5h-6.62V112.5c0-2.49-1.15-3.7-3.44-3.7-2,0-3.43,1.15-3.43,3.57v.89c0,2.42,1.33,3.82,3.43,5.85l4.65,4.59c3.94,4,5.85,6.43,5.85,11.2V137c0,5.92-3.18,10.12-10.56,10.12S383.53,143,383.53,137.32Z"/><path class="cls-2" d="M303.06,337.78H208.22a1.1,1.1,0,0,0-1,1.15v28.5a1.09,1.09,0,0,0,1,1.16h94.84a1.1,1.1,0,0,0,1-1.16v-28.5a1.1,1.1,0,0,0-1-1.15"/><path class="cls-2" d="M303.06,277.13H208.22a1.09,1.09,0,0,0-1,1.15v28.5a1.09,1.09,0,0,0,1,1.16h94.84a1.1,1.1,0,0,0,1-1.16v-28.5a1.09,1.09,0,0,0-1-1.15"/><path class="cls-2" d="M301.73,234,256.2,188.52a.78.78,0,0,0-1.11,0L209.56,234a.79.79,0,0,0,.56,1.34h91.05A.79.79,0,0,0,301.73,234Z"/><path class="cls-2" d="M344.46,368.94,390,323.41a.78.78,0,0,0,0-1.11l-45.53-45.52a.78.78,0,0,0-1.34.55v91.05A.79.79,0,0,0,344.46,368.94Z"/><path class="cls-2" d="M209.56,411.68l45.53,45.52a.78.78,0,0,0,1.11,0l45.53-45.52a.79.79,0,0,0-.56-1.35H210.12A.79.79,0,0,0,209.56,411.68Z"/><path class="cls-2" d="M166.83,276.78,121.3,322.3a.78.78,0,0,0,0,1.11l45.53,45.53a.79.79,0,0,0,1.34-.56V277.33A.78.78,0,0,0,166.83,276.78Z"/></svg>