<svg id="Layer_1" data-name="Layer 1" xmlns="http://www.w3.org/2000/svg" viewBox="0 0 512 512"><defs><style>.cls-1{fill:#f99d25;}.cls-2{fill:#fff;}</style></defs><title>11</title><rect class="cls-1" width="512" height="512"/><path class="cls-2" d="M88,389.8h77a1.88,1.88,0,0,0,1.39-3.15l-.1-.11L128,337l-.37-.41a1.88,1.88,0,0,0-1.4-.61,2,2,0,0,0-1.24.48l-.23.27-.36.4L87,386.15l-.57.7a1.85,1.85,0,0,0-.33,1.06A1.89,1.89,0,0,0,88,389.8Z"/><path class="cls-2" d="M164.76,396.79H87.59a1.89,1.89,0,0,0-1.89,1.89v60.39a1.89,1.89,0,0,0,1.89,1.9h24.84V423a1.88,1.88,0,0,1,1.89-1.89h23.05a1.88,1.88,0,0,1,1.89,1.89v38h25.5a1.9,1.9,0,0,0,1.89-1.9V398.68A1.89,1.89,0,0,0,164.76,396.79Z"/><path class="cls-2" d="M431.46,381H355.09a1.84,1.84,0,0,0-1.87,1.82v77.12a1.84,1.84,0,0,0,1.87,1.82h76.37a1.85,1.85,0,0,0,1.88-1.82V382.8a1.85,1.85,0,0,0-1.88-1.82m-41.79,50.35a1.84,1.84,0,0,1-1.86,1.83H365a1.85,1.85,0,0,1-1.88-1.83V417.47a1.85,1.85,0,0,1,1.88-1.82h22.82a1.84,1.84,0,0,1,1.86,1.82Zm0-25.63a1.84,1.84,0,0,1-1.86,1.83H365a1.85,1.85,0,0,1-1.88-1.83V391.83A1.85,1.85,0,0,1,365,390h22.82a1.84,1.84,0,0,1,1.86,1.82Zm34.88,25.63a1.84,1.84,0,0,1-1.87,1.83H399.87a1.85,1.85,0,0,1-1.88-1.83V417.47a1.85,1.85,0,0,1,1.88-1.82h22.81a1.84,1.84,0,0,1,1.87,1.82Zm0-25.63a1.85,1.85,0,0,1-1.87,1.83H399.87A1.85,1.85,0,0,1,398,405.7V391.83a1.85,1.85,0,0,1,1.88-1.82h22.81a1.84,1.84,0,0,1,1.87,1.82Z"/><path class="cls-2" d="M253.92,202H179.17a1.83,1.83,0,0,0-1.83,1.83V459.24a1.84,1.84,0,0,0,1.83,1.83h74.75a1.85,1.85,0,0,0,1.84-1.83V203.79a1.84,1.84,0,0,0-1.84-1.83M209.45,432a1,1,0,0,1-1,1H191.36a1,1,0,0,1-1-1V412.89a1,1,0,0,1,1-1h17.11a1,1,0,0,1,1,1Zm0-43.81a1,1,0,0,1-1,1H191.36a1,1,0,0,1-1-1V369.1a1,1,0,0,1,1-1h17.11a1,1,0,0,1,1,1Zm0-43.79a1,1,0,0,1-1,1H191.36a1,1,0,0,1-1-1V325.29a1,1,0,0,1,1-1h17.11a1,1,0,0,1,1,1Zm0-43.8a1,1,0,0,1-1,1H191.36a1,1,0,0,1-1-1V281.49a1,1,0,0,1,1-1h17.11a1,1,0,0,1,1,1Zm0-43.8a1,1,0,0,1-1,1H191.36a1,1,0,0,1-1-1V237.7a1,1,0,0,1,1-1h17.11a1,1,0,0,1,1,1ZM243,432a1,1,0,0,1-1,1H224.92a1,1,0,0,1-1-1V412.89a1,1,0,0,1,1-1H242a1,1,0,0,1,1,1Zm0-43.81a1,1,0,0,1-1,1H224.92a1,1,0,0,1-1-1V369.1a1,1,0,0,1,1-1H242a1,1,0,0,1,1,1Zm0-43.79a1,1,0,0,1-1,1H224.92a1,1,0,0,1-1-1V325.29a1,1,0,0,1,1-1H242a1,1,0,0,1,1,1Zm0-43.8a1,1,0,0,1-1,1H224.92a1,1,0,0,1-1-1V281.49a1,1,0,0,1,1-1H242a1,1,0,0,1,1,1Zm0-43.8a1,1,0,0,1-1,1H224.92a1,1,0,0,1-1-1V237.7a1,1,0,0,1,1-1H242a1,1,0,0,1,1,1Z"/><path class="cls-2" d="M433.25,373.22a1.53,1.53,0,0,1-1.54,1.54H354.84a1.53,1.53,0,0,1-1.54-1.54V357.85a1.54,1.54,0,0,1,1.54-1.54h76.87a1.54,1.54,0,0,1,1.54,1.54Z"/><path class="cls-2" d="M344.2,250.2a2,2,0,0,0-1.88-1.43,1.94,1.94,0,0,0-1.06.35.71.71,0,0,0-.14.1l-.64.79L267,343.2l-.34.46a2.11,2.11,0,0,0-.63,1.45V459.63a1.83,1.83,0,0,0,1.83,1.82h74.67a1.83,1.83,0,0,0,1.83-1.82V251A1.77,1.77,0,0,0,344.2,250.2Zm-30.93,50.61.53-.66c5-6.45,13.49-16.88,17.62-21.94l.55-.65a2.14,2.14,0,0,1,1.64-.78,2.1,2.1,0,0,1,2,1.71v23.58a2.11,2.11,0,0,1-2,2.1l-.1,0-.09,0H315.07l-.09,0-.09,0a2.11,2.11,0,0,1-1.62-3.36ZM301.65,431.32a1.83,1.83,0,0,1-1.83,1.83H277.54a1.82,1.82,0,0,1-1.82-1.83V417.37a1.82,1.82,0,0,1,1.82-1.82h22.28a1.83,1.83,0,0,1,1.83,1.82Zm0-25.76a1.82,1.82,0,0,1-1.83,1.82H277.54a1.81,1.81,0,0,1-1.82-1.82V391.61a1.82,1.82,0,0,1,1.82-1.83h22.28a1.82,1.82,0,0,1,1.83,1.83Zm0-25.77a1.83,1.83,0,0,1-1.83,1.82H277.54a1.82,1.82,0,0,1-1.82-1.82v-14a1.82,1.82,0,0,1,1.82-1.83h22.28a1.83,1.83,0,0,1,1.83,1.83Zm.06-56.46v30.72a1.83,1.83,0,0,1-1.83,1.82H277.61a1.82,1.82,0,0,1-1.84-1.82v-3.87a2.17,2.17,0,0,1,.14-.68,2.35,2.35,0,0,1,.28-.46l.2-.3c2.85-4.07,15.7-19.9,21.1-26.52l.54-.65a2.14,2.14,0,0,1,1.64-.78,2.1,2.1,0,0,1,2,1.71Zm34,108a1.83,1.83,0,0,1-1.82,1.83H311.6a1.84,1.84,0,0,1-1.84-1.83V417.37a1.84,1.84,0,0,1,1.84-1.82h22.28a1.83,1.83,0,0,1,1.82,1.82Zm0-25.76a1.82,1.82,0,0,1-1.82,1.82H311.6a1.83,1.83,0,0,1-1.84-1.82V391.61a1.83,1.83,0,0,1,1.84-1.83h22.28a1.82,1.82,0,0,1,1.82,1.83Zm0-25.77a1.83,1.83,0,0,1-1.82,1.82H311.6a1.84,1.84,0,0,1-1.84-1.82v-14A1.84,1.84,0,0,1,311.6,364h22.28a1.83,1.83,0,0,1,1.82,1.83Zm0-25.77a1.82,1.82,0,0,1-1.82,1.82H311.6a1.83,1.83,0,0,1-1.84-1.82V340.08a1.83,1.83,0,0,1,1.84-1.83h22.28a1.82,1.82,0,0,1,1.82,1.83Zm0-25.77a1.83,1.83,0,0,1-1.82,1.83H311.6a1.84,1.84,0,0,1-1.84-1.83V314.31a1.84,1.84,0,0,1,1.84-1.84h22.28a1.83,1.83,0,0,1,1.82,1.84Z"/><polygon class="cls-2" points="36.58 61.64 36.58 79.76 36.73 79.76 48.91 67.12 49.06 67.12 49.06 146.15 66.42 146.15 66.42 42.91 52.56 42.91 36.58 61.64"/><polygon class="cls-2" points="76.16 61.64 76.16 79.76 76.32 79.76 88.5 67.12 88.65 67.12 88.65 146.15 106.01 146.15 106.01 42.91 92.16 42.91 76.16 61.64"/><path class="cls-2" d="M141.78,76.87V71.08h6.75V77c0,2.42,1.09,3.82,3.57,3.82,2.29,0,3.31-1.53,3.31-3.82V75.34c0-2.48-1-4-3.25-6.11L147.89,65c-4.13-4.07-6-6.56-6-11.52V52c0-5.35,3.12-9.49,10.18-9.49,7.26,0,10.12,3.56,10.12,9.8v3.5h-6.62V52.05c0-2.48-1.14-3.69-3.43-3.69-2,0-3.44,1.14-3.44,3.56v.89c0,2.42,1.33,3.82,3.44,5.86l4.64,4.58c3.95,4,5.86,6.43,5.86,11.2v2.1c0,5.92-3.18,10.12-10.57,10.12S141.78,82.53,141.78,76.87Z"/><path class="cls-2" d="M186.77,43V75.66c0,6.69-2.86,11-10.24,11-7.64,0-10.82-4.32-10.82-11V43H173V76.36c0,2.55,1,4.26,3.57,4.26s3.56-1.71,3.56-4.26V43Z"/><path class="cls-2" d="M189.82,76.87V71.08h6.76V77c0,2.42,1.08,3.82,3.56,3.82,2.29,0,3.31-1.53,3.31-3.82V75.34c0-2.48-1-4-3.25-6.11L195.93,65c-4.13-4.07-6-6.56-6-11.52V52c0-5.35,3.12-9.49,10.19-9.49,7.25,0,10.11,3.56,10.11,9.8v3.5h-6.62V52.05c0-2.48-1.14-3.69-3.43-3.69-2,0-3.44,1.14-3.44,3.56v.89c0,2.42,1.34,3.82,3.44,5.86l4.65,4.58c3.94,4,5.85,6.43,5.85,11.2v2.1c0,5.92-3.18,10.12-10.56,10.12S189.82,82.53,189.82,76.87Z"/><path class="cls-2" d="M212,43h19.29v5.92h-6V86.16H218V48.93h-6Z"/><path class="cls-2" d="M229.6,86.16,237.74,43H246l8.21,43.15h-7.45l-1.34-7.89h-7.7l-1.27,7.89Zm9.1-13.68h5.79l-2.87-17.31h-.06Z"/><path class="cls-2" d="M256.51,43h7.26V86.16h-7.26Z"/><path class="cls-2" d="M273.38,59.05V86.16h-6.11V43h7.13l7.82,24.76V43h6V86.16h-6.36Z"/><path class="cls-2" d="M290.56,86.16,298.7,43H307l8.21,43.15h-7.45l-1.34-7.89h-7.7l-1.27,7.89Zm9.1-13.68h5.79l-2.87-17.31h-.06Z"/><path class="cls-2" d="M317.48,43H328c7.25,0,9.67,3.37,9.67,9.48v4.4c0,3.62-1.33,5.91-4.33,6.87,3.63.83,5.42,3.25,5.42,7.19v5.73c0,6.11-2.74,9.48-10,9.48H317.48Zm7.25,18.2h2.55c2.35,0,3.44-1.21,3.44-3.5V52.43c0-2.36-1.09-3.5-3.51-3.5h-2.48Zm0,5.54v13.5h3.19c2.41,0,3.56-1.22,3.56-3.51V70.25c0-2.29-1.09-3.5-3.63-3.5Z"/><path class="cls-2" d="M341.66,43h7.25V80.25h8.66v5.91H341.66Z"/><path class="cls-2" d="M360.18,43h17.31v5.92H367.43V61.28h7.2v5.85h-7.2V80.25h10.06v5.91H360.18Z"/><path class="cls-2" d="M386.65,75V54.15c0-6.75,3.18-11.65,10.82-11.65,8,0,10.25,4.46,10.25,10.82v5.09H401.1V52.75c0-2.68-.89-4.2-3.5-4.2s-3.69,1.84-3.69,4.45V76.17c0,2.61,1.08,4.45,3.69,4.45s3.5-1.65,3.5-4.2v-8h6.62v7.45c0,6.17-2.55,10.75-10.25,10.75S386.65,81.71,386.65,75Z"/><path class="cls-2" d="M411,43h7.25V86.16H411Z"/><path class="cls-2" d="M420.89,43h19.28v5.92h-6V86.16h-7.32V48.93h-6Z"/><path class="cls-2" d="M442.84,43h7.25V86.16h-7.25Z"/><path class="cls-2" d="M453.59,43h17.32v5.92H460.85V61.28H468v5.85h-7.19V80.25h10.06v5.91H453.59Z"/><path class="cls-2" d="M473.39,76.87V71.08h6.75V77c0,2.42,1.08,3.82,3.56,3.82C486,80.82,487,79.29,487,77V75.34c0-2.48-1-4-3.25-6.11L479.5,65c-4.14-4.07-6.05-6.56-6.05-11.52V52c0-5.35,3.12-9.49,10.18-9.49,7.26,0,10.12,3.56,10.12,9.8v3.5h-6.62V52.05c0-2.48-1.14-3.69-3.43-3.69-2,0-3.44,1.14-3.44,3.56v.89c0,2.42,1.34,3.82,3.44,5.86l4.65,4.58c3.94,4,5.85,6.43,5.85,11.2v2.1c0,5.92-3.18,10.12-10.57,10.12S473.39,82.53,473.39,76.87Z"/><path class="cls-2" d="M141,146.61l8.15-43.15h8.27l8.21,43.15h-7.44l-1.34-7.89h-7.7l-1.28,7.89Zm9.1-13.68h5.8l-2.87-17.32H153Z"/><path class="cls-2" d="M174.05,119.5v27.11h-6.11V103.46h7.13l7.83,24.76V103.46h6v43.15h-6.36Z"/><path class="cls-2" d="M214.08,115v20c0,6.62-2.74,11.58-10.5,11.58h-11.2V103.46h11.2C211.34,103.46,214.08,108.36,214.08,115ZM202.69,140.7c3,0,4.14-1.79,4.14-4.4V113.71c0-2.55-1.15-4.33-4.14-4.33h-3.06V140.7Z"/><path class="cls-2" d="M223.49,135.47V114.6c0-6.75,3.18-11.65,10.82-11.65,8,0,10.25,4.45,10.25,10.82v5.09h-6.62V113.2c0-2.68-.89-4.2-3.5-4.2s-3.69,1.84-3.69,4.45v23.17c0,2.61,1.08,4.45,3.69,4.45s3.5-1.65,3.5-4.2v-8h6.62v7.45c0,6.17-2.55,10.75-10.25,10.75S223.49,142.16,223.49,135.47Z"/><path class="cls-2" d="M247.8,135.47V114.6c0-6.75,3.31-11.65,10.95-11.65s11,4.9,11,11.65v20.87c0,6.69-3.31,11.65-11,11.65S247.8,142.16,247.8,135.47Zm14.7,1.15V113.45c0-2.61-1.14-4.45-3.75-4.45s-3.7,1.84-3.7,4.45v23.17c0,2.61,1.15,4.45,3.7,4.45S262.5,139.23,262.5,136.62Z"/><path class="cls-2" d="M293.17,118.61H293l-4.9,28h-3.37l-5.41-28h-.13v28h-6V103.46h8.47l4.7,24.31h.07l4.2-24.31h9.16v43.15h-6.62Z"/><path class="cls-2" d="M323.21,118.61H323l-4.9,28h-3.38l-5.41-28h-.12v28h-6V103.46h8.47l4.71,24.31h.06l4.2-24.31h9.17v43.15h-6.62Z"/><path class="cls-2" d="M354.33,103.46v32.65c0,6.69-2.86,11-10.25,11-7.64,0-10.82-4.32-10.82-11V103.46h7.26v33.35c0,2.55,1,4.26,3.56,4.26s3.56-1.71,3.56-4.26V103.46Z"/><path class="cls-2" d="M363.87,119.5v27.11h-6.11V103.46h7.13l7.83,24.76V103.46h6v43.15H372.4Z"/><path class="cls-2" d="M382.19,103.46h7.26v43.15h-7.26Z"/><path class="cls-2" d="M392.12,103.46H411.4v5.92h-6v37.23H398.1V109.38h-6Z"/><path class="cls-2" d="M414.07,103.46h7.26v43.15h-7.26Z"/><path class="cls-2" d="M424.83,103.46h17.31v5.92H432.08v12.35h7.19v5.85h-7.19V140.7h10.06v5.91H424.83Z"/><path class="cls-2" d="M444.62,137.32v-5.79h6.75v5.92c0,2.42,1.08,3.82,3.57,3.82,2.29,0,3.3-1.53,3.3-3.82v-1.66c0-2.48-1-4-3.24-6.11l-4.27-4.26c-4.13-4.07-6-6.56-6-11.52v-1.47c0-5.34,3.12-9.48,10.18-9.48,7.26,0,10.12,3.56,10.12,9.8v3.5h-6.62V112.5c0-2.49-1.14-3.69-3.43-3.69-2,0-3.44,1.14-3.44,3.56v.89c0,2.42,1.34,3.82,3.44,5.86l4.64,4.58c3.95,4,5.86,6.43,5.86,11.2V137c0,5.92-3.19,10.12-10.57,10.12S444.62,143,444.62,137.32Z"/></svg>