<svg id="Layer_1" data-name="Layer 1" xmlns="http://www.w3.org/2000/svg" viewBox="0 0 512 512"><defs><style>.cls-1{fill:#cd8b2a;}.cls-2{fill:#fff;}</style></defs><title>12</title><rect class="cls-1" width="512" height="512"/><path class="cls-2" d="M385.94,265.66c-22.62-17.86-52.58-18.22-63.55-15.61l-1.27.29c-12.67,3-32.8,8-56.36,37.18l-.39.5-.3.36a1.91,1.91,0,0,0-.13,2.12l.54.9c3,5,6.69,11.31,9.84,17.18l.09.18a2,2,0,0,0,1.79,1.1,2,2,0,0,0,1.39-.56c.15-.19.3-.4.43-.6,20.92-28.92,37.36-32.91,48.48-35.53l1.33-.31c5.77-1.39,27.72-1.3,43.57,11.21,12.37,9.76,18.64,25.29,18.64,46.16,0,35-17,48.71-31.32,54-22.13,8.27-43.36-2.79-43.52-2.88l-.95-.46c-12.16-5.28-30.3-16.26-47.41-50.61-34.47-69.23-63.3-75.75-82.38-80.07l-1-.23c-8.69-2-38.86-3.36-62.57,15.57-12.39,9.88-27.15,29.1-27.15,64.51,0,21.57,4.43,35.81,15.82,50.8,2.5,3.41,28,36.21,77.38,26.75,7.9-1.51,18.6-5.29,30.37-14.11l10.86,9.8a1.79,1.79,0,0,0,2.5-.12,1.65,1.65,0,0,0,.43-1.18v-.14l7.84-48.21v-.53a1.74,1.74,0,0,0-.58-1.29,1.64,1.64,0,0,0-1.15-.43l-.34,0-.51,0-46.17,12.93-.84.13a1.7,1.7,0,0,0-.88.52,1.74,1.74,0,0,0,.13,2.5l.54.51,10.35,9.34a48.23,48.23,0,0,1-16.95,7.17c-35.71,6.81-53.34-16.58-54-17.49l-.25-.35c-8.29-10.89-11.09-20.15-11.09-36.68,0-20.94,6.16-36.48,18.32-46.19,15.44-12.33,36.74-12.4,42.76-11l1,.24c15.64,3.53,37.06,8.38,66.57,67.65,15.32,30.77,34.52,50.89,58.67,61.5a85.31,85.31,0,0,0,36.78,8.52,73.05,73.05,0,0,0,25.62-4.54c14-5.22,46.57-23.08,46.57-76,0-35.38-15-54.64-27.55-64.57"/><polygon class="cls-2" points="51.11 67.28 51.27 67.28 51.27 146.31 68.62 146.31 68.62 43.07 54.75 43.07 38.77 61.8 38.77 79.92 38.92 79.92 51.11 67.28"/><path class="cls-2" d="M79,64.39V76.87H94.8V63.93c0-6.24,3-8.07,6.7-8.07,3.36,0,6.25,1.37,6.25,7.77v8.52c0,8.53-.76,11.88-6.4,17.82l-9.74,10.35c-9.44,10.05-13,16.75-13,27v19h45.08V132.15H95.26v-4.87c0-8.08,2.89-11.12,7.3-15.84l11.12-11.72c9-9.59,11-15.69,11-26V63.63c0-14.77-7.15-21.77-22.69-21.77-15.23,0-23,8.06-23,22.53"/><path class="cls-2" d="M171.72,66.37V86.16h-7.26V43H175c7.32,0,10,3.63,10,9.67v5.54c0,4.65-1.65,7.39-5.79,8.34l6.94,19.6h-7.64Zm0-17.44V62.36h2.42c2.48,0,3.56-1.27,3.56-3.57V52.43c0-2.35-1.08-3.5-3.56-3.5Z"/><path class="cls-2" d="M188.07,43h17.31v5.92h-10V61.28h7.19v5.85h-7.19V80.25h10v5.91H188.07Z"/><path class="cls-2" d="M207.67,76.87V71.08h6.75V77c0,2.42,1.09,3.82,3.57,3.82,2.29,0,3.31-1.53,3.31-3.82V75.34c0-2.48-1-4-3.25-6.11L213.78,65c-4.13-4.07-6-6.56-6-11.52V52c0-5.35,3.12-9.49,10.19-9.49,7.25,0,10.11,3.56,10.11,9.8v3.51h-6.62V52.05c0-2.48-1.14-3.69-3.43-3.69-2,0-3.44,1.14-3.44,3.56v.89c0,2.42,1.34,3.82,3.44,5.86l4.64,4.58c4,4,5.86,6.43,5.86,11.2v2.1c0,5.92-3.18,10.12-10.56,10.12S207.67,82.54,207.67,76.87Z"/><path class="cls-2" d="M231.41,43h10.75c7.33,0,10,3.63,10,9.67v9.11c0,6-2.67,9.73-10,9.73h-3.5V86.16h-7.25Zm7.25,5.92v17h2.68c2.48,0,3.56-1.2,3.56-3.56V52.43c0-2.35-1.08-3.5-3.56-3.5Z"/><path class="cls-2" d="M255,75V54.15c0-6.75,3.31-11.65,11-11.65s11,4.9,11,11.65V75c0,6.69-3.31,11.65-11,11.65S255,81.71,255,75Zm14.7,1.15V53c0-2.6-1.14-4.45-3.75-4.45s-3.7,1.85-3.7,4.45V76.17c0,2.61,1.15,4.46,3.7,4.46S269.72,78.78,269.72,76.17Z"/><path class="cls-2" d="M286.33,59.05V86.16h-6.11V43h7.13l7.83,24.76V43h6V86.16h-6.36Z"/><path class="cls-2" d="M304.08,76.87V71.08h6.75V77c0,2.42,1.08,3.82,3.57,3.82,2.28,0,3.3-1.53,3.3-3.82V75.34c0-2.48-1-4-3.24-6.11L310.19,65c-4.14-4.07-6-6.56-6-11.52V52c0-5.35,3.12-9.49,10.18-9.49,7.26,0,10.12,3.56,10.12,9.8v3.51h-6.62V52.05c0-2.48-1.15-3.69-3.43-3.69-2,0-3.44,1.14-3.44,3.56v.89c0,2.42,1.34,3.82,3.44,5.86L319,63.25c3.94,4,5.85,6.43,5.85,11.2v2.1c0,5.92-3.18,10.12-10.56,10.12S304.08,82.54,304.08,76.87Z"/><path class="cls-2" d="M327.81,43h7.26V86.16h-7.26Z"/><path class="cls-2" d="M338.38,43h10.5c7.26,0,9.68,3.37,9.68,9.49v4.39c0,3.62-1.34,5.92-4.33,6.87,3.62.83,5.41,3.25,5.41,7.19v5.73c0,6.11-2.74,9.48-10,9.48H338.38Zm7.25,18.2h2.55c2.36,0,3.44-1.21,3.44-3.5V52.43c0-2.35-1.08-3.5-3.5-3.5h-2.49Zm0,5.54v13.5h3.19c2.41,0,3.56-1.22,3.56-3.5v-6.5c0-2.29-1.08-3.5-3.63-3.5Z"/><path class="cls-2" d="M362.37,43h7.25V80.25h8.66v5.91H362.37Z"/><path class="cls-2" d="M380.7,43H398v5.92H388V61.28h7.2v5.85H388V80.25H398v5.91H380.7Z"/><path class="cls-2" d="M164.46,135.48V114.6c0-6.75,3.19-11.65,10.82-11.65,8,0,10.25,4.46,10.25,10.82v5.1h-6.62V113.2c0-2.68-.89-4.2-3.5-4.2s-3.69,1.84-3.69,4.45v23.17c0,2.61,1.08,4.46,3.69,4.46s3.5-1.66,3.5-4.2v-8h6.62v7.45c0,6.17-2.55,10.75-10.25,10.75S164.46,142.16,164.46,135.48Z"/><path class="cls-2" d="M188.58,135.48V114.6c0-6.75,3.31-11.65,10.95-11.65s11,4.9,11,11.65v20.88c0,6.68-3.31,11.64-11,11.64S188.58,142.16,188.58,135.48Zm14.7,1.14V113.45c0-2.61-1.14-4.45-3.75-4.45s-3.69,1.84-3.69,4.45v23.17c0,2.61,1.15,4.46,3.69,4.46S203.28,139.23,203.28,136.62Z"/><path class="cls-2" d="M219.89,119.5v27.11h-6.11V103.46h7.13l7.83,24.76V103.46h6v43.15h-6.36Z"/><path class="cls-2" d="M237.64,137.32v-5.79h6.75v5.92c0,2.42,1.08,3.82,3.57,3.82,2.28,0,3.3-1.53,3.3-3.82V135.8c0-2.49-1-4-3.24-6.12l-4.27-4.26c-4.14-4.07-6-6.55-6-11.52v-1.47c0-5.34,3.12-9.48,10.18-9.48,7.26,0,10.12,3.56,10.12,9.8v3.51h-6.62V112.5c0-2.49-1.15-3.69-3.43-3.69-2,0-3.44,1.14-3.44,3.56v.89c0,2.42,1.34,3.82,3.44,5.86l4.64,4.58c3.94,4,5.85,6.43,5.85,11.2V137c0,5.92-3.18,10.12-10.56,10.12S237.64,143,237.64,137.32Z"/><path class="cls-2" d="M282.45,103.46v32.66c0,6.68-2.87,11-10.26,11-7.63,0-10.82-4.32-10.82-11V103.46h7.26v33.35c0,2.55,1,4.27,3.56,4.27s3.57-1.72,3.57-4.27V103.46Z"/><path class="cls-2" d="M305.67,118.61h-.19l-4.9,28h-3.37l-5.41-28h-.13v28h-6V103.46h8.46l4.71,24.31h.07l4.19-24.31h9.17v43.15h-6.62Z"/><path class="cls-2" d="M315.53,103.46h10.76c7.32,0,10,3.63,10,9.67v9.11c0,6-2.67,9.73-10,9.73h-3.5v14.64h-7.26Zm7.26,5.92v17h2.67c2.48,0,3.57-1.21,3.57-3.56v-9.93c0-2.36-1.09-3.5-3.57-3.5Z"/><path class="cls-2" d="M338,103.46h19.28v5.92h-6v37.23H344V109.38h-6Z"/><path class="cls-2" d="M359.76,103.46H367v43.15h-7.25Z"/><path class="cls-2" d="M370.32,135.48V114.6c0-6.75,3.31-11.65,10.95-11.65s11,4.9,11,11.65v20.88c0,6.68-3.31,11.64-11,11.64S370.32,142.16,370.32,135.48ZM385,136.62V113.45c0-2.61-1.15-4.45-3.76-4.45s-3.69,1.84-3.69,4.45v23.17c0,2.61,1.15,4.46,3.69,4.46S385,139.23,385,136.62Z"/><path class="cls-2" d="M401.63,119.5v27.11h-6.11V103.46h7.13l7.83,24.76V103.46h6v43.15h-6.36Z"/><path class="cls-2" d="M163.32,207.07l8.15-43.16h8.27L188,207.07h-7.44l-1.34-7.89h-7.7l-1.28,7.89Zm9.1-13.68h5.79l-2.86-17.32h-.07Z"/><path class="cls-2" d="M196.16,180v27.12h-6.11V163.91h7.12L205,188.68V163.91h6.05v43.16h-6.36Z"/><path class="cls-2" d="M236,175.5v20c0,6.61-2.74,11.58-10.51,11.58h-11.2V163.91h11.2C233.26,163.91,236,168.82,236,175.5Zm-11.4,25.65c3,0,4.14-1.78,4.14-4.39v-22.6c0-2.54-1.15-4.32-4.14-4.32h-3.06v31.31Z"/><path class="cls-2" d="M245,163.91h10.76c7.32,0,10,3.63,10,9.68v9.1c0,6.05-2.67,9.74-10,9.74h-3.5v14.64H245Zm7.26,5.93v17H255c2.49,0,3.57-1.21,3.57-3.57v-9.93c0-2.35-1.08-3.49-3.57-3.49Z"/><path class="cls-2" d="M275.89,187.27v19.8h-7.26V163.91H279.2c7.32,0,10,3.63,10,9.68v5.54c0,4.64-1.66,7.38-5.8,8.33l6.94,19.61H282.7Zm0-17.43v13.42h2.42c2.48,0,3.56-1.27,3.56-3.56v-6.37c0-2.35-1.08-3.49-3.56-3.49Z"/><path class="cls-2" d="M292.24,195.93V175.05c0-6.74,3.31-11.65,10.95-11.65s11,4.91,11,11.65v20.88c0,6.68-3.31,11.65-11,11.65S292.24,202.61,292.24,195.93ZM307,197.08V173.91c0-2.61-1.15-4.46-3.76-4.46s-3.69,1.85-3.69,4.46v23.17c0,2.6,1.15,4.45,3.69,4.45S307,199.68,307,197.08Z"/><path class="cls-2" d="M339.15,175.5v20c0,6.61-2.74,11.58-10.51,11.58h-11.2V163.91h11.2C336.41,163.91,339.15,168.82,339.15,175.5Zm-11.4,25.65c3,0,4.14-1.78,4.14-4.39v-22.6c0-2.54-1.15-4.32-4.14-4.32H324.7v31.31Z"/><path class="cls-2" d="M363.45,163.91v32.66c0,6.68-2.86,11-10.25,11-7.64,0-10.82-4.33-10.82-11V163.91h7.26v33.35c0,2.55,1,4.27,3.56,4.27s3.57-1.72,3.57-4.27V163.91Z"/><path class="cls-2" d="M366.69,195.93V175.05c0-6.74,3.18-11.65,10.82-11.65,8,0,10.25,4.46,10.25,10.82v5.1h-6.62v-5.67c0-2.67-.89-4.2-3.5-4.2S374,171.3,374,173.91v23.17c0,2.6,1.08,4.45,3.69,4.45s3.5-1.65,3.5-4.2v-8h6.62v7.45c0,6.18-2.55,10.76-10.25,10.76S366.69,202.61,366.69,195.93Z"/><path class="cls-2" d="M389.34,163.91h19.29v5.93h-6v37.23h-7.32V169.84h-6Z"/><path class="cls-2" d="M411.11,163.91h7.25v43.16h-7.25Z"/><path class="cls-2" d="M421.67,195.93V175.05c0-6.74,3.31-11.65,10.95-11.65s11,4.91,11,11.65v20.88c0,6.68-3.31,11.65-11,11.65S421.67,202.61,421.67,195.93Zm14.7,1.15V173.91c0-2.61-1.14-4.46-3.75-4.46s-3.69,1.85-3.69,4.46v23.17c0,2.6,1.14,4.45,3.69,4.45S436.37,199.68,436.37,197.08Z"/><path class="cls-2" d="M453,180v27.12h-6.11V163.91H454l7.83,24.77V163.91h6.05v43.16h-6.37Z"/></svg>