<svg id="Layer_1" data-name="Layer 1" xmlns="http://www.w3.org/2000/svg" viewBox="0 0 512 512"><defs><style>.cls-1{fill:#48773c;}.cls-2{fill:#fff;}</style></defs><title>13</title><rect class="cls-1" width="512" height="512"/><path class="cls-2" d="M447.76,320.55c-13.49-18.92-74.51-94.46-187.93-94.46s-174.45,75.54-188,94.46c-.57.81-1.07,1.51-1.47,2.11.4.61.9,1.3,1.47,2.12,13.51,18.91,74.51,94.46,188,94.46s174.44-75.55,187.93-94.46c.59-.82,1.07-1.51,1.46-2.12-.39-.6-.87-1.3-1.46-2.11M196.55,273.86c1-1.5,4.42-5.79,4.83-6.33.88-1.12,2.61-1.35,3.83-1.57s2.81.45,3,1.35-.47,4.42-1.06,5c-1.66,1.73-6,4.17-8.38,3.78-1.85-.28-2.57-1.71-2.22-2.25m-4.05,8.06.41-.48c1.43-1.63,4.27-2,6.23-2.28s4.59.65,4.91,2-4.93,3.69-5.9,4.58c-2.73,2.51-7,7.63-9.5,8.18a3,3,0,0,1-2-.21,78.17,78.17,0,0,1,5.89-11.75M235,369c-1.53,6-3.33,8.22-4.86,10.13s-7.18,4.38-10.77,4.12-4.09-9.86-4.09-14.79c0-1.71-2.42,3.35-3.67-6.92-.81-6.57-5,.68-5.32-3.7s-2.41-3.5-4.63-6.24-5,.27-8,1.65-1.8,2.08-6.16.71l-.27-.11a78.69,78.69,0,0,1-6.21-30.75c0-2.67.14-5.29.39-7.89a4.23,4.23,0,0,1,.49-.73c4.18-5,4.08-6.11,4.08-6.11l4.63-1.6A77.61,77.61,0,0,1,203.46,310c4.58,1.72,11.8,5.61,16,3.9,3-1.25,5.41-2.91,5.12-5.44-.34-3.16-2.83-3.92-5.85-1.78-1.12.78-3.49-4.78-5.36-4.49s2.31,6.53.73,6.8-4.77-6.53-5.31-7.63-3-3.82-5.2-1.74c-4.66,4.43-12.23,4.16-13.75,5.3-4.63,3.46-5.85-1.14-5.74-3.94.18-.64.37-1.29.58-1.92,1.51-1.67,6.93-2.22,8.79-1,2,1.37,3.51-.35,4.31-1.18s.52-2.12,0-3.21,1-1.9,2.07-2.18,4.59-2.75,6-3.57,8.73-1.71,12-.07a6.36,6.36,0,0,0,7.89-1.59,21.27,21.27,0,0,1,5.73-4.78c1.15-.53-2.82-4.23-6.08-.2s-4.93,4.39-6.46,4.39-10.66-2.28-11.79-5.16,2.86-5,6.22-6.67,12.58-1.58,14.94-2.12c4.79-1.05,10.91-3.45,14-1.35s-12.88,5.69-7.64,8.52c1.87,1,10.3-4.85,13.19-6.35,6.79-3.51-6.59-4.66-4.85-11.79,2-8-16.42-4.94-25.59-4.25a79,79,0,0,1,119.39,48.1,13,13,0,0,1-.38,3.65c-.72,2.85-6.12,5.3-9.26.72-.8-1.16-4.19-4.36-4.07,1.11s5.32,6,.27,9.33-6,2.49-8.31,3.32-4.58,6.47-4,9.48,7.77,11.26,2.43,10.92c-1.25-.1-10.7-6.54-12.26-10.69-1.64-4.37-3.44-8.64-4.71-11.93s-4.62-4.12-7.45-2.19.79,3.84-1.23,8-3.46,7.78-6.43,4.39c-7.71-8.84-18.92-4.48-20.68-14.32-.95-5.33-5.54-4.82-9.38-7.84s-6-4.63-6.65-2.46c-.57,1.91,12.08,11.94,13,14.51,1.34,3.81-3.79,7.18-7.55,8.08s-5.39-2.1-9.07-5.94-5.29-6.56-5.54-3.56c-.37,4.35,3.49,10.74,7.24,13.12,3.2,2,6.78,3,5.75,6.23s0,1.43-3.6,5-4.28,4.7-4,9.62-1,5.22-1.79,9.32S236.5,363,235,369m84.77-31.51c2.65-.21,6.64,3.47,5.08,4.88s-5.53.89-7.53-.67,1.25-4.11,2.45-4.21m-3.36-2.42c-.85-.32-1.6-1.13-2.25-3.07a1.78,1.78,0,0,1,2.58-2.27c1.62.83,3.73,3.25,3.73,4.54s-3.19,1.14-4.06.8m-34.88-.14c-1.56,1.39-5.55.88-7.55-.68s1.26-4.11,2.45-4.2c2.66-.24,6.65,3.47,5.1,4.88m-32.27,15.69c-1.09,1.78-4.06,15.07-6.05,13.52s.81-15.41,1.38-16.47c3.12-5.72,9.88-5.44,4.67,2.95M260,402.12a79,79,0,0,1-22.21-3.18,3.25,3.25,0,0,1-1-3.86c2.45-6.38,9.73-8.87,15.47-9.42,12.82-1.25,29.66,8.31,32.34,6.77s8.1-8.59,16-8.29c5.42.21,5.38,1.12,7.2,1.8A78.68,78.68,0,0,1,260,402.12m55.73-23a13.41,13.41,0,0,1-2.49-.92c-4.31-2.19-3.79,1.32-5.91.54s2.39-5.71-4-1.55-4.63-.64-7.4-7.67,3.19-15.07,8.18-16.89c6.86-2.48,11.13-3,14.34-3.78,9.5-2.37,11.5-8,13.23-4.58.32.64.64,1.25.92,1.83a12.51,12.51,0,0,1,1.22,5.15,79.24,79.24,0,0,1-18.11,27.87m21.64-39.89c-2.12-.58-11-12.85-4-20.92C334.52,317,331,313.08,332,313c3.84-.3,5.88,2.09,6.89,5.52.08,1.51.14,3,.14,4.58a79.37,79.37,0,0,1-1.66,16.13"/><polygon class="cls-2" points="64.63 42.95 64.63 146.14 47.27 146.14 47.27 67.15 47.12 67.15 34.95 79.78 34.79 79.78 34.79 61.67 50.77 42.95 64.63 42.95"/><path class="cls-2" d="M121.85,65.33v9c0,8.67-4.72,14.45-11.87,16.74,8.67,2,12.78,8.06,12.78,17.5v15.22c0,14.31-7.6,23.59-25.11,23.59-17.66,0-23.9-10-23.9-25.72V108.09H89.59v14.77c0,6.09,2.12,10,8.06,10,5.32,0,7.76-3.8,7.76-9.28V106.57c0-5.48-2.44-8.37-8.52-8.37h-7.3V85h6.54c5.63,0,9.28-2.9,9.28-8.37V65.48c0-5.64-2-9.29-7.45-9.29s-7.46,3.65-7.46,10v10.5H74.66V67.61c0-15.22,6.25-25.88,24.2-25.88,16,0,23,9,23,23.6"/><path class="cls-2" d="M158,74.51V53.63C158,46.89,161.13,42,168.77,42c8,0,10.25,4.45,10.25,10.82V57.9H172.4V52.23c0-2.67-.89-4.2-3.51-4.2s-3.69,1.85-3.69,4.46V75.66c0,2.61,1.09,4.45,3.69,4.45s3.51-1.65,3.51-4.2V68H179V75.4c0,6.18-2.55,10.76-10.25,10.76S158,81.2,158,74.51Z"/><path class="cls-2" d="M183,42.5h7.25V79.73h8.66v5.92H183Z"/><path class="cls-2" d="M202.17,42.5h7.26V85.65h-7.26Z"/><path class="cls-2" d="M233.61,57.65h-.19l-4.9,28h-3.37l-5.41-28h-.13v28h-6V42.5h8.46l4.71,24.31h.07l4.2-24.31h9.16V85.65h-6.62Z"/><path class="cls-2" d="M243.22,85.65l8.14-43.15h8.28l8.21,43.15H260.4l-1.33-7.89h-7.71l-1.27,7.89ZM252.32,72h5.79l-2.86-17.32h-.07Z"/><path class="cls-2" d="M266.82,42.5h19.29v5.92h-6V85.65h-7.31V48.42h-6Z"/><path class="cls-2" d="M289.48,42.5h17.31v5.92H296.73V60.76h7.19v5.86h-7.19V79.73h10.06v5.92H289.48Z"/><path class="cls-2" d="M156.8,146.11,165,103h8.27l8.21,43.16H174l-1.34-7.9H165l-1.27,7.9Zm9.1-13.69h5.8l-2.87-17.31h-.06Z"/><path class="cls-2" d="M183.46,135V114.09c0-6.75,3.19-11.65,10.83-11.65,8,0,10.24,4.46,10.24,10.83v5.09h-6.62v-5.67c0-2.67-.89-4.2-3.5-4.2s-3.69,1.85-3.69,4.46v23.16c0,2.62,1.08,4.46,3.69,4.46s3.5-1.65,3.5-4.2v-8h6.62v7.45c0,6.17-2.54,10.76-10.24,10.76S183.46,141.65,183.46,135Z"/><path class="cls-2" d="M207,103H226.3v5.92h-6v37.24H213V108.87h-6Z"/><path class="cls-2" d="M229.66,103h7.26v43.16h-7.26Z"/><path class="cls-2" d="M241.12,135V114.09c0-6.75,3.31-11.65,10.94-11.65s11,4.9,11,11.65V135c0,6.68-3.31,11.65-11,11.65S241.12,141.65,241.12,135Zm14.7,1.14V113c0-2.61-1.15-4.46-3.76-4.46s-3.69,1.85-3.69,4.46v23.16c0,2.62,1.15,4.46,3.69,4.46S255.82,138.73,255.82,136.11Z"/><path class="cls-2" d="M273.32,119v27.12h-6.11V103h7.12l7.83,24.76V103h6v43.16h-6.36Z"/></svg>