<svg id="Layer_1" data-name="Layer 1" xmlns="http://www.w3.org/2000/svg" viewBox="0 0 512 512"><defs><style>.cls-1{fill:#007dbb;}.cls-2{fill:#fff;}</style></defs><title>14</title><rect class="cls-1" width="512" height="512"/><path class="cls-2" d="M392.74,373.58c-6.45-8.7-48.07-61.77-106.42-61.77-50.68,0-104.89,46-104.89,46s-20.36-41.68-62-45.68c-.25,0-.51,0-.79,0h-.25a1.68,1.68,0,0,0-1.59,1.64,4.52,4.52,0,0,0,.65,1.53c5.37,8.91,19.07,34.27,19.07,59.61s-13.78,50.84-19.1,59.71l-.36.57a1.63,1.63,0,0,0-.26.88,1.66,1.66,0,0,0,1.53,1.64l.45,0a1.68,1.68,0,0,0,.44,0c41.79-3.89,62.22-45.7,62.22-45.7s54.21,46,104.89,46c58.35,0,100-53.07,106.42-61.76.18-.23.32-.44.45-.59a1.92,1.92,0,0,0,.13-.64,1.82,1.82,0,0,0-.13-.64c-.13-.18-.27-.38-.45-.6m-74,7.94a17,17,0,1,1,17.05-17,17,17,0,0,1-17.05,17"/><path class="cls-2" d="M177.61,264.24a1.92,1.92,0,0,1,.44-.46,1.78,1.78,0,0,1,.92-.31,1.62,1.62,0,0,1,1.14.47l.08.07c31.81,30.32,65.18,5.74,72.13,0l.68-.65a1.61,1.61,0,0,1,.63-.11,1.81,1.81,0,0,1,.67.11l.68.65c6.94,5.74,40.3,30.32,72.12,0l.06-.07a1.61,1.61,0,0,1,1.13-.47,1.66,1.66,0,0,1,.92.31,1.87,1.87,0,0,1,.47.46c6.17,6.07,32.81,29,61,4.51a1.65,1.65,0,0,0,.49-1.17V255.93a1.66,1.66,0,0,0-1.66-1.67,2.53,2.53,0,0,0-.36.07c-.26.13-.53.28-.85.43-8.65,4.34-35.53,14.64-59.92-8.41-.23-.22-.46-.43-.7-.67a1.44,1.44,0,0,0-.72-.16,1.08,1.08,0,0,0-.5.12,1.43,1.43,0,0,0-.85.63c-7.26,5.53-40.63,28.13-70.35.41l-.44-.44a1.68,1.68,0,0,0-1.2-.47,1.62,1.62,0,0,0-1.16.47l-.46.44c-29.7,27.72-63.1,5.12-70.36-.41a1.4,1.4,0,0,0-.82-.63,1.32,1.32,0,0,0-.54-.12,1.4,1.4,0,0,0-.69.16c-.23.24-.48.45-.73.67-24.38,23-51.24,12.75-59.91,8.41l-.85-.43a2.71,2.71,0,0,0-.32-.07,1.67,1.67,0,0,0-1.68,1.67v11.65a1.6,1.6,0,0,0,.48,1.17c28.18,24.5,54.85,1.56,61-4.51"/><path class="cls-2" d="M118.1,212.07a1.36,1.36,0,0,0-.32-.08,1.69,1.69,0,0,0-1.67,1.7V225.3a1.61,1.61,0,0,0,.49,1.2c28.17,24.48,54.84,1.55,61-4.51a1.57,1.57,0,0,1,.44-.48,1.77,1.77,0,0,1,.92-.3,1.65,1.65,0,0,1,1.14.45.18.18,0,0,0,.08.07c31.82,30.37,65.18,5.77,72.12,0l.69-.62a1.32,1.32,0,0,1,.63-.13,1.42,1.42,0,0,1,.66.13l.69.62c6.94,5.77,40.3,30.37,72.12,0,0,0,0,0,.06-.07a1.61,1.61,0,0,1,2-.15,1.54,1.54,0,0,1,.47.48c6.17,6.06,32.81,29,61,4.51a1.68,1.68,0,0,0,.48-1.2V213.69a1.52,1.52,0,0,0-2-1.62c-.26.14-.53.28-.85.43-8.66,4.34-35.53,14.67-59.92-8.41-.23-.21-.47-.43-.71-.68a1.76,1.76,0,0,0-.71-.15,2.61,2.61,0,0,0-.5.08,1.84,1.84,0,0,0-.85.66c-7.27,5.54-40.63,28.13-70.35.41l-.43-.43a1.9,1.9,0,0,0-1.21-.5,1.79,1.79,0,0,0-1.16.5l-.46.43c-29.7,27.72-63.1,5.13-70.36-.41a1.78,1.78,0,0,0-.83-.66,2.94,2.94,0,0,0-.53-.08,2,2,0,0,0-.7.15,7.55,7.55,0,0,1-.71.68c-24.39,23.08-51.25,12.75-59.92,8.41l-.86-.43"/><polygon class="cls-2" points="66.34 43.08 66.34 146.27 48.98 146.27 48.98 67.28 48.83 67.28 36.66 79.91 36.5 79.91 36.5 61.8 52.48 43.08 66.34 43.08"/><path class="cls-2" d="M119.18,146.29V129.55h7V116h-7V43.06H102.12l-30,75.83v10.66h30.61v16.74ZM87.35,116l15.53-42.48H103V116Z"/><path class="cls-2" d="M166.84,42.49h7.26V79.73h8.66v5.92H166.84Z"/><path class="cls-2" d="M186.06,42.49h7.26V85.65h-7.26Z"/><path class="cls-2" d="M197.51,42.49h17v5.92h-9.74V60.76H212v5.86h-7.26v19h-7.26Z"/><path class="cls-2" d="M217.68,42.49H235v5.92H224.94V60.76h7.19v5.86h-7.19V79.73H235v5.92H217.68Z"/><path class="cls-2" d="M166.84,103h10.51c7.25,0,9.67,3.37,9.67,9.48v4.39c0,3.63-1.34,5.92-4.33,6.88,3.63.83,5.41,3.24,5.41,7.19v5.73c0,6.11-2.73,9.48-10,9.48H166.84Zm7.26,18.2h2.55c2.35,0,3.43-1.2,3.43-3.5v-5.28c0-2.36-1.08-3.5-3.5-3.5H174.1Zm0,5.54v13.49h3.18c2.42,0,3.57-1.21,3.57-3.49v-6.5c0-2.29-1.08-3.5-3.63-3.5Z"/><path class="cls-2" d="M191.73,103H209v5.92H199v12.35h7.19v5.85H199v13.11H209v5.92H191.73Z"/><path class="cls-2" d="M212.91,103h7.26v37.23h8.66v5.92H212.91Z"/><path class="cls-2" d="M231.81,135V114.09c0-6.75,3.31-11.65,10.95-11.65s11,4.9,11,11.65V135c0,6.69-3.31,11.65-11,11.65S231.81,141.65,231.81,135Zm14.71,1.15V112.94c0-2.61-1.15-4.45-3.76-4.45s-3.69,1.84-3.69,4.45v23.17c0,2.61,1.14,4.46,3.69,4.46S246.52,138.72,246.52,136.11Z"/><path class="cls-2" d="M272.93,119.44l-4.08,26.66H262L256.25,103h7l3.37,27.37h.07L270.31,103h5.93l4,27.37h.06L283.62,103h6.11l-5.6,43.15h-6.88L273,119.44Z"/><path class="cls-2" d="M315.18,119.44,311.1,146.1h-6.81L298.5,103h7l3.38,27.37h.06L312.57,103h5.92l4,27.37h.06L325.87,103H332l-5.6,43.15h-6.87l-4.27-26.66Z"/><path class="cls-2" d="M331.4,146.1,339.55,103h8.27L356,146.1h-7.45l-1.33-7.89h-7.7l-1.28,7.89Zm9.1-13.68h5.79l-2.86-17.31h-.06Z"/><path class="cls-2" d="M355,103h19.28v5.92h-6V146.1H361V108.87h-6Z"/><path class="cls-2" d="M377.66,103H395v5.92H384.92v12.35h7.19v5.85h-7.19v13.11H395v5.92H377.66Z"/><path class="cls-2" d="M406.1,126.31V146.1h-7.25V103h10.56c7.32,0,10,3.63,10,9.67v5.54c0,4.65-1.66,7.39-5.8,8.34l6.94,19.6h-7.63Zm0-17.44V122.3h2.42c2.48,0,3.57-1.27,3.57-3.57v-6.36c0-2.36-1.09-3.5-3.57-3.5Z"/></svg>