<svg id="Layer_1" data-name="Layer 1" xmlns="http://www.w3.org/2000/svg" viewBox="0 0 512 512"><defs><style>.cls-1{fill:#40ae49;}.cls-2{fill:#fff;}</style></defs><title>15</title><rect class="cls-1" width="512" height="512"/><path class="cls-2" d="M215.41,346.19a1.14,1.14,0,0,1,1.13,1.13V384.6a1.13,1.13,0,0,1-1.13,1.14H200.32a1.12,1.12,0,0,1-1.13-1.14V347.32a1.13,1.13,0,0,1,1.13-1.13Z"/><path class="cls-2" d="M381.09,401.74H132.46a1.16,1.16,0,0,0-1.13,1.17v15.2a1.13,1.13,0,0,0,1.13,1.12H381.09a1.14,1.14,0,0,0,1.14-1.12v-15.2a1.17,1.17,0,0,0-1.14-1.17"/><path class="cls-2" d="M381.09,432H132.46a1.13,1.13,0,0,0-1.13,1.12v15.24a1.13,1.13,0,0,0,1.13,1.12H381.09a1.14,1.14,0,0,0,1.14-1.12V433.07a1.14,1.14,0,0,0-1.14-1.12"/><path class="cls-2" d="M333.78,304.92c-3.1-2.43-11.39-8.1-21.5-8.1-7.23,0-14,2.84-20,8.48a2.12,2.12,0,0,0-.67,1.56v1.35a2.15,2.15,0,0,0,.71,1.7,2,2,0,0,0,1.76.41,2,2,0,0,0,.46-.12,3.21,3.21,0,0,0,1.24-.79c1.31-.87,4.87-2.07,10-2.07,5.27,0,15.62,1.41,25.62,10.74l.23.2a3,3,0,0,0,2.16.9,2.91,2.91,0,0,0,2.11-.88l.2-.2c10.06-9.35,20.39-10.76,25.65-10.76s8.68,1.2,10,2.07a3.52,3.52,0,0,0,1.37.85,3.14,3.14,0,0,0,1.46,0,2.13,2.13,0,0,0,1.56-2.05v-1.2a2.12,2.12,0,0,0-.67-1.54c-6.07-5.78-12.86-8.71-20.2-8.71-10,0-18.27,5.59-21.47,8.12"/><path class="cls-2" d="M318.35,205.83a2,2,0,0,0-1.08,1.31L317,208a2.13,2.13,0,0,0,.32,1.87,2.06,2.06,0,0,0,1.54.84.83.83,0,0,0,.31,0,2.63,2.63,0,0,0,1.2-.3,6,6,0,0,1,1.51-.17c1.11,0,11.14.33,17.76,11.6l.09.16a2.53,2.53,0,0,0,1.59,1.27,2.84,2.84,0,0,0,.79.13,2.72,2.72,0,0,0,1.25-.31l.17-.08a24.66,24.66,0,0,1,11.09-2.75c6.28,0,10.38,2.56,11.34,3.63a2.83,2.83,0,0,0,.83.93,6.68,6.68,0,0,0,.81.39,2.07,2.07,0,0,0,.37,0h.22a2.15,2.15,0,0,0,1-.24,2.08,2.08,0,0,0,1.06-1.28l.21-.73a2,2,0,0,0,.09-.6,2,2,0,0,0-.29-1.07c-4.83-8.39-11.84-10.14-16.87-10.14a26.5,26.5,0,0,0-8.95,1.68c-2.27-3.06-8-9.39-16.77-9.39a20.57,20.57,0,0,0-9.32,2.36"/><path class="cls-2" d="M265.82,244.08l.07,1.12a2.12,2.12,0,0,0,2.67,1.92,2.15,2.15,0,0,0,.36-.11,2.75,2.75,0,0,0,1.07-.79c1.06-.77,4.47-2.16,9.49-2.16a30.72,30.72,0,0,1,19.66,7.44l.17.18a3,3,0,0,0,1.92.72h.18a2.88,2.88,0,0,0,1.95-.94l.17-.19c8.29-8.77,17.21-10.07,21.8-10.07a14.79,14.79,0,0,1,6.48,1.19,3.36,3.36,0,0,0,1.29.67,3.1,3.1,0,0,0,.91.06,3.3,3.3,0,0,0,.52-.13,2.12,2.12,0,0,0,1.41-2.14l-.05-1a2.14,2.14,0,0,0-.75-1.48c-4.95-4.16-10.29-6.26-15.9-6.26-8.75,0-15.73,5.17-18.62,7.7-2.64-1.8-9.06-5.51-16.59-5.51-6.61,0-12.54,2.75-17.63,8.16a2.11,2.11,0,0,0-.58,1.59"/><path class="cls-2" d="M140,264a27,27,0,0,1,26.95-27c.59,0,1.16,0,1.73.09a36.45,36.45,0,1,1,69.12,18.66A40.74,40.74,0,0,1,229,336.35L174.57,336h0a28.83,28.83,0,0,1-21-48.62A26.92,26.92,0,0,1,140,264Z"/><polygon class="cls-2" points="36.26 61.59 36.26 79.71 36.41 79.71 48.59 67.07 48.75 67.07 48.75 146.09 66.1 146.09 66.1 42.86 52.24 42.86 36.26 61.59"/><path class="cls-2" d="M107.37,75.6c-6.85,0-11.87,2.43-14.62,7.15h-.16V57h29.85V42.86H76.77V101H92.59V98.74c0-6.08,2.74-9.44,7.62-9.44,5.33,0,7.47,3.66,7.47,9.29v25c0,5.48-2,9.29-7.32,9.29-5.93,0-8.06-4-8.06-10V109.86H76.46v11.73c0,15.68,6.24,25.73,23.9,25.73S125,138,125,123.71V98.44c0-16.3-8.37-22.84-17.66-22.84"/><path class="cls-2" d="M162.34,42.49h7.26V79.73h8.65v5.92H162.34Z"/><path class="cls-2" d="M181.56,42.49h7.25V85.65h-7.25Z"/><path class="cls-2" d="M193,42.49h17v5.92h-9.73V60.76h7.25v5.86h-7.25v19H193Z"/><path class="cls-2" d="M213.18,42.49h17.31v5.92H220.44V60.76h7.19v5.86h-7.19V79.73h10.05v5.92H213.18Z"/><path class="cls-2" d="M162.34,135V114.09c0-6.75,3.31-11.65,10.95-11.65s11,4.9,11,11.65V135c0,6.69-3.31,11.65-11,11.65S162.34,141.65,162.34,135Zm14.7,1.15V112.94c0-2.61-1.14-4.45-3.75-4.45s-3.69,1.84-3.69,4.45v23.17c0,2.61,1.14,4.46,3.69,4.46S177,138.72,177,136.11Z"/><path class="cls-2" d="M194.54,119V146.1h-6.11V103h7.13l7.83,24.76V103h6.05V146.1h-6.37Z"/><path class="cls-2" d="M226.93,103h7.26v37.23h8.65v5.92H226.93Z"/><path class="cls-2" d="M245,146.1,253.15,103h8.27l8.21,43.15h-7.45l-1.33-7.89h-7.7l-1.28,7.89Zm9.1-13.68h5.79L257,115.11H257Z"/><path class="cls-2" d="M278.73,119V146.1h-6.11V103h7.12l7.83,24.76V103h6.05V146.1h-6.36Z"/><path class="cls-2" d="M319.45,114.53v20c0,6.62-2.73,11.58-10.5,11.58h-11.2V103H309C316.72,103,319.45,107.85,319.45,114.53Zm-11.39,25.65c3,0,4.14-1.78,4.14-4.39V113.2c0-2.55-1.15-4.33-4.14-4.33H305v31.31Z"/></svg>