<svg id="Layer_1" data-name="Layer 1" xmlns="http://www.w3.org/2000/svg" viewBox="0 0 512 512"><defs><style>.cls-1{fill:#00558a;}.cls-2{fill:#fff;}</style></defs><title>16</title><rect class="cls-1" width="512" height="512"/><path class="cls-2" d="M339.77,227.27s-5,6.61-3.53,13S345,250.57,345,250.57s5-6.6,3.52-13-8.78-10.26-8.78-10.26"/><path class="cls-2" d="M331.67,265s5-6.6,3.52-13-8.78-10.25-8.78-10.25-5,6.6-3.53,13S331.67,265,331.67,265"/><path class="cls-2" d="M352.1,257.9s5.25,5.3,11.23,4.76,10.4-6.68,10.4-6.68-5.24-5.29-11.22-4.76-10.41,6.68-10.41,6.68"/><path class="cls-2" d="M360.7,229.62c-4.86,4.94-4.18,13.67-4.18,13.67s8.57.75,13.45-4.18,4.17-13.67,4.17-13.67-8.57-.74-13.44,4.18"/><path class="cls-2" d="M350,277.53c5.95.7,11.56-4.41,11.56-4.41s-4.06-6.26-10-7S340,270.57,340,270.57s4.05,6.25,10,7"/><path class="cls-2" d="M355.29,373.28H310.77a6.3,6.3,0,1,0,0,12.6h44.52a6.3,6.3,0,0,0,0-12.6"/><path class="cls-2" d="M355.29,442.71H310.77a6.3,6.3,0,1,0,0,12.6h44.52a6.3,6.3,0,0,0,0-12.6"/><path class="cls-2" d="M155.06,358a27.52,27.52,0,0,0-3.09-.79s1.14.35,3.09.79"/><path class="cls-2" d="M353.65,390.28H312.39a3.58,3.58,0,0,0-3.58,3.58v12.5l-26.94,3-39.34-.9v-24a108.8,108.8,0,0,0,15.65-3.17c37.88-10.69,46.14-34.28,45.31-55.95-.82-22.06,6.24-30.63,16.39-34.44a46,46,0,0,1,8.41-2.23,67.57,67.57,0,0,0,3.63,19.23c.9-.05,1.8-.13,2.69-.22a64.22,64.22,0,0,1-3.72-19.39,47.23,47.23,0,0,1,9-.27,56.69,56.69,0,0,1-8.55-6.08c1.7-10.45,7.92-16.87,14.34-23.43a76.86,76.86,0,0,0,10-11.78l-2.23-1.44c-2.71,4.22-6.28,7.85-9.71,11.36-6.25,6.4-12.57,12.94-14.71,23.31a83.56,83.56,0,0,1-6.48-6.53c-9.34-10.47-21.36-2.78-38.51,13.19s-38.72,16.5-59.79-5.06c-27.79-28.45-52-28.29-68.66-26.67,11.37,4.84,15.35,15.47,21.11,42.48,6,28.35,21.25,41.17,42.06,42.94-9.65,1.56-12.15,2.9-27.66,13.62C179,362.2,162,359.56,155.06,358c12.68,4,27.7,17.26,41.14,21.89a99.76,99.76,0,0,0,24.53,5v23l-74.63-1.61v16.05l135.77-3,26.94,3v12.48a3.58,3.58,0,0,0,3.58,3.59h41.26a3.59,3.59,0,0,0,3.59-3.59V393.86A3.59,3.59,0,0,0,353.65,390.28Zm-126.43-5q4.4.08,8.82-.23v23.26l-8.82-.21Z"/><path class="cls-2" d="M142.25,419.7c0,3.39-2.37,6.13-5.28,6.13H133.8c-2.9,0-5.27-2.74-5.27-6.13V408.61c0-3.39,2.37-6.13,5.27-6.13H137c2.91,0,5.28,2.74,5.28,6.13Z"/><polygon class="cls-2" points="39.28 61.68 39.28 79.8 39.44 79.8 51.62 67.16 51.77 67.16 51.77 146.18 69.13 146.18 69.13 42.95 55.28 42.95 39.28 61.68"/><path class="cls-2" d="M129.89,121.37V106.14c0-16.9-6.7-25.43-19.19-25.43-7.31,0-11.72,3.35-14.31,8.38h-.15V66.86c0-6.25,2-10.66,8.22-10.66s8.07,3.65,8.07,10V73.1h15.83V67.62c0-15.23-5-25.89-24.21-25.89C85.88,41.73,79,53.46,79,69.6v50.24c0,16,7,27.56,25.28,27.56,18.42,0,25.58-10,25.58-26m-17.21,1.52c0,6.55-2.44,10.35-8.37,10.35s-8.07-4-8.07-10.35V104c.3-5.79,2.74-9.44,8.22-9.44,5.93,0,8.22,3.65,8.22,10.35Z"/><path class="cls-2" d="M161.7,42.49h10.75c7.33,0,10,3.63,10,9.68v9.1c0,6-2.67,9.74-10,9.74H169V85.65H161.7ZM169,48.41v17h2.68c2.48,0,3.56-1.21,3.56-3.57V51.92c0-2.36-1.08-3.51-3.56-3.51Z"/><path class="cls-2" d="M186.2,42.49h17.31v5.92H193.45V60.76h7.2v5.86h-7.2V79.73h10.06v5.92H186.2Z"/><path class="cls-2" d="M206.24,85.65l8.15-43.16h8.27l8.21,43.16h-7.44l-1.34-7.9h-7.7l-1.27,7.9ZM215.35,72h5.79l-2.86-17.31h-.07Z"/><path class="cls-2" d="M232.9,74.51V53.63c0-6.74,3.18-11.65,10.82-11.65,8,0,10.25,4.46,10.25,10.83V57.9h-6.62V52.23c0-2.67-.89-4.2-3.5-4.2s-3.69,1.85-3.69,4.46V75.65c0,2.62,1.08,4.46,3.69,4.46s3.5-1.65,3.5-4.2V68H254V75.4c0,6.18-2.55,10.76-10.25,10.76S232.9,81.19,232.9,74.51Z"/><path class="cls-2" d="M257.91,42.49h17.31v5.92H265.17V60.76h7.19v5.86h-7.19V79.73h10.05v5.92H257.91Z"/><path class="cls-2" d="M286.55,79.29,282.86,89h-4.08l.9-10.31h6.87Z"/><path class="cls-2" d="M316.65,42.49V75.85c0,6.23-2.73,10.31-10,10.31-7.51,0-9.55-4.14-9.55-9.61V68H304v8.72c0,2.17.76,3.44,2.67,3.44s2.74-1.27,2.74-3.5V42.49Z"/><path class="cls-2" d="M341.79,42.49V75.15c0,6.68-2.86,11-10.25,11-7.64,0-10.82-4.33-10.82-11V42.49H328V75.85c0,2.54,1,4.26,3.56,4.26s3.57-1.72,3.57-4.26V42.49Z"/><path class="cls-2" d="M345.53,76.36v-5.8h6.75v5.92c0,2.42,1.08,3.83,3.57,3.83,2.29,0,3.31-1.54,3.31-3.83V74.83c0-2.48-1-4-3.25-6.11l-4.27-4.27c-4.13-4.07-6-6.55-6-11.52V51.47c0-5.35,3.12-9.49,10.18-9.49,7.26,0,10.12,3.57,10.12,9.81v3.5h-6.62V51.53c0-2.48-1.14-3.69-3.43-3.69-2,0-3.44,1.15-3.44,3.57v.89c0,2.41,1.34,3.82,3.44,5.85l4.64,4.59c3.95,4,5.86,6.43,5.86,11.2V76c0,5.92-3.18,10.12-10.57,10.12S345.53,82,345.53,76.36Z"/><path class="cls-2" d="M368.38,42.49h19.28v5.92h-6V85.65h-7.32V48.41h-6Z"/><path class="cls-2" d="M391,42.49h7.26V85.65H391Z"/><path class="cls-2" d="M402.49,74.51V53.63c0-6.74,3.18-11.65,10.82-11.65,8,0,10.25,4.46,10.25,10.83V57.9h-6.63V52.23c0-2.67-.88-4.2-3.49-4.2s-3.7,1.85-3.7,4.46V75.65c0,2.62,1.08,4.46,3.7,4.46s3.49-1.65,3.49-4.2V68h6.63V75.4c0,6.18-2.55,10.76-10.25,10.76S402.49,81.19,402.49,74.51Z"/><path class="cls-2" d="M427.5,42.49h17.31v5.92H434.75V60.76h7.19v5.86h-7.19V79.73h10.06v5.92H427.5Z"/><path class="cls-2" d="M160.55,146.1,168.7,103H177l8.21,43.15h-7.44l-1.34-7.89h-7.7l-1.28,7.89Zm9.1-13.68h5.79l-2.86-17.31h-.06Z"/><path class="cls-2" d="M194.28,119V146.1h-6.11V103h7.13l7.83,24.76V103h6V146.1h-6.36Z"/><path class="cls-2" d="M235,114.53v20c0,6.62-2.74,11.58-10.5,11.58h-11.2V103h11.2C232.27,103,235,107.85,235,114.53Zm-11.39,25.65c3,0,4.14-1.78,4.14-4.39V113.2c0-2.55-1.15-4.33-4.14-4.33h-3.06v31.31Z"/><path class="cls-2" d="M245.43,136.81V131h6.75v5.92c0,2.42,1.09,3.82,3.57,3.82,2.29,0,3.31-1.53,3.31-3.82v-1.66c0-2.48-1-4-3.25-6.11l-4.27-4.26c-4.13-4.08-6-6.56-6-11.52v-1.47c0-5.34,3.12-9.48,10.19-9.48,7.25,0,10.11,3.56,10.11,9.8v3.5h-6.62V112c0-2.49-1.14-3.69-3.43-3.69-2,0-3.44,1.14-3.44,3.56v.89c0,2.42,1.34,3.82,3.44,5.86l4.64,4.58c3.95,4,5.86,6.43,5.86,11.2v2.1c0,5.92-3.18,10.12-10.56,10.12S245.43,142.48,245.43,136.81Z"/><path class="cls-2" d="M268.28,103h19.28v5.92h-6V146.1h-7.32V108.87h-6Z"/><path class="cls-2" d="M298.19,126.31V146.1h-7.26V103H301.5c7.32,0,10,3.63,10,9.67v5.54c0,4.65-1.65,7.39-5.79,8.34l6.94,19.6H305Zm0-17.44V122.3h2.42c2.48,0,3.56-1.27,3.56-3.57v-6.36c0-2.36-1.08-3.5-3.56-3.5Z"/><path class="cls-2" d="M315.43,135V114.09c0-6.75,3.31-11.65,10.95-11.65s11,4.9,11,11.65V135c0,6.69-3.31,11.65-11,11.65S315.43,141.65,315.43,135Zm14.71,1.15V112.94c0-2.61-1.15-4.45-3.76-4.45s-3.69,1.84-3.69,4.45v23.17c0,2.61,1.15,4.46,3.69,4.46S330.14,138.72,330.14,136.11Z"/><path class="cls-2" d="M347.63,119V146.1h-6.11V103h7.13l7.83,24.76V103h6V146.1h-6.37Z"/><path class="cls-2" d="M377.6,123.06h10.31v23H382.7v-4.71c-1,3.25-3,5.22-6.94,5.22-6.24,0-9.11-5-9.11-11.65V114.09c0-6.75,3.25-11.65,10.89-11.65,8,0,10.37,4.46,10.37,10.82v3.82h-6.62v-4.39c0-2.68-1-4.2-3.62-4.2s-3.76,1.84-3.76,4.45v23.17c0,2.61,1.08,4.46,3.56,4.46s3.57-1.34,3.57-4.14v-7.64H377.6Z"/><path class="cls-2" d="M161.7,163.4H169v43.15H161.7Z"/><path class="cls-2" d="M179.26,179.44v27.11h-6.11V163.4h7.13l7.83,24.76V163.4h6v43.15h-6.36Z"/><path class="cls-2" d="M197.9,197.26v-5.79h6.75v5.92c0,2.42,1.09,3.81,3.57,3.81,2.29,0,3.31-1.52,3.31-3.81v-1.66c0-2.48-1-4-3.25-6.11L204,185.36c-4.13-4.08-6-6.56-6-11.52v-1.47c0-5.34,3.12-9.48,10.18-9.48,7.26,0,10.12,3.56,10.12,9.8v3.5h-6.62v-3.75c0-2.49-1.14-3.69-3.43-3.69-2,0-3.44,1.14-3.44,3.56v.89c0,2.42,1.34,3.82,3.44,5.86l4.64,4.58c3.95,4,5.86,6.43,5.86,11.2v2.1c0,5.92-3.18,10.12-10.57,10.12S197.9,202.93,197.9,197.26Z"/><path class="cls-2" d="M220.74,163.4H240v5.92h-6v37.23h-7.33V169.32h-6Z"/><path class="cls-2" d="M243.4,163.4h7.25v43.15H243.4Z"/><path class="cls-2" d="M254,163.4h19.28v5.92h-6v37.23H260V169.32h-6Z"/><path class="cls-2" d="M297.75,163.4v32.65c0,6.69-2.87,11-10.25,11-7.64,0-10.82-4.32-10.82-11V163.4h7.25v33.35c0,2.55,1,4.27,3.57,4.27s3.56-1.72,3.56-4.27V163.4Z"/><path class="cls-2" d="M301.05,163.4h19.28v5.92h-6v37.23H307V169.32h-6Z"/><path class="cls-2" d="M323.71,163.4H331v43.15h-7.25Z"/><path class="cls-2" d="M335.16,195.41V174.54c0-6.75,3.31-11.65,10.95-11.65s11,4.9,11,11.65v20.87c0,6.69-3.3,11.65-11,11.65S335.16,202.1,335.16,195.41Zm14.7,1.15V173.39c0-2.61-1.15-4.45-3.75-4.45s-3.7,1.84-3.7,4.45v23.17c0,2.61,1.15,4.46,3.7,4.46S349.86,199.17,349.86,196.56Z"/><path class="cls-2" d="M367.36,179.44v27.11h-6.11V163.4h7.13l7.83,24.76V163.4h6v43.15h-6.36Z"/><path class="cls-2" d="M386,197.26v-5.79h6.75v5.92c0,2.42,1.08,3.81,3.56,3.81,2.29,0,3.31-1.52,3.31-3.81v-1.66c0-2.48-1-4-3.24-6.11l-4.27-4.26c-4.14-4.08-6-6.56-6-11.52v-1.47c0-5.34,3.11-9.48,10.18-9.48,7.25,0,10.12,3.56,10.12,9.8v3.5h-6.62v-3.75c0-2.49-1.15-3.69-3.44-3.69-2,0-3.44,1.14-3.44,3.56v.89c0,2.42,1.34,3.82,3.44,5.86l4.65,4.58c3.94,4,5.85,6.43,5.85,11.2v2.1c0,5.92-3.18,10.12-10.56,10.12S386,202.93,386,197.26Z"/></svg>