<svg id="Layer_1" data-name="Layer 1" xmlns="http://www.w3.org/2000/svg" viewBox="0 0 512 512"><defs><style>.cls-1{fill:#1a3668;}.cls-2{fill:#fff;}</style></defs><title>17</title><rect class="cls-1" width="512" height="512"/><path class="cls-2" d="M386.16,310.53a66.77,66.77,0,0,0-64.24-66.63,66.68,66.68,0,0,0-125.75,0,66.64,66.64,0,0,0-38.49,119.2,66.64,66.64,0,0,0,101.69,73.51A66.66,66.66,0,0,0,360.53,363a66.61,66.61,0,0,0,25.63-52.49M312.31,266.1a53.28,53.28,0,0,1-45.41,52.61,52.8,52.8,0,0,1,44.71-60.79,52.49,52.49,0,0,1,.7,8.18m-53,153.22a53.13,53.13,0,0,1-.49-75.87,53.1,53.1,0,0,1,.49,75.87m-52.8-161.41a53.3,53.3,0,0,1,45.4,52.62,52.49,52.49,0,0,1-.7,8.18,53.27,53.27,0,0,1-45.4-52.61,52.72,52.72,0,0,1,.7-8.19m39.71,76.44a53,53,0,0,1-72,23.43,53.07,53.07,0,0,1,72-23.43m25.53-.36a53.1,53.1,0,0,1,72.38,23.71A53.07,53.07,0,0,1,271.73,334M259.05,212.84a53.33,53.33,0,0,1,48.82,32,66.9,66.9,0,0,0-48.82,37.47,66.88,66.88,0,0,0-48.82-37.47,53.32,53.32,0,0,1,48.82-32M145.37,310.53a53.33,53.33,0,0,1,47.55-52.95,68.49,68.49,0,0,0-.56,8.52,66.54,66.54,0,0,0,21.79,49.27A66.79,66.79,0,0,0,163,350a53.09,53.09,0,0,1-17.65-39.49m23.1,71.08a52.88,52.88,0,0,1,1.17-11,66.57,66.57,0,0,0,61.19-1.67,66.4,66.4,0,0,0,17.7,58.65,53.16,53.16,0,0,1-80.06-45.94m181.16-.44a53.32,53.32,0,0,1-53.26,53.25,52.76,52.76,0,0,1-26.26-7,66.44,66.44,0,0,0,17.07-58.58,66.54,66.54,0,0,0,61.37,1.67,52.7,52.7,0,0,1,1.08,10.65M304.36,315a66.52,66.52,0,0,0,21.38-48.87,68.49,68.49,0,0,0-.56-8.52,53.17,53.17,0,0,1,30.05,92.3A66.8,66.8,0,0,0,304.36,315"/><polygon class="cls-2" points="76.64 42.91 76.64 146.14 59.28 146.14 59.28 67.12 59.13 67.12 46.95 79.76 46.8 79.76 46.8 61.64 62.79 42.91 76.64 42.91"/><polygon class="cls-2" points="84.56 42.91 128.11 42.91 128.11 58.9 105.42 146.14 88.21 146.14 111.35 57.07 84.56 57.07 84.56 42.91"/><path class="cls-2" d="M166.37,42.49h10.76c7.32,0,10,3.63,10,9.68v9.1c0,6-2.67,9.74-10,9.74h-3.5V85.65h-7.26Zm7.26,5.92v17h2.67c2.48,0,3.57-1.21,3.57-3.57V51.92c0-2.36-1.09-3.51-3.57-3.51Z"/><path class="cls-2" d="M187.18,85.65l8.15-43.16h8.27l8.21,43.16h-7.44L203,77.75h-7.7l-1.28,7.9ZM196.29,72h5.79l-2.87-17.31h-.06Z"/><path class="cls-2" d="M222.06,65.85v19.8H214.8V42.49h10.57c7.32,0,10,3.63,10,9.68v5.54c0,4.64-1.66,7.38-5.79,8.34l6.94,19.6h-7.64Zm0-17.44V61.84h2.42c2.48,0,3.56-1.27,3.56-3.56V51.92c0-2.36-1.08-3.51-3.56-3.51Z"/><path class="cls-2" d="M237.83,42.49h19.29v5.92h-6V85.65h-7.32V48.41h-6Z"/><path class="cls-2" d="M266.6,58.54V85.65h-6.11V42.49h7.13l7.83,24.76V42.49h6V85.65h-6.36Z"/><path class="cls-2" d="M285.62,42.49h17.32v5.92H292.88V60.76h7.19v5.86h-7.19V79.73h10.06v5.92H285.62Z"/><path class="cls-2" d="M314.07,65.85v19.8h-7.25V42.49h10.56c7.32,0,10,3.63,10,9.68v5.54c0,4.64-1.66,7.38-5.8,8.34l6.94,19.6h-7.63Zm0-17.44V61.84h2.42c2.49,0,3.57-1.27,3.57-3.56V51.92c0-2.36-1.08-3.51-3.57-3.51Z"/><path class="cls-2" d="M330.62,76.36v-5.8h6.75v5.92c0,2.42,1.08,3.82,3.56,3.82,2.29,0,3.31-1.53,3.31-3.82V74.83c0-2.48-1-4-3.24-6.11l-4.27-4.27c-4.14-4.07-6-6.55-6-11.52V51.47c0-5.35,3.11-9.49,10.18-9.49,7.26,0,10.12,3.57,10.12,9.81v3.5h-6.62V51.53c0-2.48-1.15-3.69-3.44-3.69-2,0-3.43,1.15-3.43,3.57v.88c0,2.42,1.33,3.83,3.43,5.86l4.65,4.59c3.94,4,5.85,6.43,5.85,11.2V76c0,5.92-3.18,10.12-10.56,10.12S330.62,82,330.62,76.36Z"/><path class="cls-2" d="M369.5,66.62h-7v19h-7.25V42.49h7.25V60.76h7V42.49h7.32V85.65H369.5Z"/><path class="cls-2" d="M381,42.49h7.25V85.65H381Z"/><path class="cls-2" d="M392.4,42.49h10.76c7.32,0,10,3.63,10,9.68v9.1c0,6-2.67,9.74-10,9.74h-3.5V85.65H392.4Zm7.26,5.92v17h2.68c2.47,0,3.56-1.21,3.56-3.57V51.92c0-2.36-1.09-3.51-3.56-3.51Z"/><path class="cls-2" d="M416.52,76.36v-5.8h6.75v5.92c0,2.42,1.08,3.82,3.57,3.82,2.28,0,3.3-1.53,3.3-3.82V74.83c0-2.48-1-4-3.24-6.11l-4.27-4.27c-4.14-4.07-6.05-6.55-6.05-11.52V51.47c0-5.35,3.13-9.49,10.19-9.49,7.26,0,10.12,3.57,10.12,9.81v3.5h-6.62V51.53c0-2.48-1.15-3.69-3.43-3.69-2,0-3.44,1.15-3.44,3.57v.88c0,2.42,1.33,3.83,3.44,5.86l4.64,4.59c3.95,4,5.85,6.43,5.85,11.2V76c0,5.92-3.18,10.12-10.56,10.12S416.52,82,416.52,76.36Z"/><path class="cls-2" d="M166.37,103h17v5.92h-9.74v12.35h7.26v5.85h-7.26v19h-7.26Z"/><path class="cls-2" d="M185.91,135V114.09c0-6.75,3.31-11.65,11-11.65s11,4.9,11,11.65V135c0,6.69-3.31,11.65-11,11.65S185.91,141.65,185.91,135Zm14.71,1.15V112.94c0-2.61-1.15-4.45-3.76-4.45s-3.69,1.84-3.69,4.45v23.17c0,2.61,1.15,4.46,3.69,4.46S200.62,138.72,200.62,136.11Z"/><path class="cls-2" d="M219.26,126.31V146.1H212V103h10.57c7.32,0,10,3.63,10,9.67v5.54c0,4.65-1.65,7.39-5.79,8.34l6.94,19.6h-7.64Zm0-17.44V122.3h2.42c2.48,0,3.56-1.27,3.56-3.57v-6.36c0-2.36-1.08-3.5-3.56-3.5Z"/><path class="cls-2" d="M242.36,103h19.28v5.92h-6V146.1h-7.32V108.87h-6Z"/><path class="cls-2" d="M279.27,127.07h-7v19H265V103h7.25v18.27h7V103h7.32V146.1h-7.32Z"/><path class="cls-2" d="M290.72,103H308v5.92H298v12.35h7.19v5.85H298v13.11H308v5.92H290.72Z"/><path class="cls-2" d="M329.54,123.06h10.31v23h-5.22v-4.71c-.95,3.25-3,5.22-6.94,5.22-6.23,0-9.1-5-9.1-11.65V114.09c0-6.75,3.25-11.65,10.89-11.65,8,0,10.37,4.46,10.37,10.82v3.82h-6.62v-4.39c0-2.68-1-4.2-3.62-4.2s-3.76,1.84-3.76,4.45v23.17c0,2.61,1.08,4.46,3.56,4.46s3.57-1.34,3.57-4.14v-7.64h-3.44Z"/><path class="cls-2" d="M344,135V114.09c0-6.75,3.31-11.65,10.95-11.65s11,4.9,11,11.65V135c0,6.69-3.3,11.65-11,11.65S344,141.65,344,135Zm14.7,1.15V112.94c0-2.61-1.15-4.45-3.75-4.45s-3.7,1.84-3.7,4.45v23.17c0,2.61,1.15,4.46,3.7,4.46S358.68,138.72,358.68,136.11Z"/><path class="cls-2" d="M368,146.1,376.11,103h8.28l8.21,43.15h-7.45l-1.34-7.89h-7.7l-1.27,7.89Zm9.1-13.68h5.79L380,115.11h-.06Z"/><path class="cls-2" d="M395.58,103h7.26v37.23h8.66v5.92H395.58Z"/><path class="cls-2" d="M414.11,136.81V131h6.75v5.92c0,2.42,1.08,3.82,3.56,3.82,2.29,0,3.31-1.53,3.31-3.82v-1.66c0-2.48-1-4-3.25-6.11l-4.26-4.26c-4.14-4.08-6.05-6.56-6.05-11.52v-1.47c0-5.34,3.12-9.48,10.18-9.48,7.26,0,10.12,3.56,10.12,9.8v3.5h-6.62V112c0-2.49-1.14-3.69-3.43-3.69-2,0-3.44,1.14-3.44,3.56v.89c0,2.42,1.34,3.82,3.44,5.86l4.65,4.58c3.94,4,5.85,6.43,5.85,11.2v2.1c0,5.92-3.18,10.12-10.57,10.12S414.11,142.48,414.11,136.81Z"/></svg>