<svg id="Layer_1" data-name="Layer 1" xmlns="http://www.w3.org/2000/svg" viewBox="0 0 512 512"><defs><style>.cls-1{fill:#d19f2a;}.cls-2{fill:#fff;}</style></defs><title>2</title><rect class="cls-1" width="512" height="512"/><path class="cls-2" d="M204.38,435.07v7.2a.9.9,0,0,0,0,.16.86.86,0,0,0,0,.17,3.37,3.37,0,0,0,3.32,3.23l.07,0,.08,0h84.46l.07,0,.07,0a3.38,3.38,0,0,0,3.33-3.38l0,0a0,0,0,0,1,0,0v-8.14c47.55-15.59,83.16-54.12,91-101.08,0-.1,0-.2,0-.28a2.69,2.69,0,0,0,.05-.47,3.41,3.41,0,0,0-3.41-3.42H114.28a3.41,3.41,0,0,0-3.42,3.42L111,334c8.23,47.41,44.83,86.16,93.35,101.11"/><path class="cls-2" d="M295.71,214.13c-1.11,1.57-27.12,39,.58,69.29,12.7,13.9,11.6,26.16,8,34.44H322c3.59-12.23,2.11-27.56-12.31-43.32-20.41-22.31.26-52.47.57-52.93,2.43-3.44,1.13-7.88-2.89-10s-9.25-.95-11.69,2.47"/><path class="cls-2" d="M250.71,317.86h17.77c3.6-12.23,2.1-27.56-12.32-43.32-20.41-22.32.24-52.45.57-53,2.42-3.42,1.14-7.85-2.89-9.93s-9.25-1-11.68,2.47c-1.12,1.57-27.15,39,.57,69.29,12.7,13.9,11.6,26.16,8,34.44"/><path class="cls-2" d="M188.59,214.13c-1.12,1.57-27.13,39,.58,69.29,12.7,13.9,11.6,26.16,8,34.44h17.76c3.6-12.22,2.11-27.56-12.32-43.32-20.42-22.31.25-52.47.58-52.94,2.41-3.43,1.12-7.87-2.91-9.94s-9.24-1-11.68,2.47"/><path class="cls-2" d="M98.46,132H70v-4.87c0-8.07,2.9-11.11,7.31-15.83L88.41,99.55c9-9.59,11-15.68,11-26V63.46c0-14.76-7.15-21.77-22.68-21.77-15.23,0-23,8.07-23,22.54V76.71H69.53V63.77c0-6.24,3-8.07,6.71-8.07,3.34,0,6.24,1.37,6.24,7.76V72c0,8.53-.77,11.88-6.4,17.82l-9.75,10.35c-9.43,10-12.94,16.75-12.94,27v19H98.46Z"/><path class="cls-2" d="M156,81.33h11v5.92H148.41V81.33L159.81,50H149.56V44.1h17.88V50Z"/><path class="cls-2" d="M171.26,44.1h17.31V50h-10V62.37h7.19v5.85h-7.19V81.33h10v5.92H171.26Z"/><path class="cls-2" d="M199.7,67.46V87.25h-7.25V44.1H203c7.32,0,10,3.63,10,9.67v5.54c0,4.65-1.66,7.38-5.8,8.34l6.94,19.6h-7.63Zm0-17.44V63.45h2.42c2.48,0,3.57-1.27,3.57-3.57V53.52c0-2.36-1.09-3.5-3.57-3.5Z"/><path class="cls-2" d="M217,76.11V55.24c0-6.75,3.31-11.65,10.94-11.65s11,4.9,11,11.65V76.11c0,6.69-3.31,11.65-11,11.65S217,82.8,217,76.11Zm14.7,1.15V54.09c0-2.61-1.14-4.45-3.76-4.45s-3.69,1.84-3.69,4.45V77.26c0,2.61,1.15,4.46,3.69,4.46S231.65,79.87,231.65,77.26Z"/><path class="cls-2" d="M163.18,128.67h-7v19h-7.26V104.55h7.26v18.27h7V104.55h7.32V147.7h-7.32Z"/><path class="cls-2" d="M195.7,104.55V137.2c0,6.68-2.87,11-10.25,11-7.64,0-10.82-4.33-10.82-11V104.55h7.26V137.9c0,2.55,1,4.26,3.56,4.26s3.57-1.71,3.57-4.26V104.55Z"/><path class="cls-2" d="M205.94,120.59V147.7h-6.11V104.55H207l7.83,24.76V104.55h6.05V147.7h-6.36Z"/><path class="cls-2" d="M235.91,124.66h10.31v23H241V143c-.95,3.25-3,5.22-6.94,5.22-6.24,0-9.1-5-9.1-11.65V115.69c0-6.75,3.25-11.65,10.89-11.65,8,0,10.37,4.46,10.37,10.82v3.82H239.6v-4.39c0-2.68-1-4.2-3.63-4.2s-3.75,1.84-3.75,4.45v23.17c0,2.61,1.08,4.45,3.56,4.45s3.57-1.33,3.57-4.13v-7.64h-3.44Z"/><path class="cls-2" d="M250.35,104.55h17.31v5.92H257.61v12.35h7.19v5.85h-7.19v13.11h10.05v5.92H250.35Z"/><path class="cls-2" d="M278.8,127.91V147.7h-7.26V104.55h10.57c7.31,0,10,3.63,10,9.67v5.54c0,4.65-1.66,7.38-5.79,8.34l6.93,19.6h-7.63Zm0-17.44V123.9h2.41c2.49,0,3.57-1.27,3.57-3.57V114c0-2.36-1.08-3.5-3.57-3.5Z"/></svg>