<svg id="Layer_1" data-name="Layer 1" xmlns="http://www.w3.org/2000/svg" viewBox="0 0 512 512"><defs><style>.cls-1{fill:#2d9a47;}.cls-2{fill:#fff;}</style></defs><title>3</title><rect class="cls-1" width="512" height="512"/><path class="cls-2" d="M431.7,320c0-14.41-9.24-26.09-23.24-26.09-7,0-15.45,7.67-20,12.39-4.58-4.73-12.47-12.4-19.47-12.4-14,0-23.82,11.68-23.82,26.09a26.38,26.38,0,0,0,7.43,18.45h0l35.9,36,35.84-35.92,0,0A26.42,26.42,0,0,0,431.7,320Z"/><path class="cls-2" d="M278.89,433.08h-.36a5.89,5.89,0,0,1-5.45-4.88L254.85,322l-27.61,51.2a5.9,5.9,0,0,1-11-2L204.49,289.3,183,337.48a5.9,5.9,0,0,1-5.38,3.5H94.29a5.9,5.9,0,1,1,0-11.79h79.54L202,265.82a5.89,5.89,0,0,1,11.22,1.56l12.09,84.5,27.23-50.5a5.9,5.9,0,0,1,11,1.8l16.88,98.34L342,197.12a5.9,5.9,0,0,1,10.95-.86l32.38,67.12a5.89,5.89,0,1,1-10.62,5.12L348.92,215,284.53,428.89A5.88,5.88,0,0,1,278.89,433.08Z"/><path class="cls-2" d="M76.79,147.52c17.52,0,25.13-9.29,25.13-23.6V108.7c0-9.44-4.11-15.54-12.79-17.51C96.28,88.9,101,83.11,101,74.44v-9c0-14.61-7-23.6-23-23.6-18,0-24.21,10.66-24.21,25.89v9.13H69.63V66.36c0-6.39,2-10,7.47-10S84.55,60,84.55,65.6V76.72c0,5.48-3.65,8.37-9.28,8.37H68.72V98.34H76c6.09,0,8.52,2.89,8.52,8.38v17c0,5.48-2.43,9.29-7.76,9.29-5.94,0-8.07-4-8.07-10V108.24H52.9v13.55c0,15.68,6.23,25.73,23.89,25.73"/><path class="cls-2" d="M162,64.2h10.31v23h-5.22V82.53c-.95,3.25-3,5.22-6.94,5.22-6.23,0-9.1-5-9.1-11.65V55.23c0-6.75,3.25-11.65,10.89-11.65,8,0,10.37,4.45,10.37,10.82v3.82h-6.62V53.83c0-2.68-1-4.21-3.62-4.21s-3.76,1.85-3.76,4.46V77.25c0,2.61,1.08,4.46,3.56,4.46s3.57-1.34,3.57-4.14V69.93H162Z"/><path class="cls-2" d="M176.41,76.1V55.23c0-6.75,3.31-11.65,11-11.65s11,4.9,11,11.65V76.1c0,6.69-3.31,11.65-11,11.65S176.41,82.79,176.41,76.1Zm14.71,1.15V54.08c0-2.61-1.15-4.46-3.76-4.46s-3.69,1.85-3.69,4.46V77.25c0,2.61,1.14,4.46,3.69,4.46S191.12,79.86,191.12,77.25Z"/><path class="cls-2" d="M202.5,76.1V55.23c0-6.75,3.31-11.65,10.95-11.65s11,4.9,11,11.65V76.1c0,6.69-3.31,11.65-11,11.65S202.5,82.79,202.5,76.1Zm14.71,1.15V54.08c0-2.61-1.15-4.46-3.76-4.46s-3.69,1.85-3.69,4.46V77.25c0,2.61,1.14,4.46,3.69,4.46S217.21,79.86,217.21,77.25Z"/><path class="cls-2" d="M250.3,55.67v20c0,6.62-2.74,11.58-10.5,11.58H228.59V44.09H239.8C247.56,44.09,250.3,49,250.3,55.67ZM238.91,81.32c3,0,4.13-1.78,4.13-4.39V54.34c0-2.55-1.14-4.33-4.13-4.33h-3.06V81.32Z"/><path class="cls-2" d="M275.37,68.21h-7v19h-7.26V44.09h7.26V62.35h7V44.09h7.32V87.24h-7.32Z"/><path class="cls-2" d="M286.82,44.09h17.31V50H294.08V62.35h7.19v5.86h-7.19V81.32h10.05v5.92H286.82Z"/><path class="cls-2" d="M306.87,87.24,315,44.09h8.28l8.21,43.15h-7.45l-1.33-7.89H315l-1.27,7.89ZM316,73.56h5.79L318.9,56.24h-.07Z"/><path class="cls-2" d="M334.48,44.09h7.26V81.32h8.66v5.92H334.48Z"/><path class="cls-2" d="M348.74,44.09H368V50h-6V87.24h-7.32V50h-6Z"/><path class="cls-2" d="M385.65,68.21h-7v19h-7.26V44.09h7.26V62.35h7V44.09H393V87.24h-7.32Z"/><path class="cls-2" d="M149.88,147.7,158,104.54h8.28l8.21,43.16h-7.45l-1.33-7.9H158l-1.27,7.9ZM159,134h5.79l-2.86-17.31h-.07Z"/><path class="cls-2" d="M183.61,120.58V147.7h-6.12V104.54h7.13l7.83,24.76V104.54h6.05V147.7h-6.36Z"/><path class="cls-2" d="M224.34,116.12v20c0,6.62-2.74,11.59-10.51,11.59h-11.2V104.54h11.2C221.6,104.54,224.34,109.44,224.34,116.12Zm-11.4,25.66c3,0,4.14-1.79,4.14-4.39v-22.6c0-2.55-1.15-4.33-4.14-4.33h-3.05v31.32Z"/><path class="cls-2" d="M250.81,121l-4.08,26.67h-6.81l-5.79-43.16h7l3.38,27.37h.06l3.63-27.37h5.92l4,27.37h.06l3.31-27.37h6.11L262,147.7h-6.87L250.87,121Z"/><path class="cls-2" d="M270.72,104.54H288v5.92H278v12.35h7.19v5.85H278v13.12h10v5.92H270.72Z"/><path class="cls-2" d="M291.91,104.54h7.26v37.24h8.65v5.92H291.91Z"/><path class="cls-2" d="M311.13,104.54h7.26v37.24H327v5.92H311.13Z"/><path class="cls-2" d="M326.08,124.72h10.18v5.85H326.08Z"/><path class="cls-2" d="M340,104.54h10.5c7.26,0,9.68,3.37,9.68,9.48v4.4c0,3.62-1.34,5.92-4.33,6.87,3.63.83,5.41,3.25,5.41,7.19v5.73c0,6.11-2.73,9.49-10,9.49H340Zm7.26,18.2h2.55c2.35,0,3.43-1.21,3.43-3.5V114c0-2.35-1.08-3.5-3.5-3.5h-2.48Zm0,5.54v13.5h3.18c2.42,0,3.57-1.21,3.57-3.5v-6.5c0-2.29-1.09-3.5-3.63-3.5Z"/><path class="cls-2" d="M364.83,104.54h17.32v5.92H372.09v12.35h7.19v5.85h-7.19v13.12h10.06v5.92H364.83Z"/><path class="cls-2" d="M386,104.54h7.26V147.7H386Z"/><path class="cls-2" d="M403.59,120.58V147.7h-6.11V104.54h7.13l7.83,24.76V104.54h6.05V147.7h-6.37Z"/><path class="cls-2" d="M433.56,124.66h10.31v23h-5.22V143c-.95,3.24-3,5.22-6.93,5.22-6.24,0-9.11-5-9.11-11.65V115.68c0-6.75,3.25-11.65,10.89-11.65,8,0,10.37,4.46,10.37,10.82v3.82h-6.62v-4.39c0-2.67-1-4.2-3.63-4.2s-3.75,1.84-3.75,4.45V137.7c0,2.61,1.08,4.46,3.56,4.46S437,140.82,437,138v-7.64h-3.44Z"/></svg>