<svg id="Layer_1" data-name="Layer 1" xmlns="http://www.w3.org/2000/svg" viewBox="0 0 512 512"><defs><style>.cls-1{fill:#c22033;}.cls-2{fill:#fff;}</style></defs><title>4</title><rect class="cls-1" width="512" height="512"/><polygon class="cls-2" points="227.11 274.54 135.28 221.51 135.28 393.04 227.11 420.75 227.11 274.54"/><polygon class="cls-2" points="237.21 274.89 237.21 420.81 329.63 393.02 329.63 221.52 237.21 274.89"/><polygon class="cls-2" points="382.69 390 379.99 390 390.86 427.97 401.71 390 399.01 390 401.71 390 401.71 237.39 399.01 237.39 396.32 237.39 393.46 237.39 388.05 237.39 385.39 237.39 382.69 237.39 379.99 237.39 379.99 390 382.69 390"/><polygon class="cls-2" points="349.36 228.88 339.51 221.1 339.51 397.69 237.48 430.66 232.76 430.66 231.83 430.66 227.11 430.66 125.53 402.29 125.53 221.1 115.68 228.88 115.68 409.19 226.64 439.91 231.83 439.91 232.76 439.91 237.94 439.91 340.31 407.41 349.36 404.75 349.36 228.88"/><path class="cls-2" d="M401.72,217.17a10.87,10.87,0,0,0-21.73,0v11.71h21.73Z"/><path class="cls-2" d="M80.28,146.14H96.72V129.4h7V115.85h-7V42.91h-17l-30,75.83V129.4h30.6ZM64.9,115.85,80.43,73.37h.16v42.48Z"/><path class="cls-2" d="M159.2,90.18V87.25c-5.79-1-8.27-5.28-8.27-11.14V55.24c0-6.75,3.31-11.65,10.95-11.65s11,4.9,11,11.65V76.11c0,4.72-1.65,8.41-5.34,10.19l5.34,1v5.41Zm6.43-12.54V54.09c0-2.61-1.15-4.45-3.75-4.45s-3.7,1.84-3.7,4.45V77.64c0,2.55,1.15,4.46,3.7,4.46S165.63,80.19,165.63,77.64Z"/><path class="cls-2" d="M198.08,44.1V76.75c0,6.68-2.86,11-10.25,11-7.63,0-10.81-4.33-10.81-11V44.1h7.25V77.45c0,2.55,1,4.27,3.56,4.27s3.57-1.72,3.57-4.27V44.1Z"/><path class="cls-2" d="M200.11,87.25l8.15-43.15h8.27l8.21,43.15H217.3L216,79.36h-7.7L207,87.25Zm9.11-13.68H215l-2.87-17.31h-.06Z"/><path class="cls-2" d="M227.73,44.1H235V81.33h8.66v5.92H227.73Z"/><path class="cls-2" d="M247,44.1h7.25V87.25H247Z"/><path class="cls-2" d="M257.57,44.1h19.29V50h-6V87.25h-7.32V50h-6Z"/><path class="cls-2" d="M294.36,70.83V87.25H287.1V70.83L279,44.1h7.58L291,60.46h.07l4.39-16.36h6.94Z"/><path class="cls-2" d="M150.93,104.55h17.31v5.92H158.18v12.35h7.2v5.85h-7.2v13.11h10.06v5.92H150.93Z"/><path class="cls-2" d="M193.82,116.13v20c0,6.62-2.74,11.58-10.5,11.58h-11.2V104.55h11.2C191.08,104.55,193.82,109.45,193.82,116.13Zm-11.39,25.65c3,0,4.13-1.78,4.13-4.39V114.8c0-2.55-1.14-4.33-4.13-4.33h-3.06v31.31Z"/><path class="cls-2" d="M219,104.55V137.2c0,6.68-2.86,11-10.25,11-7.64,0-10.82-4.33-10.82-11V104.55h7.26V137.9c0,2.55,1,4.26,3.56,4.26s3.56-1.71,3.56-4.26V104.55Z"/><path class="cls-2" d="M223.15,136.56V115.69c0-6.75,3.18-11.65,10.81-11.65,8,0,10.26,4.46,10.26,10.82V120h-6.63v-5.66c0-2.68-.89-4.2-3.5-4.2s-3.69,1.84-3.69,4.45v23.17c0,2.61,1.08,4.45,3.69,4.45s3.5-1.65,3.5-4.19v-8h6.63v7.45c0,6.17-2.55,10.75-10.26,10.75S223.15,143.25,223.15,136.56Z"/><path class="cls-2" d="M246.37,147.7l8.15-43.15h8.27L271,147.7h-7.44l-1.34-7.89h-7.7l-1.27,7.89ZM255.48,134h5.79l-2.87-17.31h-.06Z"/><path class="cls-2" d="M270,104.55h19.29v5.92h-6V147.7H276V110.47h-6Z"/><path class="cls-2" d="M292.64,104.55h7.25V147.7h-7.25Z"/><path class="cls-2" d="M304.09,136.56V115.69c0-6.75,3.32-11.65,11-11.65s11,4.9,11,11.65v20.87c0,6.69-3.31,11.65-11,11.65S304.09,143.25,304.09,136.56Zm14.71,1.15V114.54c0-2.61-1.15-4.45-3.76-4.45s-3.69,1.84-3.69,4.45v23.17c0,2.61,1.15,4.45,3.69,4.45S318.8,140.32,318.8,137.71Z"/><path class="cls-2" d="M336.29,120.59V147.7h-6.11V104.55h7.13l7.83,24.76V104.55h6.05V147.7h-6.37Z"/></svg>