<svg id="Layer_1" data-name="Layer 1" xmlns="http://www.w3.org/2000/svg" viewBox="0 0 512 512"><defs><style>.cls-1{fill:#ef412a;}.cls-2{fill:#fff;}</style></defs><title>5</title><rect class="cls-1" width="512" height="512"/><path class="cls-2" d="M373,193.74H309.34a.81.81,0,0,0-.81.81V215.7a.81.81,0,0,0,.81.81h25.34l-28.14,28.14A83.31,83.31,0,1,0,244.4,392.83v24.36H219.3a.8.8,0,0,0-.82.81v22.66a.8.8,0,0,0,.82.81h25.1v24a.81.81,0,0,0,.81.81h22.65a.82.82,0,0,0,.82-.81v-24h25.1a.8.8,0,0,0,.8-.81V418a.8.8,0,0,0-.8-.81h-25.1V392.43a83.27,83.27,0,0,0,54.6-130.17L351,234.52v23.67a.82.82,0,0,0,.82.81H373a.82.82,0,0,0,.83-.81V194.55a.82.82,0,0,0-.83-.81M255.16,371.55a61.35,61.35,0,1,1,61.35-61.35,61.42,61.42,0,0,1-61.35,61.35"/><path class="cls-2" d="M292.63,285H218.22a.77.77,0,0,0-.81.72v18a.77.77,0,0,0,.81.74h74.41a.77.77,0,0,0,.82-.74v-18a.78.78,0,0,0-.82-.72"/><path class="cls-2" d="M292.63,317.18H218.22a.78.78,0,0,0-.81.75v18a.77.77,0,0,0,.81.73h74.41a.78.78,0,0,0,.82-.73v-18a.79.79,0,0,0-.82-.75"/><path class="cls-2" d="M85,75.6c-6.85,0-11.88,2.43-14.62,7.15h-.15V57h29.85V42.86H54.43V101H70.26v-2.3c0-6.09,2.74-9.44,7.61-9.44,5.33,0,7.47,3.66,7.47,9.3v25c0,5.48-2,9.29-7.31,9.29-5.94,0-8.07-4-8.07-10V109.86H54.11v11.72c0,15.68,6.25,25.73,23.92,25.73,17.51,0,24.66-9.28,24.66-23.6V98.44c0-16.3-8.37-22.84-17.66-22.84"/><path class="cls-2" d="M163,64.9h10.31v23h-5.22V83.23c-.95,3.25-3,5.22-6.94,5.22-6.24,0-9.1-5-9.1-11.65V55.93c0-6.75,3.24-11.65,10.89-11.65,8,0,10.37,4.46,10.37,10.82v3.82h-6.62V54.53c0-2.68-1-4.2-3.63-4.2s-3.76,1.84-3.76,4.45V78c0,2.61,1.08,4.46,3.57,4.46s3.56-1.34,3.56-4.14V70.63H163Z"/><path class="cls-2" d="M177.41,44.79h17.31v5.92H184.66V63.06h7.19v5.85h-7.19V82h10.06v5.92H177.41Z"/><path class="cls-2" d="M204.71,60.83V87.94H198.6V44.79h7.13l7.83,24.76V44.79h6V87.94h-6.36Z"/><path class="cls-2" d="M245.44,56.37v20c0,6.62-2.74,11.58-10.51,11.58h-11.2V44.79h11.2C242.7,44.79,245.44,49.69,245.44,56.37ZM234,82c3,0,4.14-1.78,4.14-4.39V55c0-2.55-1.15-4.33-4.14-4.33H231V82Z"/><path class="cls-2" d="M249.56,44.79h17.32v5.92H256.82V63.06H264v5.85h-7.2V82h10.06v5.92H249.56Z"/><path class="cls-2" d="M278,68.15V87.94h-7.25V44.79h10.56c7.32,0,10,3.63,10,9.67V60c0,4.65-1.65,7.38-5.79,8.34l6.94,19.6h-7.64Zm0-17.44V64.14h2.42c2.48,0,3.57-1.27,3.57-3.57V54.21c0-2.36-1.09-3.5-3.57-3.5Z"/><path class="cls-2" d="M152,105.24h17.31v5.92H159.27v12.35h7.2v5.85h-7.2v13.12h10.06v5.91H152Z"/><path class="cls-2" d="M180.85,151.32v-2.93c-5.79-1-8.27-5.28-8.27-11.14V116.38c0-6.75,3.31-11.65,10.95-11.65s11,4.9,11,11.65v20.87c0,4.72-1.65,8.41-5.34,10.19l5.34,1v5.41Zm6.43-12.54V115.23c0-2.61-1.15-4.45-3.75-4.45s-3.7,1.84-3.7,4.45v23.55c0,2.55,1.15,4.46,3.7,4.46S187.28,141.33,187.28,138.78Z"/><path class="cls-2" d="M219.74,105.24v32.65c0,6.69-2.87,11-10.25,11-7.64,0-10.82-4.32-10.82-11V105.24h7.25v33.35c0,2.55,1,4.27,3.57,4.27s3.56-1.72,3.56-4.27V105.24Z"/><path class="cls-2" d="M221.76,148.39l8.15-43.15h8.27l8.21,43.15H239l-1.34-7.89h-7.7l-1.28,7.89Zm9.1-13.68h5.79l-2.86-17.31h-.07Z"/><path class="cls-2" d="M249.38,105.24h7.25v37.24h8.66v5.91H249.38Z"/><path class="cls-2" d="M268.6,105.24h7.25v43.15H268.6Z"/><path class="cls-2" d="M279.23,105.24h19.28v5.92h-6v37.23h-7.32V111.16h-6Z"/><path class="cls-2" d="M316,132v16.42h-7.25V132l-8.09-26.73h7.58l4.39,16.36h.06l4.39-16.36H324Z"/></svg>