<svg id="Layer_1" data-name="Layer 1" xmlns="http://www.w3.org/2000/svg" viewBox="0 0 512 512"><defs><style>.cls-1{fill:#00add8;}.cls-2{fill:#fff;}</style></defs><title>6</title><rect class="cls-1" width="512" height="512"/><path class="cls-2" d="M350.3,207a2.25,2.25,0,0,0-1.68-.73H162.87a2.1,2.1,0,0,0-2.14,2.49l31.21,188.75a2.18,2.18,0,0,0,2.14,1.82h38.3L235,430.11l-16.11,0,37.5,37.5L294,430.05H277.87l2.61-30.69h39a2.14,2.14,0,0,0,2.13-1.85l29.2-188.72A2.22,2.22,0,0,0,350.3,207ZM278.51,358.15a29.82,29.82,0,0,1-22.17,7.73,29.82,29.82,0,0,1-22.19-7.73c-13.91-13.9-9-31.2-4.1-40.14,3-5.6,24.37-37.71,26.21-40.44v-.21l.08.1.08-.1v.21c1.79,2.73,23.2,34.84,26.19,40.44C287.46,327,292.41,344.25,278.51,358.15Zm58.92-111.39c-5-2.22-11.41-1.42-17.54,1.06-23.05,9.34-38.73,12.7-63,5.11-15.26-4.78-29.55-14.78-46.43-8.69-11.2,4-21.64,7.87-34.31,7.78l-7.32-37.52H342.69Z"/><path class="cls-2" d="M77.47,147.51c18.42,0,25.58-10,25.58-26V106.24c0-16.9-6.7-25.43-19.19-25.43-7.31,0-11.72,3.36-14.32,8.38H69.4V67c0-6.25,2-10.66,8.22-10.66s8.07,3.66,8.07,10V73.2h15.83V67.72c0-15.23-5-25.88-24.21-25.88C59,41.84,52.19,53.56,52.19,69.69v50.25c0,16,7,27.57,25.28,27.57m-8.07-43.4c.3-5.79,2.74-9.44,8.22-9.44,5.93,0,8.22,3.65,8.22,10.36v18c0,6.55-2.43,10.36-8.37,10.36-5.79,0-8.07-4-8.07-10.36Z"/><path class="cls-2" d="M148.56,76.12V55.24c0-6.75,3.18-11.65,10.82-11.65,8,0,10.25,4.46,10.25,10.82V59.5H163V53.84c0-2.68-.88-4.2-3.49-4.2s-3.7,1.84-3.7,4.45V77.26c0,2.61,1.08,4.46,3.7,4.46s3.49-1.66,3.49-4.2v-8h6.63V77c0,6.17-2.55,10.75-10.25,10.75S148.56,82.8,148.56,76.12Z"/><path class="cls-2" d="M173.57,44.1h7.25V81.34h8.66v5.92H173.57Z"/><path class="cls-2" d="M192.79,44.1H210.1V50H200V62.37h7.2v5.85H200V81.34H210.1v5.92H192.79Z"/><path class="cls-2" d="M212.83,87.26,221,44.1h8.27l8.21,43.16H230l-1.34-7.9H221l-1.28,7.9Zm9.1-13.69h5.79l-2.86-17.31h-.07Z"/><path class="cls-2" d="M246.56,60.14V87.26h-6.11V44.1h7.13l7.83,24.76V44.1h6V87.26h-6.36Z"/><path class="cls-2" d="M287.93,60.59l-4.08,26.67H277L271.25,44.1h7l3.38,27.37h.06l3.63-27.37h5.91l4,27.37h.07l3.31-27.37h6.11l-5.6,43.16h-6.88L288,60.59Z"/><path class="cls-2" d="M304.15,87.26,312.3,44.1h8.27l8.21,43.16h-7.45L320,79.36h-7.7L311,87.26Zm9.1-13.69H319l-2.86-17.31h-.07Z"/><path class="cls-2" d="M327.76,44.1H347V50h-6V87.26h-7.32V50h-6Z"/><path class="cls-2" d="M350.41,44.1h17.31V50H357.66V62.37h7.2v5.85h-7.2V81.34h10.06v5.92H350.41Z"/><path class="cls-2" d="M378.86,67.46v19.8H371.6V44.1h10.57c7.32,0,10,3.63,10,9.67v5.54c0,4.65-1.65,7.39-5.79,8.34l6.94,19.61h-7.64Zm0-17.44V63.45h2.42c2.48,0,3.56-1.27,3.56-3.57V53.52c0-2.36-1.08-3.5-3.56-3.5Z"/><path class="cls-2" d="M147.41,147.71l8.15-43.16h8.27L172,147.71H164.6l-1.34-7.9h-7.7l-1.28,7.9Zm9.1-13.69h5.79l-2.86-17.31h-.06Z"/><path class="cls-2" d="M181.14,120.59v27.12H175V104.55h7.13L190,129.31V104.55h6v43.16h-6.36Z"/><path class="cls-2" d="M221.87,116.14v20c0,6.62-2.74,11.59-10.5,11.59h-11.2V104.55h11.2C219.13,104.55,221.87,109.45,221.87,116.14Zm-11.39,25.65c3,0,4.14-1.78,4.14-4.39V114.8c0-2.55-1.15-4.33-4.14-4.33h-3.06v31.32Z"/><path class="cls-2" d="M232.3,138.41v-5.79h6.75v5.92c0,2.42,1.08,3.82,3.56,3.82,2.29,0,3.31-1.53,3.31-3.82v-1.65c0-2.49-1-4-3.25-6.11l-4.26-4.27c-4.14-4.07-6-6.56-6-11.52v-1.46c0-5.35,3.12-9.49,10.19-9.49,7.25,0,10.11,3.57,10.11,9.8v3.51H246v-3.76c0-2.48-1.14-3.69-3.43-3.69-2,0-3.44,1.14-3.44,3.56v.89c0,2.42,1.34,3.82,3.44,5.86l4.65,4.58c3.94,4,5.85,6.43,5.85,11.2v2.1c0,5.93-3.18,10.13-10.56,10.13S232.3,144.08,232.3,138.41Z"/><path class="cls-2" d="M255.14,147.71l8.15-43.16h8.27l8.21,43.16h-7.44l-1.34-7.9h-7.7l-1.28,7.9Zm9.1-13.69H270l-2.87-17.31h-.06Z"/><path class="cls-2" d="M288.87,120.59v27.12h-6.11V104.55h7.13l7.83,24.76V104.55h6v43.16H297.4Z"/><path class="cls-2" d="M307.9,104.55h7.25v43.16H307.9Z"/><path class="cls-2" d="M318.52,104.55h19.29v5.92h-6v37.24h-7.32V110.47h-6Z"/><path class="cls-2" d="M336.85,147.71,345,104.55h8.27l8.21,43.16H354l-1.34-7.9H345l-1.28,7.9ZM346,134h5.79l-2.86-17.31h-.07Z"/><path class="cls-2" d="M360.46,104.55h19.28v5.92h-6v37.24h-7.32V110.47h-6Z"/><path class="cls-2" d="M383.12,104.55h7.25v43.16h-7.25Z"/><path class="cls-2" d="M394.57,136.57V115.69c0-6.75,3.31-11.65,10.95-11.65s11,4.9,11,11.65v20.88c0,6.68-3.31,11.65-11,11.65S394.57,143.25,394.57,136.57Zm14.7,1.14V114.54c0-2.6-1.14-4.45-3.75-4.45s-3.69,1.85-3.69,4.45v23.17c0,2.61,1.14,4.46,3.69,4.46S409.27,140.32,409.27,137.71Z"/><path class="cls-2" d="M426.77,120.59v27.12h-6.11V104.55h7.13l7.83,24.76V104.55h6v43.16H435.3Z"/></svg>