<svg id="Layer_1" data-name="Layer 1" xmlns="http://www.w3.org/2000/svg" viewBox="0 0 512 512"><defs><style>.cls-1{fill:#fdb714;}.cls-2{fill:#fff;}</style></defs><title>7</title><rect class="cls-1" width="512" height="512"/><path class="cls-2" d="M256.19,248.07a75,75,0,1,0,75,75,75,75,0,0,0-75-75m-5.56,29.64a5.59,5.59,0,0,1,11.15,0v25.77a5.59,5.59,0,0,1-11.15,0Zm5.57,83.85a39,39,0,0,1-11.6-76.31v14.54a25.55,25.55,0,1,0,23.13,0V285.24a39,39,0,0,1-11.53,76.32"/><path class="cls-2" d="M170.05,322.45a6.28,6.28,0,0,0-5.77-6.16H131.42a6.19,6.19,0,0,0,0,12.35h32.86c2.75,0,5.77-2.78,5.77-6.19"/><path class="cls-2" d="M386.8,322.45a6.28,6.28,0,0,0-5.77-6.16H348.17a6.19,6.19,0,0,0,0,12.35H381c2.76,0,5.77-2.78,5.77-6.19"/><path class="cls-2" d="M256.22,453.06a6.28,6.28,0,0,0,6.15-5.77V414.43a6.18,6.18,0,0,0-12.34,0v32.86c0,2.75,2.78,5.77,6.19,5.77"/><path class="cls-2" d="M369.55,387.32a6.27,6.27,0,0,0-1.94-8.21l-28.52-16.32A6.18,6.18,0,0,0,333,373.5l28.52,16.32a6.28,6.28,0,0,0,8.07-2.5"/><path class="cls-2" d="M191.35,435.82a6.27,6.27,0,0,0,8.2-1.95l16.32-28.52a6.18,6.18,0,0,0-10.71-6.13l-16.32,28.52c-1.36,2.38-.45,6.38,2.51,8.08"/><path class="cls-2" d="M321.31,435.67a6.28,6.28,0,0,0,2.47-8.07L307.4,399.11a6.18,6.18,0,0,0-10.69,6.16l16.37,28.49a6.29,6.29,0,0,0,8.23,1.91"/><path class="cls-2" d="M143,387.58a6.28,6.28,0,0,0,8.07,2.46l28.48-16.38A6.18,6.18,0,0,0,173.4,363l-28.48,16.38c-2.39,1.37-3.62,5.28-1.92,8.24"/><path class="cls-2" d="M256.22,236.31a6.28,6.28,0,0,0,6.15-5.76V197.68a6.18,6.18,0,0,0-12.34,0v32.87c0,2.74,2.78,5.76,6.19,5.76"/><path class="cls-2" d="M181.43,279.66a6.26,6.26,0,0,0-1.94-8.21L151,255.13a6.18,6.18,0,0,0-6.13,10.71l28.52,16.32a6.28,6.28,0,0,0,8.07-2.5"/><path class="cls-2" d="M299,247.7a6.29,6.29,0,0,0,8.21-1.95l16.32-28.52a6.18,6.18,0,0,0-10.71-6.13l-16.32,28.52c-1.37,2.39-.46,6.38,2.5,8.08"/><path class="cls-2" d="M213.27,247.77a6.29,6.29,0,0,0,2.46-8.07l-16.38-28.49a6.18,6.18,0,0,0-10.7,6.16L205,245.85a6.3,6.3,0,0,0,8.24,1.92"/><path class="cls-2" d="M330.9,279.53A6.28,6.28,0,0,0,339,282l28.48-16.38a6.18,6.18,0,0,0-6.15-10.7l-28.48,16.38c-2.39,1.37-3.62,5.28-1.92,8.24"/><polygon class="cls-2" points="52.52 57.07 79.32 57.07 56.17 146.14 73.38 146.14 96.07 58.9 96.07 42.91 52.52 42.91 52.52 57.07"/><path class="cls-2" d="M144.67,86.16,152.82,43h8.27l8.21,43.15h-7.45l-1.33-7.89h-7.7l-1.28,7.89Zm9.1-13.68h5.79L156.7,55.17h-.06Z"/><path class="cls-2" d="M172.29,43h17v5.92h-9.74V61.28h7.26v5.85h-7.26v19h-7.25Z"/><path class="cls-2" d="M192.46,43h17v5.92h-9.74V61.28H207v5.85h-7.26v19h-7.25Z"/><path class="cls-2" d="M212,75V54.15c0-6.75,3.31-11.65,10.95-11.65s11,4.9,11,11.65V75c0,6.68-3.31,11.65-11,11.65S212,81.7,212,75Zm14.71,1.15V53c0-2.61-1.15-4.45-3.76-4.45s-3.69,1.84-3.69,4.45V76.17c0,2.61,1.14,4.45,3.69,4.45S226.7,78.78,226.7,76.17Z"/><path class="cls-2" d="M245.34,66.37V86.16h-7.26V43h10.57c7.32,0,10,3.63,10,9.67v5.54c0,4.65-1.65,7.38-5.79,8.34l6.94,19.6h-7.64Zm0-17.44V62.36h2.42c2.48,0,3.56-1.27,3.56-3.57V52.43c0-2.36-1.08-3.5-3.56-3.5Z"/><path class="cls-2" d="M284.29,54.59v20c0,6.62-2.74,11.58-10.51,11.58h-11.2V43h11.2C281.55,43,284.29,47.91,284.29,54.59Zm-11.4,25.65c3,0,4.14-1.78,4.14-4.39V53.26c0-2.55-1.15-4.33-4.14-4.33h-3.05V80.24Z"/><path class="cls-2" d="M286.32,86.16,294.46,43h8.28L311,86.16H303.5l-1.34-7.89h-7.7l-1.27,7.89Zm9.1-13.68h5.79l-2.86-17.31h-.07Z"/><path class="cls-2" d="M313.93,43h10.51c7.25,0,9.67,3.37,9.67,9.48v4.39c0,3.63-1.34,5.92-4.33,6.88,3.63.83,5.41,3.25,5.41,7.19v5.73c0,6.11-2.74,9.48-10,9.48H313.93Zm7.26,18.2h2.55c2.35,0,3.43-1.21,3.43-3.5V52.43c0-2.36-1.08-3.5-3.5-3.5h-2.48Zm0,5.54V80.24h3.18c2.42,0,3.57-1.21,3.57-3.5V70.25c0-2.29-1.09-3.5-3.63-3.5Z"/><path class="cls-2" d="M338.81,43h7.26V80.24h8.65v5.92H338.81Z"/><path class="cls-2" d="M358,43h17.31v5.92H365.28V61.28h7.2v5.85h-7.2V80.24h10.06v5.92H358Z"/><path class="cls-2" d="M384.75,86.16,392.9,43h8.27l8.22,43.15h-7.45l-1.34-7.89h-7.7l-1.27,7.89Zm9.1-13.68h5.8l-2.87-17.31h-.06Z"/><path class="cls-2" d="M418.48,59.05V86.16h-6.11V43h7.13l7.83,24.76V43h6V86.16H427Z"/><path class="cls-2" d="M459.21,54.59v20c0,6.62-2.74,11.58-10.51,11.58H437.5V43h11.2C456.47,43,459.21,47.91,459.21,54.59Zm-11.4,25.65c3,0,4.14-1.78,4.14-4.39V53.26c0-2.55-1.14-4.33-4.14-4.33h-3.05V80.24Z"/><path class="cls-2" d="M145.81,135.47V114.6c0-6.75,3.19-11.65,10.83-11.65,8,0,10.24,4.45,10.24,10.82v5.09h-6.62V113.2c0-2.68-.89-4.21-3.5-4.21s-3.69,1.85-3.69,4.46v23.17c0,2.61,1.08,4.45,3.69,4.45s3.5-1.65,3.5-4.2v-8h6.62v7.44c0,6.18-2.54,10.76-10.24,10.76S145.81,142.15,145.81,135.47Z"/><path class="cls-2" d="M170.82,103.46h7.26v37.23h8.66v5.92H170.82Z"/><path class="cls-2" d="M190,103.46h17.31v5.92h-10v12.34h7.19v5.86H197.3v13.11h10v5.92H190Z"/><path class="cls-2" d="M210.08,146.61l8.15-43.15h8.27l8.21,43.15h-7.44l-1.34-7.89h-7.7L217,146.61Zm9.11-13.68H225l-2.87-17.32h-.06Z"/><path class="cls-2" d="M243.81,119.5v27.11H237.7V103.46h7.13l7.83,24.76V103.46h6v43.15h-6.36Z"/><path class="cls-2" d="M269.52,103.46h17.31v5.92H276.77v12.34H284v5.86h-7.19v13.11h10.06v5.92H269.52Z"/><path class="cls-2" d="M296.82,119.5v27.11h-6.11V103.46h7.12l7.83,24.76V103.46h6v43.15h-6.36Z"/><path class="cls-2" d="M315.84,103.46h17.31v5.92h-10v12.34h7.19v5.86H323.1v13.11h10v5.92H315.84Z"/><path class="cls-2" d="M344.29,126.82v19.79H337V103.46H347.6c7.32,0,10,3.63,10,9.67v5.54c0,4.64-1.66,7.38-5.8,8.34l6.94,19.6h-7.64Zm0-17.44v13.43h2.41c2.49,0,3.57-1.28,3.57-3.57v-6.36c0-2.36-1.08-3.5-3.57-3.5Z"/><path class="cls-2" d="M372.47,123.57h10.32v23h-5.22V141.9c-1,3.25-3,5.22-6.94,5.22-6.24,0-9.1-5-9.1-11.65V114.6c0-6.75,3.24-11.65,10.88-11.65,8,0,10.38,4.45,10.38,10.82v3.82h-6.62V113.2c0-2.68-1-4.21-3.63-4.21s-3.76,1.85-3.76,4.46v23.17c0,2.61,1.08,4.45,3.57,4.45s3.56-1.33,3.56-4.13V129.3h-3.44Z"/><path class="cls-2" d="M399.46,130.19v16.42H392.2V130.19l-8.08-26.73h7.57l4.39,16.36h.07l4.39-16.36h6.94Z"/></svg>