<svg id="Layer_1" data-name="Layer 1" xmlns="http://www.w3.org/2000/svg" viewBox="0 0 512 512"><defs><style>.cls-1{fill:#8f1838;}.cls-2{fill:#fff;}</style></defs><title>8</title><rect class="cls-1" width="512" height="512"/><path class="cls-2" d="M352.78,251.9l-52,49.51c-2,1.95-3,3.39-3,7.43V447.59a3,3,0,0,0,3,3h53.75a3,3,0,0,0,3-3V253.15c0-1.64-1.28-4.63-4.67-1.25"/><path class="cls-2" d="M202.85,316.4l-52,49.5c-2,2-3,3.39-3,7.43v74.26a3,3,0,0,0,3,3h53.76a3,3,0,0,0,3-3V317.64c0-1.64-1.29-4.64-4.68-1.24"/><path class="cls-2" d="M376.43,191.86a1.46,1.46,0,0,0-.44-1.12,1.59,1.59,0,0,0-1-.43l-.29,0-.42,0-39.85,9-.73.07a1.61,1.61,0,0,0-.77.41,1.51,1.51,0,0,0,0,2.14l.45.45,9.1,9.1-90.3,90.3-41.7-41.71a1.18,1.18,0,0,0-1.7,0l-11.31,11.32h0l-66.85,66.84a1.2,1.2,0,0,0,0,1.7L142,351.31a1.2,1.2,0,0,0,1.68,0l66-66,30.26,30.27a.94.94,0,0,0,.1.14L251.36,327a1.2,1.2,0,0,0,1.7,0L355.53,224.54l9.56,9.55a1.5,1.5,0,0,0,2.13,0,1.46,1.46,0,0,0,.43-1V233l8.75-40.68Z"/><path class="cls-2" d="M278.11,325.08l-25.18,25.39a1.2,1.2,0,0,1-1.62-.06L228.5,327.16c-4.18-4.16-5.08-.79-5.08.85V447.58a3,3,0,0,0,3,3h53.77a3,3,0,0,0,3-3V326c0-1.63-1.29-4.63-5-.94"/><path class="cls-2" d="M99.11,120.88V109.61c0-9.89-3.5-17-11.57-20.71,6.85-3.34,10-9.43,10-18V66.67c0-16.13-8.37-24.81-24.36-24.81-15.83,0-24.06,8.68-24.06,24.81v4.27c0,8.38,3,14.62,9.74,18-8.07,3.66-11.42,10.82-11.42,20.71v11.27c0,15.68,7.47,26.65,25.74,26.65,18.42,0,25.88-11,25.88-26.65M65.46,65.62c0-6.25,2.14-9.91,7.77-9.91s7.92,3.66,7.92,9.91v7c0,6.25-2.14,9.91-7.92,9.91s-7.77-3.66-7.77-9.91Zm16.29,57.09c0,6.25-2.28,10.66-8.52,10.66s-8.38-4.41-8.38-10.66V106c0-6.24,2.28-10.66,8.38-10.66s8.52,4.42,8.52,10.66Z"/><path class="cls-2" d="M158,54.59v20c0,6.62-2.74,11.58-10.5,11.58H136.29V43H147.5C155.26,43,158,47.91,158,54.59ZM146.61,80.24c3,0,4.13-1.78,4.13-4.39V53.26c0-2.55-1.14-4.33-4.13-4.33h-3.06V80.24Z"/><path class="cls-2" d="M162.13,43h17.31v5.92H169.39V61.28h7.19v5.85h-7.19V80.24h10.05v5.92H162.13Z"/><path class="cls-2" d="M182.68,75V54.15c0-6.75,3.19-11.65,10.82-11.65,8,0,10.25,4.46,10.25,10.82v5.09h-6.62V52.75c0-2.68-.89-4.2-3.5-4.2s-3.69,1.84-3.69,4.45V76.17c0,2.61,1.08,4.45,3.69,4.45s3.5-1.65,3.5-4.2v-8h6.62v7.44c0,6.18-2.54,10.76-10.25,10.76S182.68,81.7,182.68,75Z"/><path class="cls-2" d="M207.69,43H225v5.92H215V61.28h7.19v5.85H215V80.24H225v5.92H207.69Z"/><path class="cls-2" d="M235,59.05V86.16h-6.11V43H236l7.83,24.76V43h6V86.16h-6.37Z"/><path class="cls-2" d="M253.19,43h19.28v5.92h-6V86.16h-7.32V48.93h-6Z"/><path class="cls-2" d="M298.18,59.49l-4.07,26.67H287.3L281.5,43h7l3.37,27.37h.06L295.57,43h5.92l4,27.37h.07L308.87,43H315l-5.61,43.15h-6.87l-4.27-26.67Z"/><path class="cls-2" d="M317.45,75V54.15c0-6.75,3.31-11.65,10.95-11.65s11,4.9,11,11.65V75c0,6.68-3.32,11.65-11,11.65S317.45,81.7,317.45,75Zm14.71,1.15V53c0-2.61-1.15-4.45-3.76-4.45s-3.69,1.84-3.69,4.45V76.17c0,2.61,1.15,4.45,3.69,4.45S332.16,78.78,332.16,76.17Z"/><path class="cls-2" d="M350.8,66.37V86.16h-7.26V43h10.57c7.32,0,10,3.63,10,9.67v5.54c0,4.65-1.65,7.38-5.79,8.34l6.94,19.6h-7.64Zm0-17.44V62.36h2.42c2.48,0,3.56-1.27,3.56-3.57V52.43c0-2.36-1.08-3.5-3.56-3.5Z"/><path class="cls-2" d="M375.3,65.16v21H368V43h7.26V62l7.89-19h7.13l-8.4,19.41,8.59,23.74h-7.64Z"/><path class="cls-2" d="M398.78,86.16,406.93,43h8.27l8.21,43.15H416l-1.33-7.89h-7.7l-1.28,7.89Zm9.1-13.68h5.79l-2.86-17.31h-.07Z"/><path class="cls-2" d="M432.5,59.05V86.16h-6.11V43h7.13l7.83,24.76V43h6V86.16H441Z"/><path class="cls-2" d="M473.23,54.59v20c0,6.62-2.73,11.58-10.5,11.58h-11.2V43h11.2C470.5,43,473.23,47.91,473.23,54.59ZM461.84,80.24c3,0,4.14-1.78,4.14-4.39V53.26c0-2.55-1.15-4.33-4.14-4.33h-3V80.24Z"/><path class="cls-2" d="M136.29,103.46h17.32v5.92H143.55v12.34h7.19v5.86h-7.19v13.11h10.06v5.92H136.29Z"/><path class="cls-2" d="M156.85,135.47V114.6c0-6.75,3.18-11.65,10.82-11.65,8,0,10.25,4.45,10.25,10.82v5.09H171.3V113.2c0-2.68-.89-4.21-3.5-4.21s-3.69,1.85-3.69,4.46v23.17c0,2.61,1.08,4.45,3.69,4.45s3.5-1.65,3.5-4.2v-8h6.62v7.44c0,6.18-2.55,10.76-10.25,10.76S156.85,142.15,156.85,135.47Z"/><path class="cls-2" d="M181.86,135.47V114.6c0-6.75,3.31-11.65,10.94-11.65s11,4.9,11,11.65v20.87c0,6.68-3.32,11.65-11,11.65S181.86,142.15,181.86,135.47Zm14.7,1.15V113.45c0-2.61-1.15-4.46-3.76-4.46s-3.69,1.85-3.69,4.46v23.17c0,2.61,1.15,4.45,3.69,4.45S196.56,139.23,196.56,136.62Z"/><path class="cls-2" d="M214.06,119.5v27.11H208V103.46h7.13l7.82,24.76V103.46h6v43.15h-6.36Z"/><path class="cls-2" d="M233.08,135.47V114.6c0-6.75,3.31-11.65,10.95-11.65s11,4.9,11,11.65v20.87c0,6.68-3.31,11.65-11,11.65S233.08,142.15,233.08,135.47Zm14.71,1.15V113.45c0-2.61-1.15-4.46-3.76-4.46s-3.69,1.85-3.69,4.46v23.17c0,2.61,1.14,4.45,3.69,4.45S247.79,139.23,247.79,136.62Z"/><path class="cls-2" d="M279.16,118.61H279l-4.91,28h-3.37l-5.41-28h-.13v28h-6V103.46h8.47l4.71,24.31h.06l4.2-24.31h9.17v43.15h-6.62Z"/><path class="cls-2" d="M289.9,103.46h7.26v43.15H289.9Z"/><path class="cls-2" d="M301.36,135.47V114.6c0-6.75,3.18-11.65,10.82-11.65,8,0,10.25,4.45,10.25,10.82v5.09h-6.62V113.2c0-2.68-.89-4.21-3.5-4.21s-3.69,1.85-3.69,4.46v23.17c0,2.61,1.08,4.45,3.69,4.45s3.5-1.65,3.5-4.2v-8h6.62v7.44c0,6.18-2.55,10.76-10.25,10.76S301.36,142.15,301.36,135.47Z"/><path class="cls-2" d="M344,123.57h10.31v23h-5.22V141.9c-1,3.25-3,5.22-6.94,5.22-6.24,0-9.1-5-9.1-11.65V114.6c0-6.75,3.24-11.65,10.88-11.65,8,0,10.38,4.45,10.38,10.82v3.82h-6.62V113.2c0-2.68-1-4.21-3.63-4.21s-3.75,1.85-3.75,4.46v23.17c0,2.61,1.08,4.45,3.56,4.45s3.56-1.33,3.56-4.13V129.3H344Z"/><path class="cls-2" d="M365.69,126.82v19.79h-7.25V103.46H369c7.32,0,10,3.63,10,9.67v5.54c0,4.64-1.65,7.38-5.79,8.34l6.94,19.6H372.5Zm0-17.44v13.43h2.42c2.48,0,3.56-1.28,3.56-3.57v-6.36c0-2.36-1.08-3.5-3.56-3.5Z"/><path class="cls-2" d="M382.94,135.47V114.6c0-6.75,3.3-11.65,10.94-11.65s11,4.9,11,11.65v20.87c0,6.68-3.3,11.65-11,11.65S382.94,142.15,382.94,135.47Zm14.7,1.15V113.45c0-2.61-1.15-4.46-3.76-4.46s-3.69,1.85-3.69,4.46v23.17c0,2.61,1.15,4.45,3.69,4.45S397.64,139.23,397.64,136.62Z"/><path class="cls-2" d="M424.05,119.94,420,146.61h-6.82l-5.79-43.15h7l3.38,27.37h.06l3.63-27.37h5.92l4,27.37h.06l3.31-27.37h6.11l-5.6,43.15h-6.87l-4.27-26.67Z"/><path class="cls-2" d="M443.13,103.46h19.29v5.92h-6v37.23h-7.31V109.38h-6Z"/><path class="cls-2" d="M480,127.58h-7v19h-7.26V103.46H473v18.26h7V103.46h7.32v43.15H480Z"/></svg>