<svg id="Layer_1" data-name="Layer 1" xmlns="http://www.w3.org/2000/svg" viewBox="0 0 512 512"><defs><style>.cls-1{fill:#f36e24;}.cls-2{fill:#fff;}</style></defs><title>9</title><rect class="cls-1" width="512" height="512"/><path class="cls-2" d="M390.3,336.53l-60.87-35.12V231.13a4.15,4.15,0,0,0-2.07-3.59l-62.93-36.33a4.16,4.16,0,0,0-4.15,0l-62.93,36.33a4.14,4.14,0,0,0-2.08,3.59v70.28l-60.85,35.12a4.14,4.14,0,0,0-2.08,3.6V412.8a4.14,4.14,0,0,0,2.08,3.6l62.93,36.33a4.19,4.19,0,0,0,4.15,0l60.86-35.13,60.85,35.13a4.11,4.11,0,0,0,2.07.55,4.18,4.18,0,0,0,2.08-.55L390.3,416.4a4.15,4.15,0,0,0,2.07-3.6V340.13A4.15,4.15,0,0,0,390.3,336.53ZM258.21,405.61l-50.48-29.14,50.48-29.15ZM317,303.8l-50.47,29.14V274.66Zm-58.77,29.14L207.73,303.8l50.48-29.14Zm12.45,7.19,54.62-31.53,54.64,31.53-54.64,31.54Zm50.47-43.52-50.47-29.14,50.47-29.14Zm-67.08-29.14-50.47,29.14V238.33ZM195.27,441.94l-54.62-31.53V347.32l54.62,31.55Zm8.31,0V383.66l50.47,29.14Zm180.49-31.53-54.64,31.53V378.87l54.64-31.55Z"/><path class="cls-2" d="M97.28,68.89c0-16-7-27.55-25.26-27.55-18.42,0-25.57,10-25.57,26V82.58c0,16.9,6.69,25.41,19.18,25.41,7.3,0,11.71-3.35,14.3-8.36h.15v22.21c0,6.24-2.44,10.66-8.67,10.66s-8.53-3.66-8.53-10v-6.84H47.05v5.48c0,15.21,5.49,25.86,24.66,25.86C90,147,97.28,135.24,97.28,119.1ZM80.08,84.71c-.31,5.78-2.74,9.43-8.22,9.43-5.93,0-8.21-3.65-8.21-10.35v-18c0-6.55,2.42-10.35,8.37-10.35,5.78,0,8.06,4,8.06,10.35Z"/><path class="cls-2" d="M122.31,43h7.26V86.16h-7.26Z"/><path class="cls-2" d="M138,59.05V86.16h-6.11V43h7.13l7.83,24.76V43h6.05V86.16h-6.37Z"/><path class="cls-2" d="M176.92,54.59v20c0,6.62-2.74,11.58-10.51,11.58h-11.2V43h11.2C174.18,43,176.92,47.91,176.92,54.59Zm-11.4,25.65c3,0,4.14-1.78,4.14-4.39V53.26c0-2.55-1.15-4.33-4.14-4.33h-3.05V80.24Z"/><path class="cls-2" d="M200.27,43V75.66c0,6.68-2.86,11-10.25,11-7.64,0-10.82-4.33-10.82-11V43h7.26V76.36c0,2.55,1,4.26,3.56,4.26s3.57-1.71,3.57-4.26V43Z"/><path class="cls-2" d="M202.17,76.87V71.08h6.75V77c0,2.42,1.08,3.82,3.56,3.82,2.29,0,3.31-1.53,3.31-3.82V75.34c0-2.48-1-4-3.24-6.11L208.28,65c-4.14-4.07-6.05-6.56-6.05-11.52V52c0-5.34,3.12-9.48,10.19-9.48,7.25,0,10.12,3.56,10.12,9.8v3.5h-6.62V52.05c0-2.49-1.15-3.69-3.44-3.69-2,0-3.44,1.14-3.44,3.56v.89c0,2.42,1.34,3.82,3.44,5.86l4.65,4.58c3.94,4,5.85,6.43,5.85,11.2v2.1c0,5.92-3.18,10.12-10.56,10.12S202.17,82.53,202.17,76.87Z"/><path class="cls-2" d="M223.17,43h19.29v5.92h-6V86.16h-7.32V48.93h-6Z"/><path class="cls-2" d="M251.23,66.37V86.16H244V43h10.56c7.32,0,10,3.63,10,9.67v5.54c0,4.65-1.66,7.38-5.8,8.34l6.94,19.6H258Zm0-17.44V62.36h2.42c2.48,0,3.57-1.27,3.57-3.57V52.43c0-2.36-1.09-3.5-3.57-3.5Z"/><path class="cls-2" d="M279.81,69.74V86.16h-7.26V69.74L264.47,43H272l4.39,16.36h.07L280.89,43h6.94Z"/><path class="cls-2" d="M292.21,79.8l-3.69,9.74h-4.07l.89-10.31h6.87Z"/><path class="cls-2" d="M299.34,43h7.25V86.16h-7.25Z"/><path class="cls-2" d="M315.06,59.05V86.16H309V43h7.12l7.83,24.76V43H330V86.16h-6.36Z"/><path class="cls-2" d="M338.34,59.05V86.16h-6.11V43h7.13l7.83,24.76V43h6.05V86.16h-6.37Z"/><path class="cls-2" d="M355.52,75V54.15c0-6.75,3.31-11.65,11-11.65s11,4.9,11,11.65V75c0,6.68-3.31,11.65-11,11.65S355.52,81.7,355.52,75Zm14.71,1.15V53c0-2.61-1.15-4.45-3.76-4.45s-3.69,1.84-3.69,4.45V76.17c0,2.61,1.14,4.45,3.69,4.45S370.23,78.78,370.23,76.17Z"/><path class="cls-2" d="M401.73,43l-8.21,43.15h-7.9L377.41,43h7.39l5,30.11h.07L394.92,43Z"/><path class="cls-2" d="M397.9,86.16,406.05,43h8.27l8.22,43.15h-7.45l-1.34-7.89h-7.7l-1.27,7.89ZM407,72.48h5.8l-2.87-17.31h-.06Z"/><path class="cls-2" d="M419.67,43H439v5.92h-6V86.16h-7.32V48.93h-6Z"/><path class="cls-2" d="M440.47,43h7.26V86.16h-7.26Z"/><path class="cls-2" d="M450.08,75V54.15c0-6.75,3.31-11.65,10.95-11.65s11,4.9,11,11.65V75c0,6.68-3.31,11.65-11,11.65S450.08,81.7,450.08,75Zm14.71,1.15V53c0-2.61-1.15-4.45-3.76-4.45s-3.69,1.84-3.69,4.45V76.17c0,2.61,1.14,4.45,3.69,4.45S464.79,78.78,464.79,76.17Z"/><path class="cls-2" d="M480.44,59.05V86.16h-6.12V43h7.13l7.83,24.76V43h6.05V86.16H489Z"/><path class="cls-2" d="M121.17,146.61l8.15-43.15h8.27l8.21,43.15h-7.45L137,138.72h-7.7L128,146.61Zm9.1-13.68h5.79l-2.86-17.32h-.07Z"/><path class="cls-2" d="M153.05,119.5v27.11h-6.11V103.46h7.13l7.83,24.76V103.46h6v43.15h-6.36Z"/><path class="cls-2" d="M191.93,115v20c0,6.62-2.73,11.58-10.5,11.58h-11.2V103.46h11.2C189.2,103.46,191.93,108.36,191.93,115Zm-11.39,25.65c3,0,4.14-1.78,4.14-4.39V113.71c0-2.55-1.15-4.33-4.14-4.33h-3.06v31.31Z"/><path class="cls-2" d="M199.05,103.46h7.26v43.15h-7.26Z"/><path class="cls-2" d="M214.77,119.5v27.11h-6.11V103.46h7.13l7.83,24.76V103.46h6v43.15H223.3Z"/><path class="cls-2" d="M232,103.46h17v5.92h-9.74v12.34h7.25v5.86h-7.25v19H232Z"/><path class="cls-2" d="M257.53,126.82v19.79h-7.25V103.46h10.56c7.32,0,10,3.63,10,9.67v5.54c0,4.64-1.65,7.38-5.79,8.34l6.94,19.6h-7.64Zm0-17.44v13.43H260c2.48,0,3.56-1.28,3.56-3.57v-6.36c0-2.36-1.08-3.5-3.56-3.5Z"/><path class="cls-2" d="M271.79,146.61l8.14-43.15h8.28l8.21,43.15H289l-1.34-7.89h-7.7l-1.27,7.89Zm9.1-13.68h5.79l-2.87-17.32h-.06Z"/><path class="cls-2" d="M296.54,137.32v-5.79h6.74v5.92c0,2.42,1.09,3.82,3.57,3.82,2.29,0,3.31-1.53,3.31-3.82v-1.66c0-2.48-1-4-3.25-6.11l-4.26-4.26c-4.14-4.07-6-6.56-6-11.52v-1.47c0-5.34,3.12-9.48,10.18-9.48,7.26,0,10.13,3.56,10.13,9.8v3.5h-6.62V112.5c0-2.49-1.15-3.7-3.44-3.7-2,0-3.44,1.15-3.44,3.57v.89c0,2.42,1.34,3.82,3.44,5.85l4.65,4.59c3.94,4,5.85,6.43,5.85,11.2V137c0,5.92-3.18,10.12-10.57,10.12S296.54,143,296.54,137.32Z"/><path class="cls-2" d="M317.54,103.46h19.28v5.92h-6v37.23h-7.32V109.38h-6Z"/><path class="cls-2" d="M345.6,126.82v19.79h-7.26V103.46h10.57c7.32,0,10,3.63,10,9.67v5.54c0,4.64-1.65,7.38-5.79,8.34l6.94,19.6h-7.64Zm0-17.44v13.43H348c2.48,0,3.56-1.28,3.56-3.57v-6.36c0-2.36-1.08-3.5-3.56-3.5Z"/><path class="cls-2" d="M382.06,103.46v32.65c0,6.68-2.86,11-10.24,11-7.64,0-10.82-4.33-10.82-11V103.46h7.25v33.35c0,2.55,1,4.26,3.57,4.26s3.56-1.71,3.56-4.26V103.46Z"/><path class="cls-2" d="M384.35,135.47V114.6c0-6.75,3.18-11.65,10.82-11.65,8,0,10.25,4.45,10.25,10.82v5.09H398.8V113.2c0-2.68-.89-4.21-3.5-4.21s-3.69,1.85-3.69,4.46v23.17c0,2.61,1.08,4.45,3.69,4.45s3.5-1.65,3.5-4.2v-8h6.62v7.44c0,6.18-2.55,10.76-10.25,10.76S384.35,142.15,384.35,135.47Z"/><path class="cls-2" d="M406.05,103.46h19.28v5.92h-6v37.23H412V109.38h-6Z"/><path class="cls-2" d="M447.92,103.46v32.65c0,6.68-2.86,11-10.24,11-7.64,0-10.82-4.33-10.82-11V103.46h7.25v33.35c0,2.55,1,4.26,3.57,4.26s3.56-1.71,3.56-4.26V103.46Z"/><path class="cls-2" d="M457.46,126.82v19.79h-7.25V103.46h10.56c7.32,0,10,3.63,10,9.67v5.54c0,4.64-1.65,7.38-5.79,8.34l6.94,19.6h-7.64Zm0-17.44v13.43h2.42c2.48,0,3.56-1.28,3.56-3.57v-6.36c0-2.36-1.08-3.5-3.56-3.5Z"/><path class="cls-2" d="M472.86,103.46h17.31v5.92H480.12v12.34h7.19v5.86h-7.19v13.11h10.05v5.92H472.86Z"/></svg>