<svg id="Layer_1" data-name="Layer 1" xmlns="http://www.w3.org/2000/svg" viewBox="0 0 512 512"><defs><style>.cls-1{fill:#f1f1f2;}.cls-2{fill:#010101;}.cls-3{fill:#56c22b;}.cls-4{fill:#e5b735;}.cls-5{fill:#c5192d;}.cls-6{fill:#4c9f38;}.cls-7{fill:#3f7e44;}.cls-8{fill:#fcc30b;}.cls-9{fill:#ff3a21;}.cls-10{fill:#ff9f24;}.cls-11{fill:#0a97d9;}.cls-12{fill:#a21942;}.cls-13{fill:#26bde2;}.cls-14{fill:#ff6924;}.cls-15{fill:#e8203a;}.cls-16{fill:#dd1367;}.cls-17{fill:#19486a;}.cls-18{fill:#c9992d;}.cls-19{fill:#00689d;}.cls-20{fill:#231f20;}</style></defs><title>overall</title><rect class="cls-1" width="512" height="512"/><path class="cls-2" d="M156.39,405.7H169.5v29.24h-6.63v-6c-1.23,4.11-3.81,6.62-8.83,6.62-7.92,0-11.55-6.3-11.55-14.78V394.32c0-8.56,4.12-14.79,13.83-14.79,10.18,0,13.18,5.66,13.18,13.74v4.84h-8.42v-5.57c0-3.39-1.29-5.33-4.61-5.33s-4.76,2.35-4.76,5.66v29.39c0,3.31,1.37,5.65,4.53,5.65,3,0,4.52-1.69,4.52-5.24V413h-4.37Z"/><polygon class="cls-2" points="173.95 380.19 183.17 380.19 183.17 427.44 194.16 427.44 194.16 434.94 173.95 434.94 173.95 380.19"/><path class="cls-2" d="M197.15,420.81V394.32c0-8.56,4.21-14.77,13.92-14.77s14,6.21,14,14.77v26.49c0,8.48-4.21,14.78-14,14.78s-13.92-6.3-13.92-14.78m18.7,1.45V392.87c0-3.31-1.46-5.66-4.78-5.66s-4.7,2.35-4.7,5.66v29.39c0,3.31,1.46,5.66,4.7,5.66s4.78-2.35,4.78-5.66"/><path class="cls-2" d="M229.51,380.19h13.34c9.23,0,12.3,4.28,12.3,12v5.58c0,4.6-1.7,7.52-5.5,8.73,4.6,1.05,6.87,4.11,6.87,9.12v7.27c0,7.76-3.47,12-12.69,12H229.51Zm9.21,23.09H242c3,0,4.38-1.53,4.38-4.44v-6.7c0-3-1.38-4.44-4.45-4.44h-3.17Zm0,7v17.13h4.05c3.08,0,4.53-1.54,4.53-4.45v-8.23c0-2.91-1.37-4.45-4.61-4.45Z"/><path class="cls-2" d="M258.46,434.94l10.35-54.75h10.52l10.44,54.75H280.3l-1.71-10h-9.78l-1.61,10ZM270,417.58h7.35l-3.63-22h-.08Z"/><polygon class="cls-2" points="292.76 380.19 301.99 380.19 301.99 427.44 312.98 427.44 312.98 434.94 292.76 434.94 292.76 380.19"/><path class="cls-2" d="M338,405.7h13.1v29.24h-6.63v-6c-1.22,4.11-3.8,6.62-8.82,6.62-7.93,0-11.56-6.3-11.56-14.78V394.32c0-8.56,4.12-14.79,13.82-14.79,10.2,0,13.19,5.66,13.19,13.74v4.84h-8.41v-5.57c0-3.39-1.3-5.33-4.62-5.33s-4.77,2.35-4.77,5.66v29.39c0,3.31,1.38,5.65,4.54,5.65,3,0,4.52-1.69,4.52-5.24V413H338Z"/><path class="cls-2" d="M355.52,420.81V394.32c0-8.56,4.2-14.77,13.91-14.77s14,6.21,14,14.77v26.49c0,8.48-4.2,14.78-14,14.78s-13.91-6.3-13.91-14.78m18.69,1.45V392.87c0-3.31-1.47-5.66-4.78-5.66s-4.7,2.35-4.7,5.66v29.39c0,3.31,1.46,5.66,4.7,5.66s4.78-2.35,4.78-5.66"/><path class="cls-2" d="M385.2,434.94l10.35-54.75h10.52l10.44,54.75H407l-1.7-10h-9.79l-1.62,10Zm11.57-17.36h7.36l-3.64-22h-.08Z"/><polygon class="cls-2" points="419.49 380.19 428.7 380.19 428.7 427.44 439.72 427.44 439.72 434.94 419.49 434.94 419.49 380.19"/><path class="cls-2" d="M442.22,423.16V415.8h8.57v7.52c0,3.07,1.39,4.84,4.54,4.84,2.9,0,4.2-1.94,4.2-4.84v-2.11c0-3.15-1.3-5.08-4.13-7.75L450,408.05c-5.25-5.17-7.68-8.32-7.68-14.62v-1.86c0-6.78,4-12,12.94-12,9.22,0,12.86,4.53,12.86,12.44v4.45h-8.41v-4.77c0-3.15-1.46-4.69-4.36-4.69-2.6,0-4.38,1.45-4.38,4.52v1.13c0,3.07,1.7,4.85,4.38,7.43l5.9,5.81c5,5.1,7.44,8.17,7.44,14.22v2.67c0,7.51-4,12.84-13.43,12.84s-13-5.25-13-12.43"/><polygon class="cls-2" points="48.83 380.19 73.33 380.19 73.33 387.7 65.73 387.7 65.73 434.94 56.43 434.94 56.43 387.7 48.83 387.7 48.83 380.19"/><polygon class="cls-2" points="94.92 410.8 86.03 410.8 86.03 434.94 76.81 434.94 76.81 380.19 86.03 380.19 86.03 403.37 94.92 403.37 94.92 380.19 104.22 380.19 104.22 434.94 94.92 434.94 94.92 410.8"/><polygon class="cls-2" points="108.67 380.19 130.68 380.19 130.68 387.7 117.9 387.7 117.9 403.37 127.04 403.37 127.04 410.8 117.9 410.8 117.9 427.44 130.68 427.44 130.68 434.94 108.67 434.94 108.67 380.19"/><path class="cls-3" d="M194,180A72.45,72.45,0,0,1,205.5,165.2L167.9,124A128.58,128.58,0,0,0,144,155Z"/><path class="cls-4" d="M286.19,150.83A71.35,71.35,0,0,1,302,160.7l37.7-41.16A128.24,128.24,0,0,0,306.25,98.7Z"/><path class="cls-5" d="M372.53,163.22l-50,24.91a71.82,71.82,0,0,1,5,17.65l55.58-5.25a126.76,126.76,0,0,0-10.62-37.31"/><path class="cls-6" d="M319,180.91l50-24.91a128.77,128.77,0,0,0-23.34-31l-37.71,41.16A72.14,72.14,0,0,1,319,180.91"/><path class="cls-7" d="M184.1,216.41c0-1.12,0-2.25.09-3.36l-55.6-5c-.17,2.76-.28,5.54-.28,8.34a127.63,127.63,0,0,0,3.79,30.93l53.69-15.41a72.15,72.15,0,0,1-1.69-15.52"/><path class="cls-8" d="M312,262.11a72.54,72.54,0,0,1-13.56,12.75l29.36,47.53a129.12,129.12,0,0,0,28.75-26.7Z"/><path class="cls-9" d="M328.35,216.41a71.11,71.11,0,0,1-1.66,15.34l53.69,15.43a127.42,127.42,0,0,0,3.76-30.77c0-2.63-.09-5.24-.25-7.85l-55.59,5.25c0,.87.05,1.73.05,2.6"/><path class="cls-10" d="M201.36,263.17l-44.43,33.77a128.58,128.58,0,0,0,29,26.29l29.35-47.47a73.18,73.18,0,0,1-13.94-12.59"/><path class="cls-11" d="M185,205a71.47,71.47,0,0,1,5.33-17.91l-50-24.88a127.14,127.14,0,0,0-11,37.8Z"/><path class="cls-12" d="M321,326.69l-29.31-47.47a71.54,71.54,0,0,1-17.11,6.95l10.35,54.91A127.25,127.25,0,0,0,321,326.69"/><path class="cls-13" d="M324.56,239.53a72.65,72.65,0,0,1-7.81,16.07l44.58,33.62a127.43,127.43,0,0,0,16.87-34.28Z"/><path class="cls-14" d="M266.63,287.78a71.21,71.21,0,0,1-18.8.26l-10.34,54.9a128,128,0,0,0,39.47-.31Z"/><path class="cls-15" d="M260.83,144.44a71.64,71.64,0,0,1,17.85,3.44l20.06-52.11a127,127,0,0,0-37.91-7.17Z"/><path class="cls-16" d="M239.88,286.67a71.63,71.63,0,0,1-17.7-6.7l-29.37,47.5a127.54,127.54,0,0,0,36.74,14Z"/><path class="cls-17" d="M234.55,147.63a71.24,71.24,0,0,1,18.22-3.24V88.55a127.56,127.56,0,0,0-38.41,7Z"/><path class="cls-18" d="M196.47,256.75A71.51,71.51,0,0,1,188,239.7l-53.66,15.4A127.22,127.22,0,0,0,152,290.53Z"/><path class="cls-19" d="M211.54,159.85A71.6,71.6,0,0,1,227,150.49L206.83,98.44a127.89,127.89,0,0,0-32.91,20.15Z"/><path class="cls-20" d="M66.48,458.28h-11V470.5H53.21V445H67.67v2.14H55.52v9h11Z"/><path class="cls-20" d="M77.74,470.84c-5.82,0-7.14-3.64-7.14-8.85s1.32-8.85,7.14-8.85,7.15,3.64,7.15,8.85S83.6,470.84,77.74,470.84Zm0-15.59c-4.49,0-4.76,2.89-4.76,6.74s.27,6.74,4.76,6.74,4.77-2.89,4.77-6.74S82.17,455.25,77.74,455.25Z"/><path class="cls-20" d="M98.33,455.53a6.3,6.3,0,0,0-2-.28,9.28,9.28,0,0,0-4.94,1.09V470.5H89v-17H90.3l.51,1.43a9.23,9.23,0,0,1,5.48-1.77,11.55,11.55,0,0,1,2,.18Z"/><path class="cls-20" d="M109.08,451.78c0,3.64,2.11,4,6.12,4.49,5,.65,8.1,1.87,8.1,6.88,0,3.47-1.83,7.69-9.42,7.69a21.16,21.16,0,0,1-7.15-1.36v-2.21a19.36,19.36,0,0,0,7.18,1.42c5.31,0,6.91-2.48,6.91-5.54,0-3.64-1.5-4.36-5.75-4.9-6-.75-8.34-2.15-8.34-6.5,0-3,1.43-7.11,8.57-7.11a15.7,15.7,0,0,1,6.64,1.19v2.28a15.43,15.43,0,0,0-6.67-1.33C110.23,446.78,109.08,449.09,109.08,451.78Z"/><path class="cls-20" d="M129.56,465.84c0,2.21,1.29,2.89,3.41,2.89a8.23,8.23,0,0,0,4.59-1.09V453.48h2.38v17h-1.33l-.51-1.43a8.49,8.49,0,0,1-5.13,1.77c-4.06,0-5.79-1.84-5.79-5.11V453.48h2.38Z"/><path class="cls-20" d="M150,460.73c4.83.44,6,2.08,6,4.87,0,2.62-1.68,5.24-6.85,5.24a16.86,16.86,0,0,1-5.07-.85v-2a15.15,15.15,0,0,0,5.1.78c3.54,0,4.5-1.5,4.5-3.1s-.48-2.65-3.85-2.93c-4.93-.44-6-2.17-6-4.52s1.57-5,6.37-5a12.85,12.85,0,0,1,4.9.85V456a13.85,13.85,0,0,0-4.93-.79c-3.37,0-4.09,1.26-4.09,2.93C146.16,459.68,146.77,460.46,150,460.73Z"/><path class="cls-20" d="M168.86,470.7a7.71,7.71,0,0,1-1.53.14c-2.82,0-5.45-1.29-5.45-4.63V455.35h-3.4V454.3l3.4-1v-4.6l2.38-.68v5.44h5.28v1.87h-5.28v10.59c0,2.07,1.12,2.93,3.27,2.93.44,0,.89,0,1.33-.08Z"/><path class="cls-20" d="M178.76,455.25a14.93,14.93,0,0,0-5.1.85v-2a13.8,13.8,0,0,1,5.1-.92c5.1,0,6.43,2.32,6.43,5.72V470.5h-1.33l-.51-1.36a8.93,8.93,0,0,1-5.14,1.7c-4.46,0-6-2.62-6-5.48s1.6-5,6.06-5.31l4.49-.27v-1C182.81,456.34,181.92,455.25,178.76,455.25Zm-.61,6.64c-2.42.24-3.48,1.49-3.48,3.47,0,1.53.38,3.37,3.61,3.37a8.25,8.25,0,0,0,4.53-1.36v-5.93Z"/><path class="cls-20" d="M191.31,446.68a1.7,1.7,0,1,1-1.7,1.7A1.69,1.69,0,0,1,191.31,446.68Zm-1.16,20.42V453.48h2.32v13.89c0,1.19.37,1.53,1.43,1.53v1.94C191.45,470.84,190.15,469.82,190.15,467.1Z"/><path class="cls-20" d="M208.16,458.14c0-2.21-1.3-2.89-3.41-2.89a8.21,8.21,0,0,0-4.59,1.09V470.5h-2.38v-17h1.33l.51,1.43a8.47,8.47,0,0,1,5.13-1.77c4.05,0,5.79,1.84,5.79,5.11V470.5h-2.38Z"/><path class="cls-20" d="M220.78,455.25a15,15,0,0,0-5.11.85v-2a13.89,13.89,0,0,1,5.11-.92c5.1,0,6.43,2.32,6.43,5.72V470.5h-1.33l-.51-1.36a8.93,8.93,0,0,1-5.14,1.7c-4.46,0-5.95-2.62-5.95-5.48s1.6-5,6.06-5.31l4.49-.27v-1C224.83,456.34,223.94,455.25,220.78,455.25Zm-.61,6.64c-2.42.24-3.47,1.49-3.47,3.47,0,1.53.37,3.37,3.6,3.37a8.25,8.25,0,0,0,4.53-1.36v-5.93Z"/><path class="cls-20" d="M245.75,462c0,4.9-1.49,8.85-7,8.85a9.69,9.69,0,0,1-5.31-1.74l-.51,1.4h-1.33V445H234v9.56a8.85,8.85,0,0,1,4.77-1.4C244.26,453.14,245.75,457.09,245.75,462ZM234,456.34v11.3a9.05,9.05,0,0,0,4.77,1.09c4.08,0,4.59-3.37,4.59-6.74s-.51-6.74-4.59-6.74A9.05,9.05,0,0,0,234,456.34Z"/><path class="cls-20" d="M250.38,467.1V445h2.31v22.39c0,1.19.38,1.53,1.43,1.53v1.94C251.67,470.84,250.38,469.82,250.38,467.1Z"/><path class="cls-20" d="M264.81,453.14c5.78,0,6.46,3.95,6.46,8.85v1.09H260c.14,3,.92,5.65,4.77,5.65a13.06,13.06,0,0,0,5.61-1v2a13.8,13.8,0,0,1-5.61,1c-5.75,0-7.15-3.95-7.15-8.85S259.06,453.14,264.81,453.14Zm-4.77,8h8.85c0-3-.17-5.89-4.08-5.89S260.14,458.08,260,461.14Z"/><path class="cls-20" d="M281.48,470.5V445h6.94c8.34,0,10.75,5.51,10.75,12.76s-2.41,12.76-10.75,12.76Zm2.31-2.15h4.76c6.13,0,8.17-4.49,8.17-10.61s-2-10.62-8.17-10.62h-4.76Z"/><path class="cls-20" d="M310.23,453.14c5.78,0,6.46,3.95,6.46,8.85v1.09H305.46c.14,3,.92,5.65,4.77,5.65a13.14,13.14,0,0,0,5.62-1v2a13.85,13.85,0,0,1-5.62,1c-5.76,0-7.15-3.95-7.15-8.85S304.47,453.14,310.23,453.14Zm-4.77,8h8.85c0-3-.17-5.89-4.08-5.89S305.56,458.08,305.46,461.14Z"/><path class="cls-20" d="M321.52,453.48l4.87,14,4.86-14h2.62l-6.63,17.36h-1.7l-6.64-17.36Z"/><path class="cls-20" d="M342.89,453.14c5.79,0,6.47,3.95,6.47,8.85v1.09H338.13c.13,3,.92,5.65,4.76,5.65a13.11,13.11,0,0,0,5.62-1v2a13.82,13.82,0,0,1-5.62,1c-5.75,0-7.15-3.95-7.15-8.85S337.14,453.14,342.89,453.14Zm-4.76,8H347c0-3-.17-5.89-4.08-5.89S338.23,458.08,338.13,461.14Z"/><path class="cls-20" d="M354,467.1V445h2.31v22.39c0,1.19.38,1.53,1.43,1.53v1.94C355.27,470.84,354,469.82,354,467.1Z"/><path class="cls-20" d="M368.41,470.84c-5.82,0-7.15-3.64-7.15-8.85s1.33-8.85,7.15-8.85,7.15,3.64,7.15,8.85S374.26,470.84,368.41,470.84Zm0-15.59c-4.49,0-4.76,2.89-4.76,6.74s.27,6.74,4.76,6.74,4.76-2.89,4.76-6.74S372.83,455.25,368.41,455.25Z"/><path class="cls-20" d="M382,469.44V479h-2.39V453.48H381l.51,1.4a9.77,9.77,0,0,1,5.31-1.74c5.48,0,7,3.95,7,8.85s-1.5,8.85-7,8.85A8.88,8.88,0,0,1,382,469.44Zm9.35-7.45c0-3.37-.51-6.74-4.59-6.74a9,9,0,0,0-4.76,1.09v11.3a9,9,0,0,0,4.76,1.09C390.86,468.73,391.37,465.36,391.37,462Z"/><path class="cls-20" d="M417.91,458.14c0-2.21-1.29-2.89-3.23-2.89a8.73,8.73,0,0,0-4.63,1.13,7,7,0,0,1,.21,1.76V470.5h-2.38V458.14c0-2.21-1.3-2.89-3.24-2.89a8.61,8.61,0,0,0-4.42,1V470.5h-2.38v-17h1.33l.51,1.4a8.55,8.55,0,0,1,5-1.74c2.28,0,3.88.65,4.77,1.94a9.55,9.55,0,0,1,5.27-1.94c3.64,0,5.61,1.7,5.61,5.11V470.5h-2.38Z"/><path class="cls-20" d="M431.35,453.14c5.79,0,6.47,3.95,6.47,8.85v1.09H426.59c.14,3,.92,5.65,4.76,5.65a13.11,13.11,0,0,0,5.62-1v2a13.82,13.82,0,0,1-5.62,1c-5.75,0-7.14-3.95-7.14-8.85S425.6,453.14,431.35,453.14Zm-4.76,8h8.85c0-3-.17-5.89-4.09-5.89S426.69,458.08,426.59,461.14Z"/><path class="cls-20" d="M452.28,458.14c0-2.21-1.3-2.89-3.41-2.89a8.21,8.21,0,0,0-4.59,1.09V470.5h-2.39v-17h1.33l.51,1.43a8.49,8.49,0,0,1,5.14-1.77c4.05,0,5.79,1.84,5.79,5.11V470.5h-2.38Z"/><path class="cls-20" d="M467.76,470.7a7.71,7.71,0,0,1-1.53.14c-2.83,0-5.45-1.29-5.45-4.63V455.35h-3.4V454.3l3.4-1v-4.6l2.38-.68v5.44h5.28v1.87h-5.28v10.59c0,2.07,1.12,2.93,3.27,2.93.44,0,.88,0,1.33-.08Z"/></svg>