<?xml version="1.0" encoding="utf-8"?>
<!-- Generator: Adobe Illustrator 21.1.0, SVG Export Plug-In . SVG Version: 6.00 Build 0)  -->
<svg version="1.1" xmlns="http://www.w3.org/2000/svg" xmlns:xlink="http://www.w3.org/1999/xlink" x="0px" y="0px"
	 viewBox="0 0 1348.9 136.1" style="enable-background:new 0 0 1348.9 136.1;" xml:space="preserve">
<style type="text/css">
	.st0{fill:#FFFFFF;}
	.st1{fill:none;stroke:#FFFFFF;stroke-width:0.8111;}
</style>
<g id="Layer_2">
</g>
<g id="Layer_1">
	<path class="st0" d="M152.1,112.2v-4.9L164,88c0.7-1.1,1.4-2.1,2.1-3.1c-1.2,0.1-2.7,0.1-6,0.1h-7.6v-5.7h21.2v5.1l-12.5,19.8
		c-0.5,0.8-0.9,1.5-1.5,2.3c0.8-0.1,3.1-0.1,7.1-0.1h7.1v5.8H152.1z M194.1,112.2c0-1.1,0-3,0.3-4.3l0,0c-1.5,2.9-4.2,4.9-8.2,4.9
		c-5.5,0-7.2-3.5-7.2-7.7V88h6.2v15.5c0,2.5,0.7,4,3,4c3.2,0,5.6-3.6,5.6-7.8V88h6.2v24.2H194.1z M219.6,93.6
		c-4.5-0.9-6.7,2-6.7,8.7v9.9h-6.2V88h5.9c0,1.2-0.1,3.2-0.4,4.9h0.1c1.2-3.1,3.5-5.7,7.7-5.4L219.6,93.6z M227.5,84.8
		c-2.1,0-3.8-1.7-3.8-3.8c0-2,1.7-3.7,3.8-3.7c2.1,0,3.9,1.7,3.9,3.7C231.4,83.1,229.7,84.8,227.5,84.8z M224.4,112.2V88h6.2v24.2
		H224.4z M246.1,112.6c-6.7,0-10.9-3.5-10.9-11.7c0-7.6,3.9-13.3,12.5-13.3c1.7,0,3.4,0.2,5,0.7l-0.6,5.4c-1.3-0.5-2.8-0.9-4.4-0.9
		c-3.9,0-5.9,2.9-5.9,7.5c0,4.1,1.6,7,5.8,7c1.7,0,3.5-0.3,4.8-1l0.5,5.3C251.1,112.1,248.7,112.6,246.1,112.6z M272.5,112.2V96.7
		c0-2.5-0.7-4-3-4c-3.2,0-5.6,3.6-5.6,7.8v11.7h-6.2V76.6h6.2V87c0,1.5-0.1,3.5-0.4,4.9l0.1,0c1.4-2.7,4.2-4.5,7.9-4.5
		c5.5,0,7.2,3.5,7.2,7.7v17H272.5z M288.3,89.2c-3.9,0-4.9-2.1-4.9-4.6v-8h2.9v7.9c0,1.5,0.5,2.4,2.2,2.4c1.6,0,2.2-0.7,2.2-2.5
		v-7.7h2.8v7.5C293.6,87.6,291.6,89.2,288.3,89.2z M296,89v-2.2l4-6.7c0.2-0.3,0.4-0.6,0.7-1c-0.3,0-0.7,0-1.9,0h-2.6v-2.6h8v2.3
		l-4.2,6.8c-0.1,0.2-0.3,0.4-0.5,0.7c0.2,0,0.9,0,2.4,0h2.3V89H296z M314.2,89v-5.2h-4.5V89h-2.9V76.6h2.9v4.8h4.5v-4.8h2.9V89
		H314.2z M166.1,61.2c-10.4,0-12.7-5.6-12.7-11.9V27.8h6.3v21.1c0,4.1,1.4,7.1,6.8,7.1c4.9,0,6.9-2,6.9-7.6V27.8h6.3v20.1
		C179.7,56.9,174.7,61.2,166.1,61.2z M201.3,60.7V45.2c0-2.5-0.7-4-3-4c-3.2,0-5.7,3.6-5.7,7.8v11.7h-6.2V36.5h5.9
		c0,1.1-0.1,3-0.3,4.3l0,0c1.5-2.9,4.3-4.9,8.2-4.9c5.5,0,7.2,3.5,7.2,7.7v17H201.3z M217.4,33.4c-2.1,0-3.8-1.7-3.8-3.8
		c0-2,1.7-3.8,3.8-3.8c2.1,0,3.9,1.7,3.9,3.8C221.3,31.7,219.5,33.4,217.4,33.4z M214.3,60.7V36.5h6.2v24.2H214.3z M239.3,60.7H233
		l-9-24.2h6.8l3.8,10.9c0.6,1.7,1.2,3.6,1.6,5.4h0.1c0.4-1.7,0.9-3.5,1.5-5.2l3.9-11.1h6.6L239.3,60.7z M270.6,49.6h-15
		c0,4.5,2.2,6.7,6.7,6.7c2.4,0,5-0.5,7.1-1.5l0.6,4.8c-2.6,1-5.7,1.6-8.7,1.6c-7.7,0-12-3.8-12-12.4c0-7.4,4.1-12.9,11.3-12.9
		c7.1,0,10.2,4.8,10.2,10.8C270.8,47.6,270.8,48.6,270.6,49.6z M260.5,40.5c-2.6,0-4.4,1.9-4.7,4.8h8.9
		C264.8,42.3,263.1,40.5,260.5,40.5z M289,42.1c-4.5-0.9-6.7,2-6.7,8.7v9.9h-6.2V36.5h5.9c0,1.2-0.1,3.2-0.4,4.9h0.1
		c1.2-3.1,3.5-5.7,7.7-5.4L289,42.1z M297.5,61.2c-1.8,0-3.5-0.2-5.1-0.4l0.1-5.1c1.5,0.4,3.4,0.7,5.2,0.7c2.4,0,3.9-1,3.9-2.6
		c0-4.3-9.8-1.9-9.8-10.1c0-4.2,3.5-7.7,10.3-7.7c1.4,0,3,0.2,4.4,0.4l-0.2,4.9c-1.4-0.4-3-0.6-4.5-0.6c-2.4,0-3.6,1-3.6,2.5
		c0,3.9,9.9,2.2,9.9,10C308.4,58,304.2,61.2,297.5,61.2z M316.8,33.4c-2.1,0-3.8-1.7-3.8-3.8c0-2,1.7-3.8,3.8-3.8
		c2.1,0,3.9,1.7,3.9,3.8C320.7,31.7,318.9,33.4,316.8,33.4z M313.7,60.7V36.5h6.2v24.2H313.7z M335.6,61.2c-5.4,0-7.1-1.9-7.1-7.6
		V41.3h-4.1v-4.8h4.1V29l6.2-1.7v9.1h5.9v4.8h-5.9v10.6c0,3.1,0.7,4,2.9,4c1,0,2.1-0.1,3-0.4v5C339.1,60.9,337.3,61.2,335.6,61.2z
		 M357.3,62.9c-2.9,7.6-5.4,9.8-11,9.8c-1.1,0-2.4-0.1-3.4-0.4l0.4-5.4c1.1,0.3,2.1,0.5,3.3,0.5c2,0,3.4-0.9,4.7-4.5l0.8-2.3
		l-8.9-24.2h6.9l3.3,9.3c0.7,2.1,1.4,4.5,1.9,6.7h0c0.5-2.2,1.6-5.4,2.3-7.7l2.9-8.2h6.7L357.3,62.9z M387.2,61.2
		c-6.9,0-11.3-3.6-11.3-12.2c0-7.6,5-13,12.4-13c6.9,0,11.3,3.8,11.3,12.1C399.6,55.7,394.5,61.2,387.2,61.2z M387.9,41.3
		c-2.8,0-5.5,2.1-5.5,7.1c0,5,1.8,7.5,5.4,7.5c3.1,0,5.4-2.5,5.4-7.4C393.2,43.8,391.5,41.3,387.9,41.3z M419.2,30.2
		c-1-0.3-2.1-0.4-3-0.4c-2.7,0-3.9,1.4-3.9,4.6v2h5.7v4.8h-5.7v19.4h-6.2V41.3h-4.2v-4.8h4.2v-1.9c0-6.6,3-9.8,9.6-9.8
		c1.3,0,2.7,0.1,3.9,0.4L419.2,30.2z"/>
	<path class="st0" d="M22,92c-1.4,0.6-1.7,0.7-2,0.9c-0.3,0.2-0.4,0.3-0.4,0.6c0,0.1,0.1,0.2,0.1,0.4c0,0.1,0,0.2,0,0.2
		c-0.1,0-0.1,0-0.2-0.2c-0.2-0.5-0.4-1.1-0.6-1.4c-0.1-0.2-0.4-0.8-0.5-1.1c-0.1-0.1-0.1-0.2,0-0.2c0.1,0,0.1,0,0.1,0.1
		c0,0.1,0.1,0.2,0.1,0.3c0.2,0.2,0.3,0.2,0.7,0.1c0.3-0.1,0.6-0.2,2-0.8l1.3-0.6c1.3-0.6,1.8-1.1,2-1.7c0.2-0.6,0-1-0.1-1.3
		c-0.2-0.4-0.5-0.9-1.1-1.1c-0.7-0.3-1.6,0-2.5,0.4l-1.2,0.5c-1.4,0.6-1.7,0.7-2,0.9c-0.3,0.2-0.4,0.3-0.4,0.6
		c0,0.1,0.1,0.2,0.1,0.3c0,0.1,0,0.2,0,0.2c-0.1,0-0.1,0-0.2-0.2c-0.2-0.5-0.4-1.1-0.4-1.1c0-0.1-0.3-0.7-0.5-1
		c-0.1-0.1-0.1-0.2,0-0.2c0.1,0,0.1,0,0.2,0.1c0,0.1,0.1,0.2,0.1,0.3c0.2,0.2,0.3,0.2,0.7,0.1c0.3-0.1,0.6-0.2,2-0.8l1-0.4
		c1-0.4,2.2-0.8,3.2-0.3c0.8,0.4,1.2,1,1.5,1.6c0.2,0.5,0.6,1.4,0.2,2.3c-0.2,0.7-0.8,1.3-2.1,1.9L22,92z M21.6,81.6
		c0.8-0.2,1-0.4,1-0.6c0-0.2,0-0.4,0-0.5c0-0.1,0-0.2,0-0.2c0.1,0,0.1,0.1,0.1,0.2c0.1,0.6,0.2,1,0.2,1.2c0,0.1,0.2,0.5,0.3,1.1
		c0,0.1,0,0.2-0.1,0.2c-0.1,0-0.1,0-0.1-0.1c0-0.1-0.1-0.3-0.1-0.4c-0.1-0.2-0.4-0.2-1.3,0l-5.9,1.2c-0.2,0-0.3,0-0.4-0.1
		c0-0.1,0.1-0.2,0.2-0.4c0.1-0.1,1.4-2,2.5-3.8c0.5-0.8,1.7-2.5,1.8-2.7l0,0l-4.4,1.1c-0.6,0.1-0.8,0.3-0.8,0.5c0,0.2,0,0.4,0.1,0.5
		c0,0.1,0,0.2-0.1,0.2c-0.1,0-0.1-0.1-0.1-0.2c-0.1-0.5-0.2-1-0.2-1.2c0-0.1-0.1-0.5-0.2-1c0-0.1,0-0.2,0-0.2c0.1,0,0.1,0,0.1,0.2
		c0,0.1,0,0.2,0.1,0.3c0.1,0.3,0.4,0.3,0.9,0.2l6.3-1.3c0.2,0,0.3,0,0.3,0.1c0,0.1-0.1,0.3-0.1,0.4c-0.5,0.7-1.5,2.3-2.3,3.5
		c-0.8,1.3-1.8,2.7-2,2.9l0,0L21.6,81.6z M16.7,72.6c-1.5,0.1-1.8,0.1-2.1,0.2c-0.3,0-0.5,0.2-0.5,0.4c0,0.1,0,0.2,0,0.4
		c0,0.1,0,0.2-0.1,0.2c-0.1,0-0.1-0.1-0.1-0.2c0-0.4,0-1-0.1-1.3c0-0.3-0.1-0.8-0.1-1.2c0-0.1,0-0.2,0.1-0.2c0.1,0,0.1,0.1,0.1,0.2
		c0,0.1,0,0.2,0,0.3c0.1,0.3,0.2,0.3,0.6,0.3c0.3,0,0.6,0,2.1-0.1l1.8-0.1c1-0.1,1.8-0.1,2.2-0.2c0.3,0,0.4-0.1,0.5-0.4
		c0-0.1,0-0.4,0-0.5c0-0.1,0-0.2,0.1-0.2c0.1,0,0.1,0.1,0.1,0.2c0,0.7,0.1,1.3,0.1,1.6c0,0.2,0.1,0.9,0.1,1.3c0,0.1,0,0.2-0.1,0.2
		c-0.1,0-0.1,0-0.1-0.2c0-0.2,0-0.3-0.1-0.4c-0.1-0.2-0.2-0.3-0.5-0.3c-0.4,0-1.2,0-2.2,0.1L16.7,72.6z M14.6,68
		c-0.6,0.2-0.7,0.4-0.8,0.7c-0.1,0.1-0.1,0.3-0.1,0.4c0,0.1,0,0.1-0.1,0.1c-0.1,0-0.1-0.1-0.1-0.3c0-0.5,0.1-1.1,0.1-1.5
		c0-0.3,0-0.7,0.1-1.2c0-0.1,0-0.2,0.1-0.2c0.1,0,0.1,0.1,0.1,0.2c0,0.2,0,0.3,0,0.4c0,0.1,0.1,0.1,0.2,0.1c0.1,0,0.4-0.1,0.8-0.2
		l4.7-1.4l0,0c-1.1-0.5-4.2-2-4.9-2.3c-0.1-0.1-0.3-0.1-0.4-0.1c-0.1,0-0.2,0-0.2,0.1c0,0.1-0.1,0.3-0.1,0.4c0,0.1,0,0.2-0.1,0.2
		c-0.1,0-0.1-0.1-0.1-0.3c0-0.5,0.1-0.9,0.1-1.1c0-0.2,0-0.6,0-1c0-0.1,0-0.2,0.1-0.2c0.1,0,0.1,0.1,0.1,0.2c0,0.1,0,0.3,0.1,0.5
		c0.1,0.1,0.2,0.3,0.9,0.6c0.9,0.5,1.5,0.8,2.7,1.4c1.4,0.7,2.5,1.3,3,1.5c0.6,0.3,0.7,0.4,0.7,0.5c0,0.1-0.2,0.2-0.6,0.3L14.6,68z
		 M17.4,59.1c-1.5-0.3-1.8-0.4-2.1-0.4c-0.3-0.1-0.5,0-0.7,0.3c0,0.1-0.1,0.2-0.1,0.4c0,0.1-0.1,0.2-0.1,0.1c-0.1,0-0.1-0.1,0-0.2
		c0.1-0.3,0.1-0.6,0.2-0.8c0.1-0.3,0.1-0.5,0.2-0.6c0.1-0.3,0.5-2.3,0.5-2.5c0-0.2,0-0.4,0-0.4c0-0.1,0-0.1,0-0.2
		c0-0.1,0.1-0.1,0.1,0c0.1,0,0.2,0.1,0.6,0.2c0.1,0,0.5,0.1,0.6,0.2c0,0,0.1,0.1,0.1,0.1c0,0.1-0.1,0.1-0.2,0.1c-0.1,0-0.2,0-0.4,0
		c-0.2,0-0.3,0.1-0.5,0.6c-0.1,0.2-0.3,1.2-0.3,1.4c0,0,0,0.1,0.1,0.1l2.5,0.5c0.1,0,0.1,0,0.1,0c0-0.2,0.3-1.4,0.3-1.6
		c0-0.2,0-0.4,0-0.5c-0.1-0.1-0.1-0.1-0.1-0.2c0,0,0-0.1,0.1-0.1c0.1,0,0.2,0.1,0.7,0.2c0.2,0.1,0.6,0.2,0.7,0.2
		c0.1,0,0.2,0,0.2,0.1c0,0.1-0.1,0.1-0.1,0.1c-0.1,0-0.2,0-0.4,0c-0.2,0-0.4,0.1-0.5,0.5c-0.1,0.2-0.3,1.2-0.3,1.4
		c0,0,0,0.1,0.1,0.1l0.8,0.2c0.3,0.1,1.2,0.3,1.5,0.3c0.7,0.1,0.9,0,1.1-1c0.1-0.3,0.1-0.7,0.1-1c-0.1-0.3-0.2-0.4-0.6-0.6
		c-0.1,0-0.1-0.1-0.1-0.1c0-0.1,0.1-0.1,0.2,0c0.2,0.1,0.9,0.3,1.1,0.4c0.2,0.1,0.2,0.2,0.1,0.6c-0.2,0.7-0.3,1.3-0.4,1.7
		c-0.1,0.4-0.2,0.7-0.3,1c0,0.1-0.1,0.3-0.1,0.6c-0.1,0.2-0.1,0.5-0.1,0.7c0,0.1-0.1,0.2-0.1,0.2c0,0-0.1-0.1,0-0.2
		c0-0.1,0-0.3,0-0.4c0-0.2-0.2-0.3-0.5-0.4c-0.4-0.1-1.2-0.3-2.1-0.5L17.4,59.1z M19.3,51.8c-1.4-0.6-1.7-0.7-2-0.8
		C17,51,16.8,51,16.6,51.3c0,0.1-0.1,0.2-0.2,0.4c0,0.1-0.1,0.2-0.1,0.1c-0.1,0-0.1-0.1,0-0.2c0.2-0.5,0.5-1.1,0.5-1.3
		c0.1-0.3,0.4-1.1,0.5-1.3c0.2-0.6,0.5-1.2,1.1-1.6c0.3-0.2,0.9-0.4,1.5-0.1c0.7,0.3,1.2,0.8,1.6,2.1c1.4-0.4,2.5-0.8,3.3-1.1
		c0.8-0.3,1-0.7,1.1-0.8c0.1-0.1,0.1-0.2,0.1-0.3c0-0.1,0.1-0.1,0.1-0.1c0.1,0,0.1,0.1,0,0.2l-0.3,0.9c-0.2,0.5-0.3,0.7-0.6,0.9
		c-0.4,0.3-1,0.5-1.9,0.8c-0.7,0.2-1.5,0.4-1.7,0.4c-0.1,0-0.1,0.1-0.1,0.1l-0.3,0.8c0,0,0,0.1,0,0.1l0.1,0.1c0.9,0.3,1.6,0.6,2,0.7
		c0.3,0.1,0.5,0.1,0.7-0.2c0.1-0.1,0.2-0.3,0.2-0.4c0-0.1,0.1-0.1,0.1-0.1c0.1,0,0.1,0.1,0,0.2c-0.2,0.5-0.5,1.2-0.6,1.4
		c-0.1,0.2-0.3,0.8-0.4,1.2c0,0.1-0.1,0.2-0.2,0.2c0,0-0.1-0.1,0-0.2c0.1-0.1,0.1-0.3,0.1-0.4c0-0.2-0.2-0.3-0.4-0.5
		c-0.4-0.2-1.1-0.5-2-0.8L19.3,51.8z M20.5,51c0.1,0,0.1,0,0.2,0c0.1-0.2,0.3-0.4,0.4-0.7c0.1-0.4,0.2-0.5,0.1-0.7
		c-0.1-0.4-0.4-0.8-1.2-1.1c-1.3-0.5-2.1,0.2-2.3,0.8c-0.1,0.2-0.1,0.4-0.2,0.5c0,0.1,0,0.1,0.1,0.1L20.5,51z M26.4,46.8
		c-0.1,0.1-0.2,0.1-0.4,0c-0.5-0.3-1-0.6-1.1-0.7c-0.1-0.1-0.2-0.2-0.2-0.2c0-0.1,0.1,0,0.2,0c0.1,0.1,0.3,0.1,0.5,0.2
		c0.8,0.2,1.3-0.2,1.6-0.7c0.4-0.8,0.1-1.5-0.3-1.7c-0.4-0.2-0.9-0.3-1.9,0.1l-0.5,0.2c-1.3,0.5-2.1,0.5-2.8,0.1
		c-1-0.6-1.2-1.8-0.5-3c0.3-0.6,0.6-0.9,0.8-1.1c0.1-0.1,0.1-0.1,0.2-0.1c0.1,0.1,0.3,0.2,1,0.6c0.2,0.1,0.2,0.2,0.2,0.2
		c0,0.1-0.1,0.1-0.2,0c-0.1,0-0.4-0.2-0.7-0.1c-0.2,0-0.7,0.1-1,0.7c-0.4,0.7-0.2,1.3,0.3,1.6c0.4,0.2,0.8,0.2,1.8-0.2l0.3-0.1
		c1.4-0.6,2.2-0.6,3.1-0.2c0.5,0.3,1,0.8,1.1,1.7c0,0.6-0.2,1.1-0.4,1.6C27.1,46.1,26.8,46.5,26.4,46.8z M26.2,38.4
		c-1.2-0.9-1.5-1.1-1.7-1.2C24.2,37,24,37,23.8,37.1c-0.1,0.1-0.2,0.2-0.2,0.3c-0.1,0.1-0.1,0.1-0.2,0.1c0,0,0-0.1,0.1-0.2
		c0.2-0.3,0.6-0.8,0.8-1c0.1-0.2,0.5-0.7,0.7-1c0.1-0.1,0.1-0.2,0.2-0.1c0.1,0.1,0,0.1,0,0.2c-0.1,0.1-0.1,0.2-0.2,0.3
		c-0.1,0.3,0,0.4,0.2,0.6c0.2,0.2,0.5,0.4,1.7,1.3l1.4,1.1c0.8,0.6,1.4,1.1,1.8,1.3c0.2,0.1,0.4,0.2,0.6,0c0.1-0.1,0.2-0.3,0.3-0.4
		c0.1-0.1,0.1-0.1,0.2-0.1c0.1,0,0,0.1,0,0.2c-0.4,0.5-0.8,1-1,1.3c-0.1,0.2-0.5,0.7-0.7,1c-0.1,0.1-0.1,0.1-0.2,0.1
		c0,0,0-0.1,0-0.2c0.1-0.1,0.1-0.2,0.2-0.3c0.1-0.2,0-0.3-0.2-0.5c-0.3-0.3-1-0.8-1.8-1.3L26.2,38.4z M28.7,31.6l-1,1.1
		c-0.4,0.4-0.5,0.7-0.5,0.9c0,0.2,0.1,0.3,0.1,0.4c0,0.1,0.1,0.1,0,0.2c0,0.1-0.1,0-0.2,0c-0.1-0.1-0.7-0.9-0.7-1
		c-0.1-0.1-0.1-0.2-0.1-0.2c0.1-0.1,0.2-0.1,0.4-0.2c0.2-0.2,0.5-0.5,0.7-0.7l2.7-2.9c0.2-0.2,0.4-0.4,0.4-0.5
		c0.1-0.1,0.1-0.2,0.2-0.2c0-0.1,0.1,0,0.2,0.1c0.2,0.1,0.6,0.6,0.8,0.8c0.1,0.1,0.1,0.1,0.1,0.2c-0.1,0.1-0.1,0-0.2-0.1l-0.1-0.1
		c-0.2-0.2-0.6-0.2-1.2,0.5l-0.9,0.9l3,2.8c0.7,0.6,1.3,1.2,1.6,1.4c0.2,0.2,0.4,0.3,0.7,0.1c0.1-0.1,0.3-0.2,0.4-0.3
		c0.1-0.1,0.1-0.1,0.2-0.1c0.1,0.1,0,0.1-0.1,0.2c-0.5,0.5-0.9,0.9-1.1,1.1c-0.2,0.2-0.6,0.7-0.9,0.9c-0.1,0.1-0.2,0.1-0.2,0.1
		c0,0,0-0.1,0.1-0.2c0.1-0.1,0.2-0.2,0.2-0.3c0.1-0.2,0-0.4-0.2-0.6c-0.3-0.3-0.9-0.9-1.5-1.5L28.7,31.6z M36.4,30.4
		c0,0,0,0.1,0,0.1l0.5,1.5c0.1,0.3,0.2,0.5,0.3,0.6c0.1,0.1,0.3,0.2,0.5,0l0.1-0.1c0.1-0.1,0.1-0.1,0.2,0c0.1,0.1,0,0.1-0.1,0.2
		c-0.3,0.2-0.6,0.4-0.9,0.6c-0.1,0.1-0.5,0.4-0.9,0.8c-0.1,0.1-0.2,0.1-0.2,0c0,0,0-0.1,0-0.1c0.1-0.1,0.2-0.2,0.2-0.2
		c0.3-0.3,0.3-0.7,0.1-1.2l-2-6.5c-0.1-0.3-0.1-0.4,0-0.5c0.1-0.1,0.2,0,0.4,0.1c0.5,0.3,4.4,2.5,5.8,3.3c0.9,0.5,1.2,0.4,1.4,0.3
		c0.1-0.1,0.3-0.2,0.4-0.2c0.1,0,0.1-0.1,0.2,0c0.1,0.1,0,0.1-0.3,0.4c-0.3,0.2-0.9,0.7-1.5,1.2c-0.1,0.1-0.2,0.2-0.3,0.1
		c0,0,0-0.1,0.1-0.2c0-0.1,0-0.2-0.1-0.2l-2-1.2c0,0-0.1,0-0.1,0L36.4,30.4z M37.7,28.7C37.7,28.7,37.7,28.6,37.7,28.7l-2.3-1.5
		c0,0-0.1-0.1-0.1,0c0,0,0,0.1,0,0.1l0.8,2.5c0,0,0,0.1,0.1,0L37.7,28.7z M42.9,28.6c-0.2,0-0.2,0-0.3-0.2c-0.3-0.5-0.6-1-0.6-1.2
		c-0.1-0.1-0.1-0.2,0-0.3c0.1,0,0.1,0,0.2,0.1c0.1,0.1,0.2,0.3,0.3,0.4c0.6,0.5,1.2,0.5,1.8,0.1c0.8-0.5,0.9-1.2,0.6-1.7
		c-0.3-0.4-0.6-0.7-1.7-0.9L42.5,25c-1.4-0.2-2.1-0.6-2.5-1.3c-0.6-1-0.2-2.1,1-2.8c0.6-0.3,1-0.5,1.2-0.5c0.1,0,0.1,0,0.2,0
		c0.1,0.1,0.2,0.4,0.6,1.1c0.1,0.2,0.1,0.3,0.1,0.3c-0.1,0-0.1,0-0.2-0.1c0-0.1-0.2-0.3-0.6-0.4c-0.2-0.1-0.6-0.2-1.2,0.1
		c-0.6,0.4-0.8,1-0.5,1.5c0.2,0.4,0.6,0.6,1.7,0.7l0.4,0c1.5,0.2,2.3,0.5,2.7,1.4c0.3,0.5,0.5,1.2,0.1,2c-0.3,0.5-0.7,0.9-1.2,1.2
		C43.8,28.4,43.4,28.6,42.9,28.6z M95.7,21.3l-1.3-0.7c-0.5-0.3-0.8-0.4-1-0.2c-0.2,0.1-0.3,0.2-0.3,0.2c-0.1,0.1-0.1,0.1-0.2,0
		c-0.1,0-0.1-0.1,0-0.2c0.1-0.1,0.7-0.8,0.8-0.9c0.1-0.1,0.1-0.1,0.2-0.1c0.1,0,0.1,0.2,0.3,0.3c0.2,0.2,0.6,0.4,0.8,0.6l3.5,2
		c0.3,0.2,0.5,0.3,0.6,0.3c0.1,0.1,0.2,0.1,0.3,0.1c0.1,0,0,0.1,0,0.2c-0.1,0.2-0.5,0.8-0.6,1c-0.1,0.1-0.1,0.1-0.2,0.1
		c-0.1,0-0.1-0.1,0-0.2l0-0.1c0.1-0.2,0-0.6-0.7-1.1l-1.1-0.7l-2.1,3.6c-0.5,0.8-0.9,1.5-1.1,1.9c-0.1,0.3-0.2,0.5,0.1,0.7
		c0.1,0.1,0.3,0.2,0.4,0.3c0.1,0.1,0.1,0.1,0.1,0.2c0,0.1-0.1,0-0.2,0c-0.6-0.3-1.1-0.7-1.4-0.8c-0.2-0.1-0.8-0.4-1.1-0.6
		c-0.1-0.1-0.2-0.1-0.1-0.2c0,0,0.1,0,0.2,0c0.1,0.1,0.2,0.1,0.3,0.2c0.2,0.1,0.4-0.1,0.5-0.3c0.3-0.3,0.7-1,1.1-1.8L95.7,21.3z
		 M100.3,27c1-1.2,1.2-1.4,1.4-1.6c0.2-0.3,0.3-0.4,0-0.7c0-0.1-0.2-0.2-0.3-0.3c-0.1-0.1-0.1-0.1-0.1-0.2c0-0.1,0.1,0,0.2,0.1
		c0.4,0.3,0.9,0.8,1.1,1c0.2,0.2,0.7,0.6,1,0.8c0.1,0.1,0.2,0.2,0.1,0.2c0,0.1-0.1,0-0.2,0c-0.1-0.1-0.1-0.1-0.2-0.2
		c-0.2-0.1-0.4-0.1-0.7,0.2c-0.2,0.2-0.4,0.4-1.4,1.6l-0.9,1.1c-1,1.1-1.1,1.8-1,2.4c0.1,0.6,0.4,0.9,0.7,1.1
		c0.3,0.3,0.8,0.5,1.4,0.5c0.8-0.1,1.4-0.7,2.1-1.5l0.8-1c1-1.2,1.2-1.4,1.4-1.6c0.2-0.3,0.3-0.5,0-0.7c0-0.1-0.2-0.2-0.3-0.3
		c-0.1-0.1-0.1-0.1-0.1-0.2c0-0.1,0.1,0,0.2,0.1c0.4,0.3,0.9,0.8,0.9,0.8c0.1,0.1,0.6,0.5,0.9,0.7c0.1,0.1,0.1,0.2,0.1,0.2
		c0,0.1-0.1,0-0.2-0.1c-0.1-0.1-0.1-0.1-0.2-0.2c-0.2-0.1-0.4-0.1-0.7,0.2c-0.2,0.2-0.4,0.4-1.4,1.6l-0.7,0.8
		c-0.7,0.8-1.6,1.7-2.7,1.7c-0.9,0-1.6-0.4-2.1-0.8c-0.4-0.3-1.1-1-1.2-2c-0.1-0.7,0.1-1.5,1.1-2.6L100.3,27z M107.9,34.3
		c1.2-1,1.4-1.1,1.7-1.4c0.3-0.2,0.3-0.4,0.2-0.7c0-0.1-0.1-0.2-0.2-0.3c-0.1-0.1-0.1-0.1,0-0.2c0.1,0,0.1,0,0.2,0.1
		c0.3,0.4,0.7,0.9,0.8,1.1c0.2,0.3,0.7,0.8,0.9,1.1c0.4,0.5,0.8,1.1,0.8,1.7c0,0.3-0.1,1-0.6,1.4c-0.6,0.5-1.3,0.7-2.6,0.4
		c-0.3,1.4-0.6,2.5-0.7,3.4c-0.1,0.8,0.1,1.2,0.2,1.3c0.1,0.1,0.1,0.2,0.2,0.2c0.1,0.1,0.1,0.1,0,0.1c-0.1,0-0.1,0-0.2-0.1l-0.6-0.7
		c-0.4-0.4-0.5-0.7-0.5-1c-0.1-0.5,0-1.1,0.3-2c0.2-0.7,0.4-1.5,0.5-1.7c0-0.1,0-0.1-0.1-0.2l-0.5-0.7c0,0-0.1-0.1-0.1,0l-0.1,0.1
		c-0.7,0.6-1.4,1.1-1.7,1.4c-0.2,0.2-0.3,0.4-0.2,0.7c0.1,0.1,0.2,0.3,0.3,0.4c0.1,0.1,0.1,0.1,0,0.1c-0.1,0-0.1,0-0.2-0.1
		c-0.4-0.5-0.8-1.1-0.9-1.2c-0.1-0.1-0.5-0.6-0.8-0.9c-0.1-0.1-0.1-0.2,0-0.2c0,0,0.1,0,0.2,0.1c0.1,0.1,0.2,0.2,0.3,0.3
		c0.2,0.1,0.4,0,0.6-0.1c0.4-0.2,1-0.7,1.7-1.3L107.9,34.3z M108.1,35.7c-0.1,0.1-0.1,0.1-0.1,0.2c0.1,0.2,0.2,0.5,0.4,0.7
		c0.3,0.3,0.4,0.4,0.6,0.5c0.4,0.1,0.9,0,1.6-0.5c1.1-0.9,0.8-1.9,0.5-2.4c-0.2-0.2-0.3-0.3-0.4-0.4c-0.1,0-0.1,0-0.2,0L108.1,35.7z
		 M113.3,41.6c1.3-0.8,1.6-0.9,1.8-1.1c0.3-0.2,0.4-0.4,0.3-0.6c0-0.1-0.1-0.2-0.1-0.3c-0.1-0.1-0.1-0.2,0-0.2c0.1,0,0.1,0,0.2,0.2
		c0.2,0.3,0.5,0.9,0.6,1.1c0.1,0.2,0.5,0.7,0.7,1c0.1,0.1,0.1,0.2,0,0.2c-0.1,0-0.1,0-0.2-0.1c-0.1-0.1-0.1-0.2-0.2-0.2
		c-0.2-0.2-0.4-0.2-0.7,0c-0.3,0.1-0.5,0.3-1.9,1.1l-1.5,0.9c-0.8,0.5-1.5,0.9-1.9,1.2c-0.2,0.2-0.3,0.3-0.2,0.6
		c0.1,0.1,0.2,0.3,0.2,0.5c0.1,0.1,0.1,0.2,0,0.2c-0.1,0-0.1,0-0.2-0.1c-0.3-0.6-0.6-1.1-0.8-1.4c-0.1-0.2-0.5-0.7-0.7-1.1
		c-0.1-0.1-0.1-0.2,0-0.2c0,0,0.1,0,0.2,0.1c0.1,0.1,0.2,0.2,0.2,0.3c0.1,0.2,0.3,0.1,0.6,0c0.4-0.2,1.1-0.6,1.9-1.1L113.3,41.6z
		 M112.5,48.1c0.4-1.2,1.4-1.9,2.3-2.3c0.6-0.3,1.8-0.5,3,0c0.9,0.4,1.6,1.1,2.2,2.5c0.2,0.6,0.3,0.9,0.5,1.4c0.1,0.4,0.1,0.7,0.2,1
		c0,0.1,0,0.2-0.1,0.2c-0.1,0-0.2,0.1-0.5,0.2c-0.3,0.1-0.8,0.3-1,0.4c-0.1,0.1-0.2,0.1-0.3,0c0-0.1,0-0.1,0.2-0.2
		c0.3-0.1,0.6-0.4,0.7-0.7c0.2-0.4,0.2-1.3-0.2-2.1c-0.3-0.8-0.8-1.3-1.3-1.5c-0.9-0.4-1.9-0.2-2.8,0.1c-2.2,0.9-2.6,3.1-2.1,4.3
		c0.3,0.8,0.6,1.3,1.2,1.5c0.2,0.1,0.6,0.1,0.7,0.1c0.2,0,0.2,0,0.2,0c0,0.1,0,0.1-0.1,0.1c-0.1,0-1,0.3-1.3,0.3
		c-0.2,0-0.2,0-0.4-0.1c-0.3-0.3-0.7-1-0.9-1.6C112.3,50.4,112.2,49.2,112.5,48.1z M119.2,55.7c1.5-0.3,1.8-0.4,2.1-0.5
		c0.3-0.1,0.5-0.2,0.5-0.5c0-0.1,0-0.3-0.1-0.4c0-0.1,0-0.2,0.1-0.2c0.1,0,0.1,0.1,0.1,0.2c0.1,0.3,0.1,0.6,0.2,0.8
		c0,0.3,0.1,0.5,0.1,0.6c0.1,0.3,0.5,2.3,0.6,2.5c0.1,0.2,0.1,0.3,0.2,0.4c0,0,0.1,0.1,0.1,0.2c0,0,0,0.1-0.1,0.1
		c-0.1,0-0.2,0-0.7,0.1c-0.1,0-0.5,0.1-0.7,0.1c-0.1,0-0.1,0-0.1-0.1c0-0.1,0-0.1,0.1-0.1c0.1,0,0.2-0.1,0.3-0.1
		c0.2-0.1,0.3-0.2,0.2-0.7c0-0.2-0.2-1.2-0.3-1.4c0-0.1,0-0.1-0.1,0l-2.5,0.6c-0.1,0-0.1,0-0.1,0.1c0,0.2,0.3,1.4,0.4,1.6
		c0.1,0.2,0.1,0.4,0.3,0.4c0.1,0.1,0.2,0.1,0.2,0.1c0,0,0,0.1-0.1,0.1c-0.1,0-0.2,0-0.7,0.1c-0.2,0-0.6,0.1-0.7,0.1
		c-0.1,0-0.2,0-0.2,0c0-0.1,0-0.1,0.1-0.1c0.1,0,0.2-0.1,0.3-0.1c0.2-0.1,0.3-0.3,0.3-0.6c0-0.2-0.2-1.2-0.3-1.4c0,0-0.1-0.1-0.1,0
		l-0.8,0.2c-0.3,0.1-1.2,0.3-1.5,0.3c-0.7,0.2-0.8,0.4-0.6,1.4c0.1,0.3,0.2,0.7,0.3,0.9c0.2,0.2,0.4,0.3,0.8,0.3
		c0.1,0,0.2,0,0.2,0.1c0,0.1-0.1,0.1-0.2,0.1c-0.2,0.1-0.9,0.1-1.1,0.1c-0.3,0-0.3-0.1-0.4-0.5c-0.2-0.7-0.3-1.3-0.4-1.7
		c-0.1-0.4-0.1-0.7-0.2-1c0-0.1-0.1-0.3-0.1-0.6c-0.1-0.2-0.1-0.5-0.2-0.7c0-0.1,0-0.2,0.1-0.2c0,0,0.1,0,0.1,0.1
		c0,0.1,0.1,0.3,0.1,0.3c0.1,0.2,0.3,0.2,0.6,0.2c0.4,0,1.2-0.2,2.1-0.4L119.2,55.7z M117.3,64.3c-0.8,0-1,0.2-1.1,0.4
		c-0.1,0.2-0.1,0.4-0.1,0.5c0,0.1,0,0.2-0.1,0.2c-0.1,0-0.1-0.1-0.1-0.2c0-0.7,0-1.1,0-1.3c0-0.1-0.1-0.6-0.1-1.1
		c0-0.1,0-0.2,0.1-0.2c0.1,0,0.1,0.1,0.1,0.2c0,0.1,0,0.3,0.1,0.5c0.1,0.3,0.4,0.3,1.3,0.3l6-0.1c0.2,0,0.3,0,0.3,0.1
		c0,0.1-0.1,0.2-0.3,0.4c-0.1,0.1-1.7,1.7-3.1,3.2c-0.7,0.7-2.1,2.1-2.2,2.3l0,0.1l4.5-0.3c0.6,0,0.8-0.1,0.9-0.4
		c0.1-0.2,0-0.4,0-0.5c0-0.1,0-0.2,0.1-0.2c0.1,0,0.1,0.1,0.1,0.3c0,0.5,0,1,0,1.2c0,0.1,0,0.5,0.1,1c0,0.1,0,0.2-0.1,0.2
		c-0.1,0-0.1-0.1-0.1-0.2c0-0.1,0-0.2,0-0.3c-0.1-0.3-0.3-0.4-0.9-0.3l-6.4,0.1c-0.2,0-0.3,0-0.3-0.1c0-0.1,0.1-0.2,0.2-0.3
		c0.6-0.7,1.9-2,2.9-3.1c1.1-1.1,2.3-2.3,2.5-2.5l0,0L117.3,64.3z M116,73.6c0.1-0.2,0.1-0.2,0.4-0.1c0.6,0.1,1.1,0.2,1.3,0.2
		c0.1,0,0.3,0.1,0.2,0.2c0,0.1-0.1,0.1-0.2,0.1c-0.1,0-0.3,0-0.5,0c-0.8,0.1-1.1,0.7-1.2,1.3c-0.1,0.9,0.4,1.4,0.9,1.5
		c0.5,0.1,1,0,1.7-0.7l0.4-0.4c1-1,1.8-1.3,2.6-1.1c1.1,0.2,1.8,1.2,1.6,2.6c-0.1,0.6-0.3,1.1-0.4,1.3c0,0.1-0.1,0.1-0.1,0.1
		c-0.1,0-0.4-0.1-1.2-0.2c-0.2,0-0.3-0.1-0.3-0.2c0-0.1,0.1-0.1,0.2-0.1c0.1,0,0.4,0,0.7-0.2c0.2-0.1,0.6-0.4,0.6-1
		c0.1-0.7-0.3-1.3-0.9-1.3c-0.5-0.1-0.8,0.1-1.6,0.9l-0.3,0.2c-1.1,1.1-1.8,1.4-2.8,1.3c-0.6-0.1-1.2-0.4-1.6-1.2
		c-0.2-0.5-0.3-1.1-0.2-1.7C115.6,74.5,115.7,74,116,73.6z M119,82.2c1.5,0.4,1.8,0.5,2.1,0.6c0.3,0.1,0.5,0,0.6-0.2
		c0.1-0.1,0.1-0.2,0.1-0.3c0-0.1,0.1-0.1,0.1-0.1c0.1,0,0.1,0.1,0,0.3c-0.1,0.4-0.3,1-0.4,1.3c-0.1,0.2-0.2,0.8-0.3,1.2
		c0,0.1-0.1,0.2-0.1,0.2c-0.1,0-0.1-0.1-0.1-0.2c0-0.1,0-0.2,0.1-0.3c0-0.3-0.1-0.4-0.5-0.5c-0.3-0.1-0.6-0.2-2.1-0.6l-1.7-0.5
		c-0.9-0.3-1.7-0.5-2.1-0.6c-0.3,0-0.5,0-0.6,0.3c-0.1,0.1-0.1,0.3-0.2,0.5c0,0.1-0.1,0.1-0.1,0.1c-0.1,0-0.1-0.1,0-0.2
		c0.2-0.6,0.4-1.2,0.5-1.5c0.1-0.2,0.2-0.8,0.3-1.2c0-0.1,0.1-0.2,0.2-0.2c0,0,0.1,0.1,0,0.2c0,0.1-0.1,0.3-0.1,0.4
		c0,0.2,0.1,0.3,0.4,0.4c0.4,0.2,1.2,0.4,2.1,0.6L119,82.2z M113,85.8c0.1-0.1,0.2-0.1,0.4,0c0.5,0.2,1.1,0.5,1.2,0.6
		c0.1,0.1,0.2,0.1,0.2,0.2c0,0.1-0.1,0.1-0.2,0c-0.1,0-0.3-0.1-0.5-0.1c-0.8-0.1-1.3,0.3-1.5,0.9c-0.4,0.8,0,1.5,0.5,1.7
		c0.5,0.2,0.9,0.2,1.9-0.3l0.5-0.3c1.2-0.7,2-0.7,2.8-0.4c1,0.4,1.4,1.6,0.8,2.9c-0.3,0.6-0.5,1-0.7,1.2c-0.1,0.1-0.1,0.1-0.2,0.1
		c-0.1-0.1-0.4-0.2-1.1-0.5c-0.2-0.1-0.3-0.1-0.2-0.2c0-0.1,0.1-0.1,0.2,0c0.1,0,0.4,0.1,0.7,0c0.2-0.1,0.6-0.2,0.9-0.8
		c0.3-0.7,0.1-1.3-0.5-1.5c-0.4-0.2-0.8-0.1-1.8,0.4l-0.3,0.2c-1.3,0.8-2.1,0.9-3,0.5c-0.5-0.2-1.1-0.7-1.2-1.6
		c-0.1-0.6,0-1.2,0.3-1.6C112.5,86.5,112.7,86.1,113,85.8z M40.8,116.4c-0.1,0-0.2,0-0.3-0.1c-0.1,0-0.2-0.2-0.2-0.5l-0.5-3.4
		c0-0.1-0.1-0.2-0.2-0.2c-0.1,0-0.1,0.1-0.2,0.2l-1.5,3l-1.5-3c-0.1-0.2-0.1-0.2-0.2-0.2s-0.1,0.1-0.2,0.2l-0.6,3.6
		c0,0.2-0.1,0.4-0.2,0.4c-0.1,0-0.1,0-0.2,0c-0.1,0-0.1,0-0.1,0.1c0,0.1,0.1,0.1,0.1,0.1c0.2,0,0.5,0,0.6,0c0.1,0,0.4,0,0.6,0
		c0.1,0,0.2,0,0.2-0.1c0-0.1-0.1-0.1-0.1-0.1c0,0-0.1,0-0.2,0c-0.1,0-0.1,0-0.1-0.1c0-0.1,0-0.2,0-0.2l0.3-2c0.2,0.4,0.5,1,0.5,1.1
		c0.1,0.2,0.5,1,0.7,1.2c0.1,0.2,0.1,0.3,0.3,0.3c0.1,0,0.1-0.1,0.3-0.3l1.2-2.3l0.3,2.2c0,0,0,0.1,0,0.1c0,0.1,0,0.1,0,0.1
		c0,0-0.1,0-0.1,0.1c0,0.1,0.1,0.1,0.2,0.1c0.2,0,1,0,1.2,0c0.1,0,0.2,0,0.2-0.1C41,116.4,40.9,116.4,40.8,116.4z M45.5,113
		c-0.6-0.6-1.6-0.6-2.3-0.6c-0.3,0-0.7,0-0.9,0c-0.2,0-0.5,0-0.8,0c-0.1,0-0.2,0-0.2,0.1c0,0.1,0.1,0.1,0.1,0.1c0.1,0,0.2,0,0.2,0
		c0.2,0.1,0.2,0.1,0.2,0.3c0,0.2,0,0.3,0,1.2v1c0,0.5,0,0.9,0,1.2c0,0.2,0,0.2-0.1,0.3c0,0-0.1,0-0.2,0c-0.1,0-0.1,0.1-0.1,0.1
		c0,0.1,0.1,0.1,0.2,0.1c0.1,0,0.3,0,0.4,0c0.1,0,0.3,0,0.3,0c0.1,0,0.3,0,0.6,0c0.2,0,0.5,0,0.7,0c1.1,0,1.7-0.4,1.9-0.7
		c0.3-0.3,0.6-0.9,0.6-1.6C46,113.8,45.7,113.3,45.5,113z M45.1,114.6c0,0.6-0.1,1-0.5,1.3c-0.3,0.3-0.7,0.4-1.2,0.4
		c-0.4,0-0.6-0.1-0.7-0.2c0,0-0.1-0.2-0.1-0.4c0-0.1,0-0.5,0-1.1v-0.7c0-0.4,0-0.9,0-1.1c0-0.1,0,0,0-0.1c0,0,0.2,0,0.3,0
		c0.4,0,1,0.1,1.6,0.5C44.8,113.5,45.1,113.9,45.1,114.6z M50.5,115.5c-0.1,0-0.1,0.1-0.1,0.1c0,0.1-0.1,0.2-0.2,0.3
		c-0.2,0.2-0.5,0.3-1,0.3c-0.7,0-1.7-0.6-1.7-1.9c0-0.5,0.1-1,0.5-1.4c0.2-0.2,0.5-0.3,1-0.3c0.5,0,0.9,0.1,1.1,0.3
		c0.1,0.1,0.2,0.3,0.2,0.5c0,0.1,0,0.2,0.1,0.2c0.1,0,0.1-0.1,0.1-0.2c0-0.1,0-0.4,0-0.6c0-0.2,0-0.3,0-0.3c0-0.1-0.1-0.1-0.1-0.1
		c-0.2,0-0.3-0.1-0.6-0.1c-0.3,0-0.5-0.1-0.8-0.1c-0.8,0-1.4,0.2-1.8,0.6c-0.6,0.5-0.7,1.2-0.7,1.5c0,0.5,0.2,1.2,0.7,1.6
		c0.5,0.4,1.2,0.6,2,0.6c0.4,0,0.8,0,1-0.1c0.1,0,0.2-0.1,0.2-0.2c0.1-0.2,0.1-0.7,0.1-0.7C50.6,115.6,50.5,115.5,50.5,115.5z
		 M55,115.5c-0.1,0-0.1,0.1-0.1,0.1c0,0.1-0.1,0.2-0.2,0.3c-0.2,0.2-0.5,0.3-1,0.3c-0.7,0-1.7-0.6-1.7-1.9c0-0.5,0.1-1,0.5-1.4
		c0.2-0.2,0.5-0.3,1-0.3c0.5,0,0.9,0.1,1.1,0.3c0.1,0.1,0.2,0.3,0.2,0.5c0,0.1,0,0.2,0.1,0.2c0.1,0,0.1-0.1,0.1-0.2
		c0-0.1,0-0.4,0-0.6c0-0.2,0-0.3,0-0.3c0-0.1-0.1-0.1-0.1-0.1c-0.2,0-0.3-0.1-0.6-0.1c-0.3,0-0.5-0.1-0.8-0.1
		c-0.9,0-1.4,0.2-1.8,0.6c-0.6,0.5-0.7,1.2-0.7,1.5c0,0.5,0.2,1.2,0.7,1.6c0.5,0.4,1.2,0.6,2,0.6c0.4,0,0.8,0,1-0.1
		c0.1,0,0.2-0.1,0.2-0.2c0.1-0.2,0.1-0.7,0.1-0.7C55.1,115.6,55.1,115.5,55,115.5z M59.5,115.5c-0.1,0-0.1,0.1-0.1,0.1
		c0,0.1-0.1,0.2-0.2,0.3c-0.2,0.2-0.5,0.3-1,0.3c-0.7,0-1.7-0.6-1.7-1.9c0-0.5,0.1-1,0.5-1.4c0.2-0.2,0.5-0.3,1-0.3
		c0.5,0,0.9,0.1,1.1,0.3c0.1,0.1,0.2,0.3,0.2,0.5c0,0.1,0,0.2,0.1,0.2c0.1,0,0.1-0.1,0.1-0.2c0-0.1,0-0.4,0-0.6c0-0.2,0-0.3,0-0.3
		c0-0.1-0.1-0.1-0.1-0.1c-0.2,0-0.3-0.1-0.6-0.1c-0.3,0-0.5-0.1-0.8-0.1c-0.9,0-1.4,0.2-1.8,0.6c-0.6,0.5-0.7,1.2-0.7,1.5
		c0,0.5,0.2,1.2,0.7,1.6c0.5,0.4,1.2,0.6,2,0.6c0.4,0,0.8,0,1-0.1c0.1,0,0.2-0.1,0.2-0.2c0.1-0.2,0.1-0.7,0.1-0.7
		C59.6,115.6,59.6,115.5,59.5,115.5z M81.4,116.4c0,0-0.1,0-0.2,0c-0.1,0-0.2-0.1-0.3-0.2c-0.1-0.2-1-1.6-1.2-1.9l0.9-1.3
		c0.2-0.2,0.3-0.4,0.4-0.4c0.1,0,0.1,0,0.2,0c0.1,0,0.1,0,0.1-0.1c0-0.1-0.1-0.1-0.1-0.1c-0.2,0-0.4,0-0.6,0c-0.1,0-0.4,0-0.6,0
		c-0.1,0-0.2,0-0.2,0.1c0,0.1,0.1,0.1,0.1,0.1c0,0,0.1,0,0.2,0c0,0,0.1,0,0.1,0c0,0,0,0.1-0.1,0.2c-0.1,0.1-0.5,0.8-0.7,1.1
		c-0.2-0.4-0.4-0.7-0.7-1.1c0-0.1-0.1-0.1-0.1-0.1c0,0,0,0,0,0c0,0,0.1,0,0.1,0c0.1,0,0.1,0,0.1-0.1c0-0.1-0.1-0.1-0.2-0.1
		c-0.2,0-0.6,0-0.6,0c-0.3,0-0.7,0-0.9,0c-0.1,0-0.1,0-0.2,0.1c0,0.1,0,0.1,0.1,0.1c0.1,0,0.1,0,0.2,0c0.2,0.1,0.3,0.2,0.4,0.4
		l1,1.5l-1.1,1.5c-0.2,0.3-0.3,0.3-0.4,0.4c-0.1,0-0.2,0-0.2,0c-0.1,0-0.1,0-0.1,0.1c0,0.1,0.1,0.1,0.1,0.1h0.1c0.1,0,0.4,0,0.5,0
		c0.1,0,0.5,0,0.5,0h0.1c0.1,0,0.2,0,0.2-0.1c0-0.1-0.1-0.1-0.1-0.1c0,0-0.1,0-0.1,0c0,0-0.1,0-0.1,0c0,0,0,0,0,0c0,0,0-0.1,0.1-0.2
		l0.8-1.2c0.2,0.4,0.5,0.9,0.9,1.4c0,0,0,0,0,0c0,0,0,0,0,0c-0.1,0-0.1,0.1-0.1,0.1c0,0.1,0.1,0.1,0.2,0.1c0.5,0,0.9,0,1.1,0h0.2
		c0.1,0,0.1,0,0.2-0.1C81.5,116.5,81.5,116.4,81.4,116.4z M86.2,116.4c0,0-0.1,0-0.2,0c-0.1,0-0.2-0.1-0.3-0.2
		c-0.1-0.2-1-1.6-1.2-1.9l0.9-1.3c0.2-0.2,0.3-0.4,0.4-0.4c0.1,0,0.1,0,0.2,0c0.1,0,0.1,0,0.1-0.1c0-0.1-0.1-0.1-0.1-0.1
		c-0.2,0-0.4,0-0.6,0c-0.1,0-0.4,0-0.6,0c-0.1,0-0.2,0-0.2,0.1c0,0.1,0.1,0.1,0.1,0.1c0,0,0.1,0,0.2,0c0.1,0,0.1,0,0.1,0
		c0,0,0,0.1-0.1,0.2c-0.1,0.1-0.5,0.8-0.7,1.1c-0.2-0.4-0.4-0.7-0.7-1.1c0-0.1-0.1-0.1-0.1-0.1c0,0,0,0,0,0c0,0,0.1,0,0.1,0
		c0.1,0,0.1,0,0.1-0.1c0-0.1-0.1-0.1-0.2-0.1c-0.2,0-0.6,0-0.6,0c-0.3,0-0.7,0-0.9,0c-0.1,0-0.1,0-0.2,0.1c0,0.1,0,0.1,0.1,0.1
		c0.1,0,0.1,0,0.2,0c0.2,0.1,0.3,0.2,0.4,0.4l1,1.5l-1.1,1.5c-0.2,0.3-0.3,0.3-0.4,0.4c-0.1,0-0.2,0-0.2,0c-0.1,0-0.1,0-0.1,0.1
		c0,0.1,0.1,0.1,0.1,0.1h0.1c0.1,0,0.4,0,0.5,0c0.1,0,0.5,0,0.5,0h0.1c0.1,0,0.2,0,0.2-0.1c0-0.1-0.1-0.1-0.1-0.1c0,0-0.1,0-0.1,0
		c0,0-0.1,0-0.1,0l0,0c0,0,0-0.1,0.1-0.2l0.8-1.2c0.2,0.4,0.5,0.9,0.9,1.4c0,0,0,0,0,0c0,0,0,0,0,0c-0.1,0-0.1,0.1-0.1,0.1
		c0,0.1,0.1,0.1,0.2,0.1c0.5,0,0.9,0,1.1,0h0.2c0.1,0,0.1,0,0.2-0.1C86.3,116.5,86.3,116.4,86.2,116.4z M91,116.4c0,0-0.1,0-0.2,0
		c-0.1,0-0.2-0.1-0.3-0.2c-0.1-0.2-1-1.6-1.2-1.9l0.9-1.3c0.2-0.2,0.3-0.4,0.4-0.4c0.1,0,0.1,0,0.2,0c0.1,0,0.1,0,0.1-0.1
		c0-0.1-0.1-0.1-0.1-0.1c-0.2,0-0.4,0-0.6,0c-0.1,0-0.4,0-0.6,0c-0.1,0-0.2,0-0.2,0.1c0,0.1,0.1,0.1,0.1,0.1c0,0,0.1,0,0.2,0
		c0.1,0,0.1,0,0.1,0c0,0,0,0.1-0.1,0.2c-0.1,0.1-0.5,0.8-0.7,1.1c-0.2-0.4-0.4-0.7-0.7-1.1c0-0.1-0.1-0.1-0.1-0.1c0,0,0,0,0,0
		c0,0,0.1,0,0.1,0c0.1,0,0.1,0,0.1-0.1c0-0.1-0.1-0.1-0.2-0.1c-0.2,0-0.6,0-0.6,0c-0.3,0-0.7,0-0.9,0c-0.1,0-0.2,0-0.2,0.1
		c0,0.1,0,0.1,0.1,0.1c0.1,0,0.1,0,0.2,0c0.2,0.1,0.3,0.2,0.4,0.4l1,1.5l-1.1,1.5c-0.2,0.3-0.3,0.3-0.4,0.4c-0.1,0-0.2,0-0.2,0
		c-0.1,0-0.1,0-0.1,0.1c0,0.1,0.1,0.1,0.1,0.1h0.1c0.1,0,0.4,0,0.5,0c0.1,0,0.5,0,0.5,0h0.1c0.1,0,0.2,0,0.2-0.1
		c0-0.1-0.1-0.1-0.1-0.1c0,0-0.1,0-0.1,0c0,0-0.1,0-0.1,0v0c0,0,0-0.1,0.1-0.2l0.8-1.2c0.2,0.4,0.5,0.9,0.9,1.4c0,0,0,0,0,0
		c0,0,0,0,0,0c-0.1,0-0.1,0.1-0.1,0.1c0,0.1,0.1,0.1,0.2,0.1c0.5,0,0.9,0,1.1,0H91c0.1,0,0.1,0,0.2-0.1
		C91.1,116.5,91.1,116.4,91,116.4z M94,116.4c-0.1,0-0.2,0-0.3,0c-0.2,0-0.2-0.1-0.2-0.2c0-0.2,0-0.7,0-1.2v-1c0-0.8,0-1,0-1.2
		c0-0.2,0-0.2,0.2-0.3c0.1,0,0.1,0,0.2,0c0.1,0,0.1,0,0.1-0.1c0-0.1-0.1-0.1-0.2-0.1c-0.2,0-0.6,0-0.7,0c-0.2,0-0.5,0-0.8,0
		c-0.1,0-0.2,0-0.2,0.1c0,0.1,0.1,0.1,0.1,0.1c0.1,0,0.1,0,0.2,0c0.1,0,0.1,0.1,0.2,0.2c0,0.2,0,0.3,0,1.2v1c0,0.5,0,1,0,1.2
		c0,0.2,0,0.2-0.1,0.2c0,0-0.1,0-0.2,0c-0.1,0-0.1,0.1-0.1,0.1c0,0.1,0.1,0.1,0.2,0.1c0.2,0,0.6,0,0.7,0c0.2,0,0.5,0,0.9,0
		c0.1,0,0.1,0,0.2-0.1C94.1,116.5,94.1,116.4,94,116.4z M97.4,116.4c-0.1,0-0.2,0-0.3,0c-0.2,0-0.2-0.1-0.2-0.2c0-0.2,0-0.7,0-1.2
		v-1c0-0.8,0-1,0-1.2c0-0.2,0-0.2,0.2-0.3c0.1,0,0.1,0,0.2,0c0.1,0,0.1,0,0.1-0.1c0-0.1-0.1-0.1-0.2-0.1c-0.2,0-0.6,0-0.7,0
		c-0.2,0-0.5,0-0.8,0c-0.1,0-0.2,0-0.2,0.1c0,0.1,0.1,0.1,0.1,0.1c0.1,0,0.1,0,0.2,0c0.1,0,0.1,0.1,0.2,0.2c0,0.2,0,0.3,0,1.2v1
		c0,0.5,0,1,0,1.2c0,0.2,0,0.2-0.1,0.2c0,0-0.1,0-0.2,0c-0.1,0-0.1,0.1-0.1,0.1c0,0.1,0.1,0.1,0.2,0.1c0.2,0,0.6,0,0.7,0
		c0.2,0,0.5,0,0.9,0c0.1,0,0.1,0,0.2-0.1C97.6,116.5,97.5,116.4,97.4,116.4z M100.9,116.4c-0.1,0-0.2,0-0.3,0
		c-0.2,0-0.2-0.1-0.2-0.2c0-0.2,0-0.7,0-1.2v-1c0-0.8,0-1,0-1.2c0-0.2,0-0.2,0.2-0.3c0.1,0,0.1,0,0.2,0c0.1,0,0.1,0,0.1-0.1
		c0-0.1-0.1-0.1-0.2-0.1c-0.2,0-0.6,0-0.7,0c-0.2,0-0.5,0-0.8,0c-0.1,0-0.2,0-0.2,0.1c0,0.1,0.1,0.1,0.1,0.1c0.1,0,0.1,0,0.2,0
		c0.1,0,0.1,0.1,0.2,0.2c0,0.2,0,0.3,0,1.2v1c0,0.5,0,1,0,1.2c0,0.2,0,0.2-0.1,0.2c0,0-0.1,0-0.2,0c-0.1,0-0.1,0.1-0.1,0.1
		c0,0.1,0.1,0.1,0.2,0.1c0.2,0,0.6,0,0.7,0c0.2,0,0.5,0,0.9,0c0.1,0,0.1,0,0.2-0.1C101,116.5,100.9,116.4,100.9,116.4z M66.8,89.9
		v-3.2c0-0.6-0.5-1.1-1.1-1.1c-0.6,0-1.1,0.5-1.1,1.1v3.2H66.8z M72.7,89.9v-3.2c0-0.6-0.5-1.1-1.1-1.1c-0.6,0-1.1,0.5-1.1,1.1v3.2
		H72.7z M68.7,25.3c-0.6,0-1.1,0.5-1.1,1.1c0,0.6,0.5,1.1,1.1,1.1c0.6,0,1.1-0.5,1.1-1.1C69.8,25.8,69.3,25.3,68.7,25.3z M68.1,57.2
		h1.1v-2.5h-1.1V57.2L68.1,57.2z M57.2,119.6c-0.6,0-1.1,0.5-1.1,1.1c0,0.6,0.5,1.1,1.1,1.1c0.6,0,1.1-0.5,1.1-1.1
		C58.3,120.1,57.8,119.6,57.2,119.6z M56.5,57.2v-3.6c0-0.8-0.4-1.4-1.1-1.7c-0.6,0.3-1,0.9-1.1,1.7v3.6H56.5z M56.5,45.5v-2.3
		c0-0.9-0.4-1.4-1.1-1.7c-0.6,0.3-1,0.9-1.1,1.7v2.3H56.5z M56,69.8v-3c0-0.3-0.3-0.6-0.6-0.6c-0.3,0-0.6,0.3-0.6,0.6v3H56z M56,79
		v-3c0-0.3-0.3-0.6-0.6-0.6c-0.3,0-0.6,0.3-0.6,0.6v3H56z M56.3,89.2v-2.7c0-0.5-0.4-0.9-0.9-0.9c-0.5,0-0.9,0.4-0.9,0.9v2.7H56.3z
		 M55.4,12.7c-0.6,0-1.1,0.5-1.1,1.1c0,0.6,0.5,1.1,1.1,1.1c0.6,0,1.1-0.5,1.1-1.1C56.6,13.2,56.1,12.7,55.4,12.7z M83,57.2v-3.6
		c0-0.8-0.4-1.4-1.1-1.7c-0.6,0.3-1,0.9-1.1,1.7l0,3.6H83z M83,45.5v-2.3c0-0.9-0.4-1.4-1.1-1.7c-0.6,0.3-1,0.9-1.1,1.7l0,2.3H83z
		 M82.5,69.8v-3c0-0.3-0.3-0.6-0.6-0.6c-0.3,0-0.6,0.3-0.6,0.6v3H82.5z M82.5,79v-3c0-0.3-0.3-0.6-0.6-0.6c-0.3,0-0.6,0.3-0.6,0.6v3
		H82.5z M82.8,89.2v-2.7c0-0.5-0.4-0.9-0.9-0.9c-0.5,0-0.9,0.4-0.9,0.9v2.7H82.8z M81.9,12.7c-0.6,0-1.1,0.5-1.1,1.1
		c0,0.6,0.5,1.1,1.1,1.1c0.6,0,1.1-0.5,1.1-1.1C83.1,13.2,82.5,12.7,81.9,12.7z M3.5,68.6c0-36,29.2-65.1,65.1-65.1l0,0
		c36,0,65.1,29.2,65.1,65.1l0,0c0,36-29.2,65.1-65.1,65.1l0,0C32.7,133.8,3.5,104.6,3.5,68.6L3.5,68.6z M23.8,23.7
		C12.3,35.2,5.2,51.1,5.2,68.6l0,0c0,17.5,7.1,33.4,18.6,44.9l0,0c11.5,11.5,27.4,18.6,44.9,18.6l0,0c17.5,0,33.4-7.1,44.9-18.6l0,0
		c11.5-11.5,18.6-27.4,18.6-44.9l0,0c0-17.5-7.1-33.4-18.6-44.9l0,0C102.1,12.2,86.2,5.1,68.7,5.1l0,0C51.1,5.1,35.3,12.2,23.8,23.7
		L23.8,23.7z M69.7,109.6h0.5v-0.9h-1.3v2h0.7L69.7,109.6z M68.7,7.7C35.1,7.7,7.8,35,7.8,68.6c0,33.6,27.3,60.9,60.9,60.9
		c33.6,0,60.9-27.3,60.9-60.9C129.6,35,102.3,7.7,68.7,7.7z M61.9,120.3h-2.8v0.9h2.8v6.8c-13.8-1.6-26.2-7.8-35.5-17.1
		c-1.3-1.3-2.6-2.7-3.8-4.2c0.2-1.5,1.5-2.6,3.1-2.6c1.7,0,3.1,1.4,3.1,3.1v3h4v0h0v-3c0-1.7,1.4-3.1,3.1-3.1s3.1,1.4,3.1,3.1v3h4v0
		l0,0v-3c0-1.7,1.4-3.1,3.1-3.1c1.7,0,3.1,1.4,3.1,3.1v3h4v0l0,0v-3c0-1.7,1.4-3.1,3.1-3.1c1.7,0,3.1,1.4,3.1,3.1v3h2.5V120.3z
		 M73.3,128.2c-1.5,0.1-3.1,0.2-4.6,0.2c-1.5,0-3.1-0.1-4.6-0.2l-1.1-7h1.3c-0.3-0.8-0.9-2.1-1.1-2.7c-0.4-0.9-0.1-1.5,0.5-1.7
		c0.6-0.2,1.2,0.1,1.4,0.8l0.6,2.1h0.8l0,1.4h0l0,0.3h-2v0.9h2.9l0-1.2h3.5l0-1.4h0.8l0.6-2.1c0.2-0.7,0.9-1.1,1.4-0.8
		c0.6,0.2,0.9,0.8,0.5,1.7c-0.1,0.2-0.2,0.6-0.4,1.1l-0.8,1.9h-2.1v0.9h2.7l0.5-1.2h0.3L73.3,128.2z M66.8,108.1h3.8
		c0.1,0.3,0.5,1.2,0.7,1.7c0.2,0.4,0.4,0.7,0.1,1.1c-0.3,0.5-0.7,0.4-0.9,0.4c0,0,0,0,0,0c-0.3,0.7-1,1.2-1.8,1.2
		c-0.8,0-1.5-0.5-1.8-1.2c0,0,0,0,0,0c-0.3,0-0.6,0.1-0.9-0.4c-0.2-0.4,0-0.8,0.1-1.1C66.3,109.3,66.6,108.4,66.8,108.1z
		 M66.2,104.1l1.2,1.7l1.2-2.3l1.2,2.3l1.2-1.7l-0.5,3h-3.9L66.2,104.1z M67.7,112.6c0.3,0.8,1,1.4,1.9,1.4c1,0,1.8-0.7,2-1.6
		c0.6,0,1.2,0.2,1.8,0.7c0.6,0.5,0.8,1.3,0.9,1.7H63.1c0.1-0.4,0.3-1.2,0.9-1.7C65.2,112.1,66.5,112.5,67.7,112.6z M72.3,115.8
		c-0.4,1.6-1.9,2.8-3.6,2.8c-1.7,0-3.2-1.2-3.6-2.8H72.3z M111,110.9c-9.3,9.3-21.7,15.6-35.5,17.1v-6.8h2.5c4.7,0,8.1-0.4,8.1-0.4
		s-3.5-0.5-8.1-0.5h-2.5v-10.1h3v0l0,0v-3c0-1.7,1.4-3.1,3.1-3.1c1.7,0,3.1,1.4,3.1,3.1v3h4v0h0v-3c0-1.7,1.4-3.1,3.1-3.1
		c1.7,0,3.1,1.4,3.1,3.1v3h4v0l0,0v-3c0-1.7,1.4-3.1,3.1-3.1c1.7,0,3.1,1.4,3.1,3.1v3h4v0l0,0v-3c0-1.7,1.4-3.1,3.1-3.1
		c1.4,0,2.5,0.9,3,2.1C113.9,107.8,112.5,109.4,111,110.9z M115.9,105.3c-0.7-1.5-2.2-2.5-3.9-2.5c-2.4,0-4.3,1.9-4.3,4.3v1.4h-1.6
		v-1.4c0-2.4-1.9-4.3-4.3-4.3c-2.4,0-4.3,1.9-4.3,4.3v1.4h-1.6v-1.4c0-2.4-1.9-4.3-4.3-4.3c-2.4,0-4.3,1.9-4.3,4.3v1.4h-1.6v-1.4
		c0-2.4-1.9-4.3-4.3-4.3c-2.4,0-4.3,1.9-4.3,4.3v1.4h-1.6c-0.5-3.2-3.3-5.7-6.7-5.7c-3.4,0-6.2,2.5-6.7,5.7h-1.7v-1.4
		c0-2.4-1.9-4.3-4.3-4.3c-2.4,0-4.3,1.9-4.3,4.3v1.4h-1.6v-1.4c0-2.4-1.9-4.3-4.3-4.3c-2.4,0-4.3,1.9-4.3,4.3v1.4h-1.6v-1.4
		c0-2.4-1.9-4.3-4.3-4.3c-2.4,0-4.3,1.9-4.3,4.3v1.4h-1.6v-1.4c0-2.4-1.9-4.3-4.3-4.3c-1.7,0-3.2,1-3.9,2.4c-1.1-1.4-2-2.8-3-4.2
		h100.4C117.9,102.6,116.9,104,115.9,105.3z M119.9,99.5H17.5c-0.3-0.5-0.6-1-0.9-1.5h104.1C120.5,98.5,120.2,99,119.9,99.5z
		 M58.4,22.7v0.5c0,0.1,0,0.3-0.1,0.4c-0.1,0.2-0.3,0.6-0.6,1c-0.1,0.2-0.3,0.5-0.5,0.9c-0.3-0.4-0.5-0.7-0.7-0.9
		c-0.2-0.2-0.4-0.4-0.6-0.7c-0.4-0.5-0.4-0.8-0.4-0.8v0c0,0,0,0.3-0.4,0.8c-0.2,0.2-0.4,0.5-0.6,0.7c-0.2,0.2-0.4,0.5-0.7,0.9
		c-0.2-0.4-0.4-0.7-0.5-0.9c-0.3-0.4-0.5-0.8-0.6-1c-0.1-0.2-0.1-0.5-0.1-0.5v-0.4H58.4z M52.5,21.7c0-0.7,0.2-2.2,1-3.1
		c0.6-0.8,1.1-1.2,1.5-1.5c0.2-0.1,0.3-0.2,0.4-0.2c0.1,0.1,0.3,0.1,0.4,0.2c0.4,0.3,1,0.7,1.5,1.5c0.7,1,0.9,2.4,1,3.1H52.5z
		 M58.6,25.1c0.2,0.2,0.3,0.6,0.5,1c0.3,0.6,0.3,1.2,0.3,1.7v6.7h-1.7c0-1.5,0-4.7,0-6.7c0-0.5,0.1-1.1,0.3-1.7
		C58.3,25.6,58.4,25.3,58.6,25.1z M56.8,27.8l0,6.7h-2.6c0-1.9,0-6.7,0-6.7c0-0.4,0.1-1,0.4-1.7c0.3-0.7,1-1,1-1h0
		c0,0,0.6,0.4,0.9,1C56.7,26.8,56.7,27.4,56.8,27.8z M52.9,26c0.2,0.6,0.3,1.3,0.3,1.7l0,6.7h-1.7l0-6.7c0-0.5,0.1-1.1,0.3-1.7
		c0.2-0.4,0.4-0.7,0.5-1C52.5,25.4,52.7,25.6,52.9,26z M60.8,35.6v2.2H50.1v-2.2H60.8z M60.8,38.7v8.5h-2.6v-3.8
		c0-1.3-0.5-2.3-1.2-3.1c-0.4-0.4-0.9-0.7-1.5-0.9c0,0,0,0,0,0s0,0,0,0c-0.6,0.2-1.1,0.5-1.5,0.9c-0.8,0.7-1.2,1.8-1.2,3.1v3.8h-2.6
		v-8.5H60.8z M57.3,43.4v3.8h-3.7l0-3.8c0-1.5,0.7-2.5,1.8-3C56.5,40.9,57.3,41.9,57.3,43.4z M60.8,48.1v10.8h-2.4v-5.4
		c0-1.3-0.5-2.4-1.3-3.1c-0.4-0.4-0.9-0.7-1.5-0.9c0,0-0.2-0.1-0.2-0.1s-0.2,0.1-0.2,0.1c-0.6,0.2-1.1,0.5-1.5,0.9
		c-0.8,0.8-1.3,1.9-1.3,3.1v5.4h-2.4V48.1H60.8z M57.5,53.5v5.4h-4.1v-5.4c0-1,0.4-1.9,1-2.5c0.3-0.3,0.7-0.5,1.1-0.7h0
		c0.4,0.2,0.7,0.4,1,0.7C57.1,51.6,57.5,52.5,57.5,53.5L57.5,53.5z M60.8,59.8v12.9H50.1V59.8H60.8z M60.8,73.6V82H50.1v-8.4H60.8z
		 M60.8,82.9v14.2H50.1V82.9H60.8z M70.1,48.2V52l-1.5-1.5L67.2,52v-3.8H70.1z M67.3,47.1l1.1-4.6l0.4-7.7l0.3,7.7l1.1,4.6H67.3z
		 M68.7,52.1l6.8,6.8H61.9L68.7,52.1z M75.5,59.8V65H61.9v-5.2H75.5z M75.5,66.6v6.1h-4.3v-1.5c0-1.4-1.1-2.5-2.5-2.5
		c-1.4,0-2.5,1.1-2.5,2.5v1.5h-4.3v-6.1H75.5z M66.1,73.6V79h5.1v-5.4h4.3V82H61.9v-8.4H66.1z M75.5,82.9v14.2H61.9V82.9H75.5z
		 M84.8,22.7v0.5c0,0.1,0,0.3-0.1,0.4c-0.1,0.2-0.3,0.6-0.6,1c-0.1,0.2-0.3,0.5-0.5,0.9c-0.3-0.4-0.5-0.7-0.7-0.9
		c-0.2-0.2-0.4-0.4-0.6-0.7c-0.4-0.5-0.4-0.8-0.4-0.8v0c0,0,0,0.3-0.4,0.8c-0.2,0.2-0.4,0.5-0.6,0.7c-0.2,0.2-0.4,0.5-0.7,0.9
		c-0.2-0.4-0.4-0.7-0.5-0.9c-0.3-0.4-0.5-0.8-0.6-1C79,23.3,79,23.1,79,23v-0.4H84.8z M79,21.7c0-0.7,0.2-2.2,1-3.1
		c0.6-0.8,1.1-1.2,1.5-1.5c0.2-0.1,0.3-0.2,0.4-0.2c0.1,0.1,0.3,0.1,0.4,0.2c0.4,0.3,1,0.7,1.5,1.5c0.7,1,0.9,2.4,1,3.1H79z
		 M85.1,25.1c0.2,0.2,0.3,0.6,0.5,1c0.3,0.6,0.3,1.2,0.3,1.7v6.7h-1.7c0-1.5,0-4.7,0-6.7c0-0.5,0.1-1.1,0.3-1.7
		C84.7,25.6,84.9,25.3,85.1,25.1z M83.2,27.8l0,6.7h-2.6c0-1.9,0-6.7,0-6.7c0-0.4,0.1-1,0.4-1.7c0.3-0.7,1-1,1-1h0
		c0,0,0.6,0.4,0.9,1C83.2,26.8,83.2,27.4,83.2,27.8z M79.3,26c0.2,0.6,0.3,1.3,0.3,1.7l0,6.7h-1.7v-6.7c0-0.5,0.1-1.1,0.3-1.7
		c0.2-0.4,0.4-0.7,0.5-1C79,25.4,79.2,25.6,79.3,26z M87.2,35.6v2.2H76.6v-2.2H87.2z M87.2,38.7v8.5h-2.6v-3.8
		c0-1.3-0.5-2.3-1.2-3.1c-0.4-0.4-0.9-0.7-1.5-0.9c0,0,0,0,0,0s0,0,0,0c-0.6,0.2-1.1,0.5-1.5,0.9c-0.8,0.7-1.2,1.8-1.2,3.1v3.8h-2.6
		v-8.5H87.2z M83.7,43.4v3.8h-3.7l0-3.8c0-1.5,0.7-2.5,1.8-3C83,40.9,83.7,41.9,83.7,43.4z M87.2,48.1v10.8h-2.4v-5.4
		c0-1.3-0.5-2.4-1.3-3.1c-0.4-0.4-0.9-0.7-1.5-0.9c0,0-0.2-0.1-0.2-0.1s-0.2,0.1-0.2,0.1c-0.6,0.2-1.1,0.5-1.5,0.9
		c-0.8,0.8-1.3,1.9-1.3,3.1v5.4h-2.4V48.1H87.2z M84,53.5v5.4h-4.1v-5.4c0-1,0.4-1.9,1-2.5c0.3-0.3,0.7-0.5,1-0.7h0
		c0.4,0.2,0.7,0.4,1,0.7C83.6,51.6,83.9,52.5,84,53.5L84,53.5z M87.2,59.8v12.9H76.6V59.8H87.2z M87.2,73.6V82H76.6v-8.4H87.2z
		 M87.2,82.9v14.2H76.6V82.9H87.2z M88.9,97.1V34.5h-1.3v-6.9c0-0.9-0.1-1.4-0.5-2.3c-0.1-0.2-0.2-0.5-0.4-0.7v-2.5c0,0,0-2-0.8-3.4
		c-0.9-1.6-2.6-2.5-3.4-2.8c-0.2-0.1-0.3-0.1-0.3-0.1l-0.1,0l-0.2,0c-0.1,0-1.4,0.5-2.7,2.2c-1.2,1.6-1.2,3.7-1.2,4.2
		c0,0.1,0,0.1,0,0.2v2.3c-0.2,0.2-0.4,0.6-0.6,1.1c-0.4,0.9-0.4,1.7-0.4,2.2v6.7h-1.4v22.9l-3.7-3.7v-6.5l-1.3-4.2l-1.8-14.4v0
		l-1.4,13.8l-1.3,4.8v6l-3.7,3.7V34.5h-1.3l0-6.9c0-0.9-0.1-1.4-0.5-2.3c-0.1-0.2-0.2-0.5-0.4-0.7v-2.5c0,0,0-2-0.8-3.4
		c-0.9-1.6-2.6-2.5-3.4-2.8c-0.2-0.1-0.3-0.1-0.3-0.1l-0.1,0l-0.2,0c-0.1,0-1.4,0.5-2.7,2.2c-1.2,1.6-1.2,3.7-1.2,4.2
		c0,0.1,0,0.1,0,0.2v2.3c-0.2,0.2-0.4,0.6-0.6,1.1c-0.4,0.9-0.4,1.7-0.4,2.2v6.7H49v62.6H16.1c-4.6-8.5-7.2-18.2-7.2-28.5
		c0-16.5,6.7-31.5,17.5-42.3C37.2,15.5,52.2,8.8,68.7,8.8s31.5,6.7,42.3,17.5c10.8,10.8,17.5,25.8,17.5,42.3c0,10.3-2.6,20-7.2,28.5
		H88.9z"/>
	<line class="st1" x1="452.8" y1="27.7" x2="452.8" y2="112.1"/>
	<g>
		<g>
			<path class="st0" d="M700.1,77.3c-2,10-9.7,10.5-11.3,10.5c-4.4,0-7-2.5-7-6.7c0-1,0.1-2.3,0.4-3.6l4.8-23.8l0-0.1h-5.6L676.6,78
				l-0.1,0.3c-0.2,1.1-0.4,2.1-0.4,3.5c0,6.6,4.3,10.9,10.7,10.9c4.7,0,8.5-1.5,11.2-4.6l-0.7,4l0,0.1h5.6l7.7-38.6l0-0.1h-5.7
				L700.1,77.3z"/>
			<path class="st0" d="M738.6,53.1c-4.4,0-8.2,1.8-10.6,4.9l0.9-4.3l0-0.1h-5.6l-7.7,38.6l0,0.1h5.6l4.7-23.7
				c1.2-6.1,5.9-10.5,11.1-10.5c2.2,0,4,0.9,5.4,2.7l0.1,0.1l4.6-4.1l0-0.1C744.9,54.3,742.1,53.1,738.6,53.1z"/>
			<polygon class="st0" points="645.3,58.5 645.3,58.6 664.6,58.6 639,87.6 638.9,87.6 638,92.3 665.3,92.3 666.3,87.3 645.8,87.3 
				671.5,58.4 671.5,58.3 672.5,53.6 646.3,53.6 			"/>
			<polygon class="st0" points="747.8,92.2 747.8,92.3 753.4,92.3 761.1,53.6 755.5,53.6 			"/>
			<path class="st0" d="M824.2,53.1c-4.6,0-8.3,1.4-11,4.4l4.4-21.6h-5.6l-11.3,56.4h5.6l4.7-23.7c2-10,9.8-10.5,11.3-10.5
				c4.3,0,6.9,2.5,6.9,6.7c0,1-0.1,2.3-0.4,3.6L824,92.3h5.6l4.9-24.4c0.2-1.3,0.4-2.4,0.4-3.8C835,57.5,830.6,53.1,824.2,53.1z"/>
			<path class="st0" d="M786.8,53.1c-10.2,0-17.4,7.2-19.7,19.8c-0.4,2.1-0.6,4.5-0.6,6c0,8.6,5.2,13.9,13.6,13.9
				c4.9,0,9.3-1.9,12.9-5.4l0.1-0.1l-3.3-4l-0.1-0.1l-0.1,0.1c-3,3.1-5.7,4.4-9.3,4.4c-4,0-8.3-2.4-8.3-9.1c0-2.1,0.2-3.8,0.6-5.8
				c0.6-3.3,2-7.9,5-11.1c2.4-2.5,5.3-3.7,8.5-3.7c3.4,0,5.5,1.2,7.5,4.3l0,0.1L798,59l0.1,0l0-0.1
				C795.2,54.9,791.7,53.1,786.8,53.1z"/>
			<polygon class="st0" points="757.6,43 763.3,43 764.7,35.9 759.1,35.9 			"/>
			<polygon class="st0" points="702.8,43 708.5,43 709.9,35.9 704.2,35.9 			"/>
			<polygon class="st0" points="687.8,43 693.4,43 694.8,35.9 689.2,35.9 			"/>
		</g>
		<g>
			<polygon class="st0" points="612.4,57.8 599.7,57.8 604.2,35.9 496.3,35.9 485,92.3 528,92.3 530.8,78.2 505.4,78.2 507,70.5 
				532.3,70.5 534.9,57.8 509.5,57.8 511.1,50 551.3,50 542.8,92.3 560.4,92.3 568.9,50 583.7,50 575.2,92.3 592.9,92.3 597.2,70.5 
				609.9,70.5 605.5,92.3 623.2,92.3 634.5,35.9 616.9,35.9 			"/>
		</g>
	</g>
	<line class="st1" x1="868.5" y1="27.3" x2="868.5" y2="111.7"/>
	<g>
		<path class="st0" d="M930.4,32.5l2.8,3.6l2-1.6l-4.5-5.8l-1.6,1.2c0.6,1-0.3,2.2-1.4,3l0.8,1L930.4,32.5z"/>
		<path class="st0" d="M937.7,29.1c0.1-0.6,0.5-0.9,1.1-1.2c0.9-0.5,1.6-0.3,1.9,0.4c0.3,0.6-0.1,1.4-0.9,1.8
			c-0.6,0.3-1.6,0.4-1.8-0.1l-2.2,1.1c0.9,1.5,2.7,1.3,4.7,0.3c2-1.1,3.2-2.7,2.4-4.3c-0.7-1.4-2.2-1.5-4.1-0.6
			c-0.7,0.3-1.2,0.8-1.5,1.4l0,0l-0.3-1.4l3.9-2l-0.7-1.3l-5.6,2.9l1,4.1L937.7,29.1z"/>
		<path class="st0" d="M984.4,26.8c-0.7-0.3-1.4-0.5-2-0.4l0,0l0.9-1l3.9,2l0.7-1.4l-5.6-2.8l-2.7,3.3l2,1c0.5-0.2,1.1-0.1,1.7,0.2
			c0.9,0.4,1.2,1.1,0.9,1.8c-0.3,0.6-1.2,0.7-2,0.3c-0.6-0.3-1.3-1-1-1.5l-2.2-1.1c-0.7,1.6,0.6,2.9,2.5,3.9c2.1,1,4,1,4.9-0.6
			C986.9,29.1,986.2,27.8,984.4,26.8z"/>
		<path class="st0" d="M993.3,29.7c-1.6-1.3-3.7-1.5-4.6-0.2c-0.9,1.1-0.5,2.8,1.1,4c0.7,0.5,1.5,0.9,2.2,0.7l0,0
			c-0.6,0.7-1.6,1.2-2.6,0.4c-0.2-0.2-0.5-0.4-0.6-0.7c-0.1-0.2-0.2-0.5-0.1-0.7l-1.8-1.4c-0.6,1.3,0.1,2.6,1.5,3.7
			c2.5,1.9,4.5,1.2,5.8-0.5C995.5,33.5,995.5,31.4,993.3,29.7z M993,32.8c-0.4,0.5-1.2,0.6-2-0.1c-0.8-0.6-0.9-1.4-0.5-1.9
			c0.4-0.5,1.2-0.5,2,0.1C993.2,31.5,993.4,32.3,993,32.8z"/>
		<path class="st0" d="M912.2,59.8c1.3,0.4,2.2-0.8,3-2.1c0.8-1.3,1.3-2.7,1.9-2.5c0.5,0.2,0.4,0.9,0.2,1.4
			c-0.3,0.8-0.7,1.5-1.4,1.3l-0.8,2.5c1.6,0.5,2.9-1.2,3.6-3.1c0.6-1.8,0.7-4.1-0.9-4.6c-1.3-0.4-2.2,0.9-3,2.1
			c-0.8,1.3-1.3,2.6-2,2.4c-0.5-0.2-0.5-1-0.2-1.8c0.4-1.1,0.9-1.7,1.7-1.5l0.8-2.5c-1.8-0.6-3.2,1.1-3.9,3.3
			C910.5,56.9,910.4,59.2,912.2,59.8z"/>
		<path class="st0" d="M911.3,72.4l0.2-2.6c-0.9-0.2-1.3-0.9-1.2-2.2c0.1-1.7,1.3-2.3,2.4-2.2c1.1,0.1,2.2,0.8,2,2.5
			c-0.1,1.1-0.5,1.9-1.3,2l-0.2,2.6c1.8,0.1,3-2.2,3.2-4.4c0.2-3.1-1.3-5.2-3.5-5.3c-2.2-0.2-4.1,1.7-4.3,4.7
			C908.4,70.1,909.4,72.1,911.3,72.4z"/>
		<polygon class="st0" points="917.1,80.9 914.4,81.4 913.8,77.9 916.5,77.5 916.1,74.9 908.7,76.1 909.1,78.8 912.2,78.2 
			912.8,81.7 909.7,82.2 910.2,84.8 917.6,83.5 		"/>
		<path class="st0" d="M920.3,89.9c-1.3-2.9-3.6-3.9-5.6-3c-2,0.9-2.8,3.3-1.5,6.2c1.3,2.9,3.6,3.9,5.6,3
			C920.7,95.2,921.6,92.8,920.3,89.9z M917.6,93.6c-1,0.5-2.3,0.3-3-1.2c-0.7-1.6,0.1-2.6,1.1-3.1c1-0.5,2.3-0.3,3,1.2
			C919.4,92.1,918.7,93.2,917.6,93.6z"/>
		<polygon class="st0" points="924.9,98.2 923.3,96.1 917.3,100.7 921.8,106.5 923.1,105.5 920.3,101.7 		"/>
		<path class="st0" d="M923.2,108.2l2.1,1.8l1.4-0.6l2.7,2.3l-0.4,1.4l2.1,1.8l2-8.2l-2-1.8L923.2,108.2z M929.8,110.1l-1.7-1.5
			l2.6-1.2l0,0L929.8,110.1z"/>
		<path class="st0" d="M951.9,117.3c1,0.2,1.8,0.8,1.8,1.4l2.6,0.5c0.1-1.9-1.9-3.2-3.9-3.6c-3-0.6-5.3,0.7-5.8,2.8
			c-0.4,2.1,1.2,4.2,4.2,4.9c0.9,0.2,2.1,0.2,3-0.4l0,0.8l1.7,0.3l0.8-4l-4.2-0.9l-0.3,1.4l1.8,0.4c-0.3,0.6-1.2,0.9-2.5,0.6
			c-1.7-0.3-2.1-1.6-1.9-2.7C949.4,117.9,950.3,116.9,951.9,117.3z"/>
		<polygon class="st0" points="962.8,122.5 962.8,121.1 967.7,120.9 967.7,119.4 962.7,119.6 962.6,118.3 968.1,118 968,116.4 
			959.9,116.9 960.3,124.4 968.5,124 968.4,122.3 		"/>
		<polygon class="st0" points="976.8,114.1 978.2,118.5 978.1,118.5 973.4,115.2 970.8,116 973,123.2 975.4,122.4 974,117.9 
			974,117.9 978.8,121.4 981.4,120.6 979.2,113.4 		"/>
		<polygon class="st0" points="987.2,115.6 986.5,114.4 990.7,111.8 989.9,110.5 985.7,113.1 985,112 989.6,109.1 988.8,107.8 
			981.9,112.1 985.9,118.5 992.9,114.1 992,112.7 		"/>
		<polygon class="st0" points="995.1,101.9 997.7,107.2 997.6,107.3 992.3,104.7 990.3,106.7 997.9,109.7 1000.1,107.6 997,99.9 		
			"/>
		<polygon class="st0" points="1004.6,99 1003.4,98.3 1006,94 1004.7,93.2 1002.1,97.5 1001,96.8 1003.8,92.1 1002.4,91.3 
			998.2,98.2 1004.7,102.1 1008.9,95.1 1007.5,94.2 		"/>
		<polygon class="st0" points="1005.5,82.7 1009.9,84 1009.9,84 1004.4,86.1 1003.6,88.7 1010.8,90.9 1011.6,88.5 1007.1,87.1 
			1007.1,87.1 1012.6,85.1 1013.4,82.5 1006.2,80.3 		"/>
		<path class="st0" d="M1012.1,69.2c-1.4-0.1-1.9,1.4-2.3,2.8c-0.4,1.5-0.5,2.9-1.1,2.9c-0.5,0-0.6-0.7-0.6-1.3c0-0.8,0.3-1.7,1-1.6
			l0.1-2.6c-1.7-0.1-2.5,1.9-2.6,4c-0.1,1.9,0.5,4.2,2.1,4.2c1.4,0.1,1.9-1.4,2.3-2.9c0.4-1.5,0.6-2.9,1.2-2.9
			c0.6,0,0.7,0.9,0.7,1.7c0,1.1-0.4,1.8-1.3,1.9l-0.1,2.6c1.9,0.1,2.8-2,2.9-4.3C1014.6,71.5,1014,69.3,1012.1,69.2z"/>
		
			<rect x="1006.3" y="63" transform="matrix(0.9898 -0.1427 0.1427 0.9898 1.1599 144.8133)" class="st0" width="7.5" height="2.6"/>
		<path class="st0" d="M1007.7,59.9c1.3-0.4,1.3-2,1.1-3.5c-0.2-1.5-0.5-2.9,0.1-3.1c0.5-0.2,1,0.5,1.3,1.3c0.4,1.1,0.3,1.9-0.5,2.2
			l0.9,2.5c1.8-0.6,1.9-2.8,1.1-5c-0.7-2.1-2-4-3.8-3.4c-1.3,0.4-1.3,2-1.1,3.5c0.2,1.5,0.6,2.9,0,3.1c-0.5,0.2-0.8-0.5-1-1
			c-0.3-0.8-0.3-1.7,0.3-1.8l-0.9-2.5c-1.6,0.6-1.6,2.7-1,4.6C1004.9,58.5,1006.2,60.4,1007.7,59.9z"/>
		
			<ellipse transform="matrix(0.6022 -0.7984 0.7984 0.6022 281.1384 795.8792)" class="st0" cx="939.2" cy="115.8" rx="1.8" ry="1.8"/>
		<ellipse transform="matrix(0.5895 -0.8078 0.8078 0.5895 344.3853 761.7205)" class="st0" cx="921.6" cy="42" rx="1.8" ry="1.8"/>
		
			<ellipse transform="matrix(0.5895 -0.8078 0.8078 0.5895 376.9301 825.7347)" class="st0" cx="1000.8" cy="42" rx="1.8" ry="1.8"/>
		<polygon class="st0" points="965.8,21.4 964.3,23.7 967.9,23.7 967.9,22.6 966.5,22.6 967.3,21.4 966.5,20.2 967.9,20.2 
			967.9,19.1 964.3,19.1 		"/>
		<polygon class="st0" points="958.1,22.6 957.2,22.6 957.2,20.2 958,20.2 958,19.1 955.1,19.1 955.1,20.2 955.9,20.2 955.9,22.6 
			955,22.6 955,23.7 958.1,23.7 		"/>
		<polygon class="st0" points="962.2,20.7 960.4,20.7 960.4,19.1 959,19.1 959,23.7 960.4,23.7 960.4,21.9 962.2,21.9 962.2,23.7 
			963.6,23.7 963.6,19.1 962.2,19.1 		"/>
		<path class="st0" d="M960.7,16.4c0-0.3,0.2-0.6,0.6-0.6c0.3,0,0.6,0.2,0.6,0.6l0,1.6h2.5v-1.4h-1.6l0-0.3c0-1-0.5-1.8-1.6-1.8
			c-0.9,0-1.4,0.5-1.5,1.3c0,0.2,0,0.4,0,0.5v0.3h-1.6l0,1.4h2.5L960.7,16.4z"/>
		<circle class="st0" cx="961.4" cy="25.6" r="0.8"/>
		<path class="st0" d="M974,13.9l1.2-1.5l-7,1l1.1-6.9l-5.5,4.5l-2.5-6.6l-2.5,6.6l-5.5-4.5l1.1,7l-7-1.1l1.2,1.5
			c-26.3,5.9-46.1,29.4-46.1,57.5c0,32.5,26.4,58.9,58.9,58.9c32.5,0,58.9-26.4,58.9-58.9C1020.1,43.3,1000.3,19.7,974,13.9z
			 M961.3,12.5c4.5,0,8.1,3.6,8.1,8.1c0,4.5-3.6,8.1-8.1,8.1s-8.1-3.6-8.1-8.1C953.2,16.1,956.9,12.5,961.3,12.5z M968.8,30.7
			c8.8,1.6,16.6,6,22.5,12.3h-3.8v2.8h-3.4V43h-4.7v3.9h-2.8c0,0,0-5.9,0-6c0-1.3-1.1-2.4-2.4-2.4c-1.3,0-2.4,1.1-2.4,2.4
			c0,0.1,0,31.4,0,31.4l-4.8,4.4v2.3c-2.1,0.3-3.9,1.7-4.8,3.5V34.7l1.6-4.7l5.4,4.4L968.8,30.7z M971,98.6c-1.2,0.5-2.1,1.6-2.1,3
			c0,1.8,1.4,3.2,3.2,3.2h4c1.8,0,3.2-1.4,3.2-3.2c0-1.4-0.9-2.5-2.1-3c5.5-1.9,9.4-7.1,9.4-13.2c0-3.2-2.4-5.8-5.4-6.2v-2.3
			l-4.8-4.4v-9.2h2.8V67h4.7v-2.9h3.4V67h4.7V56.6h-4.7v2.5h-3.4v-2.5h-3.9v-3.2h3.9v-2.5h3.4v2.5h4.7v-9.4
			c6.5,7.3,10.4,16.9,10.4,27.4c0,22.5-18,40.8-40.4,41.3V89.5C963.5,93.7,966.8,97.1,971,98.6z M964.8,85.3c0-1.5,1.1-2.8,2.5-3
			c0.1,1.8,1.6,3.2,3.4,3.2h6.9c1.8,0,3.3-1.4,3.4-3.2c1.4,0.3,2.5,1.5,2.5,3c0,5.8-4,9.3-9.4,10.6
			C968.8,94.6,964.8,91.1,964.8,85.3z M933.6,54.6c-0.2,0.3-0.4,0.6-0.4,1c0,0.3,0.1,0.5,0.2,0.8l-10.7,0c0.5-1.2,1-2.4,1.6-3.5
			L933.6,54.6z M926.8,48.5c1.2-1.8,2.6-3.5,4-5.1c0.7,2.6,2.4,5,4.5,6.7c-0.3,0.2-0.5,0.4-0.7,0.8c-0.1,0.2-0.1,0.4-0.1,0.7
			L926.8,48.5z M923,62.2c0,0,5.1-1,10.7-2c0,0.3,0,0.6,0.1,0.9c0.1,0.2,0.2,0.3,0.3,0.5l-10.5,4.1c-1.5,0.9-1.9,2.7-1,4.1
			c0.4,0.7,1.1,1.1,1.8,1.3c0.8,0.2,1.5,0.1,2.2-0.4l9.3-5.7c0.1,0.3,0.2,0.6,0.4,0.8c0.1,0.2,0.3,0.3,0.5,0.3l-8.3,7.6
			c-1,1.4-0.8,3.2,0.5,4.2c1.3,1,3.1,0.7,4.1-0.6l6.6-8.8c0.2,0.2,0.3,0.5,0.6,0.6c0.1,0.1,0.3,0.1,0.5,0.1c0,0,0.1,0,0.1,0.1
			l-4.6,9.3c-0.5,1.6,0.4,3.2,1.9,3.6c1.5,0.4,3.1-0.4,3.5-2l2.7-9.3c1.1,0.3,2.4,0.5,3.6,0.5c1,0,1.7-0.1,2.7-0.3
			c0,1.7,0,3.3,0,3.4c-0.2,0.2-8.5,9.2-8.5,9.2c-1.5,1.2-2,1.3-2.9,0.3l-0.3-0.3l-2.6,2l0.3,0.3c1,1,1.9,1.6,3.1,1.8
			c-1.8,0.9-3.3,1.8-3.6,1.9c-0.3-0.3-1.6-1.7-2.3-2.4c-0.1-1.8-1.6-3.3-3.5-3.3c-1.9,0-3.5,1.6-3.5,3.5v0.2l1.3,1.3v-1.1
			c0-0.2,0.1-0.5,0.3-0.6c0.3-0.3,0.9-0.3,1.3,0c0,0,1,1.1,1.7,1.9l0,0l0.3,0.3c0.2,0.2,0.3,0.4,0.3,0.4l0,0l0.8,0.8l-1,0
			c-0.7-0.6-1.5-0.8-2.4-0.8c-0.9,0-1.8,0.4-2.4,1.1c-0.5,0.5-0.8,1.1-0.9,1.8c-3.9-6.3-6.1-13.7-6.1-21.6c0-3.3,0.4-6.5,1.1-9.6
			C921.5,62.2,922.2,62.3,923,62.2z M927.7,94.8c0-0.3,0.1-0.5,0.3-0.7c0.2-0.2,0.5-0.4,0.8-0.4l2.5,0c-1.3,0.3-2.3,1.1-2.9,2.3
			C928.1,95.6,927.8,95.1,927.7,94.8C927.7,94.9,927.7,94.8,927.7,94.8z M930.9,98.5c0.1-0.2,0.2-0.4,0.4-0.5l5.3-3l1.5,1.5l0,0
			l0.4,0.3l0.3,0.3l0,0l1.9,1.7c0.3,0.3,0.3,0.9,0,1.2c-0.2,0.2-0.4,0.3-0.6,0.3h-1.1l1.3,1.3h0.2c0.9,0,1.8-0.4,2.5-1
			c0.7-0.7,1-1.5,1-2.5c0-1.9-1.5-3.4-3.3-3.5c-0.4-0.4-1-1-1.3-1.3c0.8-0.5,15.5-9.8,16.8-10.7c-0.5,5.1-4.9,11.1-9,14.7
			c-1.9,1.9-2.6,4-2.6,5.9c0,1.6,0.6,3,1.4,3.9c0.7,0.7,1.9,1,2.8,0.5l0.6-0.3l-0.5-0.5c-0.7-0.7-1-2-1-3c0-1.9,0.5-2.9,1.4-3.9
			c0.2,0.2,0.6,0.6,1.2,1.2c-0.4,1.1-0.6,2.1-0.6,3.2c0,2.1,0.7,3.9,1.9,5.1c0.3,0.3,2.9,2.5,4,2.1l0.8-0.3l-0.7-0.5
			c-0.4-0.3-1.7-1.8-2.1-2.7c-0.3-0.7-0.5-1.6-0.5-2.5c0-1.5,0.6-3.2,1.9-4.5c0.1-0.1,3-7.3,4.5-10.8c0,0.1,0,0.7,0,0.7
			c0,0.8,0,1.6,0,2.4c0,4.2-0.3,7.9-2.1,9.8c-1.1,1.1-3.3,1.8-3.3,1.8l0.6,0.7c0.1,0.1,0.9,1.4,2.4,1.5c0.3,0,0.6-0.2,0.9-0.4
			c0.1,3.3,0.7,4.6,1.8,5.8c-11-0.3-21-5-28.2-12.3l-0.7-1.2c-0.1-0.1-0.1-0.3-0.1-0.5C930.9,98.7,930.9,98.6,930.9,98.5z
			 M953.1,39.8l1-1.7H950l0.5-1.8c0-0.8-0.7-1.5-1.5-1.5c-0.2,0-0.4,0-0.6,0.1c0-0.2,0.1-0.3,0.1-0.4c0-0.6-0.5-1-1-1
			c-0.6,0-1,0.5-1,1c0,0.1,0,0.3,0.1,0.4c-0.2-0.1-0.4-0.1-0.6-0.1c-0.8,0-1.5,0.7-1.5,1.5l0.5,1.8h-1.1c-0.7,0-1.4,0.5-1.5,1.2
			c-0.2-0.1-0.5-0.1-0.7-0.1c-1.4,0-2.5,1.1-2.5,2.5c0,0.4,0.1,0.8,0.3,1.2c0.4-0.8,1.3-1.3,2.2-1.3c0.9,0,1.6,0.4,2.1,1.1
			c0.1,0.1,0.1,0.2,0.1,0.2c0.1,0.2,0.2,0.5,0.3,0.8h-5.1c-1.4,0-2.5-1.1-2.5-2.5v0.5v0.6v0.5c0,1.4,1.1,2.5,2.5,2.5h4.8
			c-0.4,0.8-1.3,1.3-2.2,1.3c0,0-0.1,0-0.1,0c0.5,0.7,1.2,1.1,2.1,1.1c1.1,0,2-0.7,2.4-1.6h6.8c1.4,0,2.5,1.1,2.5,2.5
			c0,0.6,0,1.6-0.6,2.3l-0.6,0.9l-4.3,6.6c-0.8,1.2-2.4,1.5-3.5,0.7c-1.2-0.8-1.5-2.4-0.7-3.6c1-0.6,1.4-1.7,1.2-2.9
			c-0.2-1.5-1.6-2.5-3.1-2.4l-0.8,0c-5.4,0-9.4-3.7-10-8.8c5.7-5.4,12.9-9.3,21-10.8l-0.6,3.7l5.5-4.5l1.9,4.8v7.4L953.1,39.8z
			 M961.2,126.8c-30.5,0-55.4-24.8-55.4-55.4c0-27,19.4-49.6,45.1-54.4l0.8,1l-6.7,2.5l6.6,2.5l-4.5,5.5l7-1.1l-0.2,1.5
			c-20.3,3.4-35.9,21.2-35.9,42.5c0,23.8,19.3,43.1,43.1,43.1s43.1-19.3,43.1-43.1c0-21.3-15.5-39-35.9-42.5l-0.2-1.4l6.8,1.1
			l-4.3-5.6l6.5-2.5l-6.5-2.7l0.7-0.8c25.7,4.8,45.1,27.4,45.1,54.4C1016.6,101.9,991.8,126.8,961.2,126.8z"/>
	</g>
	<g>
		<path class="st0" d="M1056.9,59.9c-12.8,0-15.6-7.3-15.6-15.4V16.7h7.8V44c0,5.4,1.7,9.1,8.4,9.1c6,0,8.5-2.6,8.5-9.9V16.7h7.7v26
			C1073.7,54.3,1067.5,59.9,1056.9,59.9z"/>
		<path class="st0" d="M1105,59.2c0,0-15.3-27.9-16.5-30.6c0.2,3.7,0.4,10.3,0.4,15.4v15.2h-7.5V16.7h9.9c0,0,15,27.1,16.5,30.3
			c-0.3-4.3-0.4-11.9-0.4-17.1V16.7h7.5v42.6H1105z"/>
		<path class="st0" d="M1124,59.2V16.7h7.8v42.6H1124z"/>
		<path class="st0" d="M1159.8,59.2h-9l-14.1-42.6h8.5l7.8,24.9c0.8,2.4,1.7,5.2,2.4,8.3h0.1c0.6-2.9,1.3-5.2,2.4-8.8l8-24.4h8
			L1159.8,59.2z"/>
		<path class="st0" d="M1179.2,59.2V16.7h22.2v6.9h-14.3V34h13.6v6.7h-13.6v11.5h14.3v7H1179.2z"/>
		<path class="st0" d="M1229.2,59.2L1218,41.6h-0.3v17.6h-7.8V16.7c3.2-0.2,6.9-0.3,11.6-0.3c8.9,0,14.7,3.3,14.7,12
			c0,6.3-4.2,10.8-10.3,11.9c1.1,1.6,2.3,3.2,3.3,4.7l9.7,14.3H1229.2z M1220.7,23.1c-1.1,0-2.3,0.1-3.1,0.2v12.3
			c0.5,0.1,1.6,0.1,2.8,0.1c4.7,0,7.5-2.5,7.5-6.5C1228,25.1,1225.6,23.1,1220.7,23.1z"/>
		<path class="st0" d="M1252,59.9c-2.9,0-5.7-0.3-8.3-1l0.5-7.6c2.3,0.8,5.5,1.5,8.4,1.5c4,0,7-1.7,7-5.6c0-8.1-17-4.4-17-18.4
			c0-7.6,5.7-12.8,15.4-12.8c2.3,0,4.9,0.3,7.3,0.8l-0.4,7.2c-2.3-0.7-4.8-1.1-7.2-1.1c-4.5,0-6.8,2.1-6.8,5.2c0,7.6,17,4.8,17,18.1
			C1268,54.1,1262,59.9,1252,59.9z"/>
		<path class="st0" d="M1274.3,59.2V16.7h7.8v42.6H1274.3z"/>
		<path class="st0" d="M1305.7,23.7v35.6h-7.8V23.7h-10.5v-7h28.8v7H1305.7z"/>
		<path class="st0" d="M1322.3,59.2V16.7h23.1v6.9h-14.9V34h14.2v6.7h-14.2v11.5h14.9v7H1322.3z M1331,13.9l-2.8-4.6l11-6.9l3.3,5.5
			L1331,13.9z"/>
		<path class="st0" d="M1053.3,127.4c-4.4,0-8.3-0.2-11.9-0.3V84.6c3.3-0.1,8.5-0.3,13.7-0.3c13.2,0,21.6,5.9,21.6,20.8
			C1076.8,119.8,1067.2,127.4,1053.3,127.4z M1054.7,91.2c-1.9,0-3.7,0.1-5,0.2v28.7c1.1,0.2,2.8,0.3,4.5,0.3
			c8,0,13.8-4.5,13.8-14.6C1068,96.6,1064.4,91.2,1054.7,91.2z"/>
		<path class="st0" d="M1082.3,127.1V84.6h23.1v6.9h-14.9v10.5h14.2v6.7h-14.2v11.5h14.9v7H1082.3z"/>
		<path class="st0" d="M1164.2,93.4c-3.4-1.3-7.3-2.1-11.3-2.1c-8.4,0-14.4,5.3-14.4,14.8c0,9,4.9,14.3,13.6,14.3
			c2,0,3.8-0.3,5.4-0.8v-14.8h8.2v20.3c-4.2,1.7-9.5,2.6-14.6,2.6c-13.5,0-21.5-7.9-21.5-20.9c0-13.4,9.1-22.9,23.8-22.9
			c4.2,0,8.4,0.8,12,1.8L1164.2,93.4z"/>
		<path class="st0" d="M1174.3,127.1V84.6h23.1v6.9h-14.9v10.5h14.2v6.7h-14.2v11.5h14.9v7H1174.3z"/>
		<path class="st0" d="M1230.8,127.1c0,0-16.1-27.9-17.3-30.6c0.3,3.7,0.4,10.3,0.4,15.4v15.2h-7.9V84.6h10.4
			c0,0,15.7,27.1,17.3,30.3c-0.3-4.3-0.4-11.9-0.4-17.1V84.6h7.9v42.6H1230.8z"/>
		<path class="st0" d="M1249.7,127.1V84.6h23.1v6.9h-14.9v10.5h14.2v6.7h-14.2v11.5h14.9v7H1249.7z M1263.8,81.9l-11.6-6l3.5-5.6
			l11,6.9L1263.8,81.9z"/>
		<path class="st0" d="M1302.2,127.1h-9.5l-14.8-42.6h9l8.3,24.9c0.8,2.4,1.8,5.2,2.5,8.3h0.1c0.6-2.9,1.3-5.2,2.5-8.8l8.4-24.4h8.4
			L1302.2,127.1z"/>
		<path class="st0" d="M1322.4,127.1V84.6h23.1v6.9h-14.9v10.5h14.2v6.7h-14.2v11.5h14.9v7H1322.4z"/>
	</g>
</g>
</svg>
