<svg width="300" height="300" viewBox="0 0 300 300" fill="none" xmlns="http://www.w3.org/2000/svg" style="">
<path d="M101.5 185C138.779 185 169 154.555 169 117C169 79.4446 138.779 49 101.5 49C64.2208 49 34 79.4446 34 117C34 154.555 64.2208 185 101.5 185Z" stroke="black" stroke-width="5" stroke-linecap="round" stroke-linejoin="round" class="tTZudbGd_0"></path>
<path d="M54.1942 124C53.5933 117.006 54.3903 109.962 56.5376 103.287C58.6849 96.6128 62.1383 90.4457 66.6914 85.1546C74.6406 76.3721 85.3545 70.6616 97 69" stroke="black" stroke-width="5" stroke-linecap="round" stroke-linejoin="round" class="tTZudbGd_1"></path>
<path d="M179.115 160.711C173.582 157.433 169.357 152.33 167.161 146.274C167.161 146.014 167.161 145.717 166.865 145.42C166.176 143.32 165.632 141.175 165.237 139C160.067 153.789 150.132 166.429 137 174.925C139.401 174.723 141.815 174.723 144.217 174.925V174.925C150.438 175.527 156.253 178.298 160.648 182.756C172.453 194.817 185.517 207.25 199.876 219.868C211.386 229.926 222.71 239.167 233.664 247.591C237.554 250.68 242.435 252.237 247.39 251.971C252.344 251.704 257.031 249.632 260.569 246.144C261.089 245.622 261.571 245.064 262.012 244.474C262.452 243.916 262.86 243.334 263.233 242.729C265.708 238.474 266.562 233.464 265.636 228.627C264.711 223.789 262.069 219.452 258.2 216.417C247.32 207.534 235.564 198.578 222.932 189.547C207.944 178.822 193.178 169.21 179.115 160.711Z" stroke="black" stroke-width="5" stroke-linecap="round" stroke-linejoin="round" class="tTZudbGd_2"></path>
<style data-made-with="vivus-instant">.tTZudbGd_0{stroke-dasharray:426 428;stroke-dashoffset:427;animation:tTZudbGd_draw 1333ms ease-out 0ms forwards;}.tTZudbGd_1{stroke-dasharray:77 79;stroke-dashoffset:78;animation:tTZudbGd_draw 1333ms ease-out 333ms forwards;}.tTZudbGd_2{stroke-dasharray:357 359;stroke-dashoffset:358;animation:tTZudbGd_draw 1333ms ease-out 666ms forwards;}@keyframes tTZudbGd_draw{100%{stroke-dashoffset:0;}}@keyframes tTZudbGd_fade{0%{stroke-opacity:1;}93.54838709677419%{stroke-opacity:1;}100%{stroke-opacity:0;}}</style></svg>
