<svg width="300" height="300" viewBox="0 0 300 300" fill="none" xmlns="http://www.w3.org/2000/svg" style="">
<path d="M110.503 180.669H174.382" stroke="#1D1D1B" stroke-width="3.5" stroke-linecap="round" stroke-linejoin="round" class="ASUBoIVC_0"></path>
<path d="M117.347 202.125H168.679" stroke="#1D1D1B" stroke-width="3.5" stroke-linecap="round" stroke-linejoin="round" class="ASUBoIVC_1"></path>
<path d="M192.61 237.13H93.4158C92.2288 237.155 91.0802 236.704 90.2209 235.875C89.3615 235.045 88.8612 233.906 88.8292 232.704V75.5601C88.8612 74.3587 89.3615 73.2189 90.2209 72.3897C91.0802 71.5604 92.2288 71.109 93.4158 71.1339H192.61C193.797 71.109 194.945 71.5604 195.805 72.3897C196.664 73.2189 197.164 74.3587 197.196 75.5601V232.859C197.125 234.033 196.608 235.134 195.753 235.93C194.898 236.726 193.771 237.157 192.61 237.13V237.13Z" stroke="#1D1D1B" stroke-width="3.5" stroke-linecap="round" stroke-linejoin="round" class="ASUBoIVC_2"></path>
<path d="M205.815 42.9019H80.2104C76.7805 42.9019 74 45.6835 74 49.1147V258.02C74 261.452 76.7805 264.233 80.2104 264.233H205.815C209.245 264.233 212.025 261.452 212.025 258.02V49.1147C212.025 45.6835 209.245 42.9019 205.815 42.9019Z" stroke="#1D1D1B" stroke-width="3.5" stroke-linecap="round" stroke-linejoin="round" class="ASUBoIVC_3"></path>
<path d="M142.442 252.941C144.332 252.941 145.864 251.424 145.864 249.553C145.864 247.682 144.332 246.165 142.442 246.165C140.552 246.165 139.02 247.682 139.02 249.553C139.02 251.424 140.552 252.941 142.442 252.941Z" fill="#1D1D1B" stroke="#1D1D1B" stroke-width="3.5" stroke-linecap="round" stroke-linejoin="round" class="ASUBoIVC_4"></path>
<path d="M92.8216 57.5825C93.7666 57.5825 94.5327 56.824 94.5327 55.8884C94.5327 54.9528 93.7666 54.1943 92.8216 54.1943C91.8767 54.1943 91.1106 54.9528 91.1106 55.8884C91.1106 56.824 91.8767 57.5825 92.8216 57.5825Z" fill="#1D1D1B" stroke="#1D1D1B" stroke-width="3.5" stroke-linecap="round" stroke-linejoin="round" class="ASUBoIVC_5"></path>
<path d="M128.362 117.329C128.41 115.184 129.028 113.096 130.145 111.304C131.499 109.169 133.352 107.44 135.524 106.282C138.011 104.895 140.794 104.204 143.606 104.273C146.217 104.225 148.806 104.793 151.183 105.937C153.226 106.943 154.972 108.516 156.235 110.488C157.411 112.344 158.033 114.531 158.018 116.764C158.057 118.378 157.709 119.976 157.007 121.409C156.364 122.675 155.554 123.837 154.6 124.862C153.65 125.834 151.956 127.466 149.549 129.758C148.97 130.274 148.433 130.841 147.944 131.452C147.584 131.859 147.274 132.312 147.023 132.802C146.849 133.188 146.7 133.587 146.577 133.994C146.577 134.402 146.31 135.124 146.102 136.129C146.012 137.033 145.593 137.866 144.933 138.451C144.274 139.036 143.425 139.329 142.566 139.267C142.09 139.279 141.616 139.191 141.172 139.008C140.728 138.824 140.323 138.55 139.981 138.2C139.615 137.779 139.333 137.284 139.155 136.744C138.976 136.204 138.903 135.632 138.941 135.061C138.854 132.14 139.857 129.3 141.734 127.153C142.822 125.936 143.973 124.784 145.181 123.7L147.915 121.064C148.48 120.479 148.952 119.8 149.311 119.055C149.701 118.34 149.906 117.528 149.905 116.702C149.916 115.909 149.765 115.123 149.463 114.397C149.16 113.672 148.713 113.023 148.152 112.496C146.859 111.331 145.181 110.756 143.487 110.896C142.62 110.813 141.745 110.924 140.921 111.221C140.097 111.519 139.341 111.996 138.703 112.622C137.494 114.109 136.602 115.854 136.088 117.737C135.434 120.091 134.157 121.252 132.285 121.252C131.777 121.244 131.277 121.129 130.813 120.913C130.348 120.698 129.929 120.386 129.581 119.997C129.22 119.66 128.926 119.251 128.717 118.793C128.508 118.335 128.387 117.837 128.362 117.329V117.329Z" stroke="#1D1D1B" stroke-width="3.5" stroke-linecap="round" stroke-linejoin="round" class="ASUBoIVC_6"></path>
<path d="M143.294 153.954C142.093 153.97 140.928 153.54 140.024 152.748C139.554 152.32 139.186 151.793 138.946 151.204C138.705 150.616 138.599 149.981 138.635 149.346C138.643 148.765 138.768 148.192 139.001 147.661C139.234 147.13 139.571 146.651 139.993 146.253C140.424 145.818 140.939 145.476 141.507 145.247C142.074 145.018 142.682 144.908 143.294 144.923C144.199 144.961 145.073 145.263 145.809 145.792C146.546 146.321 147.112 147.054 147.439 147.901C147.767 148.748 147.841 149.672 147.652 150.56C147.464 151.449 147.021 152.263 146.379 152.903C145.505 153.605 144.413 153.977 143.294 153.954V153.954Z" stroke="#1D1D1B" stroke-width="3.5" stroke-linecap="round" stroke-linejoin="round" class="ASUBoIVC_7"></path>
<path d="M194 40.8894L214 60.8894L214 83.8894L172 40.8895L194 40.8894Z" fill="#C5202E" class="ASUBoIVC_8"></path>
<path d="M195.249 50.4911C195.086 50.6468 194.902 50.7808 194.697 50.893C194.498 51.0115 194.284 51.0901 194.055 51.1288C193.833 51.1615 193.596 51.1543 193.344 51.1073C193.099 51.0542 192.848 50.9461 192.592 50.7831L192.536 50.837C192.686 51.0531 192.805 51.2808 192.893 51.5202C192.982 51.7595 193.021 52.0041 193.01 52.254C192.999 52.5038 192.934 52.7527 192.812 53.0006C192.697 53.2547 192.511 53.5045 192.254 53.7501C191.916 54.0735 191.552 54.2836 191.162 54.3805C190.778 54.4714 190.39 54.4707 189.998 54.3785C189.611 54.2924 189.232 54.1334 188.86 53.9012C188.488 53.6691 188.145 53.3918 187.831 53.0692C187.728 52.9637 187.595 52.8272 187.431 52.6597C187.274 52.4984 187.108 52.3156 186.933 52.1113C186.757 51.9192 186.582 51.7149 186.407 51.4984C186.239 51.2881 186.094 51.0844 185.974 50.8872L192.458 44.6887C192.592 44.7886 192.741 44.904 192.905 45.035C193.075 45.1721 193.251 45.3215 193.433 45.4832C193.615 45.645 193.797 45.8128 193.979 45.9867C194.167 46.1668 194.348 46.3469 194.524 46.5268C194.82 46.8308 195.083 47.1494 195.311 47.4827C195.551 47.8162 195.721 48.1515 195.82 48.4886C195.925 48.8319 195.937 49.1737 195.858 49.5138C195.778 49.8539 195.575 50.1796 195.249 50.4911ZM188.902 52.0634C189.053 52.2185 189.217 52.3494 189.394 52.4561C189.576 52.5691 189.76 52.6455 189.944 52.6853C190.134 52.7191 190.322 52.7132 190.508 52.6677C190.694 52.6221 190.868 52.5215 191.031 52.3658C191.237 52.1682 191.361 51.9721 191.401 51.7777C191.442 51.5832 191.43 51.3909 191.365 51.2008C191.307 51.0046 191.209 50.8169 191.07 50.6376C190.932 50.4584 190.784 50.2881 190.626 50.1268L189.964 49.4475L188.15 51.1812C188.168 51.2242 188.207 51.2829 188.267 51.3571C188.327 51.4313 188.391 51.5087 188.457 51.5891C188.536 51.6697 188.611 51.7534 188.684 51.84C188.768 51.9269 188.841 52.0013 188.902 52.0634ZM191.34 48.9227C191.425 49.0095 191.525 49.1058 191.64 49.2115C191.761 49.3234 191.865 49.4105 191.95 49.473C192.255 49.6369 192.564 49.7307 192.878 49.7545C193.198 49.7844 193.48 49.6827 193.724 49.4491C193.887 49.2934 193.992 49.1336 194.038 48.9698C194.084 48.8059 194.086 48.6413 194.046 48.476C194.012 48.3168 193.944 48.1601 193.842 48.0059C193.74 47.8516 193.619 47.7032 193.48 47.5605C193.323 47.3992 193.174 47.2533 193.035 47.1228C192.895 46.9923 192.783 46.8958 192.698 46.8334L190.941 48.5132L191.34 48.9227ZM197.869 50.1418L201.636 54.0037L200.489 55.0996L197.966 52.5126L196.434 53.9769L198.731 56.3312L197.584 57.4272L195.288 55.0729L193.681 56.609L196.25 59.2425L195.103 60.3385L191.291 56.4301L197.869 50.1418ZM205.976 60.7246L204.125 58.8262L198.693 64.0185L197.45 62.7436L202.881 57.5513L201.02 55.6436L202.166 54.5477L207.123 59.6286L205.976 60.7246ZM205.072 67.672L203.12 65.6713L201.183 66.5705L199.939 65.2956L208.851 61.3074L209.768 62.2473L205.431 70.9255L204.124 69.5855L205.072 67.672ZM204.472 65.0088L205.833 66.4047L206.827 64.5194L207.67 63.3358L207.625 63.2893L206.391 64.091L204.472 65.0088Z" fill="white" class="ASUBoIVC_9"></path>
<style data-made-with="vivus-instant">.ASUBoIVC_0{stroke-dasharray:64 66;stroke-dashoffset:65;animation:ASUBoIVC_draw 1333ms linear 0ms forwards;}.ASUBoIVC_1{stroke-dasharray:52 54;stroke-dashoffset:53;animation:ASUBoIVC_draw 1333ms linear 74ms forwards;}.ASUBoIVC_2{stroke-dasharray:541 543;stroke-dashoffset:542;animation:ASUBoIVC_draw 1333ms linear 148ms forwards;}.ASUBoIVC_3{stroke-dasharray:709 711;stroke-dashoffset:710;animation:ASUBoIVC_draw 1333ms linear 222ms forwards;}.ASUBoIVC_4{stroke-dasharray:22 24;stroke-dashoffset:23;animation:ASUBoIVC_draw 1333ms linear 296ms forwards;}.ASUBoIVC_5{stroke-dasharray:11 13;stroke-dashoffset:12;animation:ASUBoIVC_draw 1333ms linear 370ms forwards;}.ASUBoIVC_6{stroke-dasharray:134 136;stroke-dashoffset:135;animation:ASUBoIVC_draw 1333ms linear 444ms forwards;}.ASUBoIVC_7{stroke-dasharray:29 31;stroke-dashoffset:30;animation:ASUBoIVC_draw 1333ms linear 518ms forwards;}.ASUBoIVC_8{stroke-dasharray:134 136;stroke-dashoffset:135;animation:ASUBoIVC_draw 1333ms linear 592ms forwards;}.ASUBoIVC_9{stroke-dasharray:166 168;stroke-dashoffset:167;animation:ASUBoIVC_draw 1333ms linear 666ms forwards;}@keyframes ASUBoIVC_draw{100%{stroke-dashoffset:0;}}@keyframes ASUBoIVC_fade{0%{stroke-opacity:1;}93.54838709677419%{stroke-opacity:1;}100%{stroke-opacity:0;}}</style></svg>
