<svg width="300" height="300" viewBox="0 0 300 300" fill="none" xmlns="http://www.w3.org/2000/svg" style="">
<path d="M50.8329 254.395C49.2946 254.386 47.8214 253.774 46.7304 252.689C45.6395 251.605 45.0181 250.135 45 248.597V114.338C45 112.791 45.6145 111.307 46.7084 110.213C47.8023 109.119 49.2859 108.505 50.8329 108.505H59.91" stroke="black" stroke-width="5" stroke-linecap="round" stroke-linejoin="round" class="lvmldrdG_0"></path>
<path d="M218.225 108.505H221.677C222.446 108.5 223.208 108.648 223.92 108.939C224.631 109.23 225.278 109.659 225.824 110.201C226.369 110.743 226.802 111.388 227.097 112.098C227.392 112.808 227.544 113.569 227.544 114.338V144.365" stroke="black" stroke-width="5" stroke-linecap="round" stroke-linejoin="round" class="lvmldrdG_1"></path>
<path d="M217.432 143.536V51.8674C217.432 50.3112 216.813 48.8189 215.713 47.7185C214.613 46.6182 213.12 46 211.564 46H88.4875C87.717 46 86.954 46.1518 86.2421 46.4466C85.5303 46.7415 84.8835 47.1737 84.3386 47.7185C83.7938 48.2634 83.3616 48.9102 83.0667 49.622C82.7719 50.3339 82.6201 51.0969 82.6201 51.8674V150.646" stroke="black" stroke-width="5" stroke-linecap="round" stroke-linejoin="round" class="lvmldrdG_2"></path>
<path d="M71.472 179.569V57.1823C71.472 56.4134 71.624 55.6521 71.9193 54.9421C72.2145 54.2322 72.6473 53.5876 73.1926 53.0456C73.7379 52.5035 74.385 52.0745 75.0966 51.7835C75.8083 51.4924 76.5705 51.3449 77.3393 51.3494H82.2403" stroke="black" stroke-width="5" stroke-linecap="round" stroke-linejoin="round" class="lvmldrdG_3"></path>
<path d="M60.4621 207.491V63.5676C60.4575 62.7987 60.605 62.0365 60.8961 61.3249C61.1872 60.6132 61.6161 59.9661 62.1582 59.4208C62.7003 58.8756 63.3449 58.4428 64.0548 58.1475C64.7647 57.8522 65.526 57.7002 66.2949 57.7003H71.1269" stroke="black" stroke-width="5" stroke-linecap="round" stroke-linejoin="round" class="lvmldrdG_4"></path>
<path d="M211.564 254.395H50.8329C49.2946 254.386 47.8214 253.773 46.7304 252.689C45.6395 251.604 45.0181 250.135 45 248.596L82.9653 150.301C83.3064 148.698 84.1687 147.253 85.4174 146.191C86.6661 145.13 88.2311 144.512 89.8681 144.433H249.529C250.544 144.391 251.553 144.604 252.463 145.055C253.549 145.793 254.351 146.878 254.74 148.132C255.129 149.386 255.08 150.735 254.603 151.957L217.949 248.596C217.627 250.11 216.837 251.484 215.691 252.524C214.545 253.565 213.102 254.219 211.564 254.395V254.395Z" stroke="black" stroke-width="5" stroke-linecap="round" stroke-linejoin="round" class="lvmldrdG_5"></path>
<path d="M103.984 71.0573H147.506" stroke="black" stroke-width="5" stroke-linecap="round" stroke-linejoin="round" class="lvmldrdG_6"></path>
<path d="M103.984 99.4966H192.202" stroke="black" stroke-width="5" stroke-linecap="round" stroke-linejoin="round" class="lvmldrdG_7"></path>
<path d="M103.984 124.451H192.202" stroke="black" stroke-width="5" stroke-linecap="round" stroke-linejoin="round" class="lvmldrdG_8"></path>
<style data-made-with="vivus-instant">.lvmldrdG_0{stroke-dasharray:162 164;stroke-dashoffset:163;animation:lvmldrdG_draw 1333ms ease-out 0ms forwards;}.lvmldrdG_1{stroke-dasharray:43 45;stroke-dashoffset:44;animation:lvmldrdG_draw 1333ms ease-out 83ms forwards;}.lvmldrdG_2{stroke-dasharray:332 334;stroke-dashoffset:333;animation:lvmldrdG_draw 1333ms ease-out 166ms forwards;}.lvmldrdG_3{stroke-dasharray:137 139;stroke-dashoffset:138;animation:lvmldrdG_draw 1333ms ease-out 250ms forwards;}.lvmldrdG_4{stroke-dasharray:158 160;stroke-dashoffset:159;animation:lvmldrdG_draw 1333ms ease-out 333ms forwards;}.lvmldrdG_5{stroke-dasharray:569 571;stroke-dashoffset:570;animation:lvmldrdG_draw 1333ms ease-out 416ms forwards;}.lvmldrdG_6{stroke-dasharray:44 46;stroke-dashoffset:45;animation:lvmldrdG_draw 1333ms ease-out 500ms forwards;}.lvmldrdG_7{stroke-dasharray:89 91;stroke-dashoffset:90;animation:lvmldrdG_draw 1333ms ease-out 583ms forwards;}.lvmldrdG_8{stroke-dasharray:89 91;stroke-dashoffset:90;animation:lvmldrdG_draw 1333ms ease-out 666ms forwards;}@keyframes lvmldrdG_draw{100%{stroke-dashoffset:0;}}@keyframes lvmldrdG_fade{0%{stroke-opacity:1;}93.54838709677419%{stroke-opacity:1;}100%{stroke-opacity:0;}}</style></svg>
