<svg width="300" height="300" viewBox="0 0 300 300" fill="none" xmlns="http://www.w3.org/2000/svg" style="">
<path d="M116.93 179.617H182.525" stroke="#1D1D1B" stroke-width="4" stroke-linecap="round" stroke-linejoin="round" class="UYodXbwg_0"></path>
<path d="M122.967 200.084H176.488" stroke="#1D1D1B" stroke-width="4" stroke-linecap="round" stroke-linejoin="round" class="UYodXbwg_1"></path>
<path d="M202.087 236.561H97.3683C96.1152 236.587 94.9026 236.116 93.9954 235.251C93.0882 234.386 92.5601 233.197 92.5262 231.945V68.0553C92.5601 66.8024 93.0882 65.6137 93.9954 64.7488C94.9026 63.884 96.1152 63.4132 97.3683 63.4392H202.087C203.34 63.4132 204.553 63.884 205.46 64.7488C206.367 65.6137 206.895 66.8024 206.929 68.0553V232.106C206.854 233.33 206.308 234.478 205.405 235.309C204.503 236.139 203.313 236.588 202.087 236.561V236.561Z" stroke="#1D1D1B" stroke-width="4" stroke-linecap="round" stroke-linejoin="round" class="UYodXbwg_2"></path>
<path d="M215.032 35H84.4561C80.8905 35 78 37.8905 78 41.4561V258.544C78 262.109 80.8905 265 84.4561 265H215.032C218.597 265 221.488 262.109 221.488 258.544V41.4561C221.488 37.8905 218.597 35 215.032 35Z" stroke="#1D1D1B" stroke-width="4" stroke-linecap="round" stroke-linejoin="round" class="UYodXbwg_3"></path>
<path d="M149.728 254.929C152.188 254.929 154.183 252.935 154.183 250.474C154.183 248.014 152.188 246.02 149.728 246.02C147.268 246.02 145.273 248.014 145.273 250.474C145.273 252.935 147.268 254.929 149.728 254.929Z" fill="#1D1D1B" stroke="#1D1D1B" stroke-width="4" stroke-linecap="round" stroke-linejoin="round" class="UYodXbwg_4"></path>
<path d="M96.5612 51.6247C97.8804 51.6247 98.9499 50.5552 98.9499 49.2359C98.9499 47.9166 97.8804 46.8471 96.5612 46.8471C95.2419 46.8471 94.1724 47.9166 94.1724 49.2359C94.1724 50.5552 95.2419 51.6247 96.5612 51.6247Z" fill="#1D1D1B" stroke="#1D1D1B" stroke-width="4" stroke-linecap="round" stroke-linejoin="round" class="UYodXbwg_5"></path>
<path d="M133.684 112.829C133.736 110.622 134.407 108.475 135.621 106.631C137.092 104.436 139.104 102.657 141.464 101.466C144.166 100.04 147.189 99.3286 150.244 99.4001C153.081 99.3501 155.893 99.9346 158.475 101.111C160.695 102.146 162.591 103.763 163.963 105.792C165.241 107.701 165.916 109.95 165.9 112.248C165.943 113.907 165.565 115.551 164.803 117.025C164.104 118.327 163.223 119.523 162.188 120.576C161.155 121.577 159.315 123.256 156.7 125.612C156.071 126.143 155.488 126.726 154.957 127.355C154.565 127.773 154.229 128.24 153.956 128.743C153.767 129.141 153.605 129.551 153.472 129.97C153.472 130.39 153.181 131.132 152.955 132.165C152.857 133.096 152.402 133.952 151.686 134.554C150.97 135.156 150.048 135.457 149.114 135.393C148.597 135.405 148.082 135.315 147.6 135.126C147.118 134.938 146.678 134.655 146.306 134.296C145.908 133.863 145.602 133.353 145.408 132.798C145.214 132.243 145.135 131.654 145.176 131.067C145.081 128.063 146.171 125.141 148.21 122.933C149.393 121.682 150.643 120.496 151.955 119.382L154.925 116.67C155.539 116.068 156.051 115.371 156.442 114.604C156.866 113.868 157.088 113.033 157.087 112.183C157.099 111.368 156.935 110.559 156.606 109.813C156.278 109.067 155.792 108.4 155.183 107.858C153.778 106.66 151.955 106.067 150.115 106.211C149.172 106.126 148.223 106.24 147.327 106.546C146.432 106.852 145.611 107.343 144.918 107.987C143.604 109.516 142.635 111.311 142.077 113.249C141.367 115.67 139.979 116.864 137.945 116.864C137.394 116.856 136.85 116.737 136.346 116.515C135.841 116.293 135.386 115.973 135.007 115.573C134.616 115.226 134.297 114.805 134.07 114.334C133.842 113.863 133.711 113.351 133.684 112.829V112.829Z" stroke="#1D1D1B" stroke-width="4" stroke-linecap="round" stroke-linejoin="round" class="UYodXbwg_6"></path>
<path d="M149.34 151.114C148.083 151.13 146.865 150.682 145.918 149.855C145.427 149.408 145.041 148.858 144.79 148.244C144.539 147.629 144.428 146.967 144.466 146.304C144.474 145.698 144.604 145.1 144.848 144.546C145.092 143.991 145.445 143.491 145.886 143.076C146.337 142.622 146.876 142.265 147.47 142.026C148.064 141.788 148.7 141.672 149.34 141.688C150.287 141.728 151.202 142.043 151.972 142.595C152.743 143.148 153.336 143.912 153.678 144.796C154.021 145.68 154.098 146.644 153.901 147.571C153.704 148.499 153.241 149.348 152.568 150.016C151.654 150.749 150.511 151.137 149.34 151.114V151.114Z" stroke="#1D1D1B" stroke-width="4" stroke-linecap="round" stroke-linejoin="round" class="UYodXbwg_7"></path>
<style data-made-with="vivus-instant">.UYodXbwg_0{stroke-dasharray:66 68;stroke-dashoffset:67;animation:UYodXbwg_draw 1333ms linear 0ms forwards;}.UYodXbwg_1{stroke-dasharray:54 56;stroke-dashoffset:55;animation:UYodXbwg_draw 1333ms linear 95ms forwards;}.UYodXbwg_2{stroke-dasharray:567 569;stroke-dashoffset:568;animation:UYodXbwg_draw 1333ms linear 190ms forwards;}.UYodXbwg_3{stroke-dasharray:736 738;stroke-dashoffset:737;animation:UYodXbwg_draw 1333ms linear 285ms forwards;}.UYodXbwg_4{stroke-dasharray:28 30;stroke-dashoffset:29;animation:UYodXbwg_draw 1333ms linear 380ms forwards;}.UYodXbwg_5{stroke-dasharray:16 18;stroke-dashoffset:17;animation:UYodXbwg_draw 1333ms linear 476ms forwards;}.UYodXbwg_6{stroke-dasharray:141 143;stroke-dashoffset:142;animation:UYodXbwg_draw 1333ms linear 571ms forwards;}.UYodXbwg_7{stroke-dasharray:30 32;stroke-dashoffset:31;animation:UYodXbwg_draw 1333ms linear 666ms forwards;}@keyframes UYodXbwg_draw{100%{stroke-dashoffset:0;}}@keyframes UYodXbwg_fade{0%{stroke-opacity:1;}93.54838709677419%{stroke-opacity:1;}100%{stroke-opacity:0;}}</style></svg>
