<svg width="300" height="300" viewBox="0 0 300 300" fill="none" xmlns="http://www.w3.org/2000/svg" style="">
<path d="M260.522 47H39.4778C37.0048 47 35 49.0048 35 51.4778V221.028C35 223.501 37.0048 225.506 39.4778 225.506H260.522C262.995 225.506 265 223.501 265 221.028V51.4778C265 49.0048 262.995 47 260.522 47Z" stroke="#1D1D1B" stroke-width="4" stroke-linecap="round" stroke-linejoin="round" class="oBGkMNRM_0"></path>
<path d="M99.6143 186.057H200.409" stroke="#1D1D1B" stroke-width="4" stroke-linecap="round" stroke-linejoin="round" class="oBGkMNRM_1"></path>
<path d="M72.7921 168.996H227.208" stroke="#1D1D1B" stroke-width="4" stroke-linecap="round" stroke-linejoin="round" class="oBGkMNRM_2"></path>
<path d="M116.473 252.439H183.64C183.619 247.21 182.377 242.058 180.014 237.394C177.651 232.729 174.231 228.681 170.027 225.572H130.063C125.863 228.684 122.448 232.733 120.089 237.397C117.729 242.061 116.491 247.212 116.473 252.439Z" stroke="#1D1D1B" stroke-width="4" stroke-linecap="round" stroke-linejoin="round" class="oBGkMNRM_3"></path>
<path d="M250.873 58.9102H49.1498C47.9133 58.9102 46.9109 59.9125 46.9109 61.149V211.378C46.9109 212.614 47.9133 213.617 49.1498 213.617H250.873C252.109 213.617 253.111 212.614 253.111 211.378V61.149C253.111 59.9125 252.109 58.9102 250.873 58.9102Z" stroke="#1D1D1B" stroke-width="4" stroke-linecap="round" stroke-linejoin="round" class="oBGkMNRM_4"></path>
<path d="M137.428 100.24C137.527 97.8351 138.303 95.507 139.667 93.5235C141.23 91.1459 143.372 89.2045 145.891 87.8815C148.835 86.333 152.126 85.5623 155.451 85.6427C158.541 85.5744 161.605 86.2179 164.407 87.5233C166.842 88.6237 168.921 90.3843 170.407 92.6056C171.835 94.6575 172.615 97.0909 172.646 99.5909C172.618 101.44 172.117 103.252 171.19 104.852C170.431 106.27 169.465 107.568 168.325 108.703C167.205 109.8 165.213 111.614 162.347 114.188C161.679 114.788 161.044 115.424 160.444 116.091C160.032 116.546 159.679 117.05 159.391 117.591C159.151 118.02 158.97 118.48 158.854 118.957C158.72 119.405 158.518 120.211 158.272 121.353C158.241 121.867 158.108 122.369 157.881 122.832C157.654 123.294 157.338 123.707 156.951 124.046C156.564 124.385 156.113 124.645 155.625 124.809C155.137 124.973 154.621 125.039 154.108 125.002C152.969 125.026 151.867 124.6 151.04 123.816C150.602 123.343 150.265 122.785 150.053 122.176C149.841 121.567 149.758 120.921 149.809 120.278C149.766 118.541 150.071 116.813 150.705 115.196C151.293 113.808 152.11 112.529 153.123 111.412C154.13 110.337 155.473 109.173 157.175 107.561C158.877 105.949 159.75 105.322 160.421 104.606C161.07 103.93 161.634 103.179 162.101 102.367C162.547 101.55 162.778 100.634 162.772 99.7028C162.783 98.8123 162.603 97.9297 162.244 97.1147C161.885 96.2998 161.355 95.5714 160.69 94.9788C159.219 93.6779 157.301 92.9961 155.339 93.0757C154.313 92.984 153.279 93.1079 152.303 93.4395C151.328 93.7711 150.432 94.303 149.675 95.0012C148.252 96.6639 147.199 98.6099 146.585 100.71C145.794 103.352 144.301 104.673 142.107 104.673C141.489 104.683 140.876 104.565 140.305 104.326C139.735 104.087 139.22 103.733 138.794 103.285C138.37 102.898 138.029 102.428 137.794 101.905C137.56 101.381 137.435 100.814 137.428 100.24V100.24Z" stroke="#1D1D1B" stroke-width="4" stroke-linecap="round" stroke-linejoin="round" class="oBGkMNRM_5"></path>
<path d="M154.489 141.951C153.135 141.997 151.812 141.543 150.772 140.675C150.233 140.191 149.81 139.591 149.534 138.92C149.259 138.25 149.139 137.525 149.183 136.802C149.171 136.115 149.3 135.433 149.562 134.797C149.824 134.162 150.213 133.587 150.705 133.108C151.202 132.616 151.794 132.229 152.444 131.972C153.094 131.714 153.79 131.59 154.489 131.608C155.178 131.59 155.863 131.714 156.503 131.972C157.142 132.23 157.721 132.617 158.205 133.108C158.69 133.591 159.073 134.167 159.331 134.802C159.589 135.437 159.716 136.117 159.705 136.802C159.739 137.519 159.616 138.235 159.346 138.9C159.075 139.565 158.663 140.163 158.138 140.653C157.128 141.528 155.825 141.991 154.489 141.951V141.951Z" stroke="#1D1D1B" stroke-width="4" stroke-linecap="round" stroke-linejoin="round" class="oBGkMNRM_6"></path>
<style data-made-with="vivus-instant">.oBGkMNRM_0{stroke-dasharray:810 812;stroke-dashoffset:811;animation:oBGkMNRM_draw 1333ms linear 0ms forwards;}.oBGkMNRM_1{stroke-dasharray:101 103;stroke-dashoffset:102;animation:oBGkMNRM_draw 1333ms linear 111ms forwards;}.oBGkMNRM_2{stroke-dasharray:155 157;stroke-dashoffset:156;animation:oBGkMNRM_draw 1333ms linear 222ms forwards;}.oBGkMNRM_3{stroke-dasharray:170 172;stroke-dashoffset:171;animation:oBGkMNRM_draw 1333ms linear 333ms forwards;}.oBGkMNRM_4{stroke-dasharray:718 720;stroke-dashoffset:719;animation:oBGkMNRM_draw 1333ms linear 444ms forwards;}.oBGkMNRM_5{stroke-dasharray:154 156;stroke-dashoffset:155;animation:oBGkMNRM_draw 1333ms linear 555ms forwards;}.oBGkMNRM_6{stroke-dasharray:34 36;stroke-dashoffset:35;animation:oBGkMNRM_draw 1333ms linear 666ms forwards;}@keyframes oBGkMNRM_draw{100%{stroke-dashoffset:0;}}@keyframes oBGkMNRM_fade{0%{stroke-opacity:1;}93.54838709677419%{stroke-opacity:1;}100%{stroke-opacity:0;}}</style></svg>
