<svg width="300" height="300" viewBox="0 0 300 300" fill="none" xmlns="http://www.w3.org/2000/svg" style="">
<path d="M142.115 206.739C167.867 206.739 188.742 185.864 188.742 160.112C188.742 134.361 167.867 113.485 142.115 113.485C116.364 113.485 95.4882 134.361 95.4882 160.112C95.4882 185.864 116.364 206.739 142.115 206.739Z" stroke="black" stroke-width="5" stroke-linecap="round" stroke-linejoin="round" class="UfduGnGe_0"></path>
<path d="M195.881 190.289C192.11 188.08 189.212 184.644 187.672 180.555L187.477 179.873C186.978 178.436 186.598 176.96 186.341 175.46C182.787 185.615 175.933 194.286 166.873 200.088C168.524 199.944 170.185 199.944 171.837 200.088V200.088C176.11 200.525 180.1 202.428 183.129 205.474C191.241 213.748 200.229 222.282 210.093 230.881C218.01 237.792 225.797 244.119 233.325 249.895C236 252.012 239.357 253.078 242.763 252.893C246.169 252.708 249.391 251.284 251.82 248.889C252.17 248.533 252.495 248.153 252.794 247.753C253.086 247.364 253.378 246.975 253.637 246.553C255.346 243.658 255.956 240.245 255.354 236.938C254.752 233.631 252.979 230.651 250.36 228.544C242.854 222.488 234.764 216.344 226.089 210.114C215.674 202.586 205.55 196.097 195.881 190.289Z" stroke="black" stroke-width="5" stroke-linecap="round" stroke-linejoin="round" class="UfduGnGe_1"></path>
<path d="M68.9144 74.873H117.521" stroke="black" stroke-width="5" stroke-linecap="round" stroke-linejoin="round" class="UfduGnGe_2"></path>
<path d="M68.9144 106.638H171.708" stroke="black" stroke-width="5" stroke-linecap="round" stroke-linejoin="round" class="UfduGnGe_3"></path>
<path d="M117.455 134.543H164.309" stroke="black" stroke-width="5" stroke-linecap="round" stroke-linejoin="round" class="UfduGnGe_4"></path>
<path d="M68.9144 134.543H91.6926" stroke="black" stroke-width="5" stroke-linecap="round" stroke-linejoin="round" class="UfduGnGe_5"></path>
<path d="M111.582 162.416H171.707" stroke="black" stroke-width="5" stroke-linecap="round" stroke-linejoin="round" class="UfduGnGe_6"></path>
<path d="M68.9144 162.416H84.619" stroke="black" stroke-width="5" stroke-linecap="round" stroke-linejoin="round" class="UfduGnGe_7"></path>
<path d="M122.356 190.288H160.741" stroke="black" stroke-width="5" stroke-linecap="round" stroke-linejoin="round" class="UfduGnGe_8"></path>
<path d="M68.946 190.288H94.3848" stroke="black" stroke-width="5" stroke-linecap="round" stroke-linejoin="round" class="UfduGnGe_9"></path>
<path d="M68.946 218.194H171.74" stroke="black" stroke-width="5" stroke-linecap="round" stroke-linejoin="round" class="UfduGnGe_10"></path>
<path d="M195.654 217.609V237.077C195.654 239.289 194.775 241.41 193.211 242.974C191.648 244.538 189.526 245.417 187.315 245.417H53.3715C52.271 245.421 51.1804 245.207 50.1628 244.788C49.1452 244.369 48.2207 243.752 47.4424 242.974C46.6642 242.196 46.0477 241.271 45.6286 240.254C45.2094 239.236 44.9958 238.146 45.0001 237.045V55.339C45.0001 53.1274 45.8786 51.0063 47.4425 49.4424C49.0064 47.8786 51.1274 47 53.3391 47H187.315C189.526 47 191.648 47.8786 193.211 49.4424C194.775 51.0063 195.654 53.1274 195.654 55.339V190.288" stroke="black" stroke-width="5" stroke-linecap="round" stroke-linejoin="round" class="UfduGnGe_11"></path>
<style data-made-with="vivus-instant">.UfduGnGe_0{stroke-dasharray:294 296;stroke-dashoffset:295;animation:UfduGnGe_draw 1333ms ease-out 0ms forwards;}.UfduGnGe_1{stroke-dasharray:245 247;stroke-dashoffset:246;animation:UfduGnGe_draw 1333ms ease-out 60ms forwards;}.UfduGnGe_2{stroke-dasharray:49 51;stroke-dashoffset:50;animation:UfduGnGe_draw 1333ms ease-out 121ms forwards;}.UfduGnGe_3{stroke-dasharray:103 105;stroke-dashoffset:104;animation:UfduGnGe_draw 1333ms ease-out 181ms forwards;}.UfduGnGe_4{stroke-dasharray:47 49;stroke-dashoffset:48;animation:UfduGnGe_draw 1333ms ease-out 242ms forwards;}.UfduGnGe_5{stroke-dasharray:23 25;stroke-dashoffset:24;animation:UfduGnGe_draw 1333ms ease-out 303ms forwards;}.UfduGnGe_6{stroke-dasharray:61 63;stroke-dashoffset:62;animation:UfduGnGe_draw 1333ms ease-out 363ms forwards;}.UfduGnGe_7{stroke-dasharray:16 18;stroke-dashoffset:17;animation:UfduGnGe_draw 1333ms ease-out 424ms forwards;}.UfduGnGe_8{stroke-dasharray:39 41;stroke-dashoffset:40;animation:UfduGnGe_draw 1333ms ease-out 484ms forwards;}.UfduGnGe_9{stroke-dasharray:26 28;stroke-dashoffset:27;animation:UfduGnGe_draw 1333ms ease-out 545ms forwards;}.UfduGnGe_10{stroke-dasharray:103 105;stroke-dashoffset:104;animation:UfduGnGe_draw 1333ms ease-out 606ms forwards;}.UfduGnGe_11{stroke-dasharray:657 659;stroke-dashoffset:658;animation:UfduGnGe_draw 1333ms ease-out 666ms forwards;}@keyframes UfduGnGe_draw{100%{stroke-dashoffset:0;}}@keyframes UfduGnGe_fade{0%{stroke-opacity:1;}93.54838709677419%{stroke-opacity:1;}100%{stroke-opacity:0;}}</style></svg>
