<svg width="300" height="300" viewBox="0 0 147 147" fill="none" xmlns="http://www.w3.org/2000/svg" style="cursor: pointer;">
<g id="1. discover_new 1" clip-path="url(#clip0_2:2)">
<path id="Vector" d="M73.46 142.92C111.822 142.92 142.92 111.822 142.92 73.46C142.92 35.0983 111.822 4 73.46 4C35.0983 4 4 35.0983 4 73.46C4 111.822 35.0983 142.92 73.46 142.92Z" fill="url(#paint0_linear_2:2)" class="qEIOMbYB_0"></path>
<path id="Vector_2" d="M73.46 6.80958e-07C58.9306 -0.00197719 44.7268 4.3047 32.6451 12.3754C20.5633 20.4461 11.1462 31.9183 5.58467 45.3411C0.0231261 58.764 -1.43305 73.5347 1.40029 87.7852C4.23363 102.036 11.2292 115.126 21.5024 125.401C31.7756 135.675 44.8649 142.672 59.115 145.508C73.3651 148.343 88.136 146.889 101.56 141.329C114.983 135.769 126.457 126.354 134.529 114.273C142.601 102.193 146.91 87.9894 146.91 73.46C146.889 53.9854 139.144 35.3144 125.374 21.5429C111.605 7.7713 92.9346 0.0238226 73.46 6.80958e-07V6.80958e-07ZM73.46 142.91C59.7212 142.912 46.2905 138.84 34.8663 131.208C23.4422 123.576 14.5377 112.728 9.27923 100.036C4.02073 87.3432 2.64435 73.3763 5.32416 59.9015C8.00397 46.4266 14.6196 34.0491 24.3344 24.3344C34.0491 14.6196 46.4266 8.00398 59.9015 5.32417C73.3763 2.64436 87.3432 4.02074 100.036 9.27924C112.728 14.5377 123.576 23.4422 131.208 34.8663C138.84 46.2905 142.912 59.7213 142.91 73.46C142.91 91.8793 135.593 109.544 122.569 122.569C109.544 135.593 91.8793 142.91 73.46 142.91V142.91Z" fill="white" class="qEIOMbYB_1"></path>
<path id="Vector_3" opacity="0.1" d="M73.46 6.80958e-07C58.9306 -0.00197719 44.7268 4.3047 32.6451 12.3754C20.5633 20.4461 11.1462 31.9183 5.58467 45.3411C0.0231261 58.764 -1.43305 73.5347 1.40029 87.7852C4.23363 102.036 11.2292 115.126 21.5024 125.401C31.7756 135.675 44.8649 142.672 59.115 145.508C73.3651 148.343 88.136 146.889 101.56 141.329C114.983 135.769 126.457 126.354 134.529 114.273C142.601 102.193 146.91 87.9894 146.91 73.46C146.889 53.9854 139.144 35.3144 125.374 21.5429C111.605 7.7713 92.9346 0.0238226 73.46 6.80958e-07V6.80958e-07ZM73.46 142.91C59.7212 142.912 46.2905 138.84 34.8663 131.208C23.4422 123.576 14.5377 112.728 9.27923 100.036C4.02073 87.3432 2.64435 73.3763 5.32416 59.9015C8.00397 46.4266 14.6196 34.0491 24.3344 24.3344C34.0491 14.6196 46.4266 8.00398 59.9015 5.32417C73.3763 2.64436 87.3432 4.02074 100.036 9.27924C112.728 14.5377 123.576 23.4422 131.208 34.8663C138.84 46.2905 142.912 59.7213 142.91 73.46C142.91 91.8793 135.593 109.544 122.569 122.569C109.544 135.593 91.8793 142.91 73.46 142.91V142.91Z" fill="url(#paint1_linear_2:2)" class="qEIOMbYB_2"></path>
<path id="Vector_4" d="M73.46 136C61.0992 135.994 49.0177 132.324 38.7426 125.453C28.4675 118.582 20.4601 108.819 15.7326 97.3977C11.005 85.9767 9.76967 73.4105 12.1826 61.2876C14.5955 49.1646 20.5484 38.0291 29.2888 29.2888C38.0291 20.5484 49.1646 14.5955 61.2876 12.1826C73.4105 9.76967 85.9767 11.005 97.3977 15.7326C108.819 20.4601 118.582 28.4675 125.453 38.7426C132.324 49.0177 135.994 61.0992 136 73.46C136.004 81.674 134.389 89.8082 131.247 97.3977C128.106 104.987 123.499 111.883 117.691 117.691C111.883 123.499 104.987 128.106 97.3977 131.247C89.8082 134.389 81.674 136.004 73.46 136V136Z" stroke="white" stroke-width="0.5" stroke-miterlimit="10" class="qEIOMbYB_3"></path>
<g id="zoom">
<path id="Vector_5" d="M62.34 85.27C72.4634 85.27 80.67 77.0634 80.67 66.94C80.67 56.8166 72.4634 48.61 62.34 48.61C52.2166 48.61 44.01 56.8166 44.01 66.94C44.01 77.0634 52.2166 85.27 62.34 85.27Z" stroke="white" stroke-linecap="round" stroke-linejoin="round" class="qEIOMbYB_4"></path>
<path id="Vector_6" d="M49.52 69C49.3512 67.1173 49.5655 65.2198 50.1498 63.4221C50.7341 61.6244 51.6765 59.9637 52.92 58.54C55.0921 56.1737 58.0191 54.636 61.2 54.19" stroke="white" stroke-linecap="round" stroke-linejoin="round" class="qEIOMbYB_5"></path>
<path id="Vector_7" d="M83.47 78.81C81.9793 77.9218 80.839 76.5485 80.24 74.92C80.24 74.85 80.24 74.77 80.16 74.69C79.9754 74.1372 79.8284 73.5726 79.72 73C78.323 76.9849 75.6383 80.3908 72.09 82.68C72.7552 82.6175 73.4248 82.6175 74.09 82.68V82.68C75.7716 82.8483 77.3419 83.5981 78.53 84.8C81.72 88.05 85.25 91.4 89.13 94.8C92.25 97.51 95.3 99.99 98.26 102.27C99.3111 103.102 100.63 103.522 101.969 103.45C103.308 103.378 104.574 102.82 105.53 101.88C105.671 101.739 105.801 101.589 105.92 101.43C106.039 101.28 106.149 101.123 106.25 100.96C106.919 99.8135 107.149 98.4635 106.899 97.16C106.649 95.8565 105.935 94.6877 104.89 93.87C101.95 91.4767 98.7733 89.0633 95.36 86.63C91.26 83.69 87.28 81.1 83.47 78.81Z" stroke="white" stroke-linecap="round" stroke-linejoin="round" class="qEIOMbYB_6"></path>
</g>
</g>
<defs>
<linearGradient id="paint0_linear_2:2" x1="13.3" y1="38.72" x2="133.62" y2="108.19" gradientUnits="userSpaceOnUse">
<stop stop-color="#16496B"></stop>
<stop offset="1" stop-color="#8B2E42"></stop>
</linearGradient>
<linearGradient id="paint1_linear_2:2" x1="9.85" y1="36.74" x2="137.06" y2="110.18" gradientUnits="userSpaceOnUse">
<stop stop-color="#16496B"></stop>
<stop offset="1" stop-color="#3D405D"></stop>
</linearGradient>
<clipPath id="clip0_2:2">
<path width="146.91" height="146.91" fill="white" d="M0 0 L146.91 0 L146.91 146.91 L0 146.91 Z" class="qEIOMbYB_7"></path>
</clipPath>
</defs>
<style data-made-with="vivus-instant">.qEIOMbYB_0{stroke-dasharray:437 439;stroke-dashoffset:438;animation:qEIOMbYB_draw 1500ms ease-in-out 0ms forwards;}.qEIOMbYB_1{stroke-dasharray:898 900;stroke-dashoffset:899;animation:qEIOMbYB_draw 1500ms ease-in-out 0ms forwards;}.qEIOMbYB_2{stroke-dasharray:898 900;stroke-dashoffset:899;animation:qEIOMbYB_draw 1500ms ease-in-out 0ms forwards;}.qEIOMbYB_3{stroke-dasharray:393 395;stroke-dashoffset:394;animation:qEIOMbYB_draw 1500ms ease-in-out 0ms forwards;}.qEIOMbYB_4{stroke-dasharray:116 118;stroke-dashoffset:117;animation:qEIOMbYB_draw 1500ms ease-in-out 0ms forwards;}.qEIOMbYB_5{stroke-dasharray:21 23;stroke-dashoffset:22;animation:qEIOMbYB_draw 1500ms ease-in-out 0ms forwards;}.qEIOMbYB_6{stroke-dasharray:97 99;stroke-dashoffset:98;animation:qEIOMbYB_draw 1500ms ease-in-out 0ms forwards;}.qEIOMbYB_7{stroke-dasharray:588 590;stroke-dashoffset:589;animation:qEIOMbYB_draw 1500ms ease-in-out 0ms forwards;}@keyframes qEIOMbYB_draw{100%{stroke-dashoffset:0;}}@keyframes qEIOMbYB_fade{0%{stroke-opacity:1;}92.98245614035088%{stroke-opacity:1;}100%{stroke-opacity:0;}}</style></svg>
