<svg width="300" height="300" viewBox="0 0 147 147" fill="none" xmlns="http://www.w3.org/2000/svg" style="cursor: pointer;">
<g id="2. logger_new 1" clip-path="url(#clip0_3:12)">
<path id="Vector" d="M73.46 142.92C111.822 142.92 142.92 111.822 142.92 73.46C142.92 35.0983 111.822 4 73.46 4C35.0983 4 4 35.0983 4 73.46C4 111.822 35.0983 142.92 73.46 142.92Z" fill="url(#paint0_linear_3:12)" class="owRWmZYU_0"></path>
<path id="Vector_2" d="M73.46 6.80958e-07C58.9306 -0.00197719 44.7268 4.3047 32.6451 12.3754C20.5633 20.4461 11.1462 31.9183 5.58467 45.3411C0.0231261 58.764 -1.43305 73.5347 1.40029 87.7852C4.23363 102.036 11.2292 115.126 21.5024 125.401C31.7756 135.675 44.8649 142.672 59.115 145.508C73.3651 148.343 88.136 146.889 101.56 141.329C114.983 135.769 126.457 126.354 134.529 114.273C142.601 102.193 146.91 87.9894 146.91 73.46C146.889 53.9854 139.144 35.3144 125.374 21.5429C111.605 7.7713 92.9346 0.0238226 73.46 6.80958e-07V6.80958e-07ZM73.46 142.91C59.7212 142.912 46.2905 138.84 34.8663 131.208C23.4422 123.576 14.5377 112.728 9.27923 100.036C4.02073 87.3432 2.64435 73.3763 5.32416 59.9015C8.00397 46.4266 14.6196 34.0491 24.3344 24.3344C34.0491 14.6196 46.4266 8.00398 59.9015 5.32417C73.3763 2.64436 87.3432 4.02074 100.036 9.27924C112.728 14.5377 123.576 23.4422 131.208 34.8663C138.84 46.2905 142.912 59.7213 142.91 73.46C142.91 91.8793 135.593 109.544 122.569 122.569C109.544 135.593 91.8793 142.91 73.46 142.91V142.91Z" fill="white" class="owRWmZYU_1"></path>
<path id="Vector_3" opacity="0.1" d="M73.46 6.80958e-07C58.9306 -0.00197719 44.7268 4.3047 32.6451 12.3754C20.5633 20.4461 11.1462 31.9183 5.58467 45.3411C0.0231261 58.764 -1.43305 73.5347 1.40029 87.7852C4.23363 102.036 11.2292 115.126 21.5024 125.401C31.7756 135.675 44.8649 142.672 59.115 145.508C73.3651 148.343 88.136 146.889 101.56 141.329C114.983 135.769 126.457 126.354 134.529 114.273C142.601 102.193 146.91 87.9894 146.91 73.46C146.889 53.9854 139.144 35.3144 125.374 21.5429C111.605 7.7713 92.9346 0.0238226 73.46 6.80958e-07V6.80958e-07ZM73.46 142.91C59.7212 142.912 46.2905 138.84 34.8663 131.208C23.4422 123.576 14.5377 112.728 9.27923 100.036C4.02073 87.3432 2.64435 73.3763 5.32416 59.9015C8.00397 46.4266 14.6196 34.0491 24.3344 24.3344C34.0491 14.6196 46.4266 8.00398 59.9015 5.32417C73.3763 2.64436 87.3432 4.02074 100.036 9.27924C112.728 14.5377 123.576 23.4422 131.208 34.8663C138.84 46.2905 142.912 59.7213 142.91 73.46C142.91 91.8793 135.593 109.544 122.569 122.569C109.544 135.593 91.8793 142.91 73.46 142.91V142.91Z" fill="url(#paint1_linear_3:12)" class="owRWmZYU_2"></path>
<path id="Vector_4" d="M73.46 136C61.0992 135.994 49.0177 132.324 38.7426 125.453C28.4675 118.582 20.4601 108.819 15.7326 97.3977C11.005 85.9767 9.76967 73.4105 12.1826 61.2876C14.5955 49.1646 20.5484 38.0291 29.2888 29.2888C38.0291 20.5484 49.1646 14.5955 61.2876 12.1826C73.4105 9.76967 85.9767 11.005 97.3977 15.7326C108.819 20.4601 118.582 28.4675 125.453 38.7426C132.324 49.0177 135.994 61.0992 136 73.46C136.004 81.674 134.389 89.8082 131.247 97.3977C128.106 104.987 123.499 111.883 117.691 117.691C111.883 123.499 104.987 128.106 97.3977 131.247C89.8082 134.389 81.674 136.004 73.46 136V136Z" stroke="white" stroke-width="0.5" stroke-miterlimit="10" class="owRWmZYU_3"></path>
<path id="Vector_5" d="M48.06 99.59C47.6109 99.5874 47.181 99.4071 46.8644 99.0886C46.5477 98.77 46.37 98.3391 46.37 97.89V59C46.37 58.5509 46.5477 58.12 46.8644 57.8014C47.181 57.4829 47.6109 57.3026 48.06 57.3H50.69" stroke="white" stroke-linecap="round" stroke-linejoin="round" class="owRWmZYU_4"></path>
<path id="Vector_6" d="M96.56 57.31H97.56C98.0109 57.31 98.4433 57.4891 98.7621 57.8079C99.0809 58.1267 99.26 58.5591 99.26 59.01V67.71" stroke="white" stroke-linecap="round" stroke-linejoin="round" class="owRWmZYU_5"></path>
<path id="Vector_7" d="M94.64 99.59H48.06C47.6109 99.5874 47.181 99.4071 46.8644 99.0886C46.5477 98.77 46.37 98.3391 46.37 97.89L57.37 69.41C57.4688 68.9456 57.7187 68.5269 58.0805 68.2194C58.4423 67.9118 58.8957 67.7327 59.37 67.71H105.68C105.979 67.7077 106.273 67.7873 106.53 67.94C106.846 68.1527 107.08 68.467 107.192 68.8308C107.305 69.1945 107.29 69.5859 107.15 69.94L96.48 97.89C96.3908 98.3308 96.165 98.7322 95.8347 99.0374C95.5044 99.3425 95.0864 99.5359 94.64 99.59Z" stroke="white" stroke-linecap="round" stroke-linejoin="round" class="owRWmZYU_6"></path>
<g id="sheets">
<path id="Vector_8" d="M96.33 67.46V40.93C96.33 40.4818 96.1519 40.0519 95.835 39.735C95.5181 39.4181 95.0882 39.24 94.64 39.24H59C58.5509 39.24 58.12 39.4177 57.8014 39.7344C57.4829 40.051 57.3026 40.4809 57.3 40.93V69.53" stroke="white" stroke-linecap="round" stroke-linejoin="round" class="owRWmZYU_7"></path>
<path id="Vector_9" d="M54 77.91V42.45C54 41.9991 54.1791 41.5667 54.4979 41.2479C54.8167 40.9291 55.2491 40.75 55.7 40.75H57.12" stroke="white" stroke-linecap="round" stroke-linejoin="round" class="owRWmZYU_8"></path>
<path id="Vector_10" d="M50.85 86V44.3C50.85 43.8509 51.0277 43.42 51.3444 43.1014C51.661 42.7829 52.0909 42.6026 52.54 42.6H53.94" stroke="white" stroke-linecap="round" stroke-linejoin="round" class="owRWmZYU_9"></path>
<path id="Vector_11" d="M63.46 46.47H76.07" stroke="white" stroke-linecap="round" stroke-linejoin="round" class="owRWmZYU_10"></path>
<path id="Vector_12" d="M63.46 54.71H89.02" stroke="white" stroke-linecap="round" stroke-linejoin="round" class="owRWmZYU_11"></path>
<path id="Vector_13" d="M63.46 61.94H89.02" stroke="white" stroke-linecap="round" stroke-linejoin="round" class="owRWmZYU_12"></path>
</g>
</g>
<defs>
<linearGradient id="paint0_linear_3:12" x1="13.3" y1="38.72" x2="133.62" y2="108.19" gradientUnits="userSpaceOnUse">
<stop stop-color="#25A777"></stop>
<stop offset="1" stop-color="#3C96D9"></stop>
</linearGradient>
<linearGradient id="paint1_linear_3:12" x1="9.85" y1="36.74" x2="137.06" y2="110.18" gradientUnits="userSpaceOnUse">
<stop stop-color="#645B8F"></stop>
<stop offset="1" stop-color="#517470"></stop>
</linearGradient>
<clipPath id="clip0_3:12">
<path width="146.91" height="146.91" fill="white" d="M0 0 L146.91 0 L146.91 146.91 L0 146.91 Z" class="owRWmZYU_13"></path>
</clipPath>
</defs>
<style data-made-with="vivus-instant">.owRWmZYU_0{stroke-dasharray:437 439;stroke-dashoffset:438;animation:owRWmZYU_draw 1400ms ease-in-out 0ms forwards;}.owRWmZYU_1{stroke-dasharray:898 900;stroke-dashoffset:899;animation:owRWmZYU_draw 1400ms ease-in-out 7ms forwards;}.owRWmZYU_2{stroke-dasharray:898 900;stroke-dashoffset:899;animation:owRWmZYU_draw 1400ms ease-in-out 15ms forwards;}.owRWmZYU_3{stroke-dasharray:393 395;stroke-dashoffset:394;animation:owRWmZYU_draw 1400ms ease-in-out 23ms forwards;}.owRWmZYU_4{stroke-dasharray:47 49;stroke-dashoffset:48;animation:owRWmZYU_draw 1400ms ease-in-out 30ms forwards;}.owRWmZYU_5{stroke-dasharray:13 15;stroke-dashoffset:14;animation:owRWmZYU_draw 1400ms ease-in-out 38ms forwards;}.owRWmZYU_6{stroke-dasharray:165 167;stroke-dashoffset:166;animation:owRWmZYU_draw 1400ms ease-in-out 46ms forwards;}.owRWmZYU_7{stroke-dasharray:97 99;stroke-dashoffset:98;animation:owRWmZYU_draw 1400ms ease-in-out 53ms forwards;}.owRWmZYU_8{stroke-dasharray:40 42;stroke-dashoffset:41;animation:owRWmZYU_draw 1400ms ease-in-out 61ms forwards;}.owRWmZYU_9{stroke-dasharray:46 48;stroke-dashoffset:47;animation:owRWmZYU_draw 1400ms ease-in-out 69ms forwards;}.owRWmZYU_10{stroke-dasharray:13 15;stroke-dashoffset:14;animation:owRWmZYU_draw 1400ms ease-in-out 76ms forwards;}.owRWmZYU_11{stroke-dasharray:26 28;stroke-dashoffset:27;animation:owRWmZYU_draw 1400ms ease-in-out 84ms forwards;}.owRWmZYU_12{stroke-dasharray:26 28;stroke-dashoffset:27;animation:owRWmZYU_draw 1400ms ease-in-out 92ms forwards;}.owRWmZYU_13{stroke-dasharray:588 590;stroke-dashoffset:589;animation:owRWmZYU_draw 1400ms ease-in-out 100ms forwards;}@keyframes owRWmZYU_draw{100%{stroke-dashoffset:0;}}@keyframes owRWmZYU_fade{0%{stroke-opacity:1;}92.98245614035088%{stroke-opacity:1;}100%{stroke-opacity:0;}}</style></svg>
