<svg width="300" height="300" viewBox="0 0 147 147" fill="none" xmlns="http://www.w3.org/2000/svg" style="cursor: pointer;">
<g id="pb_new" clip-path="url(#clip0_3:28)">
<path id="Vector" d="M73.46 142.92C111.822 142.92 142.92 111.822 142.92 73.46C142.92 35.0983 111.822 4 73.46 4C35.0983 4 4 35.0983 4 73.46C4 111.822 35.0983 142.92 73.46 142.92Z" fill="url(#paint0_linear_3:28)" class="NtBbDbYJ_0"></path>
<path id="Vector_2" d="M73.46 6.80958e-07C58.9306 -0.00197719 44.7268 4.3047 32.6451 12.3754C20.5633 20.4461 11.1462 31.9183 5.58467 45.3411C0.0231261 58.764 -1.43305 73.5347 1.40029 87.7852C4.23363 102.036 11.2292 115.126 21.5024 125.401C31.7756 135.675 44.8649 142.672 59.115 145.508C73.3651 148.343 88.136 146.889 101.56 141.329C114.983 135.769 126.457 126.354 134.529 114.273C142.601 102.193 146.91 87.9894 146.91 73.46C146.889 53.9854 139.144 35.3144 125.374 21.5429C111.605 7.7713 92.9346 0.0238226 73.46 6.80958e-07V6.80958e-07ZM73.46 142.91C59.7212 142.912 46.2905 138.84 34.8663 131.208C23.4422 123.576 14.5377 112.728 9.27923 100.036C4.02073 87.3432 2.64435 73.3763 5.32416 59.9015C8.00397 46.4266 14.6196 34.0491 24.3344 24.3344C34.0491 14.6196 46.4266 8.00398 59.9015 5.32417C73.3763 2.64436 87.3432 4.02074 100.036 9.27924C112.728 14.5377 123.576 23.4422 131.208 34.8663C138.84 46.2905 142.912 59.7213 142.91 73.46C142.91 91.8793 135.593 109.544 122.569 122.569C109.544 135.593 91.8793 142.91 73.46 142.91V142.91Z" fill="white" class="NtBbDbYJ_1"></path>
<path id="Vector_3" opacity="0.1" d="M73.46 6.80958e-07C58.9306 -0.00197719 44.7268 4.3047 32.6451 12.3754C20.5633 20.4461 11.1462 31.9183 5.58467 45.3411C0.0231261 58.764 -1.43305 73.5347 1.40029 87.7852C4.23363 102.036 11.2292 115.126 21.5024 125.401C31.7756 135.675 44.8649 142.672 59.115 145.508C73.3651 148.343 88.136 146.889 101.56 141.329C114.983 135.769 126.457 126.354 134.529 114.273C142.601 102.193 146.91 87.9894 146.91 73.46C146.889 53.9854 139.144 35.3144 125.374 21.5429C111.605 7.7713 92.9346 0.0238226 73.46 6.80958e-07V6.80958e-07ZM73.46 142.91C59.7212 142.912 46.2905 138.84 34.8663 131.208C23.4422 123.576 14.5377 112.728 9.27923 100.036C4.02073 87.3432 2.64435 73.3763 5.32416 59.9015C8.00397 46.4266 14.6196 34.0491 24.3344 24.3344C34.0491 14.6196 46.4266 8.00398 59.9015 5.32417C73.3763 2.64436 87.3432 4.02074 100.036 9.27924C112.728 14.5377 123.576 23.4422 131.208 34.8663C138.84 46.2905 142.912 59.7213 142.91 73.46C142.91 91.8793 135.593 109.544 122.569 122.569C109.544 135.593 91.8793 142.91 73.46 142.91V142.91Z" fill="url(#paint1_linear_3:28)" class="NtBbDbYJ_2"></path>
<path id="Vector_4" d="M73.46 136C61.0992 135.994 49.0177 132.324 38.7426 125.453C28.4675 118.582 20.4601 108.819 15.7326 97.3977C11.005 85.9767 9.76967 73.4105 12.1826 61.2876C14.5955 49.1646 20.5484 38.0291 29.2888 29.2888C38.0291 20.5484 49.1646 14.5955 61.2876 12.1826C73.4105 9.76967 85.9767 11.005 97.3977 15.7326C108.819 20.4601 118.582 28.4675 125.453 38.7426C132.324 49.0177 135.994 61.0992 136 73.46C136.004 81.674 134.389 89.8082 131.247 97.3977C128.106 104.987 123.499 111.883 117.691 117.691C111.883 123.499 104.987 128.106 97.3977 131.247C89.8082 134.389 81.674 136.004 73.46 136V136Z" stroke="white" stroke-width="0.5" stroke-miterlimit="10" class="NtBbDbYJ_3"></path>
<g id="zoom_sheet">
<path id="Vector_5" d="M79.43 91.74C87.3663 91.74 93.8 85.3063 93.8 77.37C93.8 69.4337 87.3663 63 79.43 63C71.4937 63 65.06 69.4337 65.06 77.37C65.06 85.3063 71.4937 91.74 79.43 91.74Z" stroke="white" stroke-linecap="round" stroke-linejoin="round" class="NtBbDbYJ_4"></path>
<path id="Vector_6" d="M96 86.67C94.8342 85.9937 93.9399 84.9332 93.47 83.67L93.4 83.49C93.2538 83.0455 93.1401 82.591 93.06 82.13C92.5167 83.6789 91.7228 85.1282 90.71 86.42C89.6908 87.714 88.4601 88.8264 87.07 89.71C87.5792 89.6707 88.0908 89.6707 88.6 89.71C89.9223 89.8359 91.158 90.4236 92.09 91.37C94.59 93.91 97.35 96.54 100.4 99.2C102.84 101.32 105.24 103.27 107.56 105.05C108.382 105.706 109.417 106.037 110.467 105.982C111.517 105.927 112.511 105.488 113.26 104.75L113.56 104.4L113.82 104.03C114.344 103.131 114.525 102.073 114.331 101.052C114.136 100.03 113.578 99.1128 112.76 98.47C110.45 96.6 107.96 94.69 105.28 92.79C102.1 90.5 99 88.47 96 86.67Z" stroke="white" stroke-linecap="round" stroke-linejoin="round" class="NtBbDbYJ_5"></path>
</g>
<g id="sheet_zoom">
<path id="Vector_7" d="M56.86 51.11H71.85" stroke="white" stroke-linecap="round" stroke-linejoin="round" class="NtBbDbYJ_6"></path>
<path id="Vector_8" d="M56.86 60.9H88.55" stroke="white" stroke-linecap="round" stroke-linejoin="round" class="NtBbDbYJ_7"></path>
<path id="Vector_9" d="M71.82 69.49H86.27" stroke="white" stroke-linecap="round" stroke-linejoin="round" class="NtBbDbYJ_8"></path>
<path id="Vector_10" d="M56.86 69.49H63.89" stroke="white" stroke-linecap="round" stroke-linejoin="round" class="NtBbDbYJ_9"></path>
<path id="Vector_11" d="M70.02 78.08H88.55" stroke="white" stroke-linecap="round" stroke-linejoin="round" class="NtBbDbYJ_10"></path>
<path id="Vector_12" d="M56.86 78.08H61.71" stroke="white" stroke-linecap="round" stroke-linejoin="round" class="NtBbDbYJ_11"></path>
<path id="Vector_13" d="M73.34 86.68H85.17" stroke="white" stroke-linecap="round" stroke-linejoin="round" class="NtBbDbYJ_12"></path>
<path id="Vector_14" d="M56.88 86.68H64.71" stroke="white" stroke-linecap="round" stroke-linejoin="round" class="NtBbDbYJ_13"></path>
<path id="Vector_15" d="M56.88 95.27H88.56" stroke="white" stroke-linecap="round" stroke-linejoin="round" class="NtBbDbYJ_14"></path>
<path id="Vector_16" d="M95.93 95.1V101.1C95.93 101.437 95.8634 101.771 95.7342 102.082C95.6049 102.393 95.4154 102.676 95.1767 102.914C94.9379 103.152 94.6545 103.34 94.3427 103.468C94.031 103.596 93.697 103.661 93.36 103.66H52.08C51.743 103.661 51.409 103.596 51.0973 103.468C50.7855 103.34 50.5021 103.152 50.2633 102.914C50.0246 102.676 49.8351 102.393 49.7058 102.082C49.5765 101.771 49.51 101.437 49.51 101.1V45.1C49.5126 44.4201 49.7846 43.769 50.2663 43.2892C50.7479 42.8094 51.4001 42.54 52.08 42.54H93.36C94.0399 42.54 94.6921 42.8094 95.1737 43.2892C95.6554 43.769 95.9274 44.4201 95.93 45.1V86.67" stroke="white" stroke-linecap="round" stroke-linejoin="round" class="NtBbDbYJ_15"></path>
</g>
</g>
<defs>
<linearGradient id="paint0_linear_3:28" x1="13.3" y1="38.72" x2="133.62" y2="108.19" gradientUnits="userSpaceOnUse">
<stop stop-color="#FB6D5D"></stop>
<stop offset="1" stop-color="#7288D2"></stop>
</linearGradient>
<linearGradient id="paint1_linear_3:28" x1="9.85" y1="36.74" x2="137.06" y2="110.18" gradientUnits="userSpaceOnUse">
<stop stop-color="#FC5C4A"></stop>
<stop offset="1" stop-color="#7284CD"></stop>
</linearGradient>
<clipPath id="clip0_3:28">
<path width="146.91" height="146.91" fill="white" d="M0 0 L146.91 0 L146.91 146.91 L0 146.91 Z" class="NtBbDbYJ_16"></path>
</clipPath>
</defs>
<style data-made-with="vivus-instant">.NtBbDbYJ_0{stroke-dasharray:437 439;stroke-dashoffset:438;animation:NtBbDbYJ_draw 1300ms ease-in-out 0ms forwards;}.NtBbDbYJ_1{stroke-dasharray:898 900;stroke-dashoffset:899;animation:NtBbDbYJ_draw 1300ms ease-in-out 12ms forwards;}.NtBbDbYJ_2{stroke-dasharray:898 900;stroke-dashoffset:899;animation:NtBbDbYJ_draw 1300ms ease-in-out 25ms forwards;}.NtBbDbYJ_3{stroke-dasharray:393 395;stroke-dashoffset:394;animation:NtBbDbYJ_draw 1300ms ease-in-out 37ms forwards;}.NtBbDbYJ_4{stroke-dasharray:91 93;stroke-dashoffset:92;animation:NtBbDbYJ_draw 1300ms ease-in-out 50ms forwards;}.NtBbDbYJ_5{stroke-dasharray:76 78;stroke-dashoffset:77;animation:NtBbDbYJ_draw 1300ms ease-in-out 62ms forwards;}.NtBbDbYJ_6{stroke-dasharray:15 17;stroke-dashoffset:16;animation:NtBbDbYJ_draw 1300ms ease-in-out 75ms forwards;}.NtBbDbYJ_7{stroke-dasharray:32 34;stroke-dashoffset:33;animation:NtBbDbYJ_draw 1300ms ease-in-out 87ms forwards;}.NtBbDbYJ_8{stroke-dasharray:15 17;stroke-dashoffset:16;animation:NtBbDbYJ_draw 1300ms ease-in-out 100ms forwards;}.NtBbDbYJ_9{stroke-dasharray:8 10;stroke-dashoffset:9;animation:NtBbDbYJ_draw 1300ms ease-in-out 112ms forwards;}.NtBbDbYJ_10{stroke-dasharray:19 21;stroke-dashoffset:20;animation:NtBbDbYJ_draw 1300ms ease-in-out 125ms forwards;}.NtBbDbYJ_11{stroke-dasharray:5 7;stroke-dashoffset:6;animation:NtBbDbYJ_draw 1300ms ease-in-out 137ms forwards;}.NtBbDbYJ_12{stroke-dasharray:12 14;stroke-dashoffset:13;animation:NtBbDbYJ_draw 1300ms ease-in-out 150ms forwards;}.NtBbDbYJ_13{stroke-dasharray:8 10;stroke-dashoffset:9;animation:NtBbDbYJ_draw 1300ms ease-in-out 162ms forwards;}.NtBbDbYJ_14{stroke-dasharray:32 34;stroke-dashoffset:33;animation:NtBbDbYJ_draw 1300ms ease-in-out 175ms forwards;}.NtBbDbYJ_15{stroke-dasharray:203 205;stroke-dashoffset:204;animation:NtBbDbYJ_draw 1300ms ease-in-out 187ms forwards;}.NtBbDbYJ_16{stroke-dasharray:588 590;stroke-dashoffset:589;animation:NtBbDbYJ_draw 1300ms ease-in-out 200ms forwards;}@keyframes NtBbDbYJ_draw{100%{stroke-dashoffset:0;}}@keyframes NtBbDbYJ_fade{0%{stroke-opacity:1;}92.98245614035088%{stroke-opacity:1;}100%{stroke-opacity:0;}}</style></svg>
