<?xml version="1.0" encoding="utf-8"?>
<!-- Generator: Adobe Illustrator 27.9.0, SVG Export Plug-In . SVG Version: 6.00 Build 0)  -->
<svg version="1.1" id="Ebene_1" xmlns:vectornator="http://vectornator.io"
	 xmlns="http://www.w3.org/2000/svg" xmlns:xlink="http://www.w3.org/1999/xlink" x="0px" y="0px" viewBox="0 0 1920 896"
	 style="enable-background:new 0 0 1920 896;" xml:space="preserve">
<style type="text/css">
	.st0{clip-path:url(#SVGID_00000094590035417482460480000016044033732490846360_);}
	.st1{fill:#FFFFFF;}
</style>
<g id="Ohne-Titel" vectornator:layerName="Ohne Titel">
	<g vectornator:layerName="path">
		<g>
			<defs>
				<rect id="SVGID_1_" width="1920" height="896"/>
			</defs>
			<clipPath id="SVGID_00000146496166881217146910000004681123543923345076_">
				<use xlink:href="#SVGID_1_"  style="overflow:visible;"/>
			</clipPath>
			<g style="clip-path:url(#SVGID_00000146496166881217146910000004681123543923345076_);">
				<path vectornator:layerName="path" class="st1" d="M646.1,411.4c-6,0-11.8-1-17.5-3.1c-26.8-9.6-40.7-39.3-31-66
					c7.4-20.4,26.9-34.1,48.5-34.1c6,0,11.8,1,17.5,3.1c26.8,9.6,40.7,39.3,31,66C687.3,397.7,667.8,411.4,646.1,411.4z"/>
				<path vectornator:layerName="path" class="st1" d="M646.1,307.4c-21.5,0-41.6,13.3-49.3,34.6c-9.8,27.2,4.3,57.2,31.5,67.1
					c5.9,2.1,11.9,3.1,17.8,3.1c21.5,0,41.6-13.3,49.3-34.6c9.8-27.2-4.3-57.3-31.5-67.1C658,308.4,652,307.4,646.1,307.4
					 M646.1,309c5.9,0,11.7,1,17.2,3c12.8,4.6,23,13.9,28.7,26.2c5.8,12.3,6.4,26.1,1.8,38.8c-7.2,20.1-26.4,33.6-47.8,33.6
					c-5.9,0-11.7-1-17.2-3c-26.4-9.5-40.1-38.7-30.6-65C605.6,322.5,624.8,309,646.1,309"/>
				<path vectornator:layerName="path" class="st1" d="M57.6,358.9L374.8,472l13.9,343.5L57.6,358.9z"/>
				<path vectornator:layerName="path" class="st1" d="M53.3,355.7l337.3,465.1l-14.1-349.9L53.3,355.7z M61.9,362.2l311.4,111
					l13.6,337.2L61.9,362.2z"/>
				<path vectornator:layerName="path" class="st1" d="M98.7,334.4c-6,0-11.8-1-17.5-3.1c-26.8-9.6-40.7-39.3-31-66
					c7.4-20.4,26.9-34.1,48.5-34.1c6,0,11.8,1,17.5,3.1c13,4.7,23.3,14.1,29.2,26.6c5.9,12.5,6.5,26.5,1.8,39.4
					C139.9,320.7,120.4,334.4,98.7,334.4z"/>
				<path vectornator:layerName="path" class="st1" d="M98.7,230.4c-21.5,0-41.6,13.3-49.3,34.6c-9.8,27.2,4.3,57.2,31.5,67.1
					c5.9,2.1,11.9,3.1,17.8,3.1c21.5,0,41.6-13.3,49.3-34.6c9.8-27.2-4.3-57.2-31.5-67.1C110.6,231.4,104.6,230.4,98.7,230.4
					 M98.7,232c5.9,0,11.7,1,17.2,3c26.4,9.5,40.1,38.7,30.6,65c-7.2,20.1-26.4,33.6-47.8,33.6c-5.9,0-11.7-1-17.2-3
					c-12.8-4.6-23-13.9-28.7-26.2c-5.8-12.3-6.4-26.1-1.8-38.8C58.1,245.5,77.3,232,98.7,232"/>
				<path vectornator:layerName="path" class="st1" d="M233.7,405.6l-93.3-244.3l421.7,203.3l-13.6,35.7l-304.1-80l25.8,98.2
					L233.7,405.6z"/>
				<path vectornator:layerName="path" class="st1" d="M137.5,158.1l95,248.7l40.2,14.3l-25.9-98.5l302.8,79.6l14.6-38.5
					L137.5,158.1z M143.4,164.5l416.8,200.9l-12.5,33l-300-78.9l-5.3-1.4l1.4,5.3l24.4,92.6l-33.1-11.8L143.4,164.5z"/>
				<path vectornator:layerName="path" class="st1" d="M389.6,461.1l-102-36.3l-21.9-83l446.9,117.4L403.4,804L389.6,461.1z"/>
				<path vectornator:layerName="path" class="st1" d="M263.5,339.5l22.8,86.5l2,0.7l99.7,35.5L402,808l313.6-349.7L263.5,339.5z
					 M268,344l441.7,116.1L404.9,800l-13.6-337.9l-0.1-2.2l-2-0.7l-99.7-35.5l-0.4-0.1L268,344z"/>
				<path vectornator:layerName="path" class="st1" d="M366.6,193.2c-6,0-11.8-1-17.5-3.1c-13-4.7-23.3-14.1-29.2-26.6
					c-5.9-12.5-6.5-26.5-1.8-39.4c7.4-20.4,26.9-34.1,48.5-34.1c6,0,11.8,1,17.5,3.1c13,4.7,23.3,14.1,29.2,26.6
					c5.9,12.5,6.5,26.5,1.8,39.4C407.8,179.4,388.3,193.2,366.6,193.2z"/>
				<path vectornator:layerName="path" class="st1" d="M366.6,89.1c-21.5,0-41.6,13.3-49.3,34.6c-9.8,27.2,4.3,57.2,31.5,67.1
					c5.9,2.1,11.9,3.1,17.8,3.1c21.5,0,41.6-13.3,49.3-34.6c9.8-27.2-4.3-57.3-31.5-67.1C378.5,90.1,372.5,89.1,366.6,89.1
					 M366.6,90.7c5.9,0,11.7,1,17.2,3c12.8,4.6,23,13.9,28.7,26.2c5.8,12.3,6.4,26.1,1.8,38.8c-7.2,20.1-26.4,33.6-47.8,33.6
					c-5.9,0-11.7-1-17.2-3c-26.4-9.5-40.1-38.7-30.6-65C326.1,104.2,345.3,90.7,366.6,90.7"/>
				<path vectornator:layerName="path" class="st1" d="M789.8,184.6c0-64.2,43.2-101.2,91.8-101.2c25.2,0,45.3,11.2,58.6,25.2
					l-24.3,27.8c-9.5-8.9-19.5-13.3-33.2-13.3c-25.5,0-45.9,22.5-45.9,59.8c0,38.5,18.1,60.7,45,60.7c15.7,0,27.8-6.2,37-16l24,27.2
					c-16.9,19.2-38.2,28.4-62.5,28.4C831.2,283.1,789.8,249.7,789.8,184.6"/>
				<path vectornator:layerName="path" class="st1" d="M971.2,86.9h46.2v192.7h-46.2V86.9z"/>
				<path vectornator:layerName="path" class="st1" d="M1099.4,125.4H1047V86.9h150.7v38.5h-52.4v154.2h-45.9V125.4z"/>
				<path vectornator:layerName="path" class="st1" d="M1227.3,86.9h46.2v192.7h-46.2V86.9z"/>
				<path vectornator:layerName="path" class="st1" d="M1305.7,251.8l83.5-126.4h-75.5V86.9h132v27.5l-83.2,126.7h83.8v38.5h-140.6
					V251.8z"/>
				<path vectornator:layerName="path" class="st1" d="M1478.3,86.9h121.9v38.5h-75.8v36.1h64.8V200h-64.8v41.1h78.7v38.5h-124.9
					V86.9z"/>
				<path vectornator:layerName="path" class="st1" d="M1641.1,86.9h47.6l47.4,92.4c6.8,13,13,28.4,18.9,43.5h1.2
					c-2.4-20.7-5.9-48.2-5.9-71V86.9h43.5v192.7h-47.4l-47.7-92.4c-6.5-13-12.7-28.4-18.6-43.5h-1.2c2.4,21.3,5.9,48,5.9,71v64.8
					h-43.8V86.9z"/>
				<path vectornator:layerName="path" class="st1" d="M786.5,527l24.3-29.9c13.6,11.8,32.3,18.4,48.5,18.4
					c17.5,0,25.5-6.5,25.5-16.9c0-11.2-10.4-14.8-27.2-21.6L833,466.3c-20.4-8-39.1-24.9-39.1-52.7c0-32.3,29-58.3,69.9-58.3
					c23.1,0,45.9,8.6,62.5,24l-24,29.9c-13-9.2-26.3-14.2-38.5-14.2c-14.2,0-23.4,5.6-23.4,15.7c0,11.2,12.1,15.1,29.3,21.9l24,9.8
					c24,9.5,38.2,25.5,38.2,52.4c0,32.3-26.9,60.4-73.4,60.4C832.4,555.1,806.7,546.2,786.5,527"/>
				<path vectornator:layerName="path" class="st1" d="M955,456.6c0-64.2,43.2-101.2,91.8-101.2c25.2,0,45.3,11.2,58.6,25.2
					l-24.3,27.8c-9.5-8.9-19.5-13.3-33.2-13.3c-25.5,0-45.9,22.5-45.9,59.8c0,38.5,18.1,60.7,45,60.7c15.7,0,27.8-6.2,37-16l24,27.2
					c-16.9,19.2-38.2,28.4-62.5,28.4C996.4,555.1,955,521.7,955,456.6"/>
				<path vectornator:layerName="path" class="st1" d="M1136.4,358.9h46.2v192.7h-46.2V358.9z"/>
				<path vectornator:layerName="path" class="st1" d="M1227,358.9h122v38.5h-75.8v36.1h64.8V472h-64.8v41.1h78.7v38.5H1227V358.9z"
					/>
				<path vectornator:layerName="path" class="st1" d="M1389.8,358.9h47.7l47.4,92.4c6.8,13,13,28.4,18.9,43.5h1.2
					c-2.4-20.7-5.9-48.2-5.9-71v-64.8h43.5v192.7h-47.4l-47.7-92.4c-6.5-13-12.7-28.4-18.6-43.5h-1.2c2.4,21.3,5.9,48,5.9,71v64.8
					h-43.8V358.9z"/>
				<path vectornator:layerName="path" class="st1" d="M1578.3,456.6c0-64.2,43.2-101.2,91.8-101.2c25.2,0,45.3,11.2,58.6,25.2
					l-24.3,27.8c-9.5-8.9-19.5-13.3-33.2-13.3c-25.5,0-45.9,22.5-45.9,59.8c0,38.5,18,60.7,45,60.7c15.7,0,27.8-6.2,37-16l24,27.2
					c-16.9,19.2-38.2,28.4-62.4,28.4C1619.8,555.1,1578.3,521.7,1578.3,456.6"/>
				<path vectornator:layerName="path" class="st1" d="M1759.8,358.9h122v38.5h-75.8v36.1h64.8V472h-64.8v41.1h78.7v38.5h-124.9
					V358.9z"/>
				<path vectornator:layerName="path" class="st1" d="M786.5,795.8L870,669.4h-75.5v-38.5h132v27.5l-83.2,126.7h83.8v38.5H786.5
					V795.8z"/>
				<path vectornator:layerName="path" class="st1" d="M955.3,733V630.9h45.9V738c0,36.7,11,49.4,32,49.4
					c21.3,0,32.9-12.7,32.9-49.4V630.9h44.1V733c0,65.1-25.8,94.1-77,94.1C981.9,827.1,955.3,798.1,955.3,733"/>
				<path vectornator:layerName="path" class="st1" d="M1220.8,719.4c21.9,0,33.7-9.5,33.7-27.8s-11.8-24.3-33.7-24.3h-21v52.1
					H1220.8z M1153.6,630.9h70.7c40.8,0,75.2,14.2,75.2,60.7c0,28.1-13.3,46.2-33.2,55.6l42.9,76.4h-51.5l-35.5-67.8h-22.5v67.8
					h-46.2V630.9z"/>
				<path vectornator:layerName="path" class="st1" d="M1336.5,630.9h46.2v192.7h-46.2V630.9z"/>
				<path vectornator:layerName="path" class="st1" d="M1418.2,728.6c0-64.2,43.2-101.2,91.8-101.2c25.2,0,45.3,11.2,58.6,25.2
					l-24.3,27.8c-9.5-8.9-19.5-13.3-33.2-13.3c-25.5,0-45.9,22.5-45.9,59.8c0,38.5,18.1,60.7,45,60.7c15.7,0,27.8-6.2,37-16l24,27.2
					c-16.9,19.2-38.2,28.4-62.5,28.4C1459.6,827.1,1418.2,793.7,1418.2,728.6"/>
				<path vectornator:layerName="path" class="st1" d="M1599.6,630.9h46.2v73.4h63.6v-73.4h45.9v192.7h-45.9v-79.3h-63.6v79.3h-46.2
					V630.9z"/>
			</g>
		</g>
	</g>
</g>
</svg>
