<svg width="845" height="136" viewBox="0 0 845 136" fill="none" xmlns="http://www.w3.org/2000/svg">
<path d="M152.1 112.2V107.3L164 88C164.7 86.9 165.4 85.9 166.1 84.9C164.9 85 163.4 85 160.1 85H152.5V79.3H173.7V84.4L161.2 104.2C160.7 105 160.3 105.7 159.7 106.5C160.5 106.4 162.8 106.4 166.8 106.4H173.9V112.2H152.1V112.2ZM194.1 112.2C194.1 111.1 194.1 109.2 194.4 107.9C192.9 110.8 190.2 112.8 186.2 112.8C180.7 112.8 179 109.3 179 105.1V88H185.2V103.5C185.2 106 185.9 107.5 188.2 107.5C191.4 107.5 193.8 103.9 193.8 99.7V88H200V112.2H194.1ZM219.6 93.6C215.1 92.7 212.9 95.6 212.9 102.3V112.2H206.7V88H212.6C212.6 89.2 212.5 91.2 212.2 92.9H212.3C213.5 89.8 215.8 87.2 220 87.5L219.6 93.6ZM227.5 84.8C225.4 84.8 223.7 83.1 223.7 81C223.7 79 225.4 77.3 227.5 77.3C229.6 77.3 231.4 79 231.4 81C231.4 83.1 229.7 84.8 227.5 84.8ZM224.4 112.2V88H230.6V112.2H224.4ZM246.1 112.6C239.4 112.6 235.2 109.1 235.2 100.9C235.2 93.3 239.1 87.6 247.7 87.6C249.4 87.6 251.1 87.8 252.7 88.3L252.1 93.7C250.8 93.2 249.3 92.8 247.7 92.8C243.8 92.8 241.8 95.7 241.8 100.3C241.8 104.4 243.4 107.3 247.6 107.3C249.3 107.3 251.1 107 252.4 106.3L252.9 111.6C251.1 112.1 248.7 112.6 246.1 112.6ZM272.5 112.2V96.7C272.5 94.2 271.8 92.7 269.5 92.7C266.3 92.7 263.9 96.3 263.9 100.5V112.2H257.7V76.6H263.9V87C263.9 88.5 263.8 90.5 263.5 91.9H263.6C265 89.2 267.8 87.4 271.5 87.4C277 87.4 278.7 90.9 278.7 95.1V112.1H272.5V112.2ZM288.3 89.2C284.4 89.2 283.4 87.1 283.4 84.6V76.6H286.3V84.5C286.3 86 286.8 86.9 288.5 86.9C290.1 86.9 290.7 86.2 290.7 84.4V76.7H293.5V84.2C293.6 87.6 291.6 89.2 288.3 89.2ZM296 89V86.8L300 80.1C300.2 79.8 300.4 79.5 300.7 79.1C300.4 79.1 300 79.1 298.8 79.1H296.2V76.5H304.2V78.8L300 85.6C299.9 85.8 299.7 86 299.5 86.3C299.7 86.3 300.4 86.3 301.9 86.3H304.2V89H296ZM314.2 89V83.8H309.7V89H306.8V76.6H309.7V81.4H314.2V76.6H317.1V89H314.2ZM166.1 61.2C155.7 61.2 153.4 55.6 153.4 49.3V27.8H159.7V48.9C159.7 53 161.1 56 166.5 56C171.4 56 173.4 54 173.4 48.4V27.8H179.7V47.9C179.7 56.9 174.7 61.2 166.1 61.2ZM201.3 60.7V45.2C201.3 42.7 200.6 41.2 198.3 41.2C195.1 41.2 192.6 44.8 192.6 49V60.7H186.4V36.5H192.3C192.3 37.6 192.2 39.5 192 40.8C193.5 37.9 196.3 35.9 200.2 35.9C205.7 35.9 207.4 39.4 207.4 43.6V60.6H201.3V60.7ZM217.4 33.4C215.3 33.4 213.6 31.7 213.6 29.6C213.6 27.6 215.3 25.8 217.4 25.8C219.5 25.8 221.3 27.5 221.3 29.6C221.3 31.7 219.5 33.4 217.4 33.4ZM214.3 60.7V36.5H220.5V60.7H214.3ZM239.3 60.7H233L224 36.5H230.8L234.6 47.4C235.2 49.1 235.8 51 236.2 52.8H236.3C236.7 51.1 237.2 49.3 237.8 47.6L241.7 36.5H248.3L239.3 60.7ZM270.6 49.6H255.6C255.6 54.1 257.8 56.3 262.3 56.3C264.7 56.3 267.3 55.8 269.4 54.8L270 59.6C267.4 60.6 264.3 61.2 261.3 61.2C253.6 61.2 249.3 57.4 249.3 48.8C249.3 41.4 253.4 35.9 260.6 35.9C267.7 35.9 270.8 40.7 270.8 46.7C270.8 47.6 270.8 48.6 270.6 49.6ZM260.5 40.5C257.9 40.5 256.1 42.4 255.8 45.3H264.7C264.8 42.3 263.1 40.5 260.5 40.5ZM289 42.1C284.5 41.2 282.3 44.1 282.3 50.8V60.7H276.1V36.5H282C282 37.7 281.9 39.7 281.6 41.4H281.7C282.9 38.3 285.2 35.7 289.4 36L289 42.1ZM297.5 61.2C295.7 61.2 294 61 292.4 60.8L292.5 55.7C294 56.1 295.9 56.4 297.7 56.4C300.1 56.4 301.6 55.4 301.6 53.8C301.6 49.5 291.8 51.9 291.8 43.7C291.8 39.5 295.3 36 302.1 36C303.5 36 305.1 36.2 306.5 36.4L306.3 41.3C304.9 40.9 303.3 40.7 301.8 40.7C299.4 40.7 298.2 41.7 298.2 43.2C298.2 47.1 308.1 45.4 308.1 53.2C308.4 58 304.2 61.2 297.5 61.2ZM316.8 33.4C314.7 33.4 313 31.7 313 29.6C313 27.6 314.7 25.8 316.8 25.8C318.9 25.8 320.7 27.5 320.7 29.6C320.7 31.7 318.9 33.4 316.8 33.4ZM313.7 60.7V36.5H319.9V60.7H313.7ZM335.6 61.2C330.2 61.2 328.5 59.3 328.5 53.6V41.3H324.4V36.5H328.5V29L334.7 27.3V36.4H340.6V41.2H334.7V51.8C334.7 54.9 335.4 55.8 337.6 55.8C338.6 55.8 339.7 55.7 340.6 55.4V60.4C339.1 60.9 337.3 61.2 335.6 61.2ZM357.3 62.9C354.4 70.5 351.9 72.7 346.3 72.7C345.2 72.7 343.9 72.6 342.9 72.3L343.3 66.9C344.4 67.2 345.4 67.4 346.6 67.4C348.6 67.4 350 66.5 351.3 62.9L352.1 60.6L343.2 36.4H350.1L353.4 45.7C354.1 47.8 354.8 50.2 355.3 52.4C355.8 50.2 356.9 47 357.6 44.7L360.5 36.5H367.2L357.3 62.9ZM387.2 61.2C380.3 61.2 375.9 57.6 375.9 49C375.9 41.4 380.9 36 388.3 36C395.2 36 399.6 39.8 399.6 48.1C399.6 55.7 394.5 61.2 387.2 61.2ZM387.9 41.3C385.1 41.3 382.4 43.4 382.4 48.4C382.4 53.4 384.2 55.9 387.8 55.9C390.9 55.9 393.2 53.4 393.2 48.5C393.2 43.8 391.5 41.3 387.9 41.3ZM419.2 30.2C418.2 29.9 417.1 29.8 416.2 29.8C413.5 29.8 412.3 31.2 412.3 34.4V36.4H418V41.2H412.3V60.6H406.1V41.3H401.9V36.5H406.1V34.6C406.1 28 409.1 24.8 415.7 24.8C417 24.8 418.4 24.9 419.6 25.2L419.2 30.2Z" fill="white"/>
<path d="M22 92C20.6 92.6 20.3 92.7 20 92.9C19.7 93.1 19.6 93.2 19.6 93.5C19.6 93.6 19.7 93.7 19.7 93.9C19.7 94 19.7 94.1 19.7 94.1C19.6 94.1 19.6 94.1 19.5 93.9C19.3 93.4 19.1 92.8 18.9 92.5C18.8 92.3 18.5 91.7 18.4 91.4C18.3 91.3 18.3 91.2 18.4 91.2C18.5 91.2 18.5 91.2 18.5 91.3C18.5 91.4 18.6 91.5 18.6 91.6C18.8 91.8 18.9 91.8 19.3 91.7C19.6 91.6 19.9 91.5 21.3 90.9L22.6 90.3C23.9 89.7 24.4 89.2 24.6 88.6C24.8 88 24.6 87.6 24.5 87.3C24.3 86.9 24 86.4 23.4 86.2C22.7 85.9 21.8 86.2 20.9 86.6L19.7 87.1C18.3 87.7 18 87.8 17.7 88C17.4 88.2 17.3 88.3 17.3 88.6C17.3 88.7 17.4 88.8 17.4 88.9C17.4 89 17.4 89.1 17.4 89.1C17.3 89.1 17.3 89.1 17.2 88.9C17 88.4 16.8 87.8 16.8 87.8C16.8 87.7 16.5 87.1 16.3 86.8C16.2 86.7 16.2 86.6 16.3 86.6C16.4 86.6 16.4 86.6 16.5 86.7C16.5 86.8 16.6 86.9 16.6 87C16.8 87.2 16.9 87.2 17.3 87.1C17.6 87 17.9 86.9 19.3 86.3L20.3 85.9C21.3 85.5 22.5 85.1 23.5 85.6C24.3 86 24.7 86.6 25 87.2C25.2 87.7 25.6 88.6 25.2 89.5C25 90.2 24.4 90.8 23.1 91.4L22 92ZM21.6 81.6C22.4 81.4 22.6 81.2 22.6 81C22.6 80.8 22.6 80.6 22.6 80.5C22.6 80.4 22.6 80.3 22.6 80.3C22.7 80.3 22.7 80.4 22.7 80.5C22.8 81.1 22.9 81.5 22.9 81.7C22.9 81.8 23.1 82.2 23.2 82.8C23.2 82.9 23.2 83 23.1 83C23 83 23 83 23 82.9C23 82.8 22.9 82.6 22.9 82.5C22.8 82.3 22.5 82.3 21.6 82.5L15.7 83.7C15.5 83.7 15.4 83.7 15.3 83.6C15.3 83.5 15.4 83.4 15.5 83.2C15.6 83.1 16.9 81.2 18 79.4C18.5 78.6 19.7 76.9 19.8 76.7L15.4 77.8C14.8 77.9 14.6 78.1 14.6 78.3C14.6 78.5 14.6 78.7 14.7 78.8C14.7 78.9 14.7 79 14.6 79C14.5 79 14.5 78.9 14.5 78.8C14.4 78.3 14.3 77.8 14.3 77.6C14.3 77.5 14.2 77.1 14.1 76.6C14.1 76.5 14.1 76.4 14.1 76.4C14.2 76.4 14.2 76.4 14.2 76.6C14.2 76.7 14.2 76.8 14.3 76.9C14.4 77.2 14.7 77.2 15.2 77.1L21.5 75.8C21.7 75.8 21.8 75.8 21.8 75.9C21.8 76 21.7 76.2 21.7 76.3C21.2 77 20.2 78.6 19.4 79.8C18.6 81.1 17.6 82.5 17.4 82.7L21.6 81.6ZM16.7 72.6C15.2 72.7 14.9 72.7 14.6 72.8C14.3 72.8 14.1 73 14.1 73.2C14.1 73.3 14.1 73.4 14.1 73.6C14.1 73.7 14.1 73.8 14 73.8C13.9 73.8 13.9 73.7 13.9 73.6C13.9 73.2 13.9 72.6 13.8 72.3C13.8 72 13.7 71.5 13.7 71.1C13.7 71 13.7 70.9 13.8 70.9C13.9 70.9 13.9 71 13.9 71.1C13.9 71.2 13.9 71.3 13.9 71.4C14 71.7 14.1 71.7 14.5 71.7C14.8 71.7 15.1 71.7 16.6 71.6L18.4 71.5C19.4 71.4 20.2 71.4 20.6 71.3C20.9 71.3 21 71.2 21.1 70.9C21.1 70.8 21.1 70.5 21.1 70.4C21.1 70.3 21.1 70.2 21.2 70.2C21.3 70.2 21.3 70.3 21.3 70.4C21.3 71.1 21.4 71.7 21.4 72C21.4 72.2 21.5 72.9 21.5 73.3C21.5 73.4 21.5 73.5 21.4 73.5C21.3 73.5 21.3 73.5 21.3 73.3C21.3 73.1 21.3 73 21.2 72.9C21.1 72.7 21 72.6 20.7 72.6C20.3 72.6 19.5 72.6 18.5 72.7L16.7 72.6ZM14.6 68C14 68.2 13.9 68.4 13.8 68.7C13.7 68.8 13.7 69 13.7 69.1C13.7 69.2 13.7 69.2 13.6 69.2C13.5 69.2 13.5 69.1 13.5 68.9C13.5 68.4 13.6 67.8 13.6 67.4C13.6 67.1 13.6 66.7 13.7 66.2C13.7 66.1 13.7 66 13.8 66C13.9 66 13.9 66.1 13.9 66.2C13.9 66.4 13.9 66.5 13.9 66.6C13.9 66.7 14 66.7 14.1 66.7C14.2 66.7 14.5 66.6 14.9 66.5L19.6 65.1C18.5 64.6 15.4 63.1 14.7 62.8C14.6 62.7 14.4 62.7 14.3 62.7C14.2 62.7 14.1 62.7 14.1 62.8C14.1 62.9 14 63.1 14 63.2C14 63.3 14 63.4 13.9 63.4C13.8 63.4 13.8 63.3 13.8 63.1C13.8 62.6 13.9 62.2 13.9 62C13.9 61.8 13.9 61.4 13.9 61C13.9 60.9 13.9 60.8 14 60.8C14.1 60.8 14.1 60.9 14.1 61C14.1 61.1 14.1 61.3 14.2 61.5C14.3 61.6 14.4 61.8 15.1 62.1C16 62.6 16.6 62.9 17.8 63.5C19.2 64.2 20.3 64.8 20.8 65C21.4 65.3 21.5 65.4 21.5 65.5C21.5 65.6 21.3 65.7 20.9 65.8L14.6 68ZM17.4 59.1C15.9 58.8 15.6 58.7 15.3 58.7C15 58.6 14.8 58.7 14.6 59C14.6 59.1 14.5 59.2 14.5 59.4C14.5 59.5 14.4 59.6 14.4 59.5C14.3 59.5 14.3 59.4 14.4 59.3C14.5 59 14.5 58.7 14.6 58.5C14.7 58.2 14.7 58 14.8 57.9C14.9 57.6 15.3 55.6 15.3 55.4C15.3 55.2 15.3 55 15.3 55C15.3 54.9 15.3 54.9 15.3 54.8C15.3 54.7 15.4 54.7 15.4 54.8C15.5 54.8 15.6 54.9 16 55C16.1 55 16.5 55.1 16.6 55.2L16.7 55.3C16.7 55.4 16.6 55.4 16.5 55.4C16.4 55.4 16.3 55.4 16.1 55.4C15.9 55.4 15.8 55.5 15.6 56C15.5 56.2 15.3 57.2 15.3 57.4C15.3 57.4 15.3 57.5 15.4 57.5L17.9 58C18 58 18 58 18 58C18 57.8 18.3 56.6 18.3 56.4C18.3 56.2 18.3 56 18.3 55.9C18.2 55.8 18.2 55.8 18.2 55.7C18.2 55.7 18.2 55.6 18.3 55.6C18.4 55.6 18.5 55.7 19 55.8C19.2 55.9 19.6 56 19.7 56C19.8 56 19.9 56 19.9 56.1C19.9 56.2 19.8 56.2 19.8 56.2C19.7 56.2 19.6 56.2 19.4 56.2C19.2 56.2 19 56.3 18.9 56.7C18.8 56.9 18.6 57.9 18.6 58.1C18.6 58.1 18.6 58.2 18.7 58.2L19.5 58.4C19.8 58.5 20.7 58.7 21 58.7C21.7 58.8 21.9 58.7 22.1 57.7C22.2 57.4 22.2 57 22.2 56.7C22.1 56.4 22 56.3 21.6 56.1C21.5 56.1 21.5 56 21.5 56C21.5 55.9 21.6 55.9 21.7 56C21.9 56.1 22.6 56.3 22.8 56.4C23 56.5 23 56.6 22.9 57C22.7 57.7 22.6 58.3 22.5 58.7C22.4 59.1 22.3 59.4 22.2 59.7C22.2 59.8 22.1 60 22.1 60.3C22 60.5 22 60.8 22 61C22 61.1 21.9 61.2 21.9 61.2C21.9 61.2 21.8 61.1 21.9 61C21.9 60.9 21.9 60.7 21.9 60.6C21.9 60.4 21.7 60.3 21.4 60.2C21 60.1 20.2 59.9 19.3 59.7L17.4 59.1ZM19.3 51.8C17.9 51.2 17.6 51.1 17.3 51C17 51 16.8 51 16.6 51.3C16.6 51.4 16.5 51.5 16.4 51.7C16.4 51.8 16.3 51.9 16.3 51.8C16.2 51.8 16.2 51.7 16.3 51.6C16.5 51.1 16.8 50.5 16.8 50.3C16.9 50 17.2 49.2 17.3 49C17.5 48.4 17.8 47.8 18.4 47.4C18.7 47.2 19.3 47 19.9 47.3C20.6 47.6 21.1 48.1 21.5 49.4C22.9 49 24 48.6 24.8 48.3C25.6 48 25.8 47.6 25.9 47.5C26 47.4 26 47.3 26 47.2C26 47.1 26.1 47.1 26.1 47.1C26.2 47.1 26.2 47.2 26.1 47.3L25.8 48.2C25.6 48.7 25.5 48.9 25.2 49.1C24.8 49.4 24.2 49.6 23.3 49.9C22.6 50.1 21.8 50.3 21.6 50.3C21.5 50.3 21.5 50.4 21.5 50.4L21.2 51.2V51.3L21.3 51.4C22.2 51.7 22.9 52 23.3 52.1C23.6 52.2 23.8 52.2 24 51.9C24.1 51.8 24.2 51.6 24.2 51.5C24.2 51.4 24.3 51.4 24.3 51.4C24.4 51.4 24.4 51.5 24.3 51.6C24.1 52.1 23.8 52.8 23.7 53C23.6 53.2 23.4 53.8 23.3 54.2C23.3 54.3 23.2 54.4 23.1 54.4C23.1 54.4 23 54.3 23.1 54.2C23.2 54.1 23.2 53.9 23.2 53.8C23.2 53.6 23 53.5 22.8 53.3C22.4 53.1 21.7 52.8 20.8 52.5L19.3 51.8ZM20.5 51C20.6 51 20.6 51 20.7 51C20.8 50.8 21 50.6 21.1 50.3C21.2 49.9 21.3 49.8 21.2 49.6C21.1 49.2 20.8 48.8 20 48.5C18.7 48 17.9 48.7 17.7 49.3C17.6 49.5 17.6 49.7 17.5 49.8C17.5 49.9 17.5 49.9 17.6 49.9L20.5 51ZM26.4 46.8C26.3 46.9 26.2 46.9 26 46.8C25.5 46.5 25 46.2 24.9 46.1C24.8 46 24.7 45.9 24.7 45.9C24.7 45.8 24.8 45.9 24.9 45.9C25 46 25.2 46 25.4 46.1C26.2 46.3 26.7 45.9 27 45.4C27.4 44.6 27.1 43.9 26.7 43.7C26.3 43.5 25.8 43.4 24.8 43.8L24.3 44C23 44.5 22.2 44.5 21.5 44.1C20.5 43.5 20.3 42.3 21 41.1C21.3 40.5 21.6 40.2 21.8 40C21.9 39.9 21.9 39.9 22 39.9C22.1 40 22.3 40.1 23 40.5C23.2 40.6 23.2 40.7 23.2 40.7C23.2 40.8 23.1 40.8 23 40.7C22.9 40.7 22.6 40.5 22.3 40.6C22.1 40.6 21.6 40.7 21.3 41.3C20.9 42 21.1 42.6 21.6 42.9C22 43.1 22.4 43.1 23.4 42.7L23.7 42.6C25.1 42 25.9 42 26.8 42.4C27.3 42.7 27.8 43.2 27.9 44.1C27.9 44.7 27.7 45.2 27.5 45.7C27.1 46.1 26.8 46.5 26.4 46.8ZM26.2 38.4C25 37.5 24.7 37.3 24.5 37.2C24.2 37 24 37 23.8 37.1C23.7 37.2 23.6 37.3 23.6 37.4C23.5 37.5 23.5 37.5 23.4 37.5C23.4 37.5 23.4 37.4 23.5 37.3C23.7 37 24.1 36.5 24.3 36.3C24.4 36.1 24.8 35.6 25 35.3C25.1 35.2 25.1 35.1 25.2 35.2C25.3 35.3 25.2 35.3 25.2 35.4C25.1 35.5 25.1 35.6 25 35.7C24.9 36 25 36.1 25.2 36.3C25.4 36.5 25.7 36.7 26.9 37.6L28.3 38.7C29.1 39.3 29.7 39.8 30.1 40C30.3 40.1 30.5 40.2 30.7 40C30.8 39.9 30.9 39.7 31 39.6C31.1 39.5 31.1 39.5 31.2 39.5C31.3 39.5 31.2 39.6 31.2 39.7C30.8 40.2 30.4 40.7 30.2 41C30.1 41.2 29.7 41.7 29.5 42C29.4 42.1 29.4 42.1 29.3 42.1C29.3 42.1 29.3 42 29.3 41.9C29.4 41.8 29.4 41.7 29.5 41.6C29.6 41.4 29.5 41.3 29.3 41.1C29 40.8 28.3 40.3 27.5 39.8L26.2 38.4ZM28.7 31.6L27.7 32.7C27.3 33.1 27.2 33.4 27.2 33.6C27.2 33.8 27.3 33.9 27.3 34C27.3 34.1 27.4 34.1 27.3 34.2C27.3 34.3 27.2 34.2 27.1 34.2C27 34.1 26.4 33.3 26.4 33.2C26.3 33.1 26.3 33 26.3 33C26.4 32.9 26.5 32.9 26.7 32.8C26.9 32.6 27.2 32.3 27.4 32.1L30.1 29.2C30.3 29 30.5 28.8 30.5 28.7C30.6 28.6 30.6 28.5 30.7 28.5C30.7 28.4 30.8 28.5 30.9 28.6C31.1 28.7 31.5 29.2 31.7 29.4C31.8 29.5 31.8 29.5 31.8 29.6C31.7 29.7 31.7 29.6 31.6 29.5L31.5 29.4C31.3 29.2 30.9 29.2 30.3 29.9L29.4 30.8L32.4 33.6C33.1 34.2 33.7 34.8 34 35C34.2 35.2 34.4 35.3 34.7 35.1C34.8 35 35 34.9 35.1 34.8C35.2 34.7 35.2 34.7 35.3 34.7C35.4 34.8 35.3 34.8 35.2 34.9C34.7 35.4 34.3 35.8 34.1 36C33.9 36.2 33.5 36.7 33.2 36.9C33.1 37 33 37 33 37C33 37 33 36.9 33.1 36.8C33.2 36.7 33.3 36.6 33.3 36.5C33.4 36.3 33.3 36.1 33.1 35.9C32.8 35.6 32.2 35 31.6 34.4L28.7 31.6ZM36.4 30.4V30.5L36.9 32C37 32.3 37.1 32.5 37.2 32.6C37.3 32.7 37.5 32.8 37.7 32.6L37.8 32.5C37.9 32.4 37.9 32.4 38 32.5C38.1 32.6 38 32.6 37.9 32.7C37.6 32.9 37.3 33.1 37 33.3C36.9 33.4 36.5 33.7 36.1 34.1C36 34.2 35.9 34.2 35.9 34.1V34C36 33.9 36.1 33.8 36.1 33.8C36.4 33.5 36.4 33.1 36.2 32.6L34.2 26.1C34.1 25.8 34.1 25.7 34.2 25.6C34.3 25.5 34.4 25.6 34.6 25.7C35.1 26 39 28.2 40.4 29C41.3 29.5 41.6 29.4 41.8 29.3C41.9 29.2 42.1 29.1 42.2 29.1C42.3 29.1 42.3 29 42.4 29.1C42.5 29.2 42.4 29.2 42.1 29.5C41.8 29.7 41.2 30.2 40.6 30.7C40.5 30.8 40.4 30.9 40.3 30.8C40.3 30.8 40.3 30.7 40.4 30.6C40.4 30.5 40.4 30.4 40.3 30.4L38.3 29.2H38.2L36.4 30.4ZM37.7 28.7C37.7 28.7 37.7 28.6 37.7 28.7L35.4 27.2C35.4 27.2 35.3 27.1 35.3 27.2V27.3L36.1 29.8C36.1 29.8 36.1 29.9 36.2 29.8L37.7 28.7ZM42.9 28.6C42.7 28.6 42.7 28.6 42.6 28.4C42.3 27.9 42 27.4 42 27.2C41.9 27.1 41.9 27 42 26.9C42.1 26.9 42.1 26.9 42.2 27C42.3 27.1 42.4 27.3 42.5 27.4C43.1 27.9 43.7 27.9 44.3 27.5C45.1 27 45.2 26.3 44.9 25.8C44.6 25.4 44.3 25.1 43.2 24.9L42.5 25C41.1 24.8 40.4 24.4 40 23.7C39.4 22.7 39.8 21.6 41 20.9C41.6 20.6 42 20.4 42.2 20.4C42.3 20.4 42.3 20.4 42.4 20.4C42.5 20.5 42.6 20.8 43 21.5C43.1 21.7 43.1 21.8 43.1 21.8C43 21.8 43 21.8 42.9 21.7C42.9 21.6 42.7 21.4 42.3 21.3C42.1 21.2 41.7 21.1 41.1 21.4C40.5 21.8 40.3 22.4 40.6 22.9C40.8 23.3 41.2 23.5 42.3 23.6H42.7C44.2 23.8 45 24.1 45.4 25C45.7 25.5 45.9 26.2 45.5 27C45.2 27.5 44.8 27.9 44.3 28.2C43.8 28.4 43.4 28.6 42.9 28.6ZM95.7 21.3L94.4 20.6C93.9 20.3 93.6 20.2 93.4 20.4C93.2 20.5 93.1 20.6 93.1 20.6C93 20.7 93 20.7 92.9 20.6C92.8 20.6 92.8 20.5 92.9 20.4C93 20.3 93.6 19.6 93.7 19.5C93.8 19.4 93.8 19.4 93.9 19.4C94 19.4 94 19.6 94.2 19.7C94.4 19.9 94.8 20.1 95 20.3L98.5 22.3C98.8 22.5 99 22.6 99.1 22.6C99.2 22.7 99.3 22.7 99.4 22.7C99.5 22.7 99.4 22.8 99.4 22.9C99.3 23.1 98.9 23.7 98.8 23.9C98.7 24 98.7 24 98.6 24C98.5 24 98.5 23.9 98.6 23.8V23.7C98.7 23.5 98.6 23.1 97.9 22.6L96.8 21.9L94.7 25.5C94.2 26.3 93.8 27 93.6 27.4C93.5 27.7 93.4 27.9 93.7 28.1C93.8 28.2 94 28.3 94.1 28.4C94.2 28.5 94.2 28.5 94.2 28.6C94.2 28.7 94.1 28.6 94 28.6C93.4 28.3 92.9 27.9 92.6 27.8C92.4 27.7 91.8 27.4 91.5 27.2C91.4 27.1 91.3 27.1 91.4 27C91.4 27 91.5 27 91.6 27C91.7 27.1 91.8 27.1 91.9 27.2C92.1 27.3 92.3 27.1 92.4 26.9C92.7 26.6 93.1 25.9 93.5 25.1L95.7 21.3ZM100.3 27C101.3 25.8 101.5 25.6 101.7 25.4C101.9 25.1 102 25 101.7 24.7C101.7 24.6 101.5 24.5 101.4 24.4C101.3 24.3 101.3 24.3 101.3 24.2C101.3 24.1 101.4 24.2 101.5 24.3C101.9 24.6 102.4 25.1 102.6 25.3C102.8 25.5 103.3 25.9 103.6 26.1C103.7 26.2 103.8 26.3 103.7 26.3C103.7 26.4 103.6 26.3 103.5 26.3C103.4 26.2 103.4 26.2 103.3 26.1C103.1 26 102.9 26 102.6 26.3C102.4 26.5 102.2 26.7 101.2 27.9L100.3 29C99.3 30.1 99.2 30.8 99.3 31.4C99.4 32 99.7 32.3 100 32.5C100.3 32.8 100.8 33 101.4 33C102.2 32.9 102.8 32.3 103.5 31.5L104.3 30.5C105.3 29.3 105.5 29.1 105.7 28.9C105.9 28.6 106 28.4 105.7 28.2C105.7 28.1 105.5 28 105.4 27.9C105.3 27.8 105.3 27.8 105.3 27.7C105.3 27.6 105.4 27.7 105.5 27.8C105.9 28.1 106.4 28.6 106.4 28.6C106.5 28.7 107 29.1 107.3 29.3C107.4 29.4 107.4 29.5 107.4 29.5C107.4 29.6 107.3 29.5 107.2 29.4C107.1 29.3 107.1 29.3 107 29.2C106.8 29.1 106.6 29.1 106.3 29.4C106.1 29.6 105.9 29.8 104.9 31L104.2 31.8C103.5 32.6 102.6 33.5 101.5 33.5C100.6 33.5 99.9 33.1 99.4 32.7C99 32.4 98.3 31.7 98.2 30.7C98.1 30 98.3 29.2 99.3 28.1L100.3 27ZM107.9 34.3C109.1 33.3 109.3 33.2 109.6 32.9C109.9 32.7 109.9 32.5 109.8 32.2C109.8 32.1 109.7 32 109.6 31.9C109.5 31.8 109.5 31.8 109.6 31.7C109.7 31.7 109.7 31.7 109.8 31.8C110.1 32.2 110.5 32.7 110.6 32.9C110.8 33.2 111.3 33.7 111.5 34C111.9 34.5 112.3 35.1 112.3 35.7C112.3 36 112.2 36.7 111.7 37.1C111.1 37.6 110.4 37.8 109.1 37.5C108.8 38.9 108.5 40 108.4 40.9C108.3 41.7 108.5 42.1 108.6 42.2C108.7 42.3 108.7 42.4 108.8 42.4C108.9 42.5 108.9 42.5 108.8 42.5C108.7 42.5 108.7 42.5 108.6 42.4L108 41.7C107.6 41.3 107.5 41 107.5 40.7C107.4 40.2 107.5 39.6 107.8 38.7C108 38 108.2 37.2 108.3 37C108.3 36.9 108.3 36.9 108.2 36.8L107.7 36.1C107.7 36.1 107.6 36 107.6 36.1L107.5 36.2C106.8 36.8 106.1 37.3 105.8 37.6C105.6 37.8 105.5 38 105.6 38.3C105.7 38.4 105.8 38.6 105.9 38.7C106 38.8 106 38.8 105.9 38.8C105.8 38.8 105.8 38.8 105.7 38.7C105.3 38.2 104.9 37.6 104.8 37.5C104.7 37.4 104.3 36.9 104 36.6C103.9 36.5 103.9 36.4 104 36.4C104 36.4 104.1 36.4 104.2 36.5C104.3 36.6 104.4 36.7 104.5 36.8C104.7 36.9 104.9 36.8 105.1 36.7C105.5 36.5 106.1 36 106.8 35.4L107.9 34.3ZM108.1 35.7C108 35.8 108 35.8 108 35.9C108.1 36.1 108.2 36.4 108.4 36.6C108.7 36.9 108.8 37 109 37.1C109.4 37.2 109.9 37.1 110.6 36.6C111.7 35.7 111.4 34.7 111.1 34.2C110.9 34 110.8 33.9 110.7 33.8C110.6 33.8 110.6 33.8 110.5 33.8L108.1 35.7ZM113.3 41.6C114.6 40.8 114.9 40.7 115.1 40.5C115.4 40.3 115.5 40.1 115.4 39.9C115.4 39.8 115.3 39.7 115.3 39.6C115.2 39.5 115.2 39.4 115.3 39.4C115.4 39.4 115.4 39.4 115.5 39.6C115.7 39.9 116 40.5 116.1 40.7C116.2 40.9 116.6 41.4 116.8 41.7C116.9 41.8 116.9 41.9 116.8 41.9C116.7 41.9 116.7 41.9 116.6 41.8C116.5 41.7 116.5 41.6 116.4 41.6C116.2 41.4 116 41.4 115.7 41.6C115.4 41.7 115.2 41.9 113.8 42.7L112.3 43.6C111.5 44.1 110.8 44.5 110.4 44.8C110.2 45 110.1 45.1 110.2 45.4C110.3 45.5 110.4 45.7 110.4 45.9C110.5 46 110.5 46.1 110.4 46.1C110.3 46.1 110.3 46.1 110.2 46C109.9 45.4 109.6 44.9 109.4 44.6C109.3 44.4 108.9 43.9 108.7 43.5C108.6 43.4 108.6 43.3 108.7 43.3C108.7 43.3 108.8 43.3 108.9 43.4C109 43.5 109.1 43.6 109.1 43.7C109.2 43.9 109.4 43.8 109.7 43.7C110.1 43.5 110.8 43.1 111.6 42.6L113.3 41.6ZM112.5 48.1C112.9 46.9 113.9 46.2 114.8 45.8C115.4 45.5 116.6 45.3 117.8 45.8C118.7 46.2 119.4 46.9 120 48.3C120.2 48.9 120.3 49.2 120.5 49.7C120.6 50.1 120.6 50.4 120.7 50.7C120.7 50.8 120.7 50.9 120.6 50.9C120.5 50.9 120.4 51 120.1 51.1C119.8 51.2 119.3 51.4 119.1 51.5C119 51.6 118.9 51.6 118.8 51.5C118.8 51.4 118.8 51.4 119 51.3C119.3 51.2 119.6 50.9 119.7 50.6C119.9 50.2 119.9 49.3 119.5 48.5C119.2 47.7 118.7 47.2 118.2 47C117.3 46.6 116.3 46.8 115.4 47.1C113.2 48 112.8 50.2 113.3 51.4C113.6 52.2 113.9 52.7 114.5 52.9C114.7 53 115.1 53 115.2 53C115.4 53 115.4 53 115.4 53C115.4 53.1 115.4 53.1 115.3 53.1C115.2 53.1 114.3 53.4 114 53.4C113.8 53.4 113.8 53.4 113.6 53.3C113.3 53 112.9 52.3 112.7 51.7C112.3 50.4 112.2 49.2 112.5 48.1ZM119.2 55.7C120.7 55.4 121 55.3 121.3 55.2C121.6 55.1 121.8 55 121.8 54.7C121.8 54.6 121.8 54.4 121.7 54.3C121.7 54.2 121.7 54.1 121.8 54.1C121.9 54.1 121.9 54.2 121.9 54.3C122 54.6 122 54.9 122.1 55.1C122.1 55.4 122.2 55.6 122.2 55.7C122.3 56 122.7 58 122.8 58.2C122.9 58.4 122.9 58.5 123 58.6C123 58.6 123.1 58.7 123.1 58.8C123.1 58.8 123.1 58.9 123 58.9C122.9 58.9 122.8 58.9 122.3 59C122.2 59 121.8 59.1 121.6 59.1C121.5 59.1 121.5 59.1 121.5 59C121.5 58.9 121.5 58.9 121.6 58.9C121.7 58.9 121.8 58.8 121.9 58.8C122.1 58.7 122.2 58.6 122.1 58.1C122.1 57.9 121.9 56.9 121.8 56.7C121.8 56.6 121.8 56.6 121.7 56.7L119.2 57.3C119.1 57.3 119.1 57.3 119.1 57.4C119.1 57.6 119.4 58.8 119.5 59C119.6 59.2 119.6 59.4 119.8 59.4C119.9 59.5 120 59.5 120 59.5C120 59.5 120 59.6 119.9 59.6C119.8 59.6 119.7 59.6 119.2 59.7C119 59.7 118.6 59.8 118.5 59.8C118.4 59.8 118.3 59.8 118.3 59.8C118.3 59.7 118.3 59.7 118.4 59.7C118.5 59.7 118.6 59.6 118.7 59.6C118.9 59.5 119 59.3 119 59C119 58.8 118.8 57.8 118.7 57.6C118.7 57.6 118.6 57.5 118.6 57.6L117.8 57.8C117.5 57.9 116.6 58.1 116.3 58.1C115.6 58.3 115.5 58.5 115.7 59.5C115.8 59.8 115.9 60.2 116 60.4C116.2 60.6 116.4 60.7 116.8 60.7C116.9 60.7 117 60.7 117 60.8C117 60.9 116.9 60.9 116.8 60.9C116.6 61 115.9 61 115.7 61C115.4 61 115.4 60.9 115.3 60.5C115.1 59.8 115 59.2 114.9 58.8C114.8 58.4 114.8 58.1 114.7 57.8C114.7 57.7 114.6 57.5 114.6 57.2C114.5 57 114.5 56.7 114.4 56.5C114.4 56.4 114.4 56.3 114.5 56.3C114.5 56.3 114.6 56.3 114.6 56.4C114.6 56.5 114.7 56.7 114.7 56.7C114.8 56.9 115 56.9 115.3 56.9C115.7 56.9 116.5 56.7 117.4 56.5L119.2 55.7ZM117.3 64.3C116.5 64.3 116.3 64.5 116.2 64.7C116.1 64.9 116.1 65.1 116.1 65.2C116.1 65.3 116.1 65.4 116 65.4C115.9 65.4 115.9 65.3 115.9 65.2C115.9 64.5 115.9 64.1 115.9 63.9C115.9 63.8 115.8 63.3 115.8 62.8C115.8 62.7 115.8 62.6 115.9 62.6C116 62.6 116 62.7 116 62.8C116 62.9 116 63.1 116.1 63.3C116.2 63.6 116.5 63.6 117.4 63.6L123.4 63.5C123.6 63.5 123.7 63.5 123.7 63.6C123.7 63.7 123.6 63.8 123.4 64C123.3 64.1 121.7 65.7 120.3 67.2C119.6 67.9 118.2 69.3 118.1 69.5V69.6L122.6 69.3C123.2 69.3 123.4 69.2 123.5 68.9C123.6 68.7 123.5 68.5 123.5 68.4C123.5 68.3 123.5 68.2 123.6 68.2C123.7 68.2 123.7 68.3 123.7 68.5C123.7 69 123.7 69.5 123.7 69.7C123.7 69.8 123.7 70.2 123.8 70.7C123.8 70.8 123.8 70.9 123.7 70.9C123.6 70.9 123.6 70.8 123.6 70.7C123.6 70.6 123.6 70.5 123.6 70.4C123.5 70.1 123.3 70 122.7 70.1L116.3 70.2C116.1 70.2 116 70.2 116 70.1C116 70 116.1 69.9 116.2 69.8C116.8 69.1 118.1 67.8 119.1 66.7C120.2 65.6 121.4 64.4 121.6 64.2L117.3 64.3ZM116 73.6C116.1 73.4 116.1 73.4 116.4 73.5C117 73.6 117.5 73.7 117.7 73.7C117.8 73.7 118 73.8 117.9 73.9C117.9 74 117.8 74 117.7 74C117.6 74 117.4 74 117.2 74C116.4 74.1 116.1 74.7 116 75.3C115.9 76.2 116.4 76.7 116.9 76.8C117.4 76.9 117.9 76.8 118.6 76.1L119 75.7C120 74.7 120.8 74.4 121.6 74.6C122.7 74.8 123.4 75.8 123.2 77.2C123.1 77.8 122.9 78.3 122.8 78.5C122.8 78.6 122.7 78.6 122.7 78.6C122.6 78.6 122.3 78.5 121.5 78.4C121.3 78.4 121.2 78.3 121.2 78.2C121.2 78.1 121.3 78.1 121.4 78.1C121.5 78.1 121.8 78.1 122.1 77.9C122.3 77.8 122.7 77.5 122.7 76.9C122.8 76.2 122.4 75.6 121.8 75.6C121.3 75.5 121 75.7 120.2 76.5L119.9 76.7C118.8 77.8 118.1 78.1 117.1 78C116.5 77.9 115.9 77.6 115.5 76.8C115.3 76.3 115.2 75.7 115.3 75.1C115.6 74.5 115.7 74 116 73.6ZM119 82.2C120.5 82.6 120.8 82.7 121.1 82.8C121.4 82.9 121.6 82.8 121.7 82.6C121.8 82.5 121.8 82.4 121.8 82.3C121.8 82.2 121.9 82.2 121.9 82.2C122 82.2 122 82.3 121.9 82.5C121.8 82.9 121.6 83.5 121.5 83.8C121.4 84 121.3 84.6 121.2 85C121.2 85.1 121.1 85.2 121.1 85.2C121 85.2 121 85.1 121 85C121 84.9 121 84.8 121.1 84.7C121.1 84.4 121 84.3 120.6 84.2C120.3 84.1 120 84 118.5 83.6L116.8 83.1C115.9 82.8 115.1 82.6 114.7 82.5C114.4 82.5 114.2 82.5 114.1 82.8C114 82.9 114 83.1 113.9 83.3C113.9 83.4 113.8 83.4 113.8 83.4C113.7 83.4 113.7 83.3 113.8 83.2C114 82.6 114.2 82 114.3 81.7C114.4 81.5 114.5 80.9 114.6 80.5C114.6 80.4 114.7 80.3 114.8 80.3C114.8 80.3 114.9 80.4 114.8 80.5C114.8 80.6 114.7 80.8 114.7 80.9C114.7 81.1 114.8 81.2 115.1 81.3C115.5 81.5 116.3 81.7 117.2 81.9L119 82.2ZM113 85.8C113.1 85.7 113.2 85.7 113.4 85.8C113.9 86 114.5 86.3 114.6 86.4C114.7 86.5 114.8 86.5 114.8 86.6C114.8 86.7 114.7 86.7 114.6 86.6C114.5 86.6 114.3 86.5 114.1 86.5C113.3 86.4 112.8 86.8 112.6 87.4C112.2 88.2 112.6 88.9 113.1 89.1C113.6 89.3 114 89.3 115 88.8L115.5 88.5C116.7 87.8 117.5 87.8 118.3 88.1C119.3 88.5 119.7 89.7 119.1 91C118.8 91.6 118.6 92 118.4 92.2C118.3 92.3 118.3 92.3 118.2 92.3C118.1 92.2 117.8 92.1 117.1 91.8C116.9 91.7 116.8 91.7 116.9 91.6C116.9 91.5 117 91.5 117.1 91.6C117.2 91.6 117.5 91.7 117.8 91.6C118 91.5 118.4 91.4 118.7 90.8C119 90.1 118.8 89.5 118.2 89.3C117.8 89.1 117.4 89.2 116.4 89.7L116.1 89.9C114.8 90.7 114 90.8 113.1 90.4C112.6 90.2 112 89.7 111.9 88.8C111.8 88.2 111.9 87.6 112.2 87.2C112.5 86.5 112.7 86.1 113 85.8ZM40.8 116.4C40.7 116.4 40.6 116.4 40.5 116.3C40.4 116.3 40.3 116.1 40.3 115.8L39.8 112.4C39.8 112.3 39.7 112.2 39.6 112.2C39.5 112.2 39.5 112.3 39.4 112.4L37.9 115.4L36.4 112.4C36.3 112.2 36.3 112.2 36.2 112.2C36.1 112.2 36.1 112.3 36 112.4L35.4 116C35.4 116.2 35.3 116.4 35.2 116.4C35.1 116.4 35.1 116.4 35 116.4C34.9 116.4 34.9 116.4 34.9 116.5C34.9 116.6 35 116.6 35 116.6C35.2 116.6 35.5 116.6 35.6 116.6C35.7 116.6 36 116.6 36.2 116.6C36.3 116.6 36.4 116.6 36.4 116.5C36.4 116.4 36.3 116.4 36.3 116.4C36.3 116.4 36.2 116.4 36.1 116.4C36 116.4 36 116.4 36 116.3C36 116.2 36 116.1 36 116.1L36.3 114.1C36.5 114.5 36.8 115.1 36.8 115.2C36.9 115.4 37.3 116.2 37.5 116.4C37.6 116.6 37.6 116.7 37.8 116.7C37.9 116.7 37.9 116.6 38.1 116.4L39.3 114.1L39.6 116.3V116.4C39.6 116.5 39.6 116.5 39.6 116.5C39.6 116.5 39.5 116.5 39.5 116.6C39.5 116.7 39.6 116.7 39.7 116.7C39.9 116.7 40.7 116.7 40.9 116.7C41 116.7 41.1 116.7 41.1 116.6C41 116.4 40.9 116.4 40.8 116.4ZM45.5 113C44.9 112.4 43.9 112.4 43.2 112.4C42.9 112.4 42.5 112.4 42.3 112.4C42.1 112.4 41.8 112.4 41.5 112.4C41.4 112.4 41.3 112.4 41.3 112.5C41.3 112.6 41.4 112.6 41.4 112.6C41.5 112.6 41.6 112.6 41.6 112.6C41.8 112.7 41.8 112.7 41.8 112.9C41.8 113.1 41.8 113.2 41.8 114.1V115.1C41.8 115.6 41.8 116 41.8 116.3C41.8 116.5 41.8 116.5 41.7 116.6C41.7 116.6 41.6 116.6 41.5 116.6C41.4 116.6 41.4 116.7 41.4 116.7C41.4 116.8 41.5 116.8 41.6 116.8C41.7 116.8 41.9 116.8 42 116.8C42.1 116.8 42.3 116.8 42.3 116.8C42.4 116.8 42.6 116.8 42.9 116.8C43.1 116.8 43.4 116.8 43.6 116.8C44.7 116.8 45.3 116.4 45.5 116.1C45.8 115.8 46.1 115.2 46.1 114.5C46 113.8 45.7 113.3 45.5 113ZM45.1 114.6C45.1 115.2 45 115.6 44.6 115.9C44.3 116.2 43.9 116.3 43.4 116.3C43 116.3 42.8 116.2 42.7 116.1C42.7 116.1 42.6 115.9 42.6 115.7C42.6 115.6 42.6 115.2 42.6 114.6V113.9C42.6 113.5 42.6 113 42.6 112.8C42.6 112.7 42.6 112.8 42.6 112.7C42.6 112.7 42.8 112.7 42.9 112.7C43.3 112.7 43.9 112.8 44.5 113.2C44.8 113.5 45.1 113.9 45.1 114.6ZM50.5 115.5C50.4 115.5 50.4 115.6 50.4 115.6C50.4 115.7 50.3 115.8 50.2 115.9C50 116.1 49.7 116.2 49.2 116.2C48.5 116.2 47.5 115.6 47.5 114.3C47.5 113.8 47.6 113.3 48 112.9C48.2 112.7 48.5 112.6 49 112.6C49.5 112.6 49.9 112.7 50.1 112.9C50.2 113 50.3 113.2 50.3 113.4C50.3 113.5 50.3 113.6 50.4 113.6C50.5 113.6 50.5 113.5 50.5 113.4C50.5 113.3 50.5 113 50.5 112.8C50.5 112.6 50.5 112.5 50.5 112.5C50.5 112.4 50.4 112.4 50.4 112.4C50.2 112.4 50.1 112.3 49.8 112.3C49.5 112.3 49.3 112.2 49 112.2C48.2 112.2 47.6 112.4 47.2 112.8C46.6 113.3 46.5 114 46.5 114.3C46.5 114.8 46.7 115.5 47.2 115.9C47.7 116.3 48.4 116.5 49.2 116.5C49.6 116.5 50 116.5 50.2 116.4C50.3 116.4 50.4 116.3 50.4 116.2C50.5 116 50.5 115.5 50.5 115.5C50.6 115.6 50.5 115.5 50.5 115.5ZM55 115.5C54.9 115.5 54.9 115.6 54.9 115.6C54.9 115.7 54.8 115.8 54.7 115.9C54.5 116.1 54.2 116.2 53.7 116.2C53 116.2 52 115.6 52 114.3C52 113.8 52.1 113.3 52.5 112.9C52.7 112.7 53 112.6 53.5 112.6C54 112.6 54.4 112.7 54.6 112.9C54.7 113 54.8 113.2 54.8 113.4C54.8 113.5 54.8 113.6 54.9 113.6C55 113.6 55 113.5 55 113.4C55 113.3 55 113 55 112.8C55 112.6 55 112.5 55 112.5C55 112.4 54.9 112.4 54.9 112.4C54.7 112.4 54.6 112.3 54.3 112.3C54 112.3 53.8 112.2 53.5 112.2C52.6 112.2 52.1 112.4 51.7 112.8C51.1 113.3 51 114 51 114.3C51 114.8 51.2 115.5 51.7 115.9C52.2 116.3 52.9 116.5 53.7 116.5C54.1 116.5 54.5 116.5 54.7 116.4C54.8 116.4 54.9 116.3 54.9 116.2C55 116 55 115.5 55 115.5C55.1 115.6 55.1 115.5 55 115.5ZM59.5 115.5C59.4 115.5 59.4 115.6 59.4 115.6C59.4 115.7 59.3 115.8 59.2 115.9C59 116.1 58.7 116.2 58.2 116.2C57.5 116.2 56.5 115.6 56.5 114.3C56.5 113.8 56.6 113.3 57 112.9C57.2 112.7 57.5 112.6 58 112.6C58.5 112.6 58.9 112.7 59.1 112.9C59.2 113 59.3 113.2 59.3 113.4C59.3 113.5 59.3 113.6 59.4 113.6C59.5 113.6 59.5 113.5 59.5 113.4C59.5 113.3 59.5 113 59.5 112.8C59.5 112.6 59.5 112.5 59.5 112.5C59.5 112.4 59.4 112.4 59.4 112.4C59.2 112.4 59.1 112.3 58.8 112.3C58.5 112.3 58.3 112.2 58 112.2C57.1 112.2 56.6 112.4 56.2 112.8C55.6 113.3 55.5 114 55.5 114.3C55.5 114.8 55.7 115.5 56.2 115.9C56.7 116.3 57.4 116.5 58.2 116.5C58.6 116.5 59 116.5 59.2 116.4C59.3 116.4 59.4 116.3 59.4 116.2C59.5 116 59.5 115.5 59.5 115.5C59.6 115.6 59.6 115.5 59.5 115.5ZM81.4 116.4C81.4 116.4 81.3 116.4 81.2 116.4C81.1 116.4 81 116.3 80.9 116.2C80.8 116 79.9 114.6 79.7 114.3L80.6 113C80.8 112.8 80.9 112.6 81 112.6C81.1 112.6 81.1 112.6 81.2 112.6C81.3 112.6 81.3 112.6 81.3 112.5C81.3 112.4 81.2 112.4 81.2 112.4C81 112.4 80.8 112.4 80.6 112.4C80.5 112.4 80.2 112.4 80 112.4C79.9 112.4 79.8 112.4 79.8 112.5C79.8 112.6 79.9 112.6 79.9 112.6C79.9 112.6 80 112.6 80.1 112.6H80.2C80.2 112.6 80.2 112.7 80.1 112.8C80 112.9 79.6 113.6 79.4 113.9C79.2 113.5 79 113.2 78.7 112.8C78.7 112.7 78.6 112.7 78.6 112.7H78.7C78.8 112.7 78.8 112.7 78.8 112.6C78.8 112.5 78.7 112.5 78.6 112.5C78.4 112.5 78 112.5 78 112.5C77.7 112.5 77.3 112.5 77.1 112.5C77 112.5 77 112.5 76.9 112.6C76.9 112.7 76.9 112.7 77 112.7C77.1 112.7 77.1 112.7 77.2 112.7C77.4 112.8 77.5 112.9 77.6 113.1L78.6 114.6L77.5 116.1C77.3 116.4 77.2 116.4 77.1 116.5C77 116.5 76.9 116.5 76.9 116.5C76.8 116.5 76.8 116.5 76.8 116.6C76.8 116.7 76.9 116.7 76.9 116.7H77C77.1 116.7 77.4 116.7 77.5 116.7C77.6 116.7 78 116.7 78 116.7H78.1C78.2 116.7 78.3 116.7 78.3 116.6C78.3 116.5 78.2 116.5 78.2 116.5H78.1H78C78 116.5 78 116.4 78.1 116.3L78.9 115.1C79.1 115.5 79.4 116 79.8 116.5C79.7 116.5 79.7 116.6 79.7 116.6C79.7 116.7 79.8 116.7 79.9 116.7C80.4 116.7 80.8 116.7 81 116.7H81.2C81.3 116.7 81.3 116.7 81.4 116.6C81.5 116.5 81.5 116.4 81.4 116.4ZM86.2 116.4C86.2 116.4 86.1 116.4 86 116.4C85.9 116.4 85.8 116.3 85.7 116.2C85.6 116 84.7 114.6 84.5 114.3L85.4 113C85.6 112.8 85.7 112.6 85.8 112.6C85.9 112.6 85.9 112.6 86 112.6C86.1 112.6 86.1 112.6 86.1 112.5C86.1 112.4 86 112.4 86 112.4C85.8 112.4 85.6 112.4 85.4 112.4C85.3 112.4 85 112.4 84.8 112.4C84.7 112.4 84.6 112.4 84.6 112.5C84.6 112.6 84.7 112.6 84.7 112.6C84.7 112.6 84.8 112.6 84.9 112.6C85 112.6 85 112.6 85 112.6C85 112.6 85 112.7 84.9 112.8C84.8 112.9 84.4 113.6 84.2 113.9C84 113.5 83.8 113.2 83.5 112.8C83.5 112.7 83.4 112.7 83.4 112.7H83.5C83.6 112.7 83.6 112.7 83.6 112.6C83.6 112.5 83.5 112.5 83.4 112.5C83.2 112.5 82.8 112.5 82.8 112.5C82.5 112.5 82.1 112.5 81.9 112.5C81.8 112.5 81.8 112.5 81.7 112.6C81.7 112.7 81.7 112.7 81.8 112.7C81.9 112.7 81.9 112.7 82 112.7C82.2 112.8 82.3 112.9 82.4 113.1L83.4 114.6L82.3 116.1C82.1 116.4 82 116.4 81.9 116.5C81.8 116.5 81.7 116.5 81.7 116.5C81.6 116.5 81.6 116.5 81.6 116.6C81.6 116.7 81.7 116.7 81.7 116.7H81.8C81.9 116.7 82.2 116.7 82.3 116.7C82.4 116.7 82.8 116.7 82.8 116.7H82.9C83 116.7 83.1 116.7 83.1 116.6C83.1 116.5 83 116.5 83 116.5H82.9H82.8C82.8 116.5 82.8 116.4 82.9 116.3L83.7 115.1C83.9 115.5 84.2 116 84.6 116.5C84.5 116.5 84.5 116.6 84.5 116.6C84.5 116.7 84.6 116.7 84.7 116.7C85.2 116.7 85.6 116.7 85.8 116.7H86C86.1 116.7 86.1 116.7 86.2 116.6C86.3 116.5 86.3 116.4 86.2 116.4ZM91 116.4C91 116.4 90.9 116.4 90.8 116.4C90.7 116.4 90.6 116.3 90.5 116.2C90.4 116 89.5 114.6 89.3 114.3L90.2 113C90.4 112.8 90.5 112.6 90.6 112.6C90.7 112.6 90.7 112.6 90.8 112.6C90.9 112.6 90.9 112.6 90.9 112.5C90.9 112.4 90.8 112.4 90.8 112.4C90.6 112.4 90.4 112.4 90.2 112.4C90.1 112.4 89.8 112.4 89.6 112.4C89.5 112.4 89.4 112.4 89.4 112.5C89.4 112.6 89.5 112.6 89.5 112.6C89.5 112.6 89.6 112.6 89.7 112.6C89.8 112.6 89.8 112.6 89.8 112.6C89.8 112.6 89.8 112.7 89.7 112.8C89.6 112.9 89.2 113.6 89 113.9C88.8 113.5 88.6 113.2 88.3 112.8C88.3 112.7 88.2 112.7 88.2 112.7H88.3C88.4 112.7 88.4 112.7 88.4 112.6C88.4 112.5 88.3 112.5 88.2 112.5C88 112.5 87.6 112.5 87.6 112.5C87.3 112.5 86.9 112.5 86.7 112.5C86.6 112.5 86.5 112.5 86.5 112.6C86.5 112.7 86.5 112.7 86.6 112.7C86.7 112.7 86.7 112.7 86.8 112.7C87 112.8 87.1 112.9 87.2 113.1L88.2 114.6L87.1 116.1C86.9 116.4 86.8 116.4 86.7 116.5C86.6 116.5 86.5 116.5 86.5 116.5C86.4 116.5 86.4 116.5 86.4 116.6C86.4 116.7 86.5 116.7 86.5 116.7H86.6C86.7 116.7 87 116.7 87.1 116.7C87.2 116.7 87.6 116.7 87.6 116.7H87.7C87.8 116.7 87.9 116.7 87.9 116.6C87.9 116.5 87.8 116.5 87.8 116.5H87.7H87.6C87.6 116.5 87.6 116.4 87.7 116.3L88.5 115.1C88.7 115.5 89 116 89.4 116.5C89.3 116.5 89.3 116.6 89.3 116.6C89.3 116.7 89.4 116.7 89.5 116.7C90 116.7 90.4 116.7 90.6 116.7H91C91.1 116.7 91.1 116.7 91.2 116.6C91.1 116.5 91.1 116.4 91 116.4ZM94 116.4C93.9 116.4 93.8 116.4 93.7 116.4C93.5 116.4 93.5 116.3 93.5 116.2C93.5 116 93.5 115.5 93.5 115V114C93.5 113.2 93.5 113 93.5 112.8C93.5 112.6 93.5 112.6 93.7 112.5C93.8 112.5 93.8 112.5 93.9 112.5C94 112.5 94 112.5 94 112.4C94 112.3 93.9 112.3 93.8 112.3C93.6 112.3 93.2 112.3 93.1 112.3C92.9 112.3 92.6 112.3 92.3 112.3C92.2 112.3 92.1 112.3 92.1 112.4C92.1 112.5 92.2 112.5 92.2 112.5C92.3 112.5 92.3 112.5 92.4 112.5C92.5 112.5 92.5 112.6 92.6 112.7C92.6 112.9 92.6 113 92.6 113.9V114.9C92.6 115.4 92.6 115.9 92.6 116.1C92.6 116.3 92.6 116.3 92.5 116.3C92.5 116.3 92.4 116.3 92.3 116.3C92.2 116.3 92.2 116.4 92.2 116.4C92.2 116.5 92.3 116.5 92.4 116.5C92.6 116.5 93 116.5 93.1 116.5C93.3 116.5 93.6 116.5 94 116.5C94.1 116.5 94.1 116.5 94.2 116.4C94.1 116.5 94.1 116.4 94 116.4ZM97.4 116.4C97.3 116.4 97.2 116.4 97.1 116.4C96.9 116.4 96.9 116.3 96.9 116.2C96.9 116 96.9 115.5 96.9 115V114C96.9 113.2 96.9 113 96.9 112.8C96.9 112.6 96.9 112.6 97.1 112.5C97.2 112.5 97.2 112.5 97.3 112.5C97.4 112.5 97.4 112.5 97.4 112.4C97.4 112.3 97.3 112.3 97.2 112.3C97 112.3 96.6 112.3 96.5 112.3C96.3 112.3 96 112.3 95.7 112.3C95.6 112.3 95.5 112.3 95.5 112.4C95.5 112.5 95.6 112.5 95.6 112.5C95.7 112.5 95.7 112.5 95.8 112.5C95.9 112.5 95.9 112.6 96 112.7C96 112.9 96 113 96 113.9V114.9C96 115.4 96 115.9 96 116.1C96 116.3 96 116.3 95.9 116.3C95.9 116.3 95.8 116.3 95.7 116.3C95.6 116.3 95.6 116.4 95.6 116.4C95.6 116.5 95.7 116.5 95.8 116.5C96 116.5 96.4 116.5 96.5 116.5C96.7 116.5 97 116.5 97.4 116.5C97.5 116.5 97.5 116.5 97.6 116.4C97.6 116.5 97.5 116.4 97.4 116.4ZM100.9 116.4C100.8 116.4 100.7 116.4 100.6 116.4C100.4 116.4 100.4 116.3 100.4 116.2C100.4 116 100.4 115.5 100.4 115V114C100.4 113.2 100.4 113 100.4 112.8C100.4 112.6 100.4 112.6 100.6 112.5C100.7 112.5 100.7 112.5 100.8 112.5C100.9 112.5 100.9 112.5 100.9 112.4C100.9 112.3 100.8 112.3 100.7 112.3C100.5 112.3 100.1 112.3 100 112.3C99.8 112.3 99.5 112.3 99.2 112.3C99.1 112.3 99 112.3 99 112.4C99 112.5 99.1 112.5 99.1 112.5C99.2 112.5 99.2 112.5 99.3 112.5C99.4 112.5 99.4 112.6 99.5 112.7C99.5 112.9 99.5 113 99.5 113.9V114.9C99.5 115.4 99.5 115.9 99.5 116.1C99.5 116.3 99.5 116.3 99.4 116.3C99.4 116.3 99.3 116.3 99.2 116.3C99.1 116.3 99.1 116.4 99.1 116.4C99.1 116.5 99.2 116.5 99.3 116.5C99.5 116.5 99.9 116.5 100 116.5C100.2 116.5 100.5 116.5 100.9 116.5C101 116.5 101 116.5 101.1 116.4C101 116.5 100.9 116.4 100.9 116.4ZM66.8 89.9V86.7C66.8 86.1 66.3 85.6 65.7 85.6C65.1 85.6 64.6 86.1 64.6 86.7V89.9H66.8ZM72.7 89.9V86.7C72.7 86.1 72.2 85.6 71.6 85.6C71 85.6 70.5 86.1 70.5 86.7V89.9H72.7ZM68.7 25.3C68.1 25.3 67.6 25.8 67.6 26.4C67.6 27 68.1 27.5 68.7 27.5C69.3 27.5 69.8 27 69.8 26.4C69.8 25.8 69.3 25.3 68.7 25.3ZM68.1 57.2H69.2V54.7H68.1V57.2ZM57.2 119.6C56.6 119.6 56.1 120.1 56.1 120.7C56.1 121.3 56.6 121.8 57.2 121.8C57.8 121.8 58.3 121.3 58.3 120.7C58.3 120.1 57.8 119.6 57.2 119.6ZM56.5 57.2V53.6C56.5 52.8 56.1 52.2 55.4 51.9C54.8 52.2 54.4 52.8 54.3 53.6V57.2H56.5ZM56.5 45.5V43.2C56.5 42.3 56.1 41.8 55.4 41.5C54.8 41.8 54.4 42.4 54.3 43.2V45.5H56.5ZM56 69.8V66.8C56 66.5 55.7 66.2 55.4 66.2C55.1 66.2 54.8 66.5 54.8 66.8V69.8H56ZM56 79V76C56 75.7 55.7 75.4 55.4 75.4C55.1 75.4 54.8 75.7 54.8 76V79H56ZM56.3 89.2V86.5C56.3 86 55.9 85.6 55.4 85.6C54.9 85.6 54.5 86 54.5 86.5V89.2H56.3ZM55.4 12.7C54.8 12.7 54.3 13.2 54.3 13.8C54.3 14.4 54.8 14.9 55.4 14.9C56 14.9 56.5 14.4 56.5 13.8C56.6 13.2 56.1 12.7 55.4 12.7ZM83 57.2V53.6C83 52.8 82.6 52.2 81.9 51.9C81.3 52.2 80.9 52.8 80.8 53.6V57.2H83ZM83 45.5V43.2C83 42.3 82.6 41.8 81.9 41.5C81.3 41.8 80.9 42.4 80.8 43.2V45.5H83ZM82.5 69.8V66.8C82.5 66.5 82.2 66.2 81.9 66.2C81.6 66.2 81.3 66.5 81.3 66.8V69.8H82.5ZM82.5 79V76C82.5 75.7 82.2 75.4 81.9 75.4C81.6 75.4 81.3 75.7 81.3 76V79H82.5ZM82.8 89.2V86.5C82.8 86 82.4 85.6 81.9 85.6C81.4 85.6 81 86 81 86.5V89.2H82.8ZM81.9 12.7C81.3 12.7 80.8 13.2 80.8 13.8C80.8 14.4 81.3 14.9 81.9 14.9C82.5 14.9 83 14.4 83 13.8C83.1 13.2 82.5 12.7 81.9 12.7ZM3.5 68.6C3.5 32.6 32.7 3.5 68.6 3.5C104.6 3.5 133.7 32.7 133.7 68.6C133.7 104.6 104.5 133.7 68.6 133.7C32.7 133.8 3.5 104.6 3.5 68.6ZM23.8 23.7C12.3 35.2 5.2 51.1 5.2 68.6C5.2 86.1 12.3 102 23.8 113.5C35.3 125 51.2 132.1 68.7 132.1C86.2 132.1 102.1 125 113.6 113.5C125.1 102 132.2 86.1 132.2 68.6C132.2 51.1 125.1 35.2 113.6 23.7C102.1 12.2 86.2 5.1 68.7 5.1C51.1 5.1 35.3 12.2 23.8 23.7ZM69.7 109.6H70.2V108.7H68.9V110.7H69.6L69.7 109.6ZM68.7 7.7C35.1 7.7 7.8 35 7.8 68.6C7.8 102.2 35.1 129.5 68.7 129.5C102.3 129.5 129.6 102.2 129.6 68.6C129.6 35 102.3 7.7 68.7 7.7ZM61.9 120.3H59.1V121.2H61.9V128C48.1 126.4 35.7 120.2 26.4 110.9C25.1 109.6 23.8 108.2 22.6 106.7C22.8 105.2 24.1 104.1 25.7 104.1C27.4 104.1 28.8 105.5 28.8 107.2V110.2H32.8V107.2C32.8 105.5 34.2 104.1 35.9 104.1C37.6 104.1 39 105.5 39 107.2V110.2H43V107.2C43 105.5 44.4 104.1 46.1 104.1C47.8 104.1 49.2 105.5 49.2 107.2V110.2H53.2V107.2C53.2 105.5 54.6 104.1 56.3 104.1C58 104.1 59.4 105.5 59.4 107.2V110.2H61.9V120.3V120.3ZM73.3 128.2C71.8 128.3 70.2 128.4 68.7 128.4C67.2 128.4 65.6 128.3 64.1 128.2L63 121.2H64.3C64 120.4 63.4 119.1 63.2 118.5C62.8 117.6 63.1 117 63.7 116.8C64.3 116.6 64.9 116.9 65.1 117.6L65.7 119.7H66.5V121.1V121.4H64.5V122.3H67.4V121.1H70.9V119.7H71.7L72.3 117.6C72.5 116.9 73.2 116.5 73.7 116.8C74.3 117 74.6 117.6 74.2 118.5C74.1 118.7 74 119.1 73.8 119.6L73 121.5H70.9V122.4H73.6L74.1 121.2H74.4L73.3 128.2ZM66.8 108.1H70.6C70.7 108.4 71.1 109.3 71.3 109.8C71.5 110.2 71.7 110.5 71.4 110.9C71.1 111.4 70.7 111.3 70.5 111.3C70.2 112 69.5 112.5 68.7 112.5C67.9 112.5 67.2 112 66.9 111.3C66.6 111.3 66.3 111.4 66 110.9C65.8 110.5 66 110.1 66.1 109.8C66.3 109.3 66.6 108.4 66.8 108.1ZM66.2 104.1L67.4 105.8L68.6 103.5L69.8 105.8L71 104.1L70.5 107.1H66.6L66.2 104.1ZM67.7 112.6C68 113.4 68.7 114 69.6 114C70.6 114 71.4 113.3 71.6 112.4C72.2 112.4 72.8 112.6 73.4 113.1C74 113.6 74.2 114.4 74.3 114.8H63.1C63.2 114.4 63.4 113.6 64 113.1C65.2 112.1 66.5 112.5 67.7 112.6ZM72.3 115.8C71.9 117.4 70.4 118.6 68.7 118.6C67 118.6 65.5 117.4 65.1 115.8H72.3ZM111 110.9C101.7 120.2 89.3 126.5 75.5 128V121.2H78C82.7 121.2 86.1 120.8 86.1 120.8C86.1 120.8 82.6 120.3 78 120.3H75.5V110.2H78.5V107.2C78.5 105.5 79.9 104.1 81.6 104.1C83.3 104.1 84.7 105.5 84.7 107.2V110.2H88.7V107.2C88.7 105.5 90.1 104.1 91.8 104.1C93.5 104.1 94.9 105.5 94.9 107.2V110.2H98.9V107.2C98.9 105.5 100.3 104.1 102 104.1C103.7 104.1 105.1 105.5 105.1 107.2V110.2H109.1V107.2C109.1 105.5 110.5 104.1 112.2 104.1C113.6 104.1 114.7 105 115.2 106.2C113.9 107.8 112.5 109.4 111 110.9ZM115.9 105.3C115.2 103.8 113.7 102.8 112 102.8C109.6 102.8 107.7 104.7 107.7 107.1V108.5H106.1V107.1C106.1 104.7 104.2 102.8 101.8 102.8C99.4 102.8 97.5 104.7 97.5 107.1V108.5H95.9V107.1C95.9 104.7 94 102.8 91.6 102.8C89.2 102.8 87.3 104.7 87.3 107.1V108.5H85.7V107.1C85.7 104.7 83.8 102.8 81.4 102.8C79 102.8 77.1 104.7 77.1 107.1V108.5H75.5C75 105.3 72.2 102.8 68.8 102.8C65.4 102.8 62.6 105.3 62.1 108.5H60.4V107.1C60.4 104.7 58.5 102.8 56.1 102.8C53.7 102.8 51.8 104.7 51.8 107.1V108.5H50.2V107.1C50.2 104.7 48.3 102.8 45.9 102.8C43.5 102.8 41.6 104.7 41.6 107.1V108.5H40V107.1C40 104.7 38.1 102.8 35.7 102.8C33.3 102.8 31.4 104.7 31.4 107.1V108.5H29.8V107.1C29.8 104.7 27.9 102.8 25.5 102.8C23.8 102.8 22.3 103.8 21.6 105.2C20.5 103.8 19.6 102.4 18.6 101H119C117.9 102.6 116.9 104 115.9 105.3ZM119.9 99.5H17.5C17.2 99 16.9 98.5 16.6 98H120.7C120.5 98.5 120.2 99 119.9 99.5ZM58.4 22.7V23.2C58.4 23.3 58.4 23.5 58.3 23.6C58.2 23.8 58 24.2 57.7 24.6C57.6 24.8 57.4 25.1 57.2 25.5C56.9 25.1 56.7 24.8 56.5 24.6C56.3 24.4 56.1 24.2 55.9 23.9C55.5 23.4 55.5 23.1 55.5 23.1C55.5 23.1 55.5 23.4 55.1 23.9C54.9 24.1 54.7 24.4 54.5 24.6C54.3 24.8 54.1 25.1 53.8 25.5C53.6 25.1 53.4 24.8 53.3 24.6C53 24.2 52.8 23.8 52.7 23.6C52.6 23.4 52.6 23.1 52.6 23.1V22.7H58.4ZM52.5 21.7C52.5 21 52.7 19.5 53.5 18.6C54.1 17.8 54.6 17.4 55 17.1C55.2 17 55.3 16.9 55.4 16.9C55.5 17 55.7 17 55.8 17.1C56.2 17.4 56.8 17.8 57.3 18.6C58 19.6 58.2 21 58.3 21.7H52.5ZM58.6 25.1C58.8 25.3 58.9 25.7 59.1 26.1C59.4 26.7 59.4 27.3 59.4 27.8V34.5H57.7C57.7 33 57.7 29.8 57.7 27.8C57.7 27.3 57.8 26.7 58 26.1C58.3 25.6 58.4 25.3 58.6 25.1ZM56.8 27.8V34.5H54.2C54.2 32.6 54.2 27.8 54.2 27.8C54.2 27.4 54.3 26.8 54.6 26.1C54.9 25.4 55.6 25.1 55.6 25.1C55.6 25.1 56.2 25.5 56.5 26.1C56.7 26.8 56.7 27.4 56.8 27.8ZM52.9 26C53.1 26.6 53.2 27.3 53.2 27.7V34.4H51.5V27.7C51.5 27.2 51.6 26.6 51.8 26C52 25.6 52.2 25.3 52.3 25C52.5 25.4 52.7 25.6 52.9 26ZM60.8 35.6V37.8H50.1V35.6H60.8ZM60.8 38.7V47.2H58.2V43.4C58.2 42.1 57.7 41.1 57 40.3C56.6 39.9 56.1 39.6 55.5 39.4C54.9 39.6 54.4 39.9 54 40.3C53.2 41 52.8 42.1 52.8 43.4V47.2H50.2V38.7H60.8ZM57.3 43.4V47.2H53.6V43.4C53.6 41.9 54.3 40.9 55.4 40.4C56.5 40.9 57.3 41.9 57.3 43.4ZM60.8 48.1V58.9H58.4V53.5C58.4 52.2 57.9 51.1 57.1 50.4C56.7 50 56.2 49.7 55.6 49.5L55.4 49.4L55.2 49.5C54.6 49.7 54.1 50 53.7 50.4C52.9 51.2 52.4 52.3 52.4 53.5V58.9H50V48.1H60.8ZM57.5 53.5V58.9H53.4V53.5C53.4 52.5 53.8 51.6 54.4 51C54.7 50.7 55.1 50.5 55.5 50.3C55.9 50.5 56.2 50.7 56.5 51C57.1 51.6 57.5 52.5 57.5 53.5ZM60.8 59.8V72.7H50.1V59.8H60.8ZM60.8 73.6V82H50.1V73.6H60.8ZM60.8 82.9V97.1H50.1V82.9H60.8ZM70.1 48.2V52L68.6 50.5L67.2 52V48.2H70.1ZM67.3 47.1L68.4 42.5L68.8 34.8L69.1 42.5L70.2 47.1H67.3ZM68.7 52.1L75.5 58.9H61.9L68.7 52.1ZM75.5 59.8V65H61.9V59.8H75.5ZM75.5 66.6V72.7H71.2V71.2C71.2 69.8 70.1 68.7 68.7 68.7C67.3 68.7 66.2 69.8 66.2 71.2V72.7H61.9V66.6H75.5ZM66.1 73.6V79H71.2V73.6H75.5V82H61.9V73.6H66.1ZM75.5 82.9V97.1H61.9V82.9H75.5ZM84.8 22.7V23.2C84.8 23.3 84.8 23.5 84.7 23.6C84.6 23.8 84.4 24.2 84.1 24.6C84 24.8 83.8 25.1 83.6 25.5C83.3 25.1 83.1 24.8 82.9 24.6C82.7 24.4 82.5 24.2 82.3 23.9C81.9 23.4 81.9 23.1 81.9 23.1C81.9 23.1 81.9 23.4 81.5 23.9C81.3 24.1 81.1 24.4 80.9 24.6C80.7 24.8 80.5 25.1 80.2 25.5C80 25.1 79.8 24.8 79.7 24.6C79.4 24.2 79.2 23.8 79.1 23.6C79 23.3 79 23.1 79 23V22.6H84.8V22.7ZM79 21.7C79 21 79.2 19.5 80 18.6C80.6 17.8 81.1 17.4 81.5 17.1C81.7 17 81.8 16.9 81.9 16.9C82 17 82.2 17 82.3 17.1C82.7 17.4 83.3 17.8 83.8 18.6C84.5 19.6 84.7 21 84.8 21.7H79ZM85.1 25.1C85.3 25.3 85.4 25.7 85.6 26.1C85.9 26.7 85.9 27.3 85.9 27.8V34.5H84.2C84.2 33 84.2 29.8 84.2 27.8C84.2 27.3 84.3 26.7 84.5 26.1C84.7 25.6 84.9 25.3 85.1 25.1ZM83.2 27.8V34.5H80.6C80.6 32.6 80.6 27.8 80.6 27.8C80.6 27.4 80.7 26.8 81 26.1C81.3 25.4 82 25.1 82 25.1C82 25.1 82.6 25.5 82.9 26.1C83.2 26.8 83.2 27.4 83.2 27.8ZM79.3 26C79.5 26.6 79.6 27.3 79.6 27.7V34.4H77.9V27.7C77.9 27.2 78 26.6 78.2 26C78.4 25.6 78.6 25.3 78.7 25C79 25.4 79.2 25.6 79.3 26ZM87.2 35.6V37.8H76.6V35.6H87.2ZM87.2 38.7V47.2H84.6V43.4C84.6 42.1 84.1 41.1 83.4 40.3C83 39.9 82.5 39.6 81.9 39.4C81.3 39.6 80.8 39.9 80.4 40.3C79.6 41 79.2 42.1 79.2 43.4V47.2H76.6V38.7H87.2ZM83.7 43.4V47.2H80V43.4C80 41.9 80.7 40.9 81.8 40.4C83 40.9 83.7 41.9 83.7 43.4ZM87.2 48.1V58.9H84.8V53.5C84.8 52.2 84.3 51.1 83.5 50.4C83.1 50 82.6 49.7 82 49.5L81.8 49.4L81.6 49.5C81 49.7 80.5 50 80.1 50.4C79.3 51.2 78.8 52.3 78.8 53.5V58.9H76.4V48.1H87.2ZM84 53.5V58.9H79.9V53.5C79.9 52.5 80.3 51.6 80.9 51C81.2 50.7 81.6 50.5 81.9 50.3C82.3 50.5 82.6 50.7 82.9 51C83.6 51.6 83.9 52.5 84 53.5ZM87.2 59.8V72.7H76.6V59.8H87.2ZM87.2 73.6V82H76.6V73.6H87.2ZM87.2 82.9V97.1H76.6V82.9H87.2ZM88.9 97.1V34.5H87.6V27.6C87.6 26.7 87.5 26.2 87.1 25.3C87 25.1 86.9 24.8 86.7 24.6V22.1C86.7 22.1 86.7 20.1 85.9 18.7C85 17.1 83.3 16.2 82.5 15.9C82.3 15.8 82.2 15.8 82.2 15.8H82.1H81.9C81.8 15.8 80.5 16.3 79.2 18C78 19.6 78 21.7 78 22.2C78 22.3 78 22.3 78 22.4V24.7C77.8 24.9 77.6 25.3 77.4 25.8C77 26.7 77 27.5 77 28V34.7H75.6V57.6L71.9 53.9V47.4L70.6 43.2L68.8 28.8L67.4 42.6L66.1 47.4V53.4L62.4 57.1V34.5H61.1V27.6C61.1 26.7 61 26.2 60.6 25.3C60.5 25.1 60.4 24.8 60.2 24.6V22.1C60.2 22.1 60.2 20.1 59.4 18.7C58.5 17.1 56.8 16.2 56 15.9C55.8 15.8 55.7 15.8 55.7 15.8H55.6H55.4C55.3 15.8 54 16.3 52.7 18C51.5 19.6 51.5 21.7 51.5 22.2C51.5 22.3 51.5 22.3 51.5 22.4V24.7C51.3 24.9 51.1 25.3 50.9 25.8C50.5 26.7 50.5 27.5 50.5 28V34.7H49V97.3H16.1C11.5 88.8 8.9 79.1 8.9 68.8C8.9 52.3 15.6 37.3 26.4 26.5C37.2 15.5 52.2 8.8 68.7 8.8C85.2 8.8 100.2 15.5 111 26.3C121.8 37.1 128.5 52.1 128.5 68.6C128.5 78.9 125.9 88.6 121.3 97.1H88.9Z" fill="white"/>
<path d="M452.8 27.7V112.1" stroke="white" stroke-width="0.8111"/>
<path d="M700.1 77.3C698.1 87.3 690.4 87.8 688.8 87.8C684.4 87.8 681.8 85.3 681.8 81.1C681.8 80.1 681.9 78.8 682.2 77.5L687 53.7V53.6H681.4L676.6 78L676.5 78.3C676.3 79.4 676.1 80.4 676.1 81.8C676.1 88.4 680.4 92.7 686.8 92.7C691.5 92.7 695.3 91.2 698 88.1L697.3 92.1V92.2H702.9L710.6 53.6V53.5H704.9L700.1 77.3Z" fill="white"/>
<path d="M738.6 53.1C734.2 53.1 730.4 54.9 728 58L728.9 53.7V53.6H723.3L715.6 92.2V92.3H721.2L725.9 68.6C727.1 62.5 731.8 58.1 737 58.1C739.2 58.1 741 59 742.4 60.8L742.5 60.9L747.1 56.8V56.7C744.9 54.3 742.1 53.1 738.6 53.1Z" fill="white"/>
<path d="M645.3 58.5V58.6H664.6L639 87.6H638.9L638 92.3H665.3L666.3 87.3H645.8L671.5 58.4V58.3L672.5 53.6H646.3L645.3 58.5Z" fill="white"/>
<path d="M747.8 92.2V92.3H753.4L761.1 53.6H755.5L747.8 92.2Z" fill="white"/>
<path d="M824.2 53.1C819.6 53.1 815.9 54.5 813.2 57.5L817.6 35.9H812L800.7 92.3H806.3L811 68.6C813 58.6 820.8 58.1 822.3 58.1C826.6 58.1 829.2 60.6 829.2 64.8C829.2 65.8 829.1 67.1 828.8 68.4L824 92.3H829.6L834.5 67.9C834.7 66.6 834.9 65.5 834.9 64.1C835 57.5 830.6 53.1 824.2 53.1Z" fill="white"/>
<path d="M786.8 53.1C776.6 53.1 769.4 60.3 767.1 72.9C766.7 75 766.5 77.4 766.5 78.9C766.5 87.5 771.7 92.8 780.1 92.8C785 92.8 789.4 90.9 793 87.4L793.1 87.3L789.8 83.3L789.7 83.2L789.6 83.3C786.6 86.4 783.9 87.7 780.3 87.7C776.3 87.7 772 85.3 772 78.6C772 76.5 772.2 74.8 772.6 72.8C773.2 69.5 774.6 64.9 777.6 61.7C780 59.2 782.9 58 786.1 58C789.5 58 791.6 59.2 793.6 62.3V62.4L798 59H798.1V58.9C795.2 54.9 791.7 53.1 786.8 53.1Z" fill="white"/>
<path d="M757.6 43H763.3L764.7 35.9H759.1L757.6 43Z" fill="white"/>
<path d="M702.8 43H708.5L709.9 35.9H704.2L702.8 43Z" fill="white"/>
<path d="M687.8 43H693.4L694.8 35.9H689.2L687.8 43Z" fill="white"/>
<path d="M612.4 57.8H599.7L604.2 35.9H496.3L485 92.3H528L530.8 78.2H505.4L507 70.5H532.3L534.9 57.8H509.5L511.1 50H551.3L542.8 92.3H560.4L568.9 50H583.7L575.2 92.3H592.9L597.2 70.5H609.9L605.5 92.3H623.2L634.5 35.9H616.9L612.4 57.8Z" fill="white"/>
</svg>
