<svg id="Layer_1" data-name="Layer 1" xmlns="http://www.w3.org/2000/svg" viewBox="0 0 512 512"><defs><style>.cls-1{fill:#fff;}</style></defs><title>1</title><path class="cls-1" d="M182.56,81.72c2.61,0,3.75-1.85,3.75-4.46V54.09c0-2.61-1.14-4.45-3.75-4.45s-3.69,1.84-3.69,4.45V77.26C178.87,79.87,180,81.72,182.56,81.72Z"/><path class="cls-1" d="M160,123.9V114c0-2.36-1.08-3.5-3.57-3.5h-2.67v17h2.67C158.89,127.46,160,126.25,160,123.9Z"/><path class="cls-1" d="M252.87,110.47h-2.42V123.9h2.42c2.48,0,3.56-1.27,3.56-3.57V114C256.43,111.61,255.35,110.47,252.87,110.47Z"/><path class="cls-1" d="M181.92,142.16c2.61,0,3.76-1.84,3.76-4.45V114.54c0-2.61-1.15-4.45-3.76-4.45s-3.69,1.84-3.69,4.45v23.17C178.23,140.32,179.38,142.16,181.92,142.16Z"/><path class="cls-1" d="M0,0V512H512V0ZM408.49,230.1a14.18,14.18,0,1,1-14.18,14.18A14.16,14.16,0,0,1,408.49,230.1Zm-53.4,74.4a11.18,11.18,0,1,1-11.17,11.16A11.15,11.15,0,0,1,355.09,304.5ZM295.25,104.55l4.39,16.36h.06l4.4-16.36H311l-8,26.73V147.7h-7.25V131.28l-8.08-26.73Zm1.36,133.74a13.43,13.43,0,1,1-13.43,13.43A13.42,13.42,0,0,1,296.61,238.29ZM266.23,104.55h19.29v5.92h-6V147.7h-7.31V110.47h-6Zm-44.22,0h17.31v5.92H229.26v12.35h7.19v5.85h-7.19v13.11h10.06v5.92H222Zm7.62,147.17a13.42,13.42,0,1,1-13.42-13.43A13.42,13.42,0,0,1,229.63,251.72ZM202.09,104.55l5,30.11h.06l5.09-30.11H219l-8.21,43.15h-7.89l-8.21-43.15ZM171.61,55.24c0-6.75,3.31-11.65,10.95-11.65s11,4.9,11,11.65V76.11c0,6.69-3.31,11.65-11,11.65s-10.95-5-10.95-11.65ZM171,115.69c0-6.75,3.31-11.65,10.95-11.65s11,4.9,11,11.65v20.87c0,6.69-3.31,11.65-11,11.65s-10.95-5-10.95-11.65ZM146.47,44.1h7.13l7.83,24.76V44.1h6V87.25h-6.37l-8.53-27.11V87.25h-6.11Zm0,60.45h10.76c7.32,0,10,3.63,10,9.67v9.1c0,6.05-2.67,9.74-10,9.74h-3.5V147.7h-7.26Zm7.07,200a11.18,11.18,0,1,1-11.17,11.16A11.15,11.15,0,0,1,153.54,304.5Zm-43.78-60.22A14.18,14.18,0,1,1,95.57,230.1,14.19,14.19,0,0,1,109.76,244.28ZM59.15,61.86l16-18.73H89V146.36H71.64v-79h-.16L59.3,80h-.15ZM250.74,326.77c-5.61,1.67-7.33-4.84-7.33-4.84l-9-30.31s-.49-2.33-2.24-1.83-1.08,3-1.08,3l15.64,56.81H232.18v40.69a7,7,0,0,1-14,0V349.6h-4v40.69a7,7,0,0,1-14,0V349.6H185.67l15.65-56.81s.67-2.5-1.09-3-2.24,1.83-2.24,1.83l-9,30.31s-1.7,6.51-7.32,4.84a5.14,5.14,0,0,1-3.34-2.65c-.38,1-1,2.38-1,2.38L166.9,345.31a7.33,7.33,0,0,0-.68,2.69v3.88l6,21.95h-6v17.94a5.51,5.51,0,0,1-11,0V374.5a4.09,4.09,0,0,0,0-.67h-3.33a4.09,4.09,0,0,0,0,.67v17.27a5.5,5.5,0,1,1-11,0h0V373.83h-5.94L140.85,352v-4a7.25,7.25,0,0,0-.69-2.69L128.9,324.93l-.16-.51A5.49,5.49,0,0,1,118.3,322V288.29c0-1.27-.35-3-2.67-3-1.59,0-1.95,1.7-2,2.78V389.23a7.9,7.9,0,1,1-15.79,0V331a2.17,2.17,0,0,0-2.28-2.32h0A2.15,2.15,0,0,0,93.32,331v58.28a7.9,7.9,0,1,1-15.79,0V288.09c-.06-1.08-.4-2.78-2-2.78-2.32,0-2.68,1.71-2.68,3V322a5.5,5.5,0,0,1-11,0v-39.3A18.9,18.9,0,0,1,79,263.92a8.56,8.56,0,0,1,1.08-.09h31a8.06,8.06,0,0,1,1,.09,18.89,18.89,0,0,1,17.17,18.82v38A4.06,4.06,0,0,1,136,321l0,0c.33.28,5.52,9.56,7.26,11.28a4.54,4.54,0,0,0,3.46,1.64h13.53a4.52,4.52,0,0,0,3.45-1.64c1.72-1.72,6.94-11,7.26-11.28l0,0a4,4,0,0,1,6.61-.37,10.26,10.26,0,0,1,.33-2.17l11.15-36.32s4-10.5,12.83-10.5h28.44c8.84,0,12.81,10.5,12.81,10.5l11.16,36.32S256.4,325.11,250.74,326.77Zm-.29-198.86V147.7H243.2V104.55h10.56c7.32,0,10,3.63,10,9.67v5.54c0,4.65-1.66,7.38-5.8,8.34l6.94,19.6h-7.64ZM312.57,349.6v40.69a7,7,0,0,1-14,0V349.6h-4v40.69a7,7,0,0,1-14,0V349.6H266.06l15.66-56.81s.66-2.5-1.09-3-2.24,1.83-2.24,1.83l-9,30.31s-1.71,6.51-7.33,4.84-3.66-8.32-3.66-8.32l11.16-36.32s4-10.5,12.82-10.5h28.44c8.84,0,12.82,10.5,12.82,10.5l11.16,36.32s2,6.66-3.66,8.32-7.33-4.84-7.33-4.84l-9-30.31s-.49-2.33-2.25-1.83-1.09,3-1.09,3l15.65,56.81ZM382,362.73a4.24,4.24,0,0,1-5.54,2.29c-.63-.26-2.7-6.19-2.7-6.19L369,345.57s-.71-1-.71.38v45.6a5.75,5.75,0,0,1-11.49,0v-18s.32-2.55-1.73-2.55-1.72,2.55-1.72,2.55v18a5.73,5.73,0,1,1-11.46,0h0V346c0-1.34-1.05,0-1.05,0l-6.08,19.37a3.72,3.72,0,0,1-4.78,1.56c-2.63-1.21-2.18-4-1.63-5.29h0c0-.46,3.14-8.16,4.06-10.54,6.42-16.52,8.26-19.5,14.08-19.69s8.65-.05,8.65-.05,2.64-.11,7.06,0,9,.05,11.52,7.41c.82,2.4,7.8,19.51,7.94,19.94l0,0A4.19,4.19,0,0,1,382,362.73Zm60.2-75.28V322a5.5,5.5,0,0,1-11,0V288.29c0-1.27-.36-3-2.68-3-1.6,0-1.93,1.7-2,2.78V389.23a7.9,7.9,0,1,1-15.8,0V331a2.14,2.14,0,0,0-2.24-2.32h0A2.17,2.17,0,0,0,406.2,331v58.28a7.89,7.89,0,1,1-15.78,0V288.09c-.06-1.08-.4-2.78-2-2.78-2.33,0-2.68,1.71-2.68,3V322a5.49,5.49,0,1,1-11,0v-39.3a18.89,18.89,0,0,1,17.17-18.82,8.06,8.06,0,0,1,1-.09h31a8.73,8.73,0,0,1,1.08.09,18.89,18.89,0,0,1,17.15,18.82Z"/><path class="cls-1" d="M177.68,320.62a7.11,7.11,0,0,0,.65,3.5,3.85,3.85,0,0,0,.26-1A4,4,0,0,0,177.68,320.62Z"/><path class="cls-1" d="M129.29,320.76a4,4,0,0,0-.79,2.38,5.43,5.43,0,0,0,.24,1.28,5.44,5.44,0,0,0,.55-2.38Z"/><path class="cls-1" d="M153.56,342.53l-12.63,9.21-.08.27v21.82h11c.06-.72.37-1.78,1.67-1.78s1.6,1.06,1.66,1.78h11V351.88l0-.14Z"/></svg>