<svg id="Layer_1" data-name="Layer 1" xmlns="http://www.w3.org/2000/svg" viewBox="0 0 512 512"><defs><style>.cls-1{fill:#fff;}</style></defs><title>10</title><path class="cls-1" d="M0,0V512H512V0ZM363,103.46h17.31v5.92H370.29v12.34h7.2v5.86h-7.2v13.11h10.06v5.92H363Zm-11.46,0h7.26v43.15h-7.26ZM286.86,43h17.32v5.92H294.12V61.28h7.2v5.85h-7.2V80.24h10.06v5.92H286.86Zm1.79,103.6-1.34-7.89h-7.7l-1.27,7.89h-6.87l8.14-43.15h8.28l8.21,43.15ZM301.73,234a.79.79,0,0,1-.56,1.34H210.12a.79.79,0,0,1-.56-1.34l45.53-45.52a.78.78,0,0,1,1.11,0ZM261.86,54.15c0-6.75,3.18-11.65,10.81-11.65,8,0,10.25,4.46,10.25,10.82v5.09h-6.61V52.75c0-2.68-.9-4.2-3.51-4.2s-3.69,1.84-3.69,4.45V76.17c0,2.61,1.09,4.45,3.69,4.45s3.51-1.65,3.51-4.2v-8h6.61v7.44c0,6.18-2.54,10.76-10.25,10.76s-10.81-5-10.81-11.65Zm.89,82.66V103.46h6.69v32.65c0,6.68-2.87,11-10.25,11-7.64,0-10.82-4.33-10.82-11V103.46h7.25v33.35c0,2.55,1,4.26,3.57,4.26S262.75,139.36,262.75,136.81ZM236.66,43h7.25V76.36c0,2.55,1,4.26,3.57,4.26S251,78.91,251,76.36V43h6.68V75.66c0,6.68-2.86,11-10.24,11-7.64,0-10.82-4.33-10.82-11Zm7.58,71.59v20.87c0,4.72-1.66,8.41-5.35,10.19l5.35,1v5.42l-13.69-2.55v-2.93c-5.79-1-8.27-5.28-8.27-11.14V114.6c0-6.75,3.31-11.65,10.95-11.65S244.24,107.85,244.24,114.6ZM210.83,43H222c7.76,0,10.5,4.9,10.5,11.58v20c0,6.62-2.74,11.58-10.5,11.58h-11.2Zm-21.19,0H207v5.92H196.89V61.28h7.19v5.85h-7.19V80.24H207v5.92H189.64ZM66.58,146.19H49.21V67.09h-.16L36.86,79.74h-.15V61.6l16-18.75H66.58Zm12-26.67v-50c0-16.15,8.08-27.89,25.61-27.89S130,53.37,130,69.52v50c0,16-8.08,27.89-25.76,27.89S78.62,135.52,78.62,119.52Zm89.55,248.86a.79.79,0,0,1-1.34.56L121.3,323.41a.78.78,0,0,1,0-1.11l45.53-45.52a.78.78,0,0,1,1.34.55Zm4.22-221.77h-7.25V103.46h7.25Zm0-60.45h-7.25V43H175.7c7.32,0,10,3.63,10,9.67v5.54c0,4.65-1.66,7.38-5.8,8.34l6.94,19.6H179.2l-6.81-19.79Zm25.2,60.45h-6.36L182.7,119.5v27.11h-6.11V103.46h7.13l7.83,24.76V103.46h6Zm4.13-43.15H219v5.92H209v12.34h7.2v5.86H209v13.11H219v5.92H201.72Zm100,308.22L256.2,457.2a.78.78,0,0,1-1.11,0l-45.53-45.52a.79.79,0,0,1,.56-1.35h91.05A.79.79,0,0,1,301.73,411.68Zm2.37-44.25a1.1,1.1,0,0,1-1,1.16H208.22a1.09,1.09,0,0,1-1-1.16v-28.5a1.1,1.1,0,0,1,1-1.15h94.84a1.1,1.1,0,0,1,1,1.15Zm0-60.65a1.1,1.1,0,0,1-1,1.16H208.22a1.09,1.09,0,0,1-1-1.16v-28.5a1.1,1.1,0,0,1,1-1.15h94.84a1.1,1.1,0,0,1,1,1.15ZM315,146.61H299.08V103.46h7.26v37.23H315Zm10.56,0H318.3V103.46h7.26Zm-6.3-60.45h-11.2V43h11.2c7.76,0,10.5,4.9,10.5,11.58v20C329.76,81.2,327,86.16,319.26,86.16Zm23,60.45h-7.33V109.38h-6v-5.92h19.28v5.92h-6ZM390,323.41l-45.53,45.53a.79.79,0,0,1-1.34-.56V277.33a.78.78,0,0,1,1.34-.55L390,322.3A.78.78,0,0,1,390,323.41ZM404.34,137c0,5.92-3.18,10.12-10.56,10.12s-10.25-4.14-10.25-9.8v-5.79h6.75v5.92c0,2.42,1.08,3.82,3.56,3.82,2.29,0,3.31-1.53,3.31-3.82v-1.66c0-2.48-1-4-3.24-6.11l-4.27-4.26c-4.14-4.07-6-6.56-6-11.52v-1.47c0-5.34,3.12-9.48,10.18-9.48,7.26,0,10.12,3.56,10.12,9.8v3.5h-6.62V112.5c0-2.49-1.15-3.7-3.44-3.7-2,0-3.43,1.15-3.43,3.57v.89c0,2.42,1.33,3.82,3.43,5.85l4.65,4.59c3.94,4,5.85,6.43,5.85,11.2Z"/><path class="cls-1" d="M233.23,141.46c2.61,0,3.75-1.91,3.75-4.46V113.45c0-2.61-1.14-4.46-3.75-4.46s-3.7,1.85-3.7,4.46V137C229.53,139.55,230.68,141.46,233.23,141.46Z"/><path class="cls-1" d="M174.81,48.93h-2.42V62.36h2.42c2.48,0,3.56-1.27,3.56-3.57V52.43C178.37,50.07,177.29,48.93,174.81,48.93Z"/><path class="cls-1" d="M318.37,48.93h-3.06V80.24h3.06c3,0,4.13-1.78,4.13-4.39V53.26C322.5,50.71,321.36,48.93,318.37,48.93Z"/><path class="cls-1" d="M104.23,56.11c-6,0-8.23,4.42-8.23,10.67v55.49c0,6.25,2.28,10.66,8.23,10.66s8.38-4.41,8.38-10.66V66.78C112.61,60.53,110.32,56.11,104.23,56.11Z"/><path class="cls-1" d="M225.28,75.85V53.26c0-2.55-1.15-4.33-4.14-4.33h-3.06V80.24h3.06C224.13,80.24,225.28,78.46,225.28,75.85Z"/><polygon class="cls-1" points="283.43 115.61 280.57 132.93 286.36 132.93 283.5 115.61 283.43 115.61"/></svg>