<svg id="Layer_1" data-name="Layer 1" xmlns="http://www.w3.org/2000/svg" viewBox="0 0 512 512"><defs><style>.cls-1{fill:#fff;}</style></defs><title>11</title><rect class="cls-1" x="190.38" y="324.31" width="19.08" height="21.04" rx="0.98" ry="0.98"/><path class="cls-1" d="M299.82,415.55H277.54a1.82,1.82,0,0,0-1.82,1.82v13.95a1.82,1.82,0,0,0,1.82,1.83h22.28a1.83,1.83,0,0,0,1.83-1.83V417.37A1.83,1.83,0,0,0,299.82,415.55Z"/><path class="cls-1" d="M333.88,389.78H311.6a1.83,1.83,0,0,0-1.84,1.83v13.95a1.83,1.83,0,0,0,1.84,1.82h22.28a1.82,1.82,0,0,0,1.82-1.82V391.61A1.82,1.82,0,0,0,333.88,389.78Z"/><path class="cls-1" d="M314.89,304.17l.09,0,.09,0h18.36l.09,0,.1,0a2.11,2.11,0,0,0,2-2.1V278.49a2.1,2.1,0,0,0-2-1.71,2.14,2.14,0,0,0-1.64.78l-.55.65c-4.13,5.06-12.6,15.49-17.62,21.94l-.53.66a2.11,2.11,0,0,0,1.62,3.36Z"/><path class="cls-1" d="M299.67,320.79a2.14,2.14,0,0,0-1.64.78l-.54.65c-5.4,6.62-18.25,22.45-21.1,26.52l-.2.3a2.35,2.35,0,0,0-.28.46,2.17,2.17,0,0,0-.14.68v3.87a1.82,1.82,0,0,0,1.84,1.82h22.27a1.83,1.83,0,0,0,1.83-1.82V322.5A2.1,2.1,0,0,0,299.67,320.79Z"/><path class="cls-1" d="M333.88,415.55H311.6a1.84,1.84,0,0,0-1.84,1.82v13.95a1.84,1.84,0,0,0,1.84,1.83h22.28a1.83,1.83,0,0,0,1.82-1.83V417.37A1.83,1.83,0,0,0,333.88,415.55Z"/><path class="cls-1" d="M299.82,364H277.54a1.82,1.82,0,0,0-1.82,1.83v14a1.82,1.82,0,0,0,1.82,1.82h22.28a1.83,1.83,0,0,0,1.83-1.82v-14A1.83,1.83,0,0,0,299.82,364Z"/><path class="cls-1" d="M208.47,368.11H191.36a1,1,0,0,0-1,1v19.06a1,1,0,0,0,1,1h17.11a1,1,0,0,0,1-1V369.1A1,1,0,0,0,208.47,368.11Z"/><path class="cls-1" d="M258.75,109c-2.55,0-3.7,1.84-3.7,4.45v23.17c0,2.61,1.15,4.45,3.7,4.45s3.75-1.84,3.75-4.45V113.45C262.5,110.84,261.36,109,258.75,109Z"/><path class="cls-1" d="M242,236.71H224.92a1,1,0,0,0-1,1v19.07a1,1,0,0,0,1,1H242a1,1,0,0,0,1-1V237.7A1,1,0,0,0,242,236.71Z"/><path class="cls-1" d="M208.47,236.71H191.36a1,1,0,0,0-1,1v19.07a1,1,0,0,0,1,1h17.11a1,1,0,0,0,1-1V237.7A1,1,0,0,0,208.47,236.71Z"/><path class="cls-1" d="M208.47,280.52H191.36a1,1,0,0,0-1,1v19.08a1,1,0,0,0,1,1h17.11a1,1,0,0,0,1-1V281.49A1,1,0,0,0,208.47,280.52Z"/><path class="cls-1" d="M242,411.92H224.92a1,1,0,0,0-1,1V432a1,1,0,0,0,1,1H242a1,1,0,0,0,1-1V412.89A1,1,0,0,0,242,411.92Z"/><path class="cls-1" d="M242,280.52H224.92a1,1,0,0,0-1,1v19.08a1,1,0,0,0,1,1H242a1,1,0,0,0,1-1V281.49A1,1,0,0,0,242,280.52Z"/><path class="cls-1" d="M242,324.31H224.92a1,1,0,0,0-1,1v19.08a1,1,0,0,0,1,1H242a1,1,0,0,0,1-1V325.29A1,1,0,0,0,242,324.31Z"/><path class="cls-1" d="M242,368.11H224.92a1,1,0,0,0-1,1v19.06a1,1,0,0,0,1,1H242a1,1,0,0,0,1-1V369.1A1,1,0,0,0,242,368.11Z"/><rect class="cls-1" x="275.72" y="389.78" width="25.93" height="17.6" rx="1.83" ry="1.83"/><polygon class="cls-1" points="241.62 55.17 241.56 55.17 238.7 72.48 244.49 72.48 241.62 55.17"/><path class="cls-1" d="M208.47,411.92H191.36a1,1,0,0,0-1,1V432a1,1,0,0,0,1,1h17.11a1,1,0,0,0,1-1V412.89A1,1,0,0,0,208.47,411.92Z"/><path class="cls-1" d="M331.48,76.74V70.25c0-2.29-1.09-3.5-3.63-3.5h-3.12v13.5h3.19C330.33,80.25,331.48,79,331.48,76.74Z"/><path class="cls-1" d="M422.68,390H399.86a1.85,1.85,0,0,0-1.87,1.82V405.7a1.85,1.85,0,0,0,1.87,1.83h22.82a1.85,1.85,0,0,0,1.87-1.83V391.83A1.84,1.84,0,0,0,422.68,390Z"/><path class="cls-1" d="M0,0V512H512V0ZM420.89,43h19.28v5.92h-6V86.16h-7.32V48.93h-6Zm-28.77,66.37v-5.92H411.4v5.92h-6v37.23H398.1V109.38Zm39.59,246.93a1.54,1.54,0,0,1,1.54,1.54v15.37a1.53,1.53,0,0,1-1.54,1.54H354.84a1.53,1.53,0,0,1-1.54-1.54V357.85a1.54,1.54,0,0,1,1.54-1.54Zm-10.38-209.7h-7.26V103.46h7.26ZM411,43h7.25V86.16H411ZM386.65,54.15c0-6.75,3.18-11.65,10.82-11.65,8,0,10.25,4.46,10.25,10.82v5.09H401.1V52.75c0-2.68-.89-4.2-3.5-4.2s-3.69,1.84-3.69,4.45V76.17c0,2.61,1.08,4.45,3.69,4.45s3.5-1.65,3.5-4.2v-8h6.62v7.45c0,6.17-2.55,10.75-10.25,10.75s-10.82-5-10.82-11.65Zm-4.46,49.31h7.26v43.15h-7.26ZM360.18,43h17.31v5.92H367.43V61.28h7.2v5.85h-7.2V80.25h10.06v5.91H360.18Zm-2.42,60.45h7.13l7.83,24.76V103.46h6v43.15H372.4l-8.53-27.11v27.11h-6.11ZM341.66,43h7.25V80.25h8.66v5.91H341.66Zm-24.18,0H328c7.25,0,9.67,3.37,9.67,9.48v4.4c0,3.62-1.33,5.91-4.33,6.87,3.63.83,5.42,3.25,5.42,7.19v5.73c0,6.11-2.74,9.48-10,9.48H317.48Zm-1,84.76,4.2-24.31h9.17v43.15h-6.62v-28H323l-4.9,28h-3.38l-5.41-28h-.12v28h-6V103.46h8.47l4.71,24.31ZM298.7,43H307l8.21,43.15h-7.45l-1.34-7.89h-7.7l-1.27,7.89h-6.87ZM293,118.61l-4.9,28h-3.37l-5.41-28h-.13v28h-6V103.46h8.47l4.7,24.31h.07l4.2-24.31h9.16v43.15h-6.62v-28ZM267.27,43h7.13l7.82,24.76V43h6V86.16h-6.36l-8.53-27.11V86.16h-6.11Zm-10.76,0h7.26V86.16h-7.26ZM246,43l8.21,43.15h-7.45l-1.34-7.89h-7.7l-1.27,7.89H229.6L237.74,43Zm-11.58,66c-2.61,0-3.7,1.84-3.7,4.45v23.17c0,2.61,1.09,4.45,3.7,4.45s3.5-1.65,3.5-4.19v-8h6.62v7.45c0,6.17-2.55,10.75-10.25,10.75s-10.82-5-10.82-11.65V114.6c0-6.75,3.18-11.65,10.82-11.65,8,0,10.25,4.45,10.25,10.82v5.09h-6.62V113.2C237.94,110.52,237.05,109,234.44,109ZM212,43h19.29v5.92h-6V86.16H218V48.93h-6Zm2.12,72v20c0,6.62-2.74,11.58-10.5,11.58h-11.2V103.46h11.2C211.34,103.46,214.08,108.36,214.08,115Zm-24.26-44h6.76V77c0,2.42,1.08,3.82,3.56,3.82,2.29,0,3.31-1.53,3.31-3.82V75.34c0-2.48-1-4-3.25-6.11L195.93,65c-4.13-4.07-6-6.56-6-11.52V52c0-5.35,3.12-9.49,10.19-9.49,7.25,0,10.11,3.56,10.11,9.8v3.5h-6.62V52.05c0-2.48-1.14-3.69-3.43-3.69-2,0-3.44,1.14-3.44,3.56v.89c0,2.42,1.34,3.82,3.44,5.86l4.65,4.58c3.94,4,5.85,6.43,5.85,11.2v2.1c0,5.92-3.18,10.12-10.56,10.12s-10.26-4.14-10.26-9.8ZM165.71,43H173V76.36c0,2.55,1,4.26,3.57,4.26s3.56-1.71,3.56-4.26V43h6.68V75.66c0,6.69-2.86,11-10.24,11-7.64,0-10.82-4.32-10.82-11ZM141.78,71.08h6.75V77c0,2.42,1.09,3.82,3.57,3.82,2.29,0,3.31-1.53,3.31-3.82V75.34c0-2.48-1-4-3.25-6.11L147.89,65c-4.13-4.07-6-6.56-6-11.52V52c0-5.35,3.12-9.49,10.18-9.49,7.26,0,10.12,3.56,10.12,9.8v3.5h-6.62V52.05c0-2.48-1.14-3.69-3.43-3.69-2,0-3.44,1.14-3.44,3.56v.89c0,2.42,1.33,3.82,3.44,5.86l4.64,4.58c3.95,4,5.86,6.43,5.86,11.2v2.1c0,5.92-3.18,10.12-10.57,10.12s-10.25-4.14-10.25-9.8Zm7.39,32.38h8.27l8.21,43.15h-7.44l-1.34-7.89h-7.7l-1.28,7.89H141ZM66.42,146.15H49.06v-79h-.15L36.73,79.76h-.15V61.64l16-18.73H66.42Zm9.74-66.39V61.64l16-18.73H106V146.15H88.65v-79H88.5L76.32,79.76Zm90.49,379.31a1.9,1.9,0,0,1-1.89,1.9h-25.5V423a1.88,1.88,0,0,0-1.89-1.89H114.32a1.88,1.88,0,0,0-1.89,1.89v38H87.59a1.89,1.89,0,0,1-1.89-1.9V398.68a1.89,1.89,0,0,1,1.89-1.89h77.17a1.89,1.89,0,0,1,1.89,1.89ZM165,389.8H88a1.89,1.89,0,0,1-1.89-1.89,1.85,1.85,0,0,1,.33-1.06l.57-.7,37.38-49.06.36-.4.23-.27a2,2,0,0,1,1.24-.48,1.88,1.88,0,0,1,1.4.61l.37.41,38.32,49.58.1.11A1.88,1.88,0,0,1,165,389.8Zm9.06-243.19h-6.11V103.46h7.13l7.83,24.76V103.46h6v43.15h-6.36l-8.53-27.11Zm81.71,312.63a1.85,1.85,0,0,1-1.84,1.83H179.17a1.84,1.84,0,0,1-1.83-1.83V203.79a1.83,1.83,0,0,1,1.83-1.83h74.75a1.84,1.84,0,0,1,1.84,1.83Zm-8-323.77V114.6c0-6.75,3.31-11.65,10.95-11.65s11,4.9,11,11.65v20.87c0,6.69-3.31,11.65-11,11.65S247.8,142.16,247.8,135.47Zm96.58,324.16a1.83,1.83,0,0,1-1.83,1.82H267.88a1.83,1.83,0,0,1-1.83-1.82V345.11a2.11,2.11,0,0,1,.63-1.45l.34-.46L340.48,250l.64-.79a.71.71,0,0,1,.14-.1,1.94,1.94,0,0,1,1.06-.35,2,2,0,0,1,1.88,1.43,1.77,1.77,0,0,1,.18.76Zm-.3-312.51c-7.64,0-10.82-4.32-10.82-11V103.46h7.26v33.35c0,2.55,1,4.26,3.56,4.26s3.56-1.71,3.56-4.26V103.46h6.69v32.65C354.33,142.8,351.47,147.12,344.08,147.12Zm89.26,312.8a1.85,1.85,0,0,1-1.88,1.82H355.09a1.84,1.84,0,0,1-1.87-1.82V382.8a1.84,1.84,0,0,1,1.87-1.82h76.37a1.85,1.85,0,0,1,1.88,1.82Zm8.8-350.54H432.08v12.35h7.19v5.85h-7.19V140.7h10.06v5.91H424.83V103.46h17.31Zm.7-66.37h7.25V86.16h-7.25Zm22.6,94c0,5.92-3.19,10.12-10.57,10.12s-10.25-4.13-10.25-9.8v-5.79h6.75v5.92c0,2.42,1.08,3.82,3.57,3.82,2.29,0,3.3-1.53,3.3-3.82v-1.66c0-2.48-1-4-3.24-6.11l-4.27-4.26c-4.13-4.07-6-6.56-6-11.52v-1.47c0-5.34,3.12-9.48,10.18-9.48,7.26,0,10.12,3.56,10.12,9.8v3.5h-6.62V112.5c0-2.49-1.14-3.69-3.43-3.69-2,0-3.44,1.14-3.44,3.56v.89c0,2.42,1.34,3.82,3.44,5.86l4.64,4.58c3.95,4,5.86,6.43,5.86,11.2Zm5.47-88.07H460.85V61.28H468v5.85h-7.19V80.25h10.06v5.91H453.59V43h17.32ZM494.2,76.55c0,5.92-3.18,10.12-10.57,10.12s-10.24-4.14-10.24-9.8V71.08h6.75V77c0,2.42,1.08,3.82,3.56,3.82C486,80.82,487,79.29,487,77V75.34c0-2.48-1-4-3.25-6.11L479.5,65c-4.14-4.07-6.05-6.56-6.05-11.52V52c0-5.35,3.12-9.49,10.18-9.49,7.26,0,10.12,3.56,10.12,9.8v3.5h-6.62V52.05c0-2.48-1.14-3.69-3.43-3.69-2,0-3.44,1.14-3.44,3.56v.89c0,2.42,1.34,3.82,3.44,5.86l4.65,4.58c3.94,4,5.85,6.43,5.85,11.2Z"/><path class="cls-1" d="M422.68,415.65H399.86a1.84,1.84,0,0,0-1.87,1.82v13.86a1.85,1.85,0,0,0,1.87,1.83h22.82a1.85,1.85,0,0,0,1.87-1.83V417.47A1.84,1.84,0,0,0,422.68,415.65Z"/><path class="cls-1" d="M330.72,57.71V52.43c0-2.36-1.09-3.5-3.51-3.5h-2.48V61.21h2.55C329.63,61.21,330.72,60,330.72,57.71Z"/><path class="cls-1" d="M199.63,109.38V140.7h3.06c3,0,4.14-1.79,4.14-4.4V113.71c0-2.55-1.15-4.33-4.14-4.33Z"/><path class="cls-1" d="M333.88,338.25H311.6a1.83,1.83,0,0,0-1.84,1.83V354a1.83,1.83,0,0,0,1.84,1.82h22.28A1.82,1.82,0,0,0,335.7,354V340.08A1.82,1.82,0,0,0,333.88,338.25Z"/><polygon class="cls-1" points="153.05 115.61 152.99 115.61 150.13 132.93 155.91 132.93 153.05 115.61"/><path class="cls-1" d="M333.88,312.47H311.6a1.84,1.84,0,0,0-1.84,1.84v13.94a1.84,1.84,0,0,0,1.84,1.83h22.28a1.83,1.83,0,0,0,1.82-1.83V314.31A1.83,1.83,0,0,0,333.88,312.47Z"/><path class="cls-1" d="M333.88,364H311.6a1.84,1.84,0,0,0-1.84,1.83v14a1.84,1.84,0,0,0,1.84,1.82h22.28a1.83,1.83,0,0,0,1.82-1.82v-14A1.83,1.83,0,0,0,333.88,364Z"/><polygon class="cls-1" points="302.58 55.17 302.52 55.17 299.66 72.48 305.45 72.48 302.58 55.17"/><path class="cls-1" d="M387.81,390H365a1.85,1.85,0,0,0-1.88,1.82V405.7a1.85,1.85,0,0,0,1.88,1.83h22.82a1.84,1.84,0,0,0,1.86-1.83V391.83A1.84,1.84,0,0,0,387.81,390Z"/><path class="cls-1" d="M387.81,415.65H365a1.85,1.85,0,0,0-1.88,1.82v13.86a1.85,1.85,0,0,0,1.88,1.83h22.82a1.84,1.84,0,0,0,1.86-1.83V417.47A1.84,1.84,0,0,0,387.81,415.65Z"/></svg>