<svg id="Layer_1" data-name="Layer 1" xmlns="http://www.w3.org/2000/svg" viewBox="0 0 512 512"><defs><style>.cls-1{fill:#fff;}</style></defs><title>12</title><path class="cls-1" d="M303.19,169.45c-2.54,0-3.69,1.85-3.69,4.46v23.17c0,2.6,1.15,4.45,3.69,4.45s3.76-1.85,3.76-4.45V173.91C307,171.3,305.8,169.45,303.19,169.45Z"/><path class="cls-1" d="M329,122.81v-9.93c0-2.36-1.09-3.5-3.57-3.5h-2.67v17h2.67C327.94,126.37,329,125.16,329,122.81Z"/><path class="cls-1" d="M177.7,58.79V52.43c0-2.35-1.08-3.5-3.56-3.5h-2.42V62.36h2.42C176.62,62.36,177.7,61.09,177.7,58.79Z"/><polygon class="cls-1" points="175.35 176.07 175.28 176.07 172.42 193.38 178.21 193.38 175.35 176.07"/><path class="cls-1" d="M258.52,183.26v-9.93c0-2.35-1.08-3.49-3.57-3.49h-2.67v17H255C257.44,186.83,258.52,185.62,258.52,183.26Z"/><path class="cls-1" d="M224.6,169.84h-3.06v31.31h3.06c3,0,4.14-1.78,4.14-4.39v-22.6C228.74,171.62,227.59,169.84,224.6,169.84Z"/><path class="cls-1" d="M244.9,62.36V52.43c0-2.35-1.08-3.5-3.56-3.5h-2.68v17h2.68C243.82,65.92,244.9,64.72,244.9,62.36Z"/><path class="cls-1" d="M281.87,179.7v-6.37c0-2.35-1.08-3.49-3.56-3.49h-2.42v13.42h2.42C280.79,183.26,281.87,182,281.87,179.7Z"/><path class="cls-1" d="M195.84,113.45v23.17c0,2.61,1.15,4.46,3.69,4.46s3.75-1.85,3.75-4.46V113.45c0-2.61-1.14-4.45-3.75-4.45S195.84,110.84,195.84,113.45Z"/><path class="cls-1" d="M266,80.63c2.61,0,3.75-1.85,3.75-4.46V53c0-2.6-1.14-4.45-3.75-4.45s-3.7,1.85-3.7,4.45V76.17C262.27,78.78,263.42,80.63,266,80.63Z"/><path class="cls-1" d="M432.62,169.45c-2.55,0-3.69,1.85-3.69,4.46v23.17c0,2.6,1.14,4.45,3.69,4.45s3.75-1.85,3.75-4.45V173.91C436.37,171.3,435.23,169.45,432.62,169.45Z"/><path class="cls-1" d="M351.62,57.71V52.43c0-2.35-1.08-3.5-3.5-3.5h-2.49V61.21h2.55C350.54,61.21,351.62,60,351.62,57.71Z"/><path class="cls-1" d="M327.75,169.84H324.7v31.31h3.05c3,0,4.14-1.78,4.14-4.39v-22.6C331.89,171.62,330.74,169.84,327.75,169.84Z"/><path class="cls-1" d="M0,0V512H512V0ZM410.48,128.22V103.46h6v43.15h-6.36l-8.53-27.11v27.11h-6.11V103.46h7.13Zm-21.14,41.62v-5.93h19.29v5.93h-6v37.23h-7.32V169.84Zm-11.7-.39c-2.61,0-3.69,1.85-3.69,4.46v23.17c0,2.6,1.08,4.45,3.69,4.45s3.5-1.65,3.5-4.2v-8h6.62v7.45c0,6.18-2.55,10.76-10.25,10.76s-10.82-5-10.82-11.65V175.05c0-6.74,3.18-11.65,10.82-11.65,8,0,10.25,4.46,10.25,10.82v5.1h-6.62v-5.67C381.14,171,380.25,169.45,377.64,169.45Zm3.63-22.33c-7.64,0-10.95-5-10.95-11.64V114.6c0-6.75,3.31-11.65,10.95-11.65s11,4.9,11,11.65v20.88C392.28,142.16,389,147.12,381.27,147.12ZM380.7,43H398v5.92H388V61.28h7.2v5.85H388V80.25H398v5.91H380.7Zm-18.33,0h7.25V80.25h8.66v5.91H362.37Zm-2.61,60.45H367v43.15h-7.25Zm-6.56,98.07c2.55,0,3.57-1.72,3.57-4.27V163.91h6.68v32.66c0,6.68-2.86,11-10.25,11-7.64,0-10.82-4.33-10.82-11V163.91h7.26v33.35C349.64,199.81,350.66,201.53,353.2,201.53ZM338.38,43h10.5c7.26,0,9.68,3.37,9.68,9.49v4.39c0,3.62-1.34,5.92-4.33,6.87,3.62.83,5.41,3.25,5.41,7.19v5.73c0,6.11-2.74,9.48-10,9.48H338.38ZM338,103.46h19.28v5.92h-6v37.23H344V109.38h-6Zm1.15,72v20c0,6.62-2.74,11.59-10.51,11.59h-11.2V163.91h11.2C336.41,163.91,339.15,168.82,339.15,175.5ZM327.81,43h7.26V86.16h-7.26Zm8.47,70.12v9.11c0,6-2.67,9.73-10,9.73h-3.5v14.64h-7.26V103.46h10.76C333.61,103.46,336.28,107.09,336.28,113.13Zm-32.2-42h6.75V77c0,2.42,1.08,3.82,3.57,3.82,2.28,0,3.3-1.53,3.3-3.82V75.34c0-2.48-1-4-3.24-6.11L310.19,65c-4.14-4.07-6-6.56-6-11.52V52c0-5.35,3.12-9.49,10.18-9.49,7.26,0,10.12,3.56,10.12,9.8v3.51h-6.62V52.05c0-2.48-1.15-3.69-3.43-3.69-2,0-3.44,1.14-3.44,3.56v.89c0,2.42,1.34,3.82,3.44,5.86L319,63.25c3.94,4,5.85,6.43,5.85,11.2v2.1c0,5.92-3.18,10.12-10.56,10.12s-10.25-4.13-10.25-9.8Zm8.21,32.38v43.15h-6.62v-28h-.19l-4.9,28h-3.37l-5.41-28h-.13v28h-6V103.46h8.46l4.71,24.31h.07l4.19-24.31Zm1.91,71.59v20.88c0,6.68-3.31,11.65-11,11.65s-10.95-5-10.95-11.65V175.05c0-6.74,3.31-11.65,10.95-11.65S314.2,168.31,314.2,175.05ZM248,141.27c2.28,0,3.3-1.53,3.3-3.82V135.8c0-2.49-1-4-3.24-6.12l-4.27-4.26c-4.14-4.07-6-6.55-6-11.52v-1.47c0-5.34,3.12-9.48,10.18-9.48,7.26,0,10.12,3.56,10.12,9.8v3.51h-6.62V112.5c0-2.49-1.15-3.69-3.43-3.69-2,0-3.44,1.14-3.44,3.56v.89c0,2.42,1.34,3.82,3.44,5.86l4.64,4.58c3.94,4,5.85,6.43,5.85,11.2V137c0,5.92-3.18,10.12-10.56,10.12s-10.25-4.13-10.25-9.8v-5.79h6.75v5.92C244.39,139.87,245.47,141.27,248,141.27ZM245,163.91h10.76c7.32,0,10,3.63,10,9.68v9.1c0,6.05-2.67,9.74-10,9.74h-3.5v14.64H245Zm16.35-27.79V103.46h7.26v33.35c0,2.55,1,4.27,3.56,4.27s3.57-1.72,3.57-4.27V103.46h6.69v32.66c0,6.68-2.87,11-10.26,11C264.56,147.12,261.37,142.8,261.37,136.12Zm7.26,27.79H279.2c7.32,0,10,3.63,10,9.68v5.54c0,4.64-1.66,7.38-5.8,8.33l6.94,19.61H282.7l-6.81-19.8v19.8h-7.26ZM280.22,43h7.13l7.83,24.76V43h6V86.16h-6.36l-8.53-27.11V86.16h-6.11ZM255,54.15c0-6.75,3.31-11.65,11-11.65s11,4.9,11,11.65V75c0,6.69-3.31,11.65-11,11.65s-11-5-11-11.65ZM231.41,43h10.75c7.33,0,10,3.63,10,9.67v9.11c0,6-2.67,9.73-10,9.73h-3.5V86.16h-7.25Zm-2.67,60.45h6v43.15h-6.36l-8.53-27.11v27.11h-6.11V103.46h7.13l7.83,24.76Zm7.26,72v20c0,6.62-2.74,11.59-10.51,11.59h-11.2V163.91h11.2C233.26,163.91,236,168.82,236,175.5ZM207.67,71.08h6.75V77c0,2.42,1.09,3.82,3.57,3.82,2.29,0,3.31-1.53,3.31-3.82V75.34c0-2.48-1-4-3.25-6.11L213.78,65c-4.13-4.07-6-6.56-6-11.52V52c0-5.35,3.12-9.49,10.19-9.49,7.25,0,10.11,3.56,10.11,9.8v3.51h-6.62V52.05c0-2.48-1.14-3.69-3.43-3.69-2,0-3.44,1.14-3.44,3.56v.89c0,2.42,1.34,3.82,3.44,5.86l4.64,4.58c4,4,5.86,6.43,5.86,11.2v2.1c0,5.92-3.18,10.12-10.56,10.12s-10.26-4.13-10.26-9.8Zm2.87,43.52v20.88c0,6.68-3.31,11.64-11,11.64s-10.95-5-10.95-11.64V114.6c0-6.75,3.31-11.65,10.95-11.65S210.54,107.85,210.54,114.6Zm.51,49.31v43.16h-6.36L196.16,180v27.12h-6.11V163.91h7.12L205,188.68V163.91ZM188.07,43h17.31v5.92h-10V61.28h7.19v5.85h-7.19V80.25h10v5.91H188.07Zm-23.61,0H175c7.32,0,10,3.63,10,9.67v5.54c0,4.65-1.65,7.39-5.79,8.34l6.94,19.6h-7.64l-6.81-19.79V86.16h-7.26Zm0,71.59c0-6.75,3.19-11.65,10.82-11.65,8,0,10.25,4.46,10.25,10.82v5.1h-6.62V113.2c0-2.68-.89-4.2-3.5-4.2s-3.69,1.84-3.69,4.45v23.17c0,2.61,1.08,4.46,3.69,4.46s3.5-1.66,3.5-4.2v-8h6.62v7.45c0,6.17-2.55,10.75-10.25,10.75s-10.82-5-10.82-11.64Zm7,49.31h8.27L188,207.07h-7.44l-1.34-7.89h-7.7l-1.28,7.89h-6.87ZM68.62,146.31H51.27v-79h-.16L38.92,79.92h-.15V61.8l16-18.73H68.62Zm10-19c0-10.21,3.51-16.91,13-27L101.35,90c5.64-5.94,6.4-9.29,6.4-17.82V63.63c0-6.4-2.89-7.77-6.25-7.77-3.65,0-6.7,1.83-6.7,8.07V76.87H79V64.39c0-14.47,7.76-22.53,23-22.53,15.54,0,22.69,7,22.69,21.77V73.68c0,10.35-2,16.45-11,26l-11.12,11.72c-4.41,4.72-7.3,7.76-7.3,15.84v4.87h28.48v14.16H78.66Zm288.26,279a73.05,73.05,0,0,1-25.62,4.54,85.31,85.31,0,0,1-36.78-8.52c-24.15-10.61-43.35-30.73-58.67-61.5-29.51-59.27-50.93-64.12-66.57-67.65l-1-.24c-6-1.37-27.32-1.3-42.76,11-12.16,9.71-18.32,25.25-18.32,46.19,0,16.53,2.8,25.79,11.09,36.68l.25.35c.67.91,18.3,24.3,54,17.49a48.3,48.3,0,0,0,16.95-7.17l-10.35-9.34-.54-.51a1.74,1.74,0,0,1-.13-2.5,1.7,1.7,0,0,1,.88-.52l.84-.13,46.17-12.93.51,0,.34,0a1.64,1.64,0,0,1,1.15.43,1.74,1.74,0,0,1,.58,1.29v.53l-7.84,48.21V402a1.65,1.65,0,0,1-.43,1.18,1.79,1.79,0,0,1-2.5.12l-10.86-9.8c-11.77,8.82-22.47,12.6-30.37,14.11-49.35,9.46-74.88-23.34-77.38-26.75-11.39-15-15.82-29.23-15.82-50.8,0-35.41,14.76-54.63,27.15-64.51,23.71-18.93,53.88-17.54,62.57-15.57l1,.23c19.08,4.32,47.91,10.84,82.38,80.07,17.11,34.35,35.25,45.33,47.41,50.61l.95.46c.16.09,21.39,11.15,43.52,2.88,14.3-5.33,31.32-19,31.32-54,0-20.87-6.27-36.4-18.64-46.16-15.85-12.51-37.8-12.6-43.57-11.21l-1.33.31c-11.12,2.62-27.56,6.61-48.48,35.53-.13.2-.28.41-.43.6a2,2,0,0,1-1.39.56,2,2,0,0,1-1.79-1.1l-.09-.18c-3.15-5.87-6.88-12.24-9.84-17.18l-.54-.9a1.91,1.91,0,0,1,.13-2.12l.3-.36.39-.5c23.56-29.23,43.69-34.18,56.36-37.18l1.27-.29c11-2.61,40.93-2.25,63.55,15.61,12.57,9.93,27.55,29.19,27.55,64.57C413.49,383.17,380.92,401,366.92,406.25Zm51.44-199.18h-7.25V163.91h7.25Zm25.27-11.14c0,6.68-3.31,11.65-11,11.65s-10.95-5-10.95-11.65V175.05c0-6.74,3.31-11.65,10.95-11.65s11,4.91,11,11.65Zm24.25,11.14h-6.37L453,180v27.12h-6.11V163.91H454l7.83,24.77V163.91h6.05Z"/><path class="cls-1" d="M381.27,109c-2.54,0-3.69,1.84-3.69,4.45v23.17c0,2.61,1.15,4.46,3.69,4.46s3.76-1.85,3.76-4.46V113.45C385,110.84,383.88,109,381.27,109Z"/><path class="cls-1" d="M352.38,76.75v-6.5c0-2.29-1.08-3.5-3.63-3.5h-3.12v13.5h3.19C351.23,80.25,352.38,79,352.38,76.75Z"/></svg>