<svg id="Layer_1" data-name="Layer 1" xmlns="http://www.w3.org/2000/svg" viewBox="0 0 512 512"><defs><style>.cls-1{fill:#fff;}</style></defs><title>13</title><path class="cls-1" d="M188.65,293.88c2.5-.55,6.77-5.67,9.5-8.18,1-.89,6.23-3.28,5.9-4.58s-2.94-2.3-4.91-2-4.8.65-6.23,2.28l-.41.48a78.17,78.17,0,0,0-5.89,11.75A3,3,0,0,0,188.65,293.88Z"/><path class="cls-1" d="M239.05,362.43c.77-4.1,2-4.38,1.79-9.32s.43-6.06,4-9.62,2.56-1.68,3.6-5-2.55-4.2-5.75-6.23c-3.75-2.38-7.61-8.77-7.24-13.12.25-3,1.86-.26,5.54,3.56s5.33,6.84,9.07,5.94,8.89-4.27,7.55-8.08c-.9-2.57-13.55-12.6-13-14.51.65-2.17,2.79-.54,6.65,2.46s8.43,2.51,9.38,7.84c1.76,9.84,13,5.48,20.68,14.32,3,3.39,4.41-.28,6.43-4.39s-1.57-6,1.23-8,6.16-1.09,7.45,2.19,3.07,7.56,4.71,11.93c1.56,4.15,11,10.59,12.26,10.69,5.34.34-1.86-7.9-2.43-10.92s1.71-8.66,4-9.48,3.26,0,8.31-3.32-.16-3.85-.27-9.33,3.27-2.27,4.07-1.11c3.14,4.58,8.54,2.13,9.26-.72a13,13,0,0,0,.38-3.65,79,79,0,0,0-119.39-48.1c9.17-.69,27.55-3.8,25.59,4.25-1.74,7.13,11.64,8.28,4.85,11.79-2.89,1.5-11.32,7.37-13.19,6.35-5.24-2.83,10.71-6.46,7.64-8.52s-9.2.3-14,1.35c-2.36.54-11.57.51-14.94,2.12s-7.33,3.79-6.22,6.67,10.25,5.16,11.79,5.16,3.19-.38,6.46-4.39,7.23-.33,6.08.2a21.27,21.27,0,0,0-5.73,4.78,6.36,6.36,0,0,1-7.89,1.59c-3.27-1.64-10.58-.75-12,.07s-4.92,3.28-6,3.57-2.59,1.08-2.07,2.18.79,2.4,0,3.21-2.27,2.55-4.31,1.18c-1.86-1.24-7.28-.69-8.79,1-.21.63-.4,1.28-.58,1.92-.11,2.8,1.11,7.4,5.74,3.94,1.52-1.14,9.09-.87,13.75-5.3,2.21-2.08,4.66.65,5.2,1.74s3.72,7.9,5.31,7.63-2.59-6.53-.73-6.8,4.24,5.27,5.36,4.49c3-2.14,5.51-1.38,5.85,1.78.29,2.53-2.09,4.19-5.12,5.44-4.19,1.71-11.41-2.18-16-3.9a77.61,77.61,0,0,0-12.94-3.23l-4.63,1.6s.1,1.16-4.08,6.11a4.23,4.23,0,0,0-.49.73c-.25,2.6-.39,5.22-.39,7.89a78.69,78.69,0,0,0,6.21,30.75l.27.11c4.36,1.37,3.1.65,6.16-.71s5.84-4.38,8-1.65,4.33,1.87,4.63,6.24,4.51-2.87,5.32,3.7c1.25,10.27,3.67,5.21,3.67,6.92,0,4.93.5,14.52,4.09,14.79s9.25-2.19,10.77-4.12S233.42,375,235,369,238.28,366.54,239.05,362.43Z"/><path class="cls-1" d="M317.27,341.7c2,1.56,6,2.07,7.53.67s-2.43-5.09-5.08-4.88C318.52,337.59,315.28,340.15,317.27,341.7Z"/><path class="cls-1" d="M198.77,276.11c2.39.39,6.72-2.05,8.38-3.78.59-.6,1.27-4.11,1.06-5s-1.8-1.58-3-1.35-3,.45-3.83,1.57c-.41.54-3.81,4.83-4.83,6.33C196.2,274.4,196.92,275.83,198.77,276.11Z"/><path class="cls-1" d="M252.06,140.57c2.61,0,3.76-1.84,3.76-4.46V113c0-2.61-1.15-4.46-3.76-4.46s-3.69,1.85-3.69,4.46v23.16C248.37,138.73,249.52,140.57,252.06,140.57Z"/><polygon class="cls-1" points="255.25 54.65 255.18 54.65 252.32 71.97 258.11 71.97 255.25 54.65"/><polygon class="cls-1" points="168.83 115.11 168.77 115.11 165.91 132.42 171.69 132.42 168.83 115.11"/><path class="cls-1" d="M332,313c-1,.08,2.56,4,1.39,5.31-7,8.07,1.86,20.34,4,20.92A79.37,79.37,0,0,0,339,323.1c0-1.54-.06-3.07-.14-4.58C337.84,315.09,335.8,312.7,332,313Z"/><path class="cls-1" d="M284.6,392.43c-2.68,1.54-19.52-8-32.34-6.77-5.74.55-13,3-15.47,9.42a3.25,3.25,0,0,0,1,3.86,79,79,0,0,0,70.1-13c-1.82-.68-1.78-1.59-7.2-1.8C292.7,383.84,287.28,390.89,284.6,392.43Z"/><path class="cls-1" d="M331.66,344.27c-1.73-3.43-3.73,2.21-13.23,4.58-3.21.79-7.48,1.3-14.34,3.78-5,1.82-11,9.85-8.18,16.89s1.06,11.82,7.4,7.67,1.84.76,4,1.55,1.6-2.73,5.91-.54a13.41,13.41,0,0,0,2.49.92,79.24,79.24,0,0,0,18.11-27.87,12.51,12.51,0,0,0-1.22-5.15C332.3,345.52,332,344.91,331.66,344.27Z"/><path class="cls-1" d="M0,0V512H512V0ZM289.48,42.5h17.31v5.92H296.73V60.76h7.19v5.86h-7.19V79.73h10.06v5.92H289.48Zm-22.66,0h19.29v5.92h-6V85.65h-7.31V48.42h-6ZM288.21,103v43.16h-6.36L273.32,119v27.12h-6.11V103h7.12l7.83,24.76V103ZM251.36,42.5h8.28l8.21,43.15H260.4l-1.33-7.89h-7.71l-1.27,7.89h-6.87Zm-10.24,71.59c0-6.75,3.31-11.65,10.94-11.65s11,4.9,11,11.65V135c0,6.68-3.31,11.65-11,11.65s-10.94-5-10.94-11.65ZM213.63,42.5h8.46l4.71,24.31h.07l4.2-24.31h9.16V85.65h-6.62v-28h-.19l-4.9,28h-3.37l-5.41-28h-.13v28h-6ZM236.92,103v43.16h-7.26V103ZM207,108.87V103H226.3v5.92h-6v37.24H213V108.87ZM202.17,42.5h7.26V85.65h-7.26Zm2.36,70.77v5.09h-6.62v-5.67c0-2.67-.89-4.2-3.5-4.2s-3.69,1.85-3.69,4.46v23.16c0,2.62,1.08,4.46,3.69,4.46s3.5-1.65,3.5-4.2v-8h6.62v7.45c0,6.17-2.54,10.76-10.24,10.76s-10.83-5-10.83-11.65V114.09c0-6.75,3.19-11.65,10.83-11.65C202.3,102.44,204.53,106.9,204.53,113.27ZM183,42.5h7.25V79.73h8.66v5.92H183ZM158,53.63C158,46.89,161.13,42,168.77,42c8,0,10.25,4.45,10.25,10.82V57.9H172.4V52.23c0-2.67-.89-4.2-3.51-4.2s-3.69,1.85-3.69,4.46V75.66c0,2.61,1.09,4.45,3.69,4.45s3.51-1.65,3.51-4.2V68H179V75.4c0,6.18-2.55,10.76-10.25,10.76S158,81.2,158,74.51ZM165,103h8.27l8.21,43.16H174l-1.34-7.9H165l-1.27,7.9H156.8Zm-91.2,5.14H89.59v14.77c0,6.09,2.12,10,8.06,10,5.32,0,7.76-3.8,7.76-9.28V106.57c0-5.48-2.44-8.37-8.52-8.37h-7.3V85h6.54c5.63,0,9.28-2.9,9.28-8.37V65.48c0-5.64-2-9.29-7.45-9.29s-7.46,3.65-7.46,10v10.5H74.66V67.61c0-15.22,6.25-25.88,24.2-25.88,16,0,23,9,23,23.6v9c0,8.67-4.72,14.45-11.87,16.74,8.67,2,12.78,8.06,12.78,17.5v15.22c0,14.31-7.6,23.59-25.11,23.59-17.66,0-23.9-10-23.9-25.72Zm-9.12,38H47.27v-79h-.15L35,79.78h-.16V61.67L50.77,43H64.63ZM447.76,324.78c-13.49,18.91-74.51,94.46-187.93,94.46s-174.45-75.55-188-94.46c-.57-.82-1.07-1.51-1.47-2.12.4-.6.9-1.3,1.47-2.11,13.51-18.92,74.51-94.46,188-94.46s174.44,75.54,187.93,94.46c.59.81,1.07,1.51,1.46,2.11C448.83,323.27,448.35,324,447.76,324.78Z"/><path class="cls-1" d="M244.54,347.67c-.57,1.06-3.38,14.92-1.38,16.47s5-11.74,6.05-13.52C254.42,342.23,247.66,342,244.54,347.67Z"/><path class="cls-1" d="M276.38,330.05c-1.19.09-4.44,2.66-2.45,4.2s6,2.07,7.55.68S279,329.81,276.38,330.05Z"/><path class="cls-1" d="M320.42,334.27c0-1.29-2.11-3.71-3.73-4.54a1.78,1.78,0,0,0-2.58,2.27c.65,1.94,1.4,2.75,2.25,3.07S320.42,335.56,320.42,334.27Z"/></svg>