<svg id="Layer_1" data-name="Layer 1" xmlns="http://www.w3.org/2000/svg" viewBox="0 0 512 512"><defs><style>.cls-1{fill:#fff;}</style></defs><title>14</title><path class="cls-1" d="M180.85,136.69v-6.5c0-2.29-1.08-3.5-3.63-3.5H174.1v13.49h3.18C179.7,140.18,180.85,139,180.85,136.69Z"/><polygon class="cls-1" points="103.03 73.51 102.88 73.51 87.35 115.99 103.03 115.99 103.03 73.51"/><polygon class="cls-1" points="343.43 115.11 343.37 115.11 340.5 132.42 346.29 132.42 343.43 115.11"/><path class="cls-1" d="M318.77,347.46a17,17,0,1,0,17.05,17A17,17,0,0,0,318.77,347.46Z"/><path class="cls-1" d="M180.08,117.65v-5.28c0-2.36-1.08-3.5-3.5-3.5H174.1v12.28h2.55C179,121.15,180.08,120,180.08,117.65Z"/><path class="cls-1" d="M242.76,140.57c2.61,0,3.76-1.85,3.76-4.46V112.94c0-2.61-1.15-4.45-3.76-4.45s-3.69,1.84-3.69,4.45v23.17C239.07,138.72,240.21,140.57,242.76,140.57Z"/><path class="cls-1" d="M408.52,108.87H406.1V122.3h2.42c2.48,0,3.57-1.27,3.57-3.57v-6.36C412.09,110,411,108.87,408.52,108.87Z"/><path class="cls-1" d="M0,0V512H512V0ZM355,103h19.28v5.92h-6V146.1H361V108.87h-6Zm-7.19,0L356,146.1h-7.45l-1.33-7.89h-7.7l-1.28,7.89H331.4L339.55,103Zm-42.32,0,3.38,27.37h.06L312.57,103h5.92l4,27.37h.06L325.87,103H332l-5.6,43.15h-6.87l-4.27-26.66h-.06L311.1,146.1h-6.81L298.5,103Zm-42.25,0,3.37,27.37h.07L270.31,103h5.93l4,27.37h.06L283.62,103h6.11l-5.6,43.15h-6.88L273,119.44h-.06l-4.08,26.66H262L256.25,103Zm-20.49-.51c7.7,0,11,4.9,11,11.65V135c0,6.69-3.31,11.65-11,11.65s-10.95-5-10.95-11.65V114.09C231.81,107.34,235.12,102.44,242.76,102.44ZM217.68,42.49H235v5.92H224.94V60.76h7.19v5.86h-7.19V79.73H235v5.92H217.68Zm11.15,97.69v5.92H212.91V103h7.26v37.23ZM197.51,42.49h17v5.92h-9.74V60.76H212v5.86h-7.26v19h-7.26Zm8.66,78.73v5.85H199v13.11H209v5.92H191.73V103H209v5.92H199v12.35ZM186.06,42.49h7.26V85.65h-7.26Zm-19.22,0h7.26V79.73h8.66v5.92H166.84Zm0,60.46h10.51c7.25,0,9.67,3.37,9.67,9.48v4.39c0,3.63-1.34,5.92-4.33,6.88,3.63.83,5.41,3.24,5.41,7.19v5.73c0,6.11-2.73,9.48-10,9.48H166.84Zm12,101.14a7.55,7.55,0,0,0,.71-.68,2,2,0,0,1,.7-.15,2.94,2.94,0,0,1,.53.08,1.78,1.78,0,0,1,.83.66c7.26,5.54,40.66,28.12,70.36.41l.46-.43a1.79,1.79,0,0,1,1.16-.5,1.9,1.9,0,0,1,1.21.5l.43.43c29.72,27.71,63.08,5.13,70.35-.41a1.84,1.84,0,0,1,.85-.66,2.61,2.61,0,0,1,.5-.08,1.76,1.76,0,0,1,.71.15c.24.25.48.47.71.68,24.39,23.08,51.26,12.75,59.92,8.41.32-.15.59-.29.85-.43a1.52,1.52,0,0,1,2,1.62V225.3a1.68,1.68,0,0,1-.48,1.2c-28.2,24.48-54.84,1.55-61-4.51a1.54,1.54,0,0,0-.47-.48,1.61,1.61,0,0,0-2,.15s-.06.06-.06.07c-31.82,30.37-65.18,5.77-72.12,0l-.69-.62a1.42,1.42,0,0,0-.66-.13,1.32,1.32,0,0,0-.63.13l-.69.62c-6.94,5.77-40.3,30.37-72.12,0a.18.18,0,0,1-.08-.07,1.65,1.65,0,0,0-1.14-.45,1.77,1.77,0,0,0-.92.3,1.57,1.57,0,0,0-.44.48c-6.17,6.06-32.84,29-61,4.51a1.61,1.61,0,0,1-.49-1.2V213.69a1.69,1.69,0,0,1,1.67-1.7,1.36,1.36,0,0,1,.32.08l.86.43C127.63,216.84,154.49,227.17,178.88,204.09ZM66.34,146.27H49v-79h-.15L36.66,79.91H36.5V61.8l16-18.72H66.34Zm5.78-16.72V118.89l30-75.83h17.06V116h7v13.56h-7v16.74H102.73V129.55Zm44,138V255.93a1.67,1.67,0,0,1,1.68-1.67,2.71,2.71,0,0,1,.32.07l.85.43c8.67,4.34,35.53,14.64,59.91-8.41.25-.22.5-.43.73-.67a1.4,1.4,0,0,1,.69-.16,1.32,1.32,0,0,1,.54.12,1.4,1.4,0,0,1,.82.63c7.26,5.53,40.66,28.13,70.36.41l.46-.44a1.62,1.62,0,0,1,1.16-.47,1.68,1.68,0,0,1,1.2.47l.44.44c29.72,27.72,63.09,5.12,70.35-.41a1.43,1.43,0,0,1,.85-.63,1.08,1.08,0,0,1,.5-.12,1.44,1.44,0,0,1,.72.16c.24.24.47.45.7.67,24.39,23,51.27,12.75,59.92,8.41.32-.15.59-.3.85-.43a2.53,2.53,0,0,1,.36-.07,1.66,1.66,0,0,1,1.66,1.67v11.65a1.65,1.65,0,0,1-.49,1.17c-28.2,24.5-54.84,1.56-61-4.51a1.87,1.87,0,0,0-.47-.46,1.66,1.66,0,0,0-.92-.31,1.61,1.61,0,0,0-1.13.47l-.06.07c-31.82,30.32-65.18,5.74-72.12,0l-.68-.65a1.81,1.81,0,0,0-.67-.11,1.61,1.61,0,0,0-.63.11l-.68.65c-6.95,5.74-40.32,30.32-72.13,0l-.08-.07a1.62,1.62,0,0,0-1.14-.47,1.78,1.78,0,0,0-.92.31,1.92,1.92,0,0,0-.44.46c-6.17,6.07-32.84,29-61,4.51A1.6,1.6,0,0,1,116.11,267.58ZM393.19,375.46c-.13.15-.27.36-.45.59-6.45,8.69-48.07,61.76-106.42,61.76-50.68,0-104.89-46-104.89-46s-20.43,41.81-62.22,45.7a1.68,1.68,0,0,1-.44,0l-.45,0a1.66,1.66,0,0,1-1.53-1.64,1.63,1.63,0,0,1,.26-.88l.36-.57c5.32-8.87,19.1-34.3,19.1-59.71s-13.7-50.7-19.07-59.61a4.52,4.52,0,0,1-.65-1.53,1.68,1.68,0,0,1,1.59-1.64h.25c.28,0,.54,0,.79,0,41.65,4,62,45.68,62,45.68s54.21-46,104.89-46c58.35,0,100,53.07,106.42,61.77.18.22.32.42.45.6a1.82,1.82,0,0,1,.13.64A1.92,1.92,0,0,1,393.19,375.46ZM395,108.87H384.92v12.35h7.19v5.85h-7.19v13.11H395v5.92H377.66V103H395Zm17.95,37.23-6.82-19.79V146.1h-7.25V103h10.56c7.32,0,10,3.63,10,9.67v5.54c0,4.65-1.66,7.39-5.8,8.34l6.94,19.6Z"/></svg>