<svg id="Layer_1" data-name="Layer 1" xmlns="http://www.w3.org/2000/svg" viewBox="0 0 512 512"><defs><style>.cls-1{fill:#fff;}</style></defs><title>15</title><path class="cls-1" d="M312.2,135.79V113.2c0-2.55-1.15-4.33-4.14-4.33H305v31.31h3.05C311.05,140.18,312.2,138.4,312.2,135.79Z"/><path class="cls-1" d="M173.29,140.57c2.61,0,3.75-1.85,3.75-4.46V112.94c0-2.61-1.14-4.45-3.75-4.45s-3.69,1.84-3.69,4.45v23.17C169.6,138.72,170.74,140.57,173.29,140.57Z"/><polygon class="cls-1" points="257.03 115.11 256.96 115.11 254.1 132.42 259.89 132.42 257.03 115.11"/><path class="cls-1" d="M0,0V512H512V0ZM376.12,307.05v1.2a2.13,2.13,0,0,1-1.56,2.05,3.14,3.14,0,0,1-1.46,0,3.52,3.52,0,0,1-1.37-.85c-1.31-.87-4.86-2.07-10-2.07s-15.59,1.41-25.65,10.76l-.2.2a2.91,2.91,0,0,1-2.11.88,3,3,0,0,1-2.16-.9l-.23-.2c-10-9.33-20.35-10.74-25.62-10.74-5.09,0-8.65,1.2-10,2.07a3.21,3.21,0,0,1-1.24.79,2,2,0,0,1-.46.12,2,2,0,0,1-1.76-.41,2.15,2.15,0,0,1-.71-1.7v-1.35a2.12,2.12,0,0,1,.67-1.56c6-5.64,12.74-8.48,20-8.48,10.11,0,18.4,5.67,21.5,8.1,3.2-2.53,11.45-8.12,21.47-8.12,7.34,0,14.13,2.93,20.2,8.71A2.12,2.12,0,0,1,376.12,307.05Zm-96.64-63c-5,0-8.43,1.39-9.49,2.16a2.75,2.75,0,0,1-1.07.79,2.15,2.15,0,0,1-.36.11,2.12,2.12,0,0,1-2.67-1.92l-.07-1.12a2.11,2.11,0,0,1,.58-1.59c5.09-5.41,11-8.16,17.64-8.16,7.52,0,13.94,3.71,16.58,5.51,2.89-2.53,9.87-7.7,18.62-7.7,5.61,0,10.95,2.1,15.9,6.26a2.14,2.14,0,0,1,.75,1.48l.05,1a2.12,2.12,0,0,1-1.41,2.14,2.44,2.44,0,0,1-.52.12,2.86,2.86,0,0,1-.91-.05,3.24,3.24,0,0,1-1.29-.68,15,15,0,0,0-6.48-1.18c-4.59,0-13.51,1.3-21.8,10.07l-.17.19a2.88,2.88,0,0,1-1.95.94h-.18a3,3,0,0,1-1.92-.72l-.17-.18A30.72,30.72,0,0,0,279.48,244.06Zm65-31.2a26.5,26.5,0,0,1,8.95-1.68c5,0,12,1.75,16.87,10.14a2,2,0,0,1,.29,1.07,2,2,0,0,1-.09.6l-.21.73a2.08,2.08,0,0,1-1.06,1.28,2.15,2.15,0,0,1-1,.24H368a2.07,2.07,0,0,1-.37,0,6.68,6.68,0,0,1-.81-.39,2.83,2.83,0,0,1-.83-.93c-1-1.07-5.06-3.63-11.34-3.63A24.66,24.66,0,0,0,343.55,223l-.17.08a2.72,2.72,0,0,1-1.25.31,2.84,2.84,0,0,1-.79-.13,2.53,2.53,0,0,1-1.59-1.27l-.09-.16c-6.62-11.27-16.65-11.6-17.76-11.6a6,6,0,0,0-1.51.17,2.63,2.63,0,0,1-1.2.3.83.83,0,0,1-.31,0,2.06,2.06,0,0,1-1.54-.84A2.13,2.13,0,0,1,317,208l.25-.82a2,2,0,0,1,1.08-1.31,20.57,20.57,0,0,1,9.32-2.36C336.41,203.47,342.17,209.8,344.44,212.86ZM297.75,103H309c7.77,0,10.5,4.9,10.5,11.58v20c0,6.62-2.73,11.58-10.5,11.58h-11.2Zm-25.13,0h7.12l7.83,24.76V103h6.05V146.1h-6.36L278.73,119V146.1h-6.11Zm-19.47,0h8.27l8.21,43.15h-7.45l-1.33-7.89h-7.7l-1.28,7.89H245Zm-10.31,37.23v5.92H226.93V103h7.26v37.23ZM213.18,42.49h17.31v5.92H220.44V60.76h7.19v5.86h-7.19V79.73h10.05v5.92H213.18Zm-20.17,0h17v5.92h-9.73V60.76h7.25v5.86h-7.25v19H193ZM209.44,103V146.1h-6.37L194.54,119V146.1h-6.11V103h7.13l7.83,24.76V103ZM181.56,42.49h7.25V85.65h-7.25Zm-19.22,0h7.26V79.73h8.65v5.92H162.34Zm0,71.6c0-6.75,3.31-11.65,10.95-11.65s11,4.9,11,11.65V135c0,6.69-3.31,11.65-11,11.65s-10.95-5-10.95-11.65Zm4.61,123c.59,0,1.16,0,1.73.09a36.45,36.45,0,1,1,69.12,18.66A40.74,40.74,0,0,1,229,336.35L174.57,336a28.83,28.83,0,0,1-21-48.62A26.94,26.94,0,0,1,167,237.08Zm49.59,110.24V384.6a1.13,1.13,0,0,1-1.13,1.14H200.32a1.12,1.12,0,0,1-1.13-1.14V347.32a1.13,1.13,0,0,1,1.13-1.13h15.09A1.14,1.14,0,0,1,216.54,347.32ZM66.1,146.09H48.75v-79h-.16L36.41,79.71h-.15V61.59l16-18.73H66.1ZM125,123.71c0,14.32-7.16,23.61-24.67,23.61s-23.9-10-23.9-25.73V109.86H92.3V122.8c0,6.09,2.13,10,8.06,10,5.33,0,7.32-3.81,7.32-9.29v-25c0-5.63-2.14-9.29-7.47-9.29-4.88,0-7.62,3.36-7.62,9.44V101H76.77V42.86h45.67V57H92.59V82.75h.16c2.75-4.72,7.77-7.15,14.62-7.15,9.29,0,17.66,6.54,17.66,22.84Zm257.2,324.6a1.14,1.14,0,0,1-1.14,1.12H132.46a1.13,1.13,0,0,1-1.13-1.12V433.07a1.13,1.13,0,0,1,1.13-1.12H381.09a1.14,1.14,0,0,1,1.14,1.12Zm0-30.2a1.14,1.14,0,0,1-1.14,1.12H132.46a1.13,1.13,0,0,1-1.13-1.12v-15.2a1.16,1.16,0,0,1,1.13-1.17H381.09a1.17,1.17,0,0,1,1.14,1.17Z"/></svg>