<svg id="Layer_1" data-name="Layer 1" xmlns="http://www.w3.org/2000/svg" viewBox="0 0 512 512"><defs><style>.cls-1{fill:#fff;}</style></defs><title>16</title><path class="cls-1" d="M104.46,94.57c-5.48,0-7.92,3.65-8.22,9.44v18.88c0,6.4,2.28,10.35,8.07,10.35s8.37-3.8,8.37-10.35v-18C112.68,98.22,110.39,94.57,104.46,94.57Z"/><path class="cls-1" d="M227.22,408.06l8.82.21V385q-4.42.3-8.82.23Z"/><polygon class="cls-1" points="218.28 54.65 218.21 54.65 215.35 71.96 221.14 71.96 218.28 54.65"/><path class="cls-1" d="M326.38,140.57c2.61,0,3.76-1.85,3.76-4.46V112.94c0-2.61-1.15-4.45-3.76-4.45s-3.69,1.84-3.69,4.45v23.17C322.69,138.72,323.84,140.57,326.38,140.57Z"/><polygon class="cls-1" points="172.58 115.11 172.52 115.11 169.66 132.42 175.44 132.42 172.58 115.11"/><path class="cls-1" d="M175.19,61.84V51.92c0-2.36-1.08-3.51-3.56-3.51H169v17h2.68C174.11,65.41,175.19,64.2,175.19,61.84Z"/><path class="cls-1" d="M304.17,118.73v-6.36c0-2.36-1.08-3.5-3.56-3.5h-2.42V122.3h2.42C303.09,122.3,304.17,121,304.17,118.73Z"/><path class="cls-1" d="M0,0V512H512V0ZM391,42.49h7.26V85.65H391Zm-22.65,0h19.28v5.92h-6V85.65h-7.32V48.41h-6ZM345.53,70.56h6.75v5.92c0,2.42,1.08,3.83,3.57,3.83,2.29,0,3.31-1.54,3.31-3.83V74.83c0-2.48-1-4-3.25-6.11l-4.27-4.27c-4.13-4.07-6-6.55-6-11.52V51.47c0-5.35,3.12-9.49,10.18-9.49,7.26,0,10.12,3.57,10.12,9.81v3.5h-6.62V51.53c0-2.48-1.14-3.69-3.43-3.69-2,0-3.44,1.15-3.44,3.57v.89c0,2.41,1.34,3.82,3.44,5.85l4.64,4.59c3.95,4,5.86,6.43,5.86,11.2V76c0,5.92-3.18,10.12-10.57,10.12s-10.25-4.14-10.25-9.8Zm.58,136.5c-7.64,0-10.95-5-10.95-11.65V174.54c0-6.75,3.31-11.65,10.95-11.65s11,4.9,11,11.65v20.87C357.11,202.1,353.81,207.06,346.11,207.06ZM345,250.57s-7.33-3.83-8.79-10.26,3.53-13,3.53-13,7.34,3.83,8.78,10.26S345,250.57,345,250.57Zm-18.62-8.89s7.33,3.82,8.78,10.25-3.52,13-3.52,13-7.34-3.83-8.79-10.26S326.41,241.68,326.41,241.68Zm-2.7-35.13V163.4H331v43.15Zm32.45-60.45L347.63,119V146.1h-6.11V103h7.13l7.83,24.76V103h6V146.1ZM320.72,42.49H328V75.85c0,2.54,1,4.26,3.56,4.26s3.57-1.72,3.57-4.26V42.49h6.68V75.15c0,6.68-2.86,11-10.25,11-7.64,0-10.82-4.33-10.82-11Zm5.66,60c7.7,0,11,4.9,11,11.65V135c0,6.69-3.31,11.65-11,11.65s-10.95-5-10.95-11.65V114.09C315.43,107.34,318.74,102.44,326.38,102.44Zm-25.33,66.88V163.4h19.28v5.92h-6v37.23H307V169.32ZM297.11,68H304v8.72c0,2.17.76,3.44,2.67,3.44s2.74-1.27,2.74-3.5V42.49h7.25V75.85c0,6.23-2.73,10.31-10,10.31-7.51,0-9.55-4.14-9.55-9.61Zm-6.18,35H301.5c7.32,0,10,3.63,10,9.67v5.54c0,4.65-1.65,7.39-5.79,8.34l6.94,19.6H305l-6.81-19.79V146.1h-7.26Zm.13,93.8V163.4h6.69v32.65c0,6.69-2.87,11-10.25,11-7.64,0-10.82-4.32-10.82-11V163.4h7.25v33.35c0,2.55,1,4.27,3.57,4.27S291.06,199.3,291.06,196.75Zm-3.5-87.88h-6V146.1h-7.32V108.87h-6V103h19.28ZM254,169.32V163.4h19.28v5.92h-6v37.23H260V169.32Zm25.65-90.61h6.87v.58L282.86,89h-4.08ZM257.91,42.49h17.31v5.92H265.17V60.76h7.19v5.86h-7.19V79.73h10.05v5.92H257.91Zm7.89,69.75v3.5h-6.62V112c0-2.49-1.14-3.69-3.43-3.69-2,0-3.44,1.14-3.44,3.56v.89c0,2.42,1.34,3.82,3.44,5.86l4.64,4.58c3.95,4,5.86,6.43,5.86,11.2v2.1c0,5.92-3.18,10.12-10.56,10.12s-10.26-4.13-10.26-9.8V131h6.75v5.92c0,2.42,1.09,3.82,3.57,3.82,2.29,0,3.31-1.53,3.31-3.82v-1.66c0-2.48-1-4-3.25-6.11l-4.27-4.26c-4.13-4.08-6-6.56-6-11.52v-1.47c0-5.34,3.12-9.48,10.19-9.48C262.94,102.44,265.8,106,265.8,112.24ZM250.65,163.4v43.15H243.4V163.4ZM232.9,53.63c0-6.74,3.18-11.65,10.82-11.65,8,0,10.25,4.46,10.25,10.83V57.9h-6.62V52.23c0-2.67-.89-4.2-3.5-4.2s-3.69,1.85-3.69,4.46V75.65c0,2.62,1.08,4.46,3.69,4.46s3.5-1.65,3.5-4.2V68H254V75.4c0,6.18-2.55,10.76-10.25,10.76s-10.82-5-10.82-11.65ZM220.74,169.32V163.4H240v5.92h-6v37.23h-7.33V169.32ZM235,114.53v20c0,6.62-2.74,11.58-10.5,11.58h-11.2V103h11.2C232.27,103,235,107.85,235,114.53ZM188.17,146.1V103h7.13l7.83,24.76V103h6V146.1h-6.36L194.28,119V146.1Zm6,17.3v43.15h-6.36l-8.53-27.11v27.11h-6.11V163.4h7.13l7.83,24.76V163.4Zm3.75,28.07h6.75v5.92c0,2.42,1.08,3.81,3.57,3.81,2.29,0,3.31-1.52,3.31-3.81v-1.66c0-2.48-1-4-3.25-6.11L204,185.36c-4.13-4.08-6-6.56-6-11.52v-1.47c0-5.34,3.12-9.48,10.18-9.48,7.26,0,10.12,3.56,10.12,9.8v3.5h-6.62v-3.75c0-2.49-1.14-3.69-3.43-3.69-2,0-3.44,1.14-3.44,3.56v.89c0,2.42,1.34,3.82,3.44,5.86l4.64,4.58c3.95,4,5.86,6.43,5.86,11.2v2.1c0,5.92-3.18,10.12-10.57,10.12s-10.25-4.13-10.25-9.8Zm16.49-149h8.27l8.21,43.16h-7.44l-1.34-7.9h-7.7l-1.27,7.9h-6.88Zm-28.19,0h17.31v5.92H193.45V60.76h7.2v5.86h-7.2V79.73h10.06v5.92H186.2Zm-24.5,0h10.75c7.33,0,10,3.63,10,9.68v9.1c0,6-2.67,9.74-10,9.74H169V85.65H161.7Zm7,60.46H177l8.21,43.15h-7.44l-1.34-7.89h-7.7l-1.28,7.89h-6.87ZM169,163.4v43.15H161.7V163.4ZM69.13,146.18H51.77v-79h-.15L39.44,79.8h-.16V61.68L55.28,43H69.13Zm35.18,1.22C86,147.4,79,135.83,79,119.84V69.6c0-16.14,6.85-27.87,25.12-27.87,19.19,0,24.21,10.66,24.21,25.89V73.1H112.53V66.24c0-6.39-1.83-10-8.07-10s-8.22,4.41-8.22,10.66V89.09h.15c2.59-5,7-8.38,14.31-8.38,12.49,0,19.19,8.53,19.19,25.43v15.23C129.89,137.36,122.73,147.4,104.31,147.4Zm37.94,272.3c0,3.39-2.37,6.13-5.28,6.13H133.8c-2.9,0-5.27-2.74-5.27-6.13V408.61c0-3.39,2.37-6.13,5.27-6.13H137c2.91,0,5.28,2.74,5.28,6.13Zm3.85,2.66V406.31l74.63,1.61v-23a99.76,99.76,0,0,1-24.53-5C182.76,375.25,167.74,362,155.06,358c-1.95-.44-3.09-.79-3.09-.79a27.52,27.52,0,0,1,3.09.79c6.91,1.57,23.95,4.21,36.06-4.14,15.51-10.72,18-12.06,27.66-13.62-20.81-1.77-36-14.59-42.06-42.94-5.76-27-9.74-37.64-21.11-42.48,16.63-1.62,40.87-1.78,68.66,26.67,21.07,21.56,42.64,21,59.79,5.06s29.17-23.66,38.51-13.19a83.56,83.56,0,0,0,6.48,6.53c2.14-10.37,8.46-16.91,14.71-23.31,3.43-3.51,7-7.14,9.71-11.36l2.23,1.44a76.86,76.86,0,0,1-10,11.78c-6.42,6.56-12.64,13-14.34,23.43a56.69,56.69,0,0,0,8.55,6.08,47.23,47.23,0,0,0-9,.27,64.22,64.22,0,0,0,3.72,19.39c-.89.09-1.79.17-2.69.22a67.57,67.57,0,0,1-3.63-19.23,46,46,0,0,0-8.41,2.23c-10.15,3.81-17.21,12.38-16.39,34.44.83,21.67-7.43,45.26-45.31,55.95a108.8,108.8,0,0,1-15.65,3.17v24l39.34.9,26.94-3v-12.5a3.58,3.58,0,0,1,3.58-3.58h41.26a3.59,3.59,0,0,1,3.59,3.58v40.93a3.59,3.59,0,0,1-3.59,3.59H312.39a3.58,3.58,0,0,1-3.58-3.59V422.31l-26.94-3Zm205.42-156.2c6,.7,10,7,10,7s-5.61,5.11-11.56,4.41-10-7-10-7S345.56,265.46,351.52,266.16Zm3.77,189.15H310.77a6.3,6.3,0,1,1,0-12.6h44.52a6.3,6.3,0,0,1,0,12.6Zm0-69.43H310.77a6.3,6.3,0,1,1,0-12.6h44.52a6.3,6.3,0,0,1,0,12.6Zm8-123.22c-6,.54-11.23-4.76-11.23-4.76s4.43-6.15,10.41-6.68S373.73,256,373.73,256,369.3,262.13,363.33,262.66ZM370,239.11c-4.88,4.93-13.45,4.18-13.45,4.18s-.68-8.73,4.18-13.67,13.44-4.18,13.44-4.18S374.83,234.18,370,239.11Zm12.28-32.56h-6.36l-8.53-27.11v27.11h-6.11V163.4h7.13l7.83,24.76V163.4h6Zm-6.49-59.94c-6.24,0-9.11-5-9.11-11.65V114.09c0-6.75,3.25-11.65,10.89-11.65,8,0,10.37,4.46,10.37,10.82v3.82h-6.62v-4.39c0-2.68-1-4.2-3.62-4.2s-3.76,1.84-3.76,4.45v23.17c0,2.61,1.08,4.46,3.56,4.46s3.57-1.34,3.57-4.14v-7.64H377.6v-5.73h10.31v23H382.7v-4.71C381.74,144.64,379.7,146.61,375.76,146.61Zm31.05,50.33c0,5.92-3.18,10.12-10.56,10.12S386,202.93,386,197.26v-5.79h6.75v5.92c0,2.42,1.08,3.81,3.56,3.81,2.29,0,3.31-1.52,3.31-3.81v-1.66c0-2.48-1-4-3.24-6.11l-4.27-4.26c-4.14-4.08-6-6.56-6-11.52v-1.47c0-5.34,3.11-9.48,10.18-9.48,7.25,0,10.12,3.56,10.12,9.8v3.5h-6.62v-3.75c0-2.49-1.15-3.69-3.44-3.69-2,0-3.44,1.14-3.44,3.56v.89c0,2.42,1.34,3.82,3.44,5.86l4.65,4.58c3.94,4,5.85,6.43,5.85,11.2Zm16.75-139h-6.63V52.23c0-2.67-.88-4.2-3.49-4.2s-3.7,1.85-3.7,4.46V75.65c0,2.62,1.08,4.46,3.7,4.46s3.49-1.65,3.49-4.2V68h6.63V75.4c0,6.18-2.55,10.76-10.25,10.76s-10.82-5-10.82-11.65V53.63c0-6.74,3.18-11.65,10.82-11.65,8,0,10.25,4.46,10.25,10.83Zm21.25-9.49H434.75V60.76h7.19v5.86h-7.19V79.73h10.06v5.92H427.5V42.49h17.31Z"/><path class="cls-1" d="M220.56,108.87v31.31h3.06c3,0,4.14-1.78,4.14-4.39V113.2c0-2.55-1.15-4.33-4.14-4.33Z"/><path class="cls-1" d="M346.11,168.94c-2.55,0-3.7,1.84-3.7,4.45v23.17c0,2.61,1.15,4.46,3.7,4.46s3.75-1.85,3.75-4.46V173.39C349.86,170.78,348.71,168.94,346.11,168.94Z"/></svg>