<svg id="Layer_1" data-name="Layer 1" xmlns="http://www.w3.org/2000/svg" viewBox="0 0 512 512"><defs><style>.cls-1{fill:#fff;}</style></defs><title>17</title><path class="cls-1" d="M214.15,315.37a66.54,66.54,0,0,1-21.79-49.27,68.49,68.49,0,0,1,.56-8.52A53.17,53.17,0,0,0,163,350,66.79,66.79,0,0,1,214.15,315.37Z"/><path class="cls-1" d="M259.05,282.34a66.9,66.9,0,0,1,48.82-37.47,53.22,53.22,0,0,0-97.64,0A66.88,66.88,0,0,1,259.05,282.34Z"/><path class="cls-1" d="M319.47,363.79a52.92,52.92,0,0,0,24.64-6.09A53.1,53.1,0,0,0,271.73,334,53.27,53.27,0,0,0,319.47,363.79Z"/><path class="cls-1" d="M266.21,310.53a53.73,53.73,0,0,0,.69,8.18,53.28,53.28,0,0,0,45.41-52.61,52.49,52.49,0,0,0-.7-8.18A53.28,53.28,0,0,0,266.21,310.53Z"/><path class="cls-1" d="M174.17,357.78a53,53,0,0,0,72-23.43,53.07,53.07,0,0,0-72,23.43Z"/><path class="cls-1" d="M251.19,318.71a52.49,52.49,0,0,0,.7-8.18,53.3,53.3,0,0,0-45.4-52.62,52.72,52.72,0,0,0-.7,8.19A53.27,53.27,0,0,0,251.19,318.71Z"/><path class="cls-1" d="M193.17,112.94v23.17c0,2.61,1.15,4.46,3.69,4.46s3.76-1.85,3.76-4.46V112.94c0-2.61-1.15-4.45-3.76-4.45S193.17,110.33,193.17,112.94Z"/><path class="cls-1" d="M225.24,118.73v-6.36c0-2.36-1.08-3.5-3.56-3.5h-2.42V122.3h2.42C224.16,122.3,225.24,121,225.24,118.73Z"/><path class="cls-1" d="M228,58.28V51.92c0-2.36-1.08-3.51-3.56-3.51h-2.42V61.84h2.42C227,61.84,228,60.57,228,58.28Z"/><path class="cls-1" d="M230.83,368.9a66.57,66.57,0,0,1-61.19,1.67,53.16,53.16,0,0,0,78.89,57,66.4,66.4,0,0,1-17.7-58.65Z"/><path class="cls-1" d="M179.87,61.84V51.92c0-2.36-1.09-3.51-3.57-3.51h-2.67v17h2.67C178.78,65.41,179.87,64.2,179.87,61.84Z"/><path class="cls-1" d="M320.06,58.28V51.92c0-2.36-1.08-3.51-3.57-3.51h-2.42V61.84h2.42C319,61.84,320.06,60.57,320.06,58.28Z"/><polygon class="cls-1" points="199.21 54.65 199.15 54.65 196.28 71.96 202.08 71.96 199.21 54.65"/><path class="cls-1" d="M402.34,48.41h-2.68v17h2.68c2.47,0,3.56-1.21,3.56-3.57V51.92C405.9,49.56,404.81,48.41,402.34,48.41Z"/><path class="cls-1" d="M354.93,140.57c2.6,0,3.75-1.85,3.75-4.46V112.94c0-2.61-1.15-4.45-3.75-4.45s-3.7,1.84-3.7,4.45v23.17C351.23,138.72,352.38,140.57,354.93,140.57Z"/><path class="cls-1" d="M0,0V512H512V0ZM381,42.49h7.25V85.65H381Zm-25.7,0h7.25V60.76h7V42.49h7.32V85.65H369.5v-19h-7v19h-7.25Zm10.68,71.6V135c0,6.69-3.3,11.65-11,11.65S344,141.65,344,135V114.09c0-6.75,3.31-11.65,10.95-11.65S365.93,107.34,365.93,114.09ZM330.62,70.56h6.75v5.92c0,2.42,1.08,3.82,3.56,3.82,2.29,0,3.31-1.53,3.31-3.82V74.83c0-2.48-1-4-3.24-6.11l-4.27-4.27c-4.14-4.07-6-6.55-6-11.52V51.47c0-5.35,3.11-9.49,10.18-9.49,7.26,0,10.12,3.57,10.12,9.81v3.5h-6.62V51.53c0-2.48-1.15-3.69-3.44-3.69-2,0-3.43,1.15-3.43,3.57v.88c0,2.42,1.33,3.83,3.43,5.86l4.65,4.59c3.94,4,5.85,6.43,5.85,11.2V76c0,5.92-3.18,10.12-10.56,10.12s-10.25-4.14-10.25-9.8Zm9.23,42.7v3.82h-6.62v-4.39c0-2.68-1-4.2-3.62-4.2s-3.76,1.84-3.76,4.45v23.17c0,2.61,1.08,4.46,3.56,4.46s3.57-1.34,3.57-4.14v-7.64h-3.44v-5.73h10.31v23h-5.22v-4.71c-.95,3.25-3,5.22-6.94,5.22-6.23,0-9.1-5-9.1-11.65V114.09c0-6.75,3.25-11.65,10.89-11.65C337.5,102.44,339.85,106.9,339.85,113.26Zm-33-70.77h10.56c7.32,0,10,3.63,10,9.68v5.54c0,4.64-1.66,7.38-5.8,8.34l6.94,19.6h-7.63l-6.82-19.8v19.8h-7.25Zm-1.66,78.73v5.85H298v13.11H308v5.92H290.72V103H308v5.92H298v12.35ZM285.62,42.49h17.32v5.92H292.88V60.76h7.19v5.86h-7.19V79.73h10.06v5.92H285.62Zm-13.36,84.58v19H265V103h7.25v18.27h7V103h7.32V146.1h-7.32v-19ZM260.49,42.49h7.13l7.83,24.76V42.49h6V85.65h-6.36L266.6,58.54V85.65h-6.11Zm-18.13,66.38V103h19.28v5.92h-6V146.1h-7.32V108.87Zm-4.53-66.38h19.29v5.92h-6V85.65h-7.32V48.41h-6Zm-23,0h10.57c7.32,0,10,3.63,10,9.68v5.54c0,4.64-1.66,7.38-5.79,8.34l6.94,19.6h-7.64l-6.81-19.8v19.8H214.8ZM212,103h10.57c7.32,0,10,3.63,10,9.67v5.54c0,4.65-1.65,7.39-5.79,8.34l6.94,19.6h-7.64l-6.81-19.79V146.1H212ZM195.33,42.49h8.27l8.21,43.16h-7.44L203,77.75h-7.7l-1.28,7.9h-6.87Zm12.54,71.6V135c0,6.69-3.31,11.65-11,11.65s-11-5-11-11.65V114.09c0-6.75,3.31-11.65,11-11.65S207.87,107.34,207.87,114.09Zm-41.5-71.6h10.76c7.32,0,10,3.63,10,9.68v9.1c0,6-2.67,9.74-10,9.74h-3.5V85.65h-7.26Zm0,60.46h17v5.92h-9.74v12.35h7.26v5.85h-7.26v19h-7.26ZM76.64,146.14H59.28v-79h-.15L47,79.76H46.8V61.64l16-18.73H76.64ZM128.11,58.9l-22.69,87.24H88.21l23.14-89.07H84.56V42.91h43.55ZM360.53,363a66.66,66.66,0,0,1-101.16,73.59A66.63,66.63,0,0,1,157.68,363.1a66.64,66.64,0,0,1,38.49-119.2,66.68,66.68,0,0,1,125.75,0A66.64,66.64,0,0,1,360.53,363ZM385.15,146.1l-1.34-7.89h-7.7l-1.27,7.89H368L376.11,103h8.28l8.21,43.15Zm26.35,0H395.58V103h7.26v37.23h8.66Zm1.65-84.83c0,6-2.67,9.74-10,9.74h-3.5V85.65H392.4V42.49h10.76c7.32,0,10,3.63,10,9.68Zm21.77,75.22c0,5.92-3.18,10.12-10.57,10.12s-10.24-4.13-10.24-9.8V131h6.75v5.92c0,2.42,1.08,3.82,3.56,3.82,2.29,0,3.31-1.53,3.31-3.82v-1.66c0-2.48-1-4-3.25-6.11l-4.26-4.26c-4.14-4.08-6.05-6.56-6.05-11.52v-1.47c0-5.34,3.12-9.48,10.18-9.48,7.26,0,10.12,3.56,10.12,9.8v3.5h-6.62V112c0-2.49-1.14-3.69-3.43-3.69-2,0-3.44,1.14-3.44,3.56v.89c0,2.42,1.34,3.82,3.44,5.86l4.65,4.58c3.94,4,5.85,6.43,5.85,11.2ZM437.33,76c0,5.92-3.18,10.12-10.56,10.12s-10.25-4.14-10.25-9.8v-5.8h6.75v5.92c0,2.42,1.08,3.82,3.57,3.82,2.28,0,3.3-1.53,3.3-3.82V74.83c0-2.48-1-4-3.24-6.11l-4.27-4.27c-4.14-4.07-6.05-6.55-6.05-11.52V51.47c0-5.35,3.13-9.49,10.19-9.49,7.26,0,10.12,3.57,10.12,9.81v3.5h-6.62V51.53c0-2.48-1.15-3.69-3.43-3.69-2,0-3.44,1.15-3.44,3.57v.88c0,2.42,1.33,3.83,3.44,5.86l4.64,4.59c3.95,4,5.85,6.43,5.85,11.2Z"/><path class="cls-1" d="M258.8,343.45a53.13,53.13,0,0,0,.49,75.87,53.1,53.1,0,0,0-.49-75.87Z"/><polygon class="cls-1" points="379.93 115.11 377.07 132.42 382.86 132.42 379.99 115.11 379.93 115.11"/><path class="cls-1" d="M319.47,377.21a66.26,66.26,0,0,1-32.29-8.36,66.44,66.44,0,0,1-17.07,58.58,52.76,52.76,0,0,0,26.26,7,53.32,53.32,0,0,0,53.26-53.25,52.7,52.7,0,0,0-1.08-10.65A66.12,66.12,0,0,1,319.47,377.21Z"/><path class="cls-1" d="M325.18,257.58a68.49,68.49,0,0,1,.56,8.52A66.52,66.52,0,0,1,304.36,315a66.8,66.8,0,0,1,50.87,34.91,53.17,53.17,0,0,0-30.05-92.3Z"/></svg>