<svg id="Layer_1" data-name="Layer 1" xmlns="http://www.w3.org/2000/svg" viewBox="0 0 512 512"><defs><style>.cls-1{fill:#fff;}</style></defs><title>2</title><path class="cls-1" d="M205.69,59.88V53.52c0-2.36-1.09-3.5-3.57-3.5H199.7V63.45h2.42C204.6,63.45,205.69,62.18,205.69,59.88Z"/><path class="cls-1" d="M227.89,81.72c2.62,0,3.76-1.85,3.76-4.46V54.09c0-2.61-1.14-4.45-3.76-4.45s-3.69,1.84-3.69,4.45V77.26C224.2,79.87,225.35,81.72,227.89,81.72Z"/><path class="cls-1" d="M284.78,120.33V114c0-2.36-1.08-3.5-3.57-3.5H278.8V123.9h2.41C283.7,123.9,284.78,122.63,284.78,120.33Z"/><path class="cls-1" d="M0,0V512H512V0ZM307.4,211.66c4,2.07,5.32,6.51,2.89,10-.31.46-21,30.62-.57,52.93,14.42,15.76,15.9,31.09,12.31,43.32H304.26c3.63-8.28,4.73-20.54-8-34.44-27.7-30.28-1.69-67.72-.58-69.29C298.15,210.71,303.37,209.61,307.4,211.66ZM271.54,104.55h10.57c7.31,0,10,3.63,10,9.67v5.54c0,4.65-1.66,7.38-5.79,8.34l6.93,19.6h-7.63l-6.81-19.79V147.7h-7.26Zm-21.19,0h17.31v5.92H257.61v12.35h7.19v5.85h-7.19v13.11h10.05v5.92H250.35Zm3.49,107.11c4,2.08,5.31,6.51,2.89,9.93-.33.5-21,30.63-.57,53,14.42,15.76,15.92,31.09,12.32,43.32H250.71c3.62-8.28,4.72-20.54-8-34.44-27.72-30.28-1.69-67.72-.57-69.29C244.59,210.7,249.82,209.61,253.84,211.66Zm-7.62-96.8v3.82H239.6v-4.39c0-2.68-1-4.2-3.63-4.2s-3.75,1.84-3.75,4.45v23.17c0,2.61,1.08,4.45,3.56,4.45s3.57-1.33,3.57-4.13v-7.64h-3.44v-5.73h10.31v23H241V143c-.95,3.25-3,5.22-6.94,5.22-6.24,0-9.1-5-9.1-11.65V115.69c0-6.75,3.25-11.65,10.89-11.65C243.87,104,246.22,108.5,246.22,114.86ZM217,55.24c0-6.75,3.31-11.65,10.94-11.65s11,4.9,11,11.65V76.11c0,6.69-3.31,11.65-11,11.65S217,82.8,217,76.11Zm-2.17,49.31h6.05V147.7h-6.36l-8.53-27.11V147.7h-6.11V104.55H207l7.83,24.76ZM189.17,283.42c-27.71-30.28-1.7-67.72-.58-69.29,2.44-3.43,7.67-4.53,11.68-2.47s5.32,6.51,2.91,9.94c-.33.47-21,30.63-.58,52.94,14.43,15.76,15.92,31.1,12.32,43.32H197.16C200.77,309.58,201.87,297.32,189.17,283.42ZM192.45,44.1H203c7.32,0,10,3.63,10,9.67v5.54c0,4.65-1.66,7.38-5.8,8.34l6.94,19.6h-7.63L199.7,67.46V87.25h-7.25ZM189,104.55h6.68V137.2c0,6.68-2.87,11-10.25,11-7.64,0-10.82-4.33-10.82-11V104.55h7.26V137.9c0,2.55,1,4.26,3.56,4.26s3.57-1.71,3.57-4.26ZM171.26,44.1h17.31V50h-10V62.37h7.19v5.85h-7.19V81.33h10v5.92H171.26Zm-15.08,84.57v19h-7.26V104.55h7.26v18.27h7V104.55h7.32V147.7h-7.32v-19Zm-7.77-47.34L159.81,50H149.56V44.1h17.88V50L156,81.33h11v5.92H148.41Zm-49-7.82c0,10.36-2,16.45-11,26L77.3,111.28C72.89,116,70,119,70,127.11V132H98.46v14.16H53.39v-19c0-10.2,3.51-16.9,12.94-26.95l9.75-10.35c5.63-5.94,6.4-9.29,6.4-17.82V63.46c0-6.39-2.9-7.76-6.24-7.76-3.66,0-6.71,1.83-6.71,8.07V76.71H53.7V64.23c0-14.47,7.76-22.54,23-22.54,15.53,0,22.68,7,22.68,21.77ZM386.82,332.9c0,.08,0,.18,0,.28-7.84,47-43.45,85.49-91,101.08v8.14a0,0,0,0,0,0,0l0,0a3.38,3.38,0,0,1-3.33,3.38l-.07,0-.07,0H207.85l-.08,0-.07,0a3.37,3.37,0,0,1-3.32-3.23.86.86,0,0,1,0-.17.9.9,0,0,1,0-.16v-7.2C155.86,420.12,119.26,381.37,111,334l-.17-1.53a3.41,3.41,0,0,1,3.42-3.42H383.46a3.41,3.41,0,0,1,3.41,3.42A2.69,2.69,0,0,1,386.82,332.9Z"/></svg>