<svg id="Layer_1" data-name="Layer 1" xmlns="http://www.w3.org/2000/svg" viewBox="0 0 512 512"><defs><style>.cls-1{fill:#fff;}</style></defs><title>3</title><polygon class="cls-1" points="318.9 56.24 318.83 56.24 315.97 73.56 321.76 73.56 318.9 56.24"/><path class="cls-1" d="M213.45,81.71c2.61,0,3.76-1.85,3.76-4.46V54.08c0-2.61-1.15-4.46-3.76-4.46s-3.69,1.85-3.69,4.46V77.25C209.76,79.86,210.9,81.71,213.45,81.71Z"/><path class="cls-1" d="M209.89,110.46v31.32h3.05c3,0,4.14-1.79,4.14-4.39v-22.6c0-2.55-1.15-4.33-4.14-4.33Z"/><path class="cls-1" d="M243,76.93V54.34c0-2.55-1.14-4.33-4.13-4.33h-3.06V81.32h3.06C241.9,81.32,243,79.54,243,76.93Z"/><path class="cls-1" d="M187.36,81.71c2.61,0,3.76-1.85,3.76-4.46V54.08c0-2.61-1.15-4.46-3.76-4.46s-3.69,1.85-3.69,4.46V77.25C183.67,79.86,184.82,81.71,187.36,81.71Z"/><path class="cls-1" d="M353.19,119.24V114c0-2.35-1.08-3.5-3.5-3.5h-2.48v12.28h2.55C352.11,122.74,353.19,121.53,353.19,119.24Z"/><path class="cls-1" d="M350.33,128.28h-3.12v13.5h3.18c2.42,0,3.57-1.21,3.57-3.5v-6.5C354,129.49,352.87,128.28,350.33,128.28Z"/><path class="cls-1" d="M0,0V512H512V0ZM397.48,104.54h7.13l7.83,24.76V104.54h6.05V147.7h-6.37l-8.53-27.12V147.7h-6.11ZM371.39,44.09h7.26V62.35h7V44.09H393V87.24h-7.32v-19h-7v19h-7.26Zm21.89,60.45V147.7H386V104.54Zm-14,18.27v5.85h-7.19v13.12h10.06v5.92H364.83V104.54h17.32v5.92H372.09v12.35ZM348.74,44.09H368V50h-6V87.24h-7.32V50h-6Zm12.47,88.39v5.73c0,6.11-2.73,9.49-10,9.49H340V104.54h10.5c7.26,0,9.68,3.37,9.68,9.48v4.4c0,3.62-1.34,5.92-4.33,6.87C359.43,126.12,361.21,128.54,361.21,132.48ZM334.48,44.09h7.26V81.32h8.66v5.92H334.48ZM327,141.78v5.92H311.13V104.54h7.26v37.24Zm-1-11.21v-5.85h10.18v5.85ZM315,44.09h8.28l8.21,43.15h-7.45l-1.33-7.89H315l-1.27,7.89h-6.87Zm-7.19,97.69v5.92H291.91V104.54h7.26v37.24Zm-21-97.69h17.31V50H294.08V62.35h7.19v5.86h-7.19V81.32h10.05v5.92H286.82Zm-1.65,78.72v5.85H278v13.12h10v5.92H270.72V104.54H288v5.92H278v12.35ZM261.11,44.09h7.26V62.35h7V44.09h7.32V87.24h-7.32v-19h-7v19h-7.26Zm-3,87.82h.06l3.31-27.37h6.11L262,147.7h-6.87L250.87,121h-.06l-4.08,26.67h-6.81l-5.79-43.16h7l3.38,27.37h.06l3.63-27.37h5.92ZM228.59,44.09H239.8c7.76,0,10.5,4.9,10.5,11.58v20c0,6.62-2.74,11.58-10.5,11.58H228.59ZM202.5,55.23c0-6.75,3.31-11.65,10.95-11.65s11,4.9,11,11.65V76.1c0,6.69-3.31,11.65-11,11.65s-10.95-5-10.95-11.65Zm21.84,60.89v20c0,6.62-2.74,11.59-10.51,11.59h-11.2V104.54h11.2C221.6,104.54,224.34,109.44,224.34,116.12ZM176.41,55.23c0-6.75,3.31-11.65,11-11.65s11,4.9,11,11.65V76.1c0,6.69-3.31,11.65-11,11.65s-11-5-11-11.65Zm22.09,49.31V147.7h-6.36l-8.53-27.12V147.7h-6.12V104.54h7.13l7.83,24.76V104.54ZM151,55.23c0-6.75,3.25-11.65,10.89-11.65,8,0,10.37,4.45,10.37,10.82v3.82h-6.62V53.83c0-2.68-1-4.21-3.62-4.21s-3.76,1.85-3.76,4.46V77.25c0,2.61,1.08,4.46,3.56,4.46s3.57-1.34,3.57-4.14V69.93H162V64.2h10.31v23h-5.22V82.53c-.95,3.25-3,5.22-6.94,5.22-6.23,0-9.1-5-9.1-11.65Zm7,49.31h8.28l8.21,43.16h-7.45l-1.33-7.9H158l-1.27,7.9h-6.87ZM52.9,121.79V108.24H68.72V123c0,6.09,2.13,10,8.07,10,5.33,0,7.76-3.81,7.76-9.29v-17c0-5.49-2.43-8.38-8.52-8.38H68.72V85.09h6.55c5.63,0,9.28-2.89,9.28-8.37V65.6c0-5.63-2-9.28-7.45-9.28s-7.47,3.65-7.47,10V76.87H53.8V67.74C53.8,52.51,60,41.85,78,41.85c16,0,23,9,23,23.6v9c0,8.67-4.72,14.46-11.87,16.75,8.68,2,12.79,8.07,12.79,17.51v15.22c0,14.31-7.61,23.6-25.13,23.6S52.9,137.47,52.9,121.79Zm226,311.29h-.36a5.89,5.89,0,0,1-5.45-4.88L254.85,322l-27.61,51.2a5.9,5.9,0,0,1-11-2L204.49,289.3,183,337.48a5.9,5.9,0,0,1-5.38,3.5H94.29a5.9,5.9,0,1,1,0-11.79h79.54L202,265.82a5.89,5.89,0,0,1,11.22,1.56l12.09,84.5,27.23-50.5a5.9,5.9,0,0,1,11,1.8l16.88,98.34L342,197.12a5.9,5.9,0,0,1,10.95-.86l32.38,67.12a5.89,5.89,0,1,1-10.62,5.12L348.92,215,284.53,428.89A5.88,5.88,0,0,1,278.89,433.08ZM424.3,338.46l-35.84,35.92-35.9-36A26.38,26.38,0,0,1,345.13,320c0-14.41,9.82-26.09,23.82-26.09,7,0,14.89,7.67,19.47,12.4,4.59-4.72,13-12.39,20-12.39,14,0,23.24,11.68,23.24,26.09a26.42,26.42,0,0,1-7.43,18.46Zm19.57-219.79h-6.62v-4.39c0-2.67-1-4.2-3.63-4.2s-3.75,1.84-3.75,4.45V137.7c0,2.61,1.08,4.46,3.56,4.46S437,140.82,437,138v-7.64h-3.44v-5.72h10.31v23h-5.22V143c-.95,3.24-3,5.22-6.93,5.22-6.24,0-9.11-5-9.11-11.65V115.68c0-6.75,3.25-11.65,10.89-11.65,8,0,10.37,4.46,10.37,10.82Z"/><polygon class="cls-1" points="161.91 116.7 161.84 116.7 158.98 134.01 164.77 134.01 161.91 116.7"/></svg>