<svg id="Layer_1" data-name="Layer 1" xmlns="http://www.w3.org/2000/svg" viewBox="0 0 512 512"><defs><style>.cls-1{fill:#fff;}</style></defs><title>4</title><path class="cls-1" d="M179.37,110.47v31.31h3.06c3,0,4.13-1.78,4.13-4.39V114.8c0-2.55-1.14-4.33-4.13-4.33Z"/><polygon class="cls-1" points="64.9 115.85 80.59 115.85 80.59 73.37 80.43 73.37 64.9 115.85"/><polygon class="cls-1" points="212.14 56.26 212.08 56.26 209.22 73.57 215.01 73.57 212.14 56.26"/><path class="cls-1" d="M161.88,82.1c2.6,0,3.75-1.91,3.75-4.46V54.09c0-2.61-1.15-4.45-3.75-4.45s-3.7,1.84-3.7,4.45V77.64C158.18,80.19,159.33,82.1,161.88,82.1Z"/><path class="cls-1" d="M0,0V512H512V0ZM270,110.47v-5.92h19.29v5.92h-6V147.7H276V110.47Zm59.65,111.05V393l-92.42,27.79V274.89Zm-37-73.82V104.55h7.25V147.7Zm11.45-32c0-6.75,3.31-11.65,11-11.65s11,4.9,11,11.65v20.87c0,6.69-3.31,11.65-11,11.65s-11-5-11-11.65ZM286.6,44.1,291,60.46h.07l4.39-16.36h6.94l-8,26.73V87.25H287.1V70.83L279,44.1Zm-29,0h19.29V50h-6V87.25h-7.32V50h-6ZM247,44.1h7.25V87.25H247Zm7.57,60.45h8.27L271,147.7h-7.44l-1.34-7.89h-7.7l-1.27,7.89h-6.88ZM227.73,44.1H235V81.33h8.66v5.92H227.73ZM234,104c8,0,10.26,4.46,10.26,10.82V120h-6.63v-5.66c0-2.68-.89-4.2-3.5-4.2s-3.69,1.84-3.69,4.45v23.17c0,2.61,1.08,4.45,3.69,4.45s3.5-1.65,3.5-4.19v-8h6.63v7.45c0,6.17-2.55,10.75-10.26,10.75s-10.81-5-10.81-11.65V115.69C223.15,108.94,226.33,104,234,104ZM208.26,44.1h8.27l8.21,43.15H217.3L216,79.36h-7.7L207,87.25h-6.88Zm.51,98.06c2.55,0,3.56-1.71,3.56-4.26V104.55H219V137.2c0,6.68-2.86,11-10.25,11-7.64,0-10.82-4.33-10.82-11V104.55h7.26V137.9C205.21,140.45,206.22,142.16,208.77,142.16ZM177,44.1h7.25V77.45c0,2.55,1,4.27,3.56,4.27s3.57-1.72,3.57-4.27V44.1h6.68V76.75c0,6.68-2.86,11-10.25,11-7.63,0-10.81-4.33-10.81-11Zm16.8,72v20c0,6.62-2.74,11.58-10.5,11.58h-11.2V104.55h11.2C191.08,104.55,193.82,109.45,193.82,116.13ZM150.93,55.24c0-6.75,3.31-11.65,10.95-11.65s11,4.9,11,11.65V76.11c0,4.72-1.65,8.41-5.34,10.19l5.34,1v5.41L159.2,90.18V87.25c-5.79-1-8.27-5.28-8.27-11.14Zm0,49.31h17.31v5.92H158.18v12.35h7.2v5.85h-7.2v13.11h10.06v5.92H150.93Zm-15.65,117,91.83,53V420.75L135.28,393ZM103.73,129.4h-7v16.74H80.28V129.4H49.68V118.74l30-75.83h17v72.94h7ZM349.36,404.75l-9.05,2.66-102.37,32.5h-11.3l-111-30.72V228.88l9.85-7.78V402.29l101.58,28.37h10.37l102-33V221.1l9.85,7.78Zm1.83-257h-6.37l-8.53-27.11V147.7h-6.11V104.55h7.13l7.83,24.76V104.55h6.05ZM401.71,390l-10.85,38L380,390h0V237.39h21.72Zm0-161.12H380V217.17a10.87,10.87,0,0,1,21.73,0Z"/><polygon class="cls-1" points="258.4 116.7 258.34 116.7 255.48 134.02 261.27 134.02 258.4 116.7"/><path class="cls-1" d="M315,142.16c2.61,0,3.76-1.84,3.76-4.45V114.54c0-2.61-1.15-4.45-3.76-4.45s-3.69,1.84-3.69,4.45v23.17C311.35,140.32,312.5,142.16,315,142.16Z"/></svg>