<svg id="Layer_1" data-name="Layer 1" xmlns="http://www.w3.org/2000/svg" viewBox="0 0 512 512"><defs><style>.cls-1{fill:#fff;}</style></defs><title>5</title><path class="cls-1" d="M238.18,77.63V55c0-2.55-1.15-4.33-4.14-4.33H231V82H234C237,82,238.18,80.24,238.18,77.63Z"/><path class="cls-1" d="M284,60.57V54.21c0-2.36-1.09-3.5-3.57-3.5H278V64.14h2.42C282.91,64.14,284,62.87,284,60.57Z"/><path class="cls-1" d="M0,0V512H512V0ZM308.25,105.24l4.39,16.36h.06l4.39-16.36H324L316,132v16.42h-7.25V132l-8.09-26.73Zm-29,5.92v-5.92h19.28v5.92h-6v37.23h-7.32V111.16Zm-8.47-66.37h10.56c7.32,0,10,3.63,10,9.67V60c0,4.65-1.65,7.38-5.79,8.34l6.94,19.6h-7.64L278,68.15V87.94h-7.25Zm-2.16,60.45h7.25v43.15H268.6Zm-19-60.45h17.32v5.92H256.82V63.06H264v5.85h-7.2V82h10.06v5.92H249.56Zm-.18,60.45h7.25v37.24h8.66v5.91H249.38ZM223.73,44.79h11.2c7.77,0,10.51,4.9,10.51,11.58v20c0,6.62-2.74,11.58-10.51,11.58h-11.2Zm6.18,60.45h8.27l8.21,43.15H239l-1.34-7.89h-7.7l-1.28,7.89h-6.87Zm-20.42,37.62c2.54,0,3.56-1.72,3.56-4.27V105.24h6.69v32.65c0,6.69-2.87,11-10.25,11-7.64,0-10.82-4.32-10.82-11V105.24h7.25v33.35C205.92,141.14,206.94,142.86,209.49,142.86ZM198.6,44.79h7.13l7.83,24.76V44.79h6V87.94h-6.36l-8.53-27.11V87.94H198.6Zm-21.19,0h17.31v5.92H184.66V63.06h7.19v5.85h-7.19V82h10.06v5.92H177.41Zm6.12,59.94c7.7,0,11,4.9,11,11.65v20.87c0,4.72-1.65,8.41-5.34,10.19l5.34,1v5.41l-13.68-2.55v-2.93c-5.79-1-8.27-5.28-8.27-11.14V116.38C172.58,109.63,175.89,104.73,183.53,104.73ZM152,55.93c0-6.75,3.24-11.65,10.89-11.65,8,0,10.37,4.46,10.37,10.82v3.82h-6.62V54.53c0-2.68-1-4.2-3.63-4.2s-3.76,1.84-3.76,4.45V78c0,2.61,1.08,4.46,3.57,4.46s3.56-1.34,3.56-4.14V70.63H163V64.9h10.31v23h-5.22V83.23c-.95,3.25-3,5.22-6.94,5.22-6.24,0-9.1-5-9.1-11.65Zm-49.33,67.78c0,14.32-7.15,23.6-24.66,23.6-17.67,0-23.92-10.05-23.92-25.73V109.86H70V122.8c0,6.09,2.13,10,8.07,10,5.33,0,7.31-3.81,7.31-9.29v-25c0-5.64-2.14-9.3-7.47-9.3-4.87,0-7.61,3.35-7.61,9.44V101H54.43V42.86h45.68V57H70.26V82.75h.15C73.15,78,78.18,75.6,85,75.6c9.29,0,17.66,6.54,17.66,22.84Zm66.64-12.55H159.27v12.35h7.2v5.85h-7.2v13.12h10.06v5.91H152V105.24h17.31Zm204.47,147a.82.82,0,0,1-.83.81H351.83a.82.82,0,0,1-.82-.81V234.52l-27.73,27.74a83.27,83.27,0,0,1-54.6,130.17v24.76h25.1a.8.8,0,0,1,.8.81v22.66a.8.8,0,0,1-.8.81h-25.1v24a.82.82,0,0,1-.82.81H245.21a.81.81,0,0,1-.81-.81v-24H219.3a.8.8,0,0,1-.82-.81V418a.8.8,0,0,1,.82-.81h25.1V392.83a83.33,83.33,0,1,1,62.14-148.18l28.14-28.14H309.34a.81.81,0,0,1-.81-.81V194.55a.81.81,0,0,1,.81-.81H373a.82.82,0,0,1,.83.81Z"/><polygon class="cls-1" points="233.79 117.4 233.72 117.4 230.86 134.71 236.65 134.71 233.79 117.4"/><path class="cls-1" d="M183.53,143.24c2.6,0,3.75-1.91,3.75-4.46V115.23c0-2.61-1.15-4.45-3.75-4.45s-3.7,1.84-3.7,4.45v23.55C179.83,141.33,181,143.24,183.53,143.24Z"/><path class="cls-1" d="M255.16,248.85a61.35,61.35,0,1,0,61.35,61.35A61.42,61.42,0,0,0,255.16,248.85ZM293.45,336a.78.78,0,0,1-.82.73H218.22a.77.77,0,0,1-.81-.73v-18a.78.78,0,0,1,.81-.75h74.41a.79.79,0,0,1,.82.75Zm0-32.19a.77.77,0,0,1-.82.74H218.22a.77.77,0,0,1-.81-.74v-18a.77.77,0,0,1,.81-.72h74.41a.78.78,0,0,1,.82.72Z"/></svg>