<svg id="Layer_1" data-name="Layer 1" xmlns="http://www.w3.org/2000/svg" viewBox="0 0 512 512"><defs><style>.cls-1{fill:#fff;}</style></defs><title>6</title><path class="cls-1" d="M256.42,277.57v-.21l-.08.1-.08-.1v.21C254.42,280.3,233,312.41,230.05,318c-4.85,8.94-9.81,26.24,4.1,40.14a29.82,29.82,0,0,0,22.19,7.73,29.82,29.82,0,0,0,22.17-7.73c13.9-13.9,8.95-31.2,4.1-40.14C279.62,312.41,258.21,280.3,256.42,277.57Z"/><path class="cls-1" d="M176.17,252c12.67.09,23.11-3.75,34.31-7.78,16.88-6.09,31.17,3.91,46.43,8.69,24.25,7.59,39.93,4.23,63-5.11,6.13-2.48,12.51-3.28,17.54-1.06l5.26-32.26H168.85Z"/><polygon class="cls-1" points="348.81 116.71 345.95 134.02 351.74 134.02 348.88 116.71 348.81 116.71"/><path class="cls-1" d="M77.62,94.67c-5.48,0-7.92,3.65-8.22,9.44V123c0,6.4,2.28,10.36,8.07,10.36,5.94,0,8.37-3.81,8.37-10.36V105C85.84,98.32,83.55,94.67,77.62,94.67Z"/><path class="cls-1" d="M214.62,137.4V114.8c0-2.55-1.15-4.33-4.14-4.33h-3.06v31.32h3.06C213.47,141.79,214.62,140,214.62,137.4Z"/><polygon class="cls-1" points="267.17 116.71 267.11 116.71 264.25 134.02 270.04 134.02 267.17 116.71"/><polygon class="cls-1" points="159.38 116.71 156.51 134.02 162.31 134.02 159.44 116.71 159.38 116.71"/><polygon class="cls-1" points="224.86 56.26 224.79 56.26 221.93 73.57 227.72 73.57 224.86 56.26"/><path class="cls-1" d="M405.52,110.09c-2.55,0-3.69,1.85-3.69,4.45v23.17c0,2.61,1.14,4.46,3.69,4.46s3.75-1.85,3.75-4.46V114.54C409.27,111.94,408.13,110.09,405.52,110.09Z"/><polygon class="cls-1" points="316.18 56.26 316.11 56.26 313.25 73.57 319.04 73.57 316.18 56.26"/><path class="cls-1" d="M381.28,50h-2.42V63.45h2.42c2.48,0,3.56-1.27,3.56-3.57V53.52C384.84,51.16,383.76,50,381.28,50Z"/><path class="cls-1" d="M0,0V512H512V0ZM350.41,44.1h17.31V50H357.66V62.37h7.2v5.85h-7.2V81.34h10.06v5.92H350.41Zm-22.65,0H347V50h-6V87.26h-7.32V50h-6Zm-9.24,66.37v-5.92h19.29v5.92h-6v37.24h-7.32V110.47Zm2.05-66.37,8.21,43.16h-7.45L320,79.36h-7.7L311,87.26h-6.87L312.3,44.1Zm-5.42,60.45v43.16H307.9V104.55ZM278.25,44.1l3.38,27.37h.06l3.63-27.37h5.91l4,27.37h.07l3.31-27.37h6.11l-5.6,43.16h-6.88L288,60.59h-.06l-4.08,26.67H277L271.25,44.1Zm25.51,60.45v43.16H297.4l-8.53-27.12v27.12h-6.11V104.55h7.13l7.83,24.76V104.55Zm-32.2,0,8.21,43.16h-7.44l-1.34-7.9h-7.7l-1.28,7.9h-6.87l8.15-43.16ZM240.45,44.1h7.13l7.83,24.76V44.1h6V87.26h-6.36l-8.53-27.12V87.26h-6.11Zm2.16,98.26c2.29,0,3.31-1.53,3.31-3.82v-1.65c0-2.49-1-4-3.25-6.11l-4.26-4.27c-4.14-4.07-6-6.56-6-11.52v-1.46c0-5.35,3.12-9.49,10.19-9.49,7.25,0,10.11,3.57,10.11,9.8v3.51H246v-3.76c0-2.48-1.14-3.69-3.43-3.69-2,0-3.44,1.14-3.44,3.56v.89c0,2.42,1.34,3.82,3.44,5.86l4.65,4.58c3.94,4,5.85,6.43,5.85,11.2v2.1c0,5.93-3.18,10.13-10.56,10.13s-10.25-4.14-10.25-9.81v-5.79h6.75v5.92C239.05,141,240.13,142.36,242.61,142.36ZM221,44.1h8.27l8.21,43.16H230l-1.34-7.9H221l-1.28,7.9h-6.87Zm.89,72v20c0,6.62-2.74,11.59-10.5,11.59h-11.2V104.55h11.2C219.13,104.55,221.87,109.45,221.87,116.14Zm-29.08-72H210.1V50H200V62.37h7.2v5.85H200V81.34H210.1v5.92H192.79ZM190,104.55h6v43.16h-6.36l-8.53-27.12v27.12H175V104.55h7.13L190,129.31ZM173.57,44.1h7.25V81.34h8.66v5.92H173.57Zm-25,11.14c0-6.75,3.18-11.65,10.82-11.65,8,0,10.25,4.46,10.25,10.82V59.5H163V53.84c0-2.68-.88-4.2-3.49-4.2s-3.7,1.84-3.7,4.45V77.26c0,2.61,1.08,4.46,3.7,4.46s3.49-1.66,3.49-4.2v-8h6.63V77c0,6.17-2.55,10.75-10.25,10.75s-10.82-5-10.82-11.64Zm-45.51,66.23c0,16-7.16,26-25.58,26s-25.28-11.57-25.28-27.57V69.69c0-16.13,6.85-27.86,25.12-27.86,19.19,0,24.21,10.66,24.21,25.89V73.2H85.69V66.35c0-6.39-1.83-10-8.07-10S69.4,60.71,69.4,67V89.19h.14c2.6-5,7-8.38,14.32-8.38,12.49,0,19.19,8.53,19.19,25.43Zm51.23,26.24h-6.87l8.15-43.16h8.27L172,147.71H164.6l-1.34-7.9h-7.7ZM350.79,208.8l-29.2,188.72a2.14,2.14,0,0,1-2.13,1.85h-39l-2.61,30.69H294l-37.59,37.58-37.5-37.5,16.11,0-2.62-30.74h-38.3a2.18,2.18,0,0,1-2.14-1.82L160.73,208.8a2.1,2.1,0,0,1,2.14-2.49H348.62a2.25,2.25,0,0,1,1.68.73A2.22,2.22,0,0,1,350.79,208.8ZM354,147.71l-1.34-7.9H345l-1.28,7.9h-6.87L345,104.55h8.27l8.21,43.16Zm25.7-37.24h-6v37.24h-7.32V110.47h-6v-5.92h19.28Zm10.63,37.24h-7.25V104.55h7.25Zm-4.7-60.45-6.81-19.8v19.8H371.6V44.1h10.57c7.32,0,10,3.63,10,9.67v5.54c0,4.65-1.65,7.39-5.79,8.34l6.94,19.61Zm30.86,49.31c0,6.68-3.31,11.65-11,11.65s-10.95-5-10.95-11.65V115.69c0-6.75,3.31-11.65,10.95-11.65s11,4.9,11,11.65Zm25.13,11.14H435.3l-8.53-27.12v27.12h-6.11V104.55h7.13l7.83,24.76V104.55h6Z"/></svg>