<svg id="Layer_1" data-name="Layer 1" xmlns="http://www.w3.org/2000/svg" viewBox="0 0 512 512"><defs><style>.cls-1{fill:#fff;}</style></defs><title>7</title><polygon class="cls-1" points="298.35 55.17 298.28 55.17 295.42 72.48 301.21 72.48 298.35 55.17"/><path class="cls-1" d="M277,75.85V53.26c0-2.55-1.15-4.33-4.14-4.33h-3.05V80.24h3.05C275.88,80.24,277,78.46,277,75.85Z"/><path class="cls-1" d="M327.93,76.74V70.25c0-2.29-1.08-3.5-3.62-3.5h-3.12V80.24h3.18C326.79,80.24,327.93,79,327.93,76.74Z"/><path class="cls-1" d="M327.17,57.71V52.43c0-2.36-1.08-3.5-3.5-3.5h-2.48V61.21h2.55C326.09,61.21,327.17,60,327.17,57.71Z"/><polygon class="cls-1" points="222.11 115.61 222.05 115.61 219.19 132.93 224.98 132.93 222.11 115.61"/><path class="cls-1" d="M251.32,58.79V52.43c0-2.36-1.08-3.5-3.56-3.5h-2.42V62.36h2.42C250.24,62.36,251.32,61.09,251.32,58.79Z"/><path class="cls-1" d="M222.94,80.62c2.61,0,3.76-1.84,3.76-4.45V53c0-2.61-1.15-4.45-3.76-4.45s-3.69,1.84-3.69,4.45V76.17C219.25,78.78,220.39,80.62,222.94,80.62Z"/><path class="cls-1" d="M350.27,119.24v-6.36c0-2.36-1.08-3.5-3.57-3.5h-2.41v13.43h2.41C349.19,122.81,350.27,121.53,350.27,119.24Z"/><path class="cls-1" d="M447.81,48.93h-3.05V80.24h3.05c3,0,4.14-1.78,4.14-4.39V53.26C452,50.71,450.81,48.93,447.81,48.93Z"/><path class="cls-1" d="M256.22,308.69a5.67,5.67,0,0,0,5.56-5.21V277.71a5.59,5.59,0,0,0-11.15,0v25.77A5.7,5.7,0,0,0,256.22,308.69Z"/><path class="cls-1" d="M0,0V512H512V0ZM382.79,113.77v3.82h-6.62V113.2c0-2.68-1-4.21-3.63-4.21s-3.76,1.85-3.76,4.46v23.17c0,2.61,1.08,4.45,3.57,4.45s3.56-1.33,3.56-4.13V129.3h-3.44v-5.73h10.32v23h-5.22V141.9c-1,3.25-3,5.22-6.94,5.22-6.24,0-9.1-5-9.1-11.65V114.6c0-6.75,3.24-11.65,10.88-11.65C380.43,103,382.79,107.4,382.79,113.77Zm-126.6,134.3a75,75,0,1,1-75,75A75,75,0,0,1,256.19,248.07Zm-65.08-38.82a6.3,6.3,0,0,1,8.24,2l16.38,28.49a6.18,6.18,0,0,1-10.7,6.15l-16.38-28.48A6.31,6.31,0,0,1,191.11,209.25ZM284,121.72v5.86h-7.19v13.11h10.06v5.92H269.52V103.46h17.31v5.92H276.77v12.34ZM330.9,279.53c-1.7-3-.47-6.87,1.92-8.24l28.48-16.38a6.18,6.18,0,0,1,6.15,10.7L339,282A6.28,6.28,0,0,1,330.9,279.53Zm-.61-157.81v5.86H323.1v13.11h10v5.92H315.84V103.46h17.31v5.92h-10v12.34ZM358,43h17.31v5.92H365.28V61.28h7.2v5.85h-7.2V80.24h10.06v5.92H358Zm-19.22,0h7.26V80.24h8.65v5.92H338.81ZM337,103.46H347.6c7.32,0,10,3.63,10,9.67v5.54c0,4.64-1.66,7.38-5.79,8.34l6.93,19.6h-7.64l-6.8-19.79v19.79H337ZM313.93,43h10.51c7.25,0,9.67,3.37,9.67,9.48v4.39c0,3.63-1.34,5.92-4.33,6.88,3.63.83,5.41,3.25,5.41,7.19v5.73c0,6.11-2.74,9.48-10,9.48H313.93Zm7.15,166.11a6.3,6.3,0,0,1,2.46,8.11l-16.32,28.52A6.29,6.29,0,0,1,299,247.7c-3-1.7-3.87-5.69-2.5-8.08l16.32-28.52A6.33,6.33,0,0,1,321.08,209.12Zm-9.37-62.51h-6.36l-8.53-27.11v27.11h-6.11V103.46h7.12l7.83,24.76V103.46h6ZM294.46,43h8.28L311,86.16H303.5l-1.34-7.89h-7.7l-1.27,7.89h-6.87Zm-31.88,0h11.2c7.77,0,10.51,4.9,10.51,11.58v20c0,6.62-2.74,11.58-10.51,11.58h-11.2Zm-.21,154.67v32.87a6.28,6.28,0,0,1-6.15,5.76c-3.41,0-6.19-3-6.19-5.76V197.68a6.18,6.18,0,0,1,12.34,0ZM238.08,43h10.57c7.32,0,10,3.63,10,9.67v5.54c0,4.65-1.65,7.38-5.79,8.34l6.94,19.6h-7.64l-6.81-19.79V86.16h-7.26Zm-.38,60.45h7.13l7.83,24.76V103.46h6v43.15h-6.36l-8.53-27.11v27.11H237.7ZM212,54.15c0-6.75,3.31-11.65,10.95-11.65s11,4.9,11,11.65V75c0,6.68-3.31,11.65-11,11.65S212,81.7,212,75Zm6.24,49.31h8.27l8.21,43.15h-7.44l-1.34-7.89h-7.7L217,146.61h-6.88ZM192.46,43h17v5.92h-9.74V61.28H207v5.85h-7.26v19h-7.25ZM190,103.46h17.31v5.92h-10v12.34h7.19v5.86H197.3v13.11h10v5.92H190ZM172.29,43h17v5.92h-9.74V61.28h7.26v5.85h-7.26v19h-7.25Zm-1.47,60.45h7.26v37.23h8.66v5.92H170.82ZM152.82,43h8.27l8.21,43.15h-7.45l-1.33-7.89h-7.7l-1.28,7.89h-6.87Zm3.94,66c-2.61,0-3.69,1.85-3.69,4.46v23.17c0,2.61,1.08,4.45,3.69,4.45s3.5-1.65,3.5-4.2v-8h6.62v7.44c0,6.18-2.54,10.76-10.24,10.76s-10.83-5-10.83-11.65V114.6c0-6.75,3.19-11.65,10.83-11.65,8,0,10.24,4.45,10.24,10.82v5.09h-6.62V113.2C160.26,110.52,159.37,109,156.76,109Zm-13.9,148.59a6.3,6.3,0,0,1,8.11-2.45l28.52,16.32a6.18,6.18,0,0,1-6.13,10.71l-28.52-16.32A6.34,6.34,0,0,1,142.86,257.58ZM96.07,58.9,73.38,146.14H56.17L79.32,57.07H52.52V42.91H96.07Zm29.54,263.55a6.3,6.3,0,0,1,5.81-6.16h32.86a6.28,6.28,0,0,1,5.77,6.16c0,3.41-3,6.19-5.77,6.19H131.42A6.32,6.32,0,0,1,125.61,322.45Zm53.94,51.21L151.07,390a6.28,6.28,0,0,1-8.07-2.46c-1.7-3-.47-6.87,1.92-8.24L173.4,363a6.18,6.18,0,0,1,6.15,10.7Zm36.32,31.69-16.32,28.52a6.27,6.27,0,0,1-8.2,1.95c-3-1.7-3.87-5.7-2.51-8.08l16.32-28.52a6.18,6.18,0,0,1,10.71,6.13Zm46.5,41.94a6.28,6.28,0,0,1-6.15,5.77c-3.41,0-6.19-3-6.19-5.77V414.43a6.18,6.18,0,0,1,12.34,0Zm58.94-11.62a6.29,6.29,0,0,1-8.23-1.91l-16.37-28.49a6.18,6.18,0,0,1,10.69-6.16l16.38,28.49A6.28,6.28,0,0,1,321.31,435.67Zm48.24-48.35a6.28,6.28,0,0,1-8.07,2.5L333,373.5a6.18,6.18,0,0,1,6.13-10.71l28.52,16.32A6.27,6.27,0,0,1,369.55,387.32ZM381,328.64H348.17a6.19,6.19,0,0,1,0-12.35H381a6.28,6.28,0,0,1,5.77,6.16C386.8,325.86,383.79,328.64,381,328.64Zm18.43-198.45v16.42H392.2V130.19l-8.08-26.73h7.57l4.39,16.36h.07l4.39-16.36h6.93Zm2.48-44-1.34-7.89h-7.7l-1.27,7.89h-6.88L392.9,43h8.27l8.22,43.15Zm31.43,0H427l-8.53-27.11V86.16h-6.11V43h7.13l7.83,24.76V43h6Zm25.84-11.58c0,6.62-2.74,11.58-10.51,11.58H437.5V43h11.2c7.77,0,10.51,4.9,10.51,11.58Z"/><path class="cls-1" d="M256.2,361.56a39,39,0,0,0,11.53-76.32v14.51a25.55,25.55,0,1,1-23.13,0V285.25a39,39,0,0,0,11.6,76.31Z"/><polygon class="cls-1" points="156.7 55.17 156.64 55.17 153.77 72.48 159.56 72.48 156.7 55.17"/><polygon class="cls-1" points="396.72 55.17 393.85 72.48 399.64 72.48 396.78 55.17 396.72 55.17"/></svg>