<svg id="Layer_1" data-name="Layer 1" xmlns="http://www.w3.org/2000/svg" viewBox="0 0 512 512"><defs><style>.cls-1{fill:#fff;}</style></defs><title>8</title><path class="cls-1" d="M73.23,82.52c5.78,0,7.92-3.66,7.92-9.91v-7c0-6.25-2.14-9.91-7.92-9.91s-7.77,3.66-7.77,9.91v7C65.46,78.86,67.6,82.52,73.23,82.52Z"/><path class="cls-1" d="M150.74,75.85V53.26c0-2.55-1.14-4.33-4.13-4.33h-3.06V80.24h3.06C149.6,80.24,150.74,78.46,150.74,75.85Z"/><path class="cls-1" d="M368.11,109.38h-2.42v13.43h2.42c2.48,0,3.56-1.28,3.56-3.57v-6.36C371.67,110.52,370.59,109.38,368.11,109.38Z"/><path class="cls-1" d="M393.88,109c-2.54,0-3.69,1.85-3.69,4.46v23.17c0,2.61,1.15,4.45,3.69,4.45s3.76-1.84,3.76-4.45V113.45C397.64,110.84,396.49,109,393.88,109Z"/><path class="cls-1" d="M73.23,95.3c-6.1,0-8.38,4.42-8.38,10.66v16.75c0,6.25,2.28,10.66,8.38,10.66s8.52-4.41,8.52-10.66V106C81.75,99.72,79.47,95.3,73.23,95.3Z"/><path class="cls-1" d="M356.78,58.79V52.43c0-2.36-1.08-3.5-3.56-3.5H350.8V62.36h2.42C355.7,62.36,356.78,61.09,356.78,58.79Z"/><path class="cls-1" d="M240.34,113.45v23.17c0,2.61,1.14,4.45,3.69,4.45s3.76-1.84,3.76-4.45V113.45c0-2.61-1.15-4.46-3.76-4.46S240.34,110.84,240.34,113.45Z"/><path class="cls-1" d="M328.4,80.62c2.61,0,3.76-1.84,3.76-4.45V53c0-2.61-1.15-4.45-3.76-4.45s-3.69,1.84-3.69,4.45V76.17C324.71,78.78,325.86,80.62,328.4,80.62Z"/><path class="cls-1" d="M192.8,141.07c2.61,0,3.76-1.84,3.76-4.45V113.45c0-2.61-1.15-4.46-3.76-4.46s-3.69,1.85-3.69,4.46v23.17C189.11,139.23,190.26,141.07,192.8,141.07Z"/><path class="cls-1" d="M0,0V512H512V0ZM343.54,43h10.57c7.32,0,10,3.63,10,9.67v5.54c0,4.65-1.65,7.38-5.79,8.34l6.94,19.6h-7.64L350.8,66.37V86.16h-7.26Zm.52,66c-2.61,0-3.75,1.85-3.75,4.46v23.17c0,2.61,1.08,4.45,3.56,4.45s3.56-1.33,3.56-4.13V129.3H344v-5.73h10.31v23h-5.22V141.9c-1,3.25-3,5.22-6.94,5.22-6.24,0-9.1-5-9.1-11.65V114.6c0-6.75,3.24-11.65,10.88-11.65,8,0,10.38,4.45,10.38,10.82v3.82h-6.62V113.2C347.69,110.52,346.67,109,344.06,109ZM317.45,54.15c0-6.75,3.31-11.65,10.95-11.65s11,4.9,11,11.65V75c0,6.68-3.32,11.65-11,11.65s-10.95-5-10.95-11.65ZM312.31,109c-2.61,0-3.69,1.85-3.69,4.46v23.17c0,2.61,1.08,4.45,3.69,4.45s3.5-1.65,3.5-4.2v-8h6.62v7.44c0,6.18-2.55,10.76-10.25,10.76s-10.82-5-10.82-11.65V114.6c0-6.75,3.18-11.65,10.82-11.65,8,0,10.25,4.45,10.25,10.82v5.09h-6.62V113.2C315.81,110.52,314.92,109,312.31,109Zm-23.8-66,3.37,27.37h.06L295.57,43h5.92l4,27.37h.07L308.87,43H315l-5.61,43.15h-6.87l-4.27-26.67h-.06l-4.07,26.67H287.3L281.5,43Zm8.65,60.45v43.15H289.9V103.46Zm-11.38,0v43.15h-6.62v-28H279l-4.91,28h-3.37l-5.41-28h-.13v28h-6V103.46h8.47l4.71,24.31h.06l4.2-24.31ZM253.19,43h19.28v5.92h-6V86.16h-7.32V48.93h-6ZM255,114.6v20.87c0,6.68-3.31,11.65-11,11.65s-10.95-5-10.95-11.65V114.6c0-6.75,3.31-11.65,10.95-11.65S255,107.85,255,114.6ZM228.88,43H236l7.83,24.76V43h6V86.16h-6.37L235,59.05V86.16h-6.11Zm.07,60.45v43.15h-6.36l-8.53-27.11v27.11H208V103.46h7.13l7.82,24.76V103.46ZM207.69,43H225v5.92H215V61.28h7.19v5.85H215V80.24H225v5.92H207.69Zm-25,11.14c0-6.75,3.19-11.65,10.82-11.65,8,0,10.25,4.46,10.25,10.82v5.09h-6.62V52.75c0-2.68-.89-4.2-3.5-4.2s-3.69,1.84-3.69,4.45V76.17c0,2.61,1.08,4.45,3.69,4.45s3.5-1.65,3.5-4.2v-8h6.62v7.44c0,6.18-2.54,10.76-10.25,10.76s-10.82-5-10.82-11.65Zm-.82,60.45c0-6.75,3.31-11.65,10.94-11.65s11,4.9,11,11.65v20.87c0,6.68-3.32,11.65-11,11.65s-10.94-5-10.94-11.65ZM162.13,43h17.31v5.92H169.39V61.28h7.19v5.85h-7.19V80.24h10.05v5.92H162.13ZM167.67,103c8,0,10.25,4.45,10.25,10.82v5.09H171.3V113.2c0-2.68-.89-4.21-3.5-4.21s-3.69,1.85-3.69,4.46v23.17c0,2.61,1.08,4.45,3.69,4.45s3.5-1.65,3.5-4.2v-8h6.62v7.44c0,6.18-2.55,10.76-10.25,10.76s-10.82-5-10.82-11.65V114.6C156.85,107.85,160,103,167.67,103ZM136.29,43H147.5c7.76,0,10.5,4.9,10.5,11.58v20c0,6.62-2.74,11.58-10.5,11.58H136.29Zm0,60.45h17.32v5.92H143.55v12.34h7.19v5.86h-7.19v13.11h10.06v5.92H136.29ZM99.11,120.88c0,15.68-7.46,26.65-25.88,26.65s-25.74-11-25.74-26.65V109.61c0-9.89,3.35-17,11.42-20.71-6.69-3.34-9.74-9.58-9.74-18V66.67c0-16.13,8.23-24.81,24.06-24.81,16,0,24.36,8.68,24.36,24.81v4.27c0,8.53-3.2,14.62-10,18,8.07,3.66,11.57,10.82,11.57,20.71ZM207.53,447.59a3,3,0,0,1-3,3H150.81a3,3,0,0,1-3-3V373.33c0-4,1-5.48,3-7.43l52-49.5c3.39-3.4,4.68-.4,4.68,1.24Zm75.57,0a3,3,0,0,1-3,3H226.37a3,3,0,0,1-3-3V328c0-1.64.9-5,5.08-.85l22.81,23.25a1.2,1.2,0,0,0,1.62.06l25.18-25.39c3.7-3.69,5-.69,5,.94Zm74.35,0a3,3,0,0,1-3,3H300.74a3,3,0,0,1-3-3V308.84c0-4,1-5.48,3-7.43l52-49.51c3.39-3.38,4.67-.39,4.67,1.25Zm19-255.29L367.66,233v.13a1.46,1.46,0,0,1-.43,1,1.5,1.5,0,0,1-2.13,0l-9.56-9.55L253.06,327a1.2,1.2,0,0,1-1.7,0L240,315.71a.94.94,0,0,1-.1-.14L209.68,285.3l-66,66a1.2,1.2,0,0,1-1.68,0L130.65,340a1.2,1.2,0,0,1,0-1.7l66.85-66.84h0l11.31-11.32a1.18,1.18,0,0,1,1.7,0l41.7,41.71,90.3-90.3-9.1-9.1L333,202a1.51,1.51,0,0,1,0-2.14,1.61,1.61,0,0,1,.77-.41l.73-.07,39.85-9,.42,0,.29,0a1.59,1.59,0,0,1,1,.43,1.46,1.46,0,0,1,.44,1.12Zm-3.91-45.69-6.81-19.79v19.79h-7.25V103.46H369c7.32,0,10,3.63,10,9.67v5.54c0,4.64-1.65,7.38-5.79,8.34l6.94,19.6Zm2.8-81.45v21H368V43h7.26V62l7.89-19h7.13l-8.4,19.41,8.59,23.74h-7.64Zm29.59,70.31c0,6.68-3.3,11.65-11,11.65s-10.94-5-10.94-11.65V114.6c0-6.75,3.3-11.65,10.94-11.65s11,4.9,11,11.65Zm.76-49.31h-6.87L406.93,43h8.27l8.21,43.15H416l-1.33-7.89h-7.7Zm29.6,60.45h-6.87l-4.27-26.67h-.06L420,146.61h-6.82l-5.79-43.15h7l3.38,27.37h.06l3.63-27.37h5.92l4,27.37h.06l3.31-27.37h6.11Zm-2.74-87.56V86.16h-6.12V43h7.13l7.83,24.76V43h6V86.16H441Zm29.91,50.33h-6v37.23h-7.31V109.38h-6v-5.92h19.29ZM451.53,86.16V43h11.2c7.77,0,10.5,4.9,10.5,11.58v20c0,6.62-2.73,11.58-10.5,11.58Zm35.83,60.45H480v-19h-7v19h-7.26V103.46H473v18.26h7V103.46h7.32Z"/><path class="cls-1" d="M461.84,48.93h-3V80.24h3c3,0,4.14-1.78,4.14-4.39V53.26C466,50.71,464.83,48.93,461.84,48.93Z"/><polygon class="cls-1" points="410.75 55.17 407.88 72.48 413.67 72.48 410.81 55.17 410.75 55.17"/></svg>