<svg id="Layer_1" data-name="Layer 1" xmlns="http://www.w3.org/2000/svg" viewBox="0 0 512 512"><defs><style>.cls-1{fill:#fff;}</style></defs><title>9</title><polygon class="cls-1" points="203.58 238.32 203.58 296.61 254.05 267.46 203.58 238.32"/><polygon class="cls-1" points="140.65 410.41 195.27 441.94 195.27 378.87 140.65 347.32 140.65 410.41"/><polygon class="cls-1" points="266.51 274.66 266.51 332.94 316.98 303.8 266.51 274.66"/><polygon class="cls-1" points="258.2 405.61 258.2 347.32 207.73 376.47 258.2 405.61"/><polygon class="cls-1" points="203.58 441.94 254.05 412.8 203.58 383.66 203.58 441.94"/><polygon class="cls-1" points="321.13 238.32 270.66 267.46 321.13 296.61 321.13 238.32"/><path class="cls-1" d="M72,55.49c-6,0-8.37,3.8-8.37,10.35v18c0,6.7,2.28,10.35,8.21,10.35,5.48,0,7.91-3.65,8.22-9.43V65.84C80.08,59.45,77.8,55.49,72,55.49Z"/><polygon class="cls-1" points="133.13 115.61 130.27 132.93 136.06 132.93 133.2 115.61 133.13 115.61"/><polygon class="cls-1" points="283.81 115.61 283.75 115.61 280.89 132.93 286.68 132.93 283.81 115.61"/><path class="cls-1" d="M348,109.38H345.6v13.43H348c2.48,0,3.56-1.28,3.56-3.57v-6.36C351.58,110.52,350.5,109.38,348,109.38Z"/><path class="cls-1" d="M260,109.38h-2.42v13.43H260c2.48,0,3.56-1.28,3.56-3.57v-6.36C263.51,110.52,262.43,109.38,260,109.38Z"/><path class="cls-1" d="M169.66,75.85V53.26c0-2.55-1.15-4.33-4.14-4.33h-3.05V80.24h3.05C168.51,80.24,169.66,78.46,169.66,75.85Z"/><path class="cls-1" d="M180.54,109.38h-3.06v31.31h3.06c3,0,4.14-1.78,4.14-4.39V113.71C184.68,111.16,183.53,109.38,180.54,109.38Z"/><path class="cls-1" d="M257.22,58.79V52.43c0-2.36-1.09-3.5-3.57-3.5h-2.42V62.36h2.42C256.13,62.36,257.22,61.09,257.22,58.79Z"/><polygon class="cls-1" points="258.2 332.94 258.2 274.66 207.73 303.8 258.2 332.94"/><path class="cls-1" d="M461,48.55c-2.55,0-3.69,1.84-3.69,4.45V76.17c0,2.61,1.14,4.45,3.69,4.45s3.76-1.84,3.76-4.45V53C464.79,50.39,463.64,48.55,461,48.55Z"/><polygon class="cls-1" points="325.28 308.6 270.66 340.13 325.28 371.67 379.92 340.13 325.28 308.6"/><path class="cls-1" d="M366.47,80.62c2.61,0,3.76-1.84,3.76-4.45V53c0-2.61-1.15-4.45-3.76-4.45s-3.69,1.84-3.69,4.45V76.17C362.78,78.78,363.92,80.62,366.47,80.62Z"/><path class="cls-1" d="M459.88,109.38h-2.42v13.43h2.42c2.48,0,3.56-1.28,3.56-3.57v-6.36C463.44,110.52,462.36,109.38,459.88,109.38Z"/><polygon class="cls-1" points="409.93 55.17 409.87 55.17 407 72.48 412.8 72.48 409.93 55.17"/><path class="cls-1" d="M0,0V512H512V0ZM440.47,43h7.26V86.16h-7.26Zm-26.15,0,8.22,43.15h-7.45l-1.34-7.89h-7.7l-1.27,7.89H397.9L406.05,43ZM384.8,43l5,30.11h.07L394.92,43h6.81l-8.21,43.15h-7.9L377.41,43Zm-13,98.06c2.54,0,3.56-1.71,3.56-4.26V103.46h6.68v32.65c0,6.68-2.86,11-10.24,11-7.64,0-10.82-4.33-10.82-11V103.46h7.25v33.35C368.25,139.36,369.27,141.07,371.82,141.07Zm-16.3-86.92c0-6.75,3.31-11.65,11-11.65s11,4.9,11,11.65V75c0,6.68-3.31,11.65-11,11.65s-11-5-11-11.65Zm4.53,92.46h-7.64l-6.81-19.79v19.79h-7.26V103.46h10.57c7.32,0,10,3.63,10,9.67v5.54c0,4.64-1.65,7.38-5.79,8.34ZM332.23,43h7.13l7.83,24.76V43h6.05V86.16h-6.37l-8.53-27.11V86.16h-6.11Zm-14.69,66.37v-5.92h19.28v5.92h-6v37.23h-7.32V109.38ZM309,43h7.12l7.83,24.76V43H330V86.16h-6.36l-8.53-27.11V86.16H309Zm-9.61,0h7.25V86.16h-7.25Zm-2.8,88.52h6.74v5.92c0,2.42,1.09,3.82,3.57,3.82,2.29,0,3.31-1.53,3.31-3.82v-1.66c0-2.48-1-4-3.25-6.11l-4.26-4.26c-4.14-4.07-6-6.56-6-11.52v-1.47c0-5.34,3.12-9.48,10.18-9.48,7.26,0,10.13,3.56,10.13,9.8v3.5h-6.62V112.5c0-2.49-1.15-3.7-3.44-3.7-2,0-3.44,1.15-3.44,3.57v.89c0,2.42,1.34,3.82,3.44,5.85l4.65,4.59c3.94,4,5.85,6.43,5.85,11.2V137c0,5.92-3.18,10.12-10.57,10.12s-10.24-4.14-10.24-9.8Zm-24.75,15.08h-7.45l-6.81-19.79v19.79h-7.25V103.46h10.56c7.32,0,10,3.63,10,9.67v5.54c0,4.64-1.65,7.38-5.79,8.34l6.81,19.24,8.08-42.79h8.28l8.21,43.15H289l-1.34-7.89h-7.7l-1.27,7.89H272l-.13-.36ZM292.21,79.8l-3.69,9.74h-4.07l.89-10.31h6.87ZM272,43l4.39,16.36h.07L280.89,43h6.94l-8,26.73V86.16h-7.26V69.74L264.47,43ZM244,43h10.56c7.32,0,10,3.63,10,9.67v5.54c0,4.65-1.66,7.38-5.8,8.34l6.94,19.6H258l-6.81-19.79V86.16H244Zm2.48,78.71v5.86h-7.25v19H232V103.46h17v5.92h-9.74v12.34ZM223.17,43h19.29v5.92h-6V86.16h-7.32V48.93h-6Zm6.5,60.45v43.15H223.3l-8.53-27.11v27.11h-6.11V103.46h7.13l7.83,24.76V103.46Zm-27.5-32.38h6.75V77c0,2.42,1.08,3.82,3.56,3.82,2.29,0,3.31-1.53,3.31-3.82V75.34c0-2.48-1-4-3.24-6.11L208.28,65c-4.14-4.07-6.05-6.56-6.05-11.52V52c0-5.34,3.12-9.48,10.19-9.48,7.25,0,10.12,3.56,10.12,9.8v3.5h-6.62V52.05c0-2.49-1.15-3.69-3.44-3.69-2,0-3.44,1.14-3.44,3.56v.89c0,2.42,1.34,3.82,3.44,5.86l4.65,4.58c3.94,4,5.85,6.43,5.85,11.2v2.1c0,5.92-3.18,10.12-10.56,10.12s-10.25-4.14-10.25-9.8Zm4.14,32.38v43.15h-7.26V103.46ZM179.2,43h7.26V76.36c0,2.55,1,4.26,3.56,4.26s3.57-1.71,3.57-4.26V43h6.68V75.66c0,6.68-2.86,11-10.25,11-7.64,0-10.82-4.33-10.82-11Zm12.73,72v20c0,6.62-2.73,11.58-10.5,11.58h-11.2V103.46h11.2C189.2,103.46,191.93,108.36,191.93,115ZM155.21,43h11.2c7.77,0,10.51,4.9,10.51,11.58v20c0,6.62-2.74,11.58-10.51,11.58h-11.2Zm6.69,85.21V103.46h6v43.15h-6.36l-8.53-27.11v27.11h-6.11V103.46h7.13ZM131.92,43h7.13l7.83,24.76V43h6.05V86.16h-6.37L138,59.05V86.16h-6.11Zm-9.61,0h7.26V86.16h-7.26Zm-25,76.09C97.28,135.24,90,147,71.71,147c-19.17,0-24.66-10.65-24.66-25.86v-5.48H62.88v6.84c0,6.39,2.28,10,8.53,10s8.67-4.42,8.67-10.66V99.63h-.15c-2.59,5-7,8.36-14.3,8.36-12.49,0-19.18-8.51-19.18-25.41V67.36c0-16,7.15-26,25.57-26,18.26,0,25.26,11.56,25.26,27.55ZM128,146.61h-6.87l8.15-43.15h8.27l8.21,43.15h-7.45L137,138.72h-7.7ZM392.37,412.8a4.15,4.15,0,0,1-2.07,3.6l-62.94,36.33a4.18,4.18,0,0,1-2.08.55,4.11,4.11,0,0,1-2.07-.55L262.36,417.6,201.5,452.73a4.19,4.19,0,0,1-4.15,0L134.42,416.4a4.14,4.14,0,0,1-2.08-3.6V340.13a4.14,4.14,0,0,1,2.08-3.6l60.85-35.12V231.13a4.14,4.14,0,0,1,2.08-3.59l62.93-36.33a4.16,4.16,0,0,1,4.15,0l62.93,36.33a4.15,4.15,0,0,1,2.07,3.59v70.28l60.87,35.12a4.15,4.15,0,0,1,2.07,3.6Zm13.05-293.94H398.8V113.2c0-2.68-.89-4.21-3.5-4.21s-3.69,1.85-3.69,4.46v23.17c0,2.61,1.08,4.45,3.69,4.45s3.5-1.65,3.5-4.2v-8h6.62v7.44c0,6.18-2.55,10.76-10.25,10.76s-10.82-5-10.82-11.65V114.6c0-6.75,3.18-11.65,10.82-11.65,8,0,10.25,4.45,10.25,10.82Zm19.91-9.48h-6v37.23H412V109.38h-6v-5.92h19.28Zm-5.66-60.45V43H439v5.92h-6V86.16h-7.32V48.93Zm28.25,87.18c0,6.68-2.86,11-10.24,11-7.64,0-10.83-4.33-10.83-11V103.46h7.26v33.35c0,2.55,1,4.26,3.57,4.26s3.56-1.71,3.56-4.26V103.46h6.68Zm16.35,10.5-6.81-19.79v19.79h-7.25V103.46h10.56c7.32,0,10,3.63,10,9.67v5.54c0,4.64-1.65,7.38-5.79,8.34l6.94,19.6ZM472,75c0,6.68-3.31,11.65-11,11.65s-10.95-5-10.95-11.65V54.15c0-6.75,3.31-11.65,10.95-11.65s11,4.9,11,11.65Zm18.13,34.36H480.12v12.34h7.19v5.86h-7.19v13.11h10.05v5.92H472.86V103.46h17.31Zm5.16-23.22H489l-8.53-27.11V86.16h-6.12V43h7.13l7.83,24.76V43h6.05Z"/><polygon class="cls-1" points="329.43 441.94 384.07 410.41 384.07 347.32 329.43 378.87 329.43 441.94"/></svg>